<?xml version="1.0" encoding="utf-8"?>
<!-- Generator: Adobe Illustrator 26.1.0, SVG Export Plug-In . SVG Version: 6.00 Build 0)  -->
<svg version="1.1" id="Warstwa_1" xmlns="http://www.w3.org/2000/svg" xmlns:xlink="http://www.w3.org/1999/xlink" x="0px" y="0px"
	 viewBox="0 0 4000 2500" enable-background="new 0 0 4000 2500" xml:space="preserve">
<g id="Background" display="none">
	<g display="inline">
		<g>
			<g>
				<defs>
					<rect id="SVGID_1_" width="4000" height="2500"/>
				</defs>
				<clipPath id="SVGID_00000156575692004046835170000004129657849671652257_">
					<use xlink:href="#SVGID_1_"  overflow="visible"/>
				</clipPath>
				
					<rect clip-path="url(#SVGID_00000156575692004046835170000004129657849671652257_)" fill="#151619" width="4000" height="2500"/>
			</g>
			<g>
				<defs>
					<rect id="SVGID_00000046319872726703010750000001732087552118611878_" width="4000" height="2500"/>
				</defs>
				<clipPath id="SVGID_00000150085562628410914060000006069542331831799705_">
					<use xlink:href="#SVGID_00000046319872726703010750000001732087552118611878_"  overflow="visible"/>
				</clipPath>
				<path clip-path="url(#SVGID_00000150085562628410914060000006069542331831799705_)" fill="#151619" d="M4001,1355v919.8V2501H-1
					V97.7h-1.3c2.7-4,5.5-8,8.2-12c11-16,22.2-31.8,33.5-47.6c5.7-7.9,11.4-15.7,17.2-23.5c2.9-3.9,5.8-7.8,8.7-11.7
					C66.8,1,68.2-1,69.7-2.9V-1H4001V1355z"/>
			</g>
			<g>
				<defs>
					<rect id="SVGID_00000117669878620306495870000003614121994935239347_" width="4000" height="2500"/>
				</defs>
				<clipPath id="SVGID_00000092441019205036015880000003172162624545973422_">
					<use xlink:href="#SVGID_00000117669878620306495870000003614121994935239347_"  overflow="visible"/>
				</clipPath>
				<path clip-path="url(#SVGID_00000092441019205036015880000003172162624545973422_)" fill="#18191B" d="M4001,1355.1v854.1V2501
					H137.9v6.8c-2.5-3.8-5-7.5-7.4-11.3c-19.7-30.1-38.6-60.8-56.8-91.8s-35.5-62.6-52.1-94.5c-8.3-16-16.4-32.1-24.2-48.3H-1V456.2
					h-3.2C3.7,440,11.7,423.9,20,407.9c16.5-32,33.8-63.5,51.9-94.6c36.2-62.2,75.5-122.6,117.8-181c21.1-29.2,43-57.9,65.6-86.1
					c11.3-14.1,22.7-28,34.4-41.9c2.9-3.5,5.8-6.9,8.8-10.3v5h3691.1v-3c1.5,1.7,2.9,3.4,4.4,5.2c2.9,3.5,5.8,6.9,8.7,10.4h-1.6
					L4001,1355.1L4001,1355.1z"/>
			</g>
			<g>
				<defs>
					<rect id="SVGID_00000031893206863793973080000014854473110647401904_" width="4000" height="2500"/>
				</defs>
				<clipPath id="SVGID_00000035532243879447906680000014643572959028703157_">
					<use xlink:href="#SVGID_00000031893206863793973080000014854473110647401904_"  overflow="visible"/>
				</clipPath>
				<path clip-path="url(#SVGID_00000035532243879447906680000014643572959028703157_)" fill="#1B1B1D" d="M4001,1355.3v788.4v261.9
					h1.4c-18.1,27.9-37,55.3-56.5,82.2c-4.9,6.7-9.8,13.4-14.8,20.1v-7H349.2l0,0c-2.5-3.4-4.9-6.7-7.4-10.1
					c-78.2-107.7-145.6-222.7-200.7-343.8s-97.9-248.2-127-380C7,1734.2,0.6,1701-5,1667.4h4v-616.8h-4.5
					c5.5-33.5,11.8-66.8,19-99.7c28.8-131.9,71.4-259,126.3-380.2s122.1-236.4,200.1-344.2c39-53.9,80.7-106,125-156
					C487,45.5,509.7,21,533.1-3v2h3217.2v-4.8c23.4,24,46.2,48.4,68.4,73.4c44.3,50,86.1,102,125.2,155.8
					c19.6,26.9,38.4,54.3,56.6,82.1c2.3,3.5,4.5,7,6.8,10.5h-6.3L4001,1355.3L4001,1355.3z"/>
			</g>
			<g>
				<defs>
					<rect id="SVGID_00000064340660736245706710000002621028948481097369_" width="4000" height="2500"/>
				</defs>
				<clipPath id="SVGID_00000076602043541246504550000007692636720781370554_">
					<use xlink:href="#SVGID_00000064340660736245706710000002621028948481097369_"  overflow="visible"/>
				</clipPath>
				<path clip-path="url(#SVGID_00000076602043541246504550000007692636720781370554_)" fill="#1D1D1F" d="M4001,1355.4v374.1V2015
					h5.2c-2.9,7.1-5.8,14.1-8.8,21.1c-5.9,14.1-12,28-18.3,41.9c-50.3,111.1-111.9,216.7-183.4,315.5c-17.9,24.7-36.4,49-55.5,72.8
					c-9.5,11.9-19.2,23.7-29.1,35.4v-0.9H576.7v3.6c-9.9-11.7-19.6-23.5-29.2-35.4c-19.1-23.8-37.7-48.1-55.6-72.7
					c-71.7-98.7-133.4-204.2-183.9-315.2c-101-222-157-466.1-157.2-722.4C150.4,846.3,372.9,382,733.2,45.8
					c11.3-10.5,22.6-20.9,34.2-31.1c5.8-5.1,11.6-10.2,17.4-15.3c1.5-1.3,2.9-2.5,4.4-3.8V-1h2709.7v-2c5.8,5.1,11.6,10.1,17.4,15.3
					c11.5,10.2,22.9,20.6,34.2,31.1C3730.8,211.2,3876.8,411,3977.8,633c6.3,13.9,12.4,27.8,18.4,41.9c3,7,5.9,14.1,8.8,21.1h-4
					V1355.4z"/>
			</g>
			<g>
				<defs>
					<rect id="SVGID_00000072981230177910010250000003757173253900657595_" width="4000" height="2500"/>
				</defs>
				<clipPath id="SVGID_00000009582472261335211870000004919394796201285297_">
					<use xlink:href="#SVGID_00000072981230177910010250000003757173253900657595_"  overflow="visible"/>
				</clipPath>
				<path clip-path="url(#SVGID_00000009582472261335211870000004919394796201285297_)" fill="#1F1F20" d="M3953.9,1355.6
					c0.2,233-50.3,455-141.7,657c-45.7,101-101.7,197-166.7,286.8c-32.5,44.9-67.3,88.3-104.1,130c-18.4,20.9-37.4,41.3-56.9,61.3
					c-4.9,5-9.8,10-14.7,14.9v-4.6H818.1v6.9c-4.9-4.9-9.8-9.9-14.7-14.9c-19.5-20-38.5-40.4-57-61.2
					c-36.9-41.6-71.8-85-104.4-129.8c-65.2-89.7-121.3-185.6-167.2-286.5c-91.8-201.8-142.7-423.7-142.9-656.7
					c-0.4-466,201.9-888.1,529.4-1193.7c40.9-38.2,83.8-74.6,128.5-109c22.3-17.2,45.1-33.9,68.4-50.2c5.8-4.1,11.6-8.1,17.5-12.1
					V-1h2140.8v-1.1c2.9,2,5.8,4,8.7,6c23.3,16.2,46.1,32.9,68.5,50c44.8,34.4,87.7,70.7,128.7,108.8
					C3750.4,467.9,3953.5,889.6,3953.9,1355.6z"/>
			</g>
			<g>
				<defs>
					<rect id="SVGID_00000004546725075598198420000010497123571813183374_" width="4000" height="2500"/>
				</defs>
				<clipPath id="SVGID_00000147942505955463008210000004889789783538136720_">
					<use xlink:href="#SVGID_00000004546725075598198420000010497123571813183374_"  overflow="visible"/>
				</clipPath>
				<path clip-path="url(#SVGID_00000147942505955463008210000004889789783538136720_)" fill="#202021" d="M3772.8,1355.8
					c0.4,419.4-181.7,799.3-476.4,1074.4c-18.4,17.2-37.3,34-56.6,50.3c-9.6,8.2-19.4,16.3-29.2,24.2v-3.7H1077.3v5.5
					c-9.9-7.9-19.6-16-29.3-24.2c-19.3-16.3-38.2-33.1-56.6-50.2C696.1,2157.5,513.4,1778,513,1358.6S694.7,559.3,989.4,284.2
					c73.7-68.8,154.4-131,241.1-185.7c43.3-27.3,88.1-52.8,134.3-76.2c11.5-5.9,23.2-11.6,34.9-17.2c5.9-2.8,11.7-5.6,17.6-8.3V-1
					H2866v-3.4c5.9,2.7,11.8,5.5,17.6,8.3c11.7,5.6,23.4,11.3,34.9,17.1c46.2,23.3,91.1,48.7,134.4,76
					c86.8,54.5,167.6,116.6,241.4,185.2C3589.7,556.8,3772.4,936.4,3772.8,1355.8z"/>
			</g>
			<g>
				<defs>
					<rect id="SVGID_00000066489621614428790040000002532552594193354395_" width="4000" height="2500"/>
				</defs>
				<clipPath id="SVGID_00000047746335314567277100000008085070902583676338_">
					<use xlink:href="#SVGID_00000066489621614428790040000002532552594193354395_"  overflow="visible"/>
				</clipPath>
				<path clip-path="url(#SVGID_00000047746335314567277100000008085070902583676338_)" fill="#212122" d="M3591.7,1355.9
					c0.3,372.8-161.5,710.5-423.5,955c-65.5,61.1-137.2,116.4-214.3,165c-9.6,6.1-19.3,12-29.1,17.9c-4.9,2.9-9.8,5.8-14.7,8.7v-1.6
					H1377.8v2.9c-4.9-2.9-9.9-5.8-14.8-8.7c-9.8-5.8-19.5-11.8-29.2-17.9c-77.1-48.5-149-103.6-214.6-164.7
					c-262.4-244.1-424.8-581.4-425.2-954.2C693.5,612.8,1341.6,7.8,2141.7,7.1C2941.9,6.4,3591,610.3,3591.7,1355.9z"/>
			</g>
			<g>
				<defs>
					<rect id="SVGID_00000127035445849912791370000010665582027720196003_" width="4000" height="2500"/>
				</defs>
				<clipPath id="SVGID_00000096028575920419280880000017139536573862811308_">
					<use xlink:href="#SVGID_00000127035445849912791370000010665582027720196003_"  overflow="visible"/>
				</clipPath>
				<path clip-path="url(#SVGID_00000096028575920419280880000017139536573862811308_)" fill="#222222" d="M3410.6,1356.1
					c0.3,326.2-141.4,621.6-370.6,835.6c-114.6,107-251.1,193.6-402.7,253.5c-37.9,15-76.7,28.3-116.4,39.8
					c-19.8,5.8-39.9,11.1-60.1,16c-10.1,2.4-20.3,4.8-30.5,7v-7h-603.1v0.5c-20.3-4.8-40.3-10.1-60.2-15.9
					c-39.7-11.5-78.6-24.7-116.5-39.6c-151.7-59.6-288.4-146-403.2-252.8c-229.6-213.6-371.7-508.8-372-835
					C874.7,705.8,1441.8,176.4,2142,175.8C2842,175.3,3410,703.7,3410.6,1356.1z"/>
			</g>
			<g>
				<defs>
					<rect id="SVGID_00000098936583037828638140000005818942335031199925_" width="4000" height="2500"/>
				</defs>
				<clipPath id="SVGID_00000124146529458720907990000001187982122623326348_">
					<use xlink:href="#SVGID_00000098936583037828638140000005818942335031199925_"  overflow="visible"/>
				</clipPath>
				
					<ellipse clip-path="url(#SVGID_00000124146529458720907990000001187982122623326348_)" fill="#222223" cx="2142.9" cy="1357.2" rx="1086.6" ry="1012.5"/>
			</g>
			<g>
				<defs>
					<rect id="SVGID_00000057838656012806313890000014019847574375937164_" width="4000" height="2500"/>
				</defs>
				<clipPath id="SVGID_00000100353523083803706610000002372257878963324835_">
					<use xlink:href="#SVGID_00000057838656012806313890000014019847574375937164_"  overflow="visible"/>
				</clipPath>
				
					<ellipse clip-path="url(#SVGID_00000100353523083803706610000002372257878963324835_)" fill="#232323" cx="2142.9" cy="1357.2" rx="905.5" ry="843.8"/>
			</g>
			<g>
				<defs>
					<rect id="SVGID_00000132085407982620506840000005350342919870441860_" width="4000" height="2500"/>
				</defs>
				<clipPath id="SVGID_00000115491308682065404650000010814008123981994630_">
					<use xlink:href="#SVGID_00000132085407982620506840000005350342919870441860_"  overflow="visible"/>
				</clipPath>
				
					<ellipse clip-path="url(#SVGID_00000115491308682065404650000010814008123981994630_)" fill="#232323" cx="2142.9" cy="1357.2" rx="724.4" ry="675"/>
			</g>
			<g>
				<defs>
					<rect id="SVGID_00000059991365206327031790000013471534729301393319_" width="4000" height="2500"/>
				</defs>
				<clipPath id="SVGID_00000169549812319252878220000004974766934237068182_">
					<use xlink:href="#SVGID_00000059991365206327031790000013471534729301393319_"  overflow="visible"/>
				</clipPath>
				
					<ellipse clip-path="url(#SVGID_00000169549812319252878220000004974766934237068182_)" fill="#232323" cx="2142.9" cy="1357.2" rx="543.3" ry="506.3"/>
			</g>
			<g>
				<defs>
					<rect id="SVGID_00000137113995504540454470000007536853355830737810_" width="4000" height="2500"/>
				</defs>
				<clipPath id="SVGID_00000064320216787740418020000009974062918263175324_">
					<use xlink:href="#SVGID_00000137113995504540454470000007536853355830737810_"  overflow="visible"/>
				</clipPath>
				
					<ellipse clip-path="url(#SVGID_00000064320216787740418020000009974062918263175324_)" fill="#232323" cx="2142.9" cy="1357.2" rx="362.2" ry="337.5"/>
			</g>
			<g>
				<defs>
					<rect id="SVGID_00000041998927561949278000000010865050321980307590_" width="4000" height="2500"/>
				</defs>
				<clipPath id="SVGID_00000158741558073329656390000012136114172641918618_">
					<use xlink:href="#SVGID_00000041998927561949278000000010865050321980307590_"  overflow="visible"/>
				</clipPath>
				
					<ellipse clip-path="url(#SVGID_00000158741558073329656390000012136114172641918618_)" fill="#232323" cx="2142.9" cy="1357.2" rx="181.1" ry="168.8"/>
			</g>
		</g>
	</g>
</g>
<g id="Object">
	<g>
		<g>
			<g>
				<defs>
					<rect id="SVGID_00000102532409135737940650000010043223898120105344_" width="4000" height="2500"/>
				</defs>
				<clipPath id="SVGID_00000009583511568517470210000009363899752696233913_">
					<use xlink:href="#SVGID_00000102532409135737940650000010043223898120105344_"  overflow="visible"/>
				</clipPath>
				<g opacity="0.1" clip-path="url(#SVGID_00000009583511568517470210000009363899752696233913_)">
					<path display="none" fill="#FED7A5" d="M1298.9-1124.6c-14.6,5.2-29,11.4-43.1,18.4c-1.9,0.9-0.4,4.5,1.5,3.6
						c54.9-24.9,115.1-36.7,175.3-31.1c51.9,4.8,103.4,22.3,150.7,50.8c41.1,24.9,79.6,58.4,110.4,99.9
						c13.1,17.6,24.8,36.6,34.1,57.3c10,22.2,15.4,44.8,19.6,69c28.1,165.7-2.5,330.3-8.2,494.4c-2.7,80,0.7,160.7,17.4,239.9
						c15.1,71,40.3,140.4,77.2,200.8c2.4,4.2,4.9,8.5,7.6,12.6c0.1,0.3,0.4,0.2,0.6,0.2c73.2,111.9,198.1,187.8,314,163
						c3.8-0.9,7.6-1.7,11.4-2.8c-11,4.6-21.9,8.8-33.1,12.8c-0.2-0.1-0.3-0.2-0.5-0.1c-67.8,18.2-141.2,13.9-209.3-13.3
						c-67.4-26.8-128.6-75.5-176.1-139.6c-48.2-64.9-80.8-143.3-95.1-226.3c-8.4-48.3-12.2-97.3-20.2-145.7
						c-7.8-47.2-21-92-41.1-134.6c-18.4-38.9-39.9-79.3-68.8-108.7c-25.4-25.8-56.6-43-88.9-48.8c-8-1.4-15.7-1.8-23.7-1.5
						c-1.6,0.1-1.4,3.1,0.2,3.4c34.5,3.6,67.9,15.4,97.1,40c32.5,27.4,55.3,68.2,75.1,108.1c21.8,43.9,36.5,89.9,45,138.8
						c8.4,48.3,12.2,97.2,20.6,145.6c13.9,81,44.5,157.5,90.2,222.2c44.8,63.6,102.7,113.4,167.3,142.8c63,28.7,131.5,39.1,196.5,28
						c-34.9,10.3-70.6,17.6-107.6,20.5c-200.1,15.9-407.4-121.7-517.8-327.2c-26.6-49.4-48.3-103.8-61.9-159.4
						c-0.7-2.9-4.5-2.2-3.8,0.6c54,222,212.1,399,397,466.2c97.9,35.6,195.7,34.8,291.5,6.3c66.7-19.8,129.8-50.3,190.9-85.4
						c74.1-37.9,151.5-68.7,232.4-82.8c62.9-10.9,128.8-11.8,192.2,7.6c41.2,12.6,82.6,34.1,114.9,68.9c16.2,17.4,28,37.9,38.8,60.3
						c19.9,41.3,33.5,86,39.9,132.2c13,92.4-1.9,184.6-22.5,271.4c-22.4,94.2-52,185.1-74.5,279.2c-18.6,77.8-31.5,157.3-31.9,239
						c-1.5,43.4,1.4,87.1,10.3,130.1c0.1,0.5,0.2,0.9,0.3,1.4c13.2,81.7,38.2,161.3,72.8,235.3c40.5,86.6,93.4,165.4,153.7,234.3
						c20,22.8,40.9,44.6,62.6,65.2c1.3,1.3,2.5,2.8,3.8,4.1c0.3,0.4,0.7,0.4,1,0.4c18.5,17.3,37.6,33.7,57.3,49
						c50.9,40.8,107,72.3,164.5,94.5c95.4,37.1,194.9,48.4,292.7,65.6c76.4,13.4,155.1,29.7,227.5,66.4
						c66.2,42.4,122.6,110.1,150.7,193.1c38.6,114.2,15.4,239.2-12.9,347.9c-28.8,110.4-70.8,214.6-103.6,323.3
						c-31.2,103.5-55.3,213.1-51.7,326.2c3.3,101.9,29.9,207.4,86.7,289.5c7.2,10.5,15,20.4,23.1,29.8c0.9,1,2.3-0.3,1.4-1.4
						c-65-79.6-97.7-187-105.3-293.1c-8.2-115.3,14.3-228.3,44.5-334.5c31.3-110.2,72-215.8,102.7-326.4
						c29.7-107.1,55-227.6,23.8-342.8c-23.2-85.4-77.5-156.8-142.3-203c14.1,8,27.9,16.6,41.4,26.4
						c116.8,84.8,165.1,217.1,191.2,360.2c-0.3-0.4-1-0.1-0.8,0.4c1.5,6.4,2.9,13,4.3,19.5c6.4,38.4,11.5,77.7,15.9,116.7
						c2.7,42.7,2,85.4-2.4,127.6c-8.9,85.5-29.4,167.8-36.6,253.6c-13.1,156.2,11.9,325.8,100.8,454.9
						c42.9,62.2,98.5,113.1,162.1,138.9c1.4,0.6,2.1-1.8,0.7-2.4c-117.8-54.4-203.4-181.3-239.5-321.9
						c-21.2-82.6-26.9-168.6-21.5-252.7c5.4-84.4,24.2-165.3,34.3-248.5c4.6-38,6.6-76.4,5.9-114.9c6.6,61,12.5,121.3,21.1,178.4
						c18.2,121.6,53.4,236.6,114.5,340.2c59.3,100.5,137.6,186,227.3,246.6c43.3,29.2,89.1,52.4,136.3,69.2c0.8,0.3,1.2-1.1,0.4-1.4
						c-204.8-73.3-378.5-273.2-446-514.8c-35.7-127.9-41.5-262.2-57.1-393.4c-14.7-122.5-37.9-250.8-105.5-352.7
						c-50.8-76.7-116.1-123.7-187.7-154.8c-1.6-0.9-3.2-1.7-4.8-2.6c-0.3-0.2-0.5,0-0.7,0.2c-105.1-44.4-223.3-55.3-328.9-75
						c-14.9-2.8-29.7-5.8-44.5-9.1c17,2.7,34.1,4.7,51.3,5.6c69.6,3.7,139.1-5.8,207.3-16.2c77.1-11.8,154.4-23.2,233.2-10.4
						c41.4,6.8,82.4,19.6,121.5,39c26.2,14.9,51.2,33,74.1,54.2c32.4,29.9,61,66,84,106.3c26.9,47.3,44.7,100.5,56.2,154.9
						c25.5,121,23.7,245.4,49.6,366.3c24,111.6,66.6,220,129.5,310.6c55.5,80,127.1,147.1,207.7,185.5c10.2,4.8,20.4,9.3,30.8,13.4
						c1.3,0.5,1.9-1.8,0.6-2.3c-84-34.9-160.2-98.5-220.1-177.9c-67.2-89-113.7-197.4-140.7-310.2c-14.2-59.4-22-119.7-28.1-180.3
						c-6.2-62.2-11.2-124.7-22.6-186.3c-10.2-54.6-25.7-108.5-50.8-157c-20.8-40.3-47.1-76.6-77.3-107.5
						c-19-19.5-39.3-36.9-60.7-51.9c43.9,26.6,84.1,61.7,120.1,102c35.2,39.6,66.4,84,94.7,130.5c28,45.9,53.3,93.8,77.8,142.4
						c23.1,45.9,45.4,92.2,68.9,137.8c20.7,40.2,42.4,80.1,67.9,116.6c11.1,15.9,22.9,31.1,35.9,44.9c26.3,28.3,56,55.9,89.8,69.4
						c16.1,6.4,32.6,9,49,6.7c3-0.4,2.1-5.8-1-5.6c-37.8,3.3-73.4-18.9-103.7-46c-19.1-17-37-36.1-53-57.1
						c-26-34.2-48.1-72.5-68.7-111.3c-23.7-44.2-45.7-89.7-68.2-134.8c-23.8-47.7-48.2-95.1-74.8-140.9
						c-27.3-46.9-57-92.3-90.5-133.4c-33.7-41.4-71.4-78.5-113-108.1c-44.5-31.6-92.7-54.2-142.6-67.3
						c-67.9-17.8-136.7-17.2-204.1-8.2c-76.7,10.2-152.5,25.9-230.2,28.9c-65.9,2.6-130.8-8-195.4-29.2
						c-57.5-20.1-113.3-47.5-165.8-86.3c-101.8-75.3-183.1-187.8-211.4-326.3c-24.9-121.6-6.5-241.6,41.2-346.1
						c36.6-80.2,85.4-151.4,134.5-220.7c54.9-77.4,114.3-154.8,164.4-239c-6.3,14.5-12.4,28.9-18.3,43.6
						c-16.3,32.4-33,64.5-48.7,97.4c-31.7,66.5-61.8,134.5-85.1,206.2c-10.8,33.2-20.2,67.2-26.1,102.4
						c-7.4,44.1-9.9,90.1-9.2,135.6c1.5,90.9,18.7,183.5,63.5,261.7c11.6,20.3,24.8,39.2,39.2,56.9c0.1,0.2,0.2,0.5,0.4,0.7
						c0.4,0.5,1,1.1,1.5,1.6c35.2,42.7,77.6,77.2,123.1,101.2c73.6,38.9,155.2,49.2,232.4,38.2c40.4-5.8,79.5-17.8,117.1-34.4
						c41.4-18.3,80.8-41.6,120.8-63.4c79-43.1,161.8-79.6,248.8-97.8c78.4-16.4,159.9-17.1,239.5,5.7
						c70.8,20.3,139.4,58.9,196,116.1c13.8,14,27.5,28.8,39.5,45.1c1.4,1.9,3.8-0.4,2.3-2.4c-23.7-32.2-49.4-60.5-79.3-84.6
						c-29.5-23.9-61.7-43.2-94.8-58.1c-69.2-31.3-142.6-43.6-214.7-40.3c-87.2,4.1-171.6,29.9-251.2,66.1
						c-40.6,18.5-79.7,40.3-118.8,62.4c-39,22.1-78.4,43.9-120,59.2c-35.3,13-72,21.2-109.5,24.3c11-2.1,21.9-4.9,32.7-8.5
						c58.9-19.8,110-59.6,155.9-105.4c21.1-21,41.8-42.8,61.9-65c30.9-34,60.1-70.2,90.4-104.9c30.2-34.6,61.5-68.2,96.3-96.6
						c31.3-25.4,65.6-45.2,101.8-59.8c77.9-31.4,164.6-41.2,247.9-21.5c11.2,2.6,22.4,5.8,33.5,9.4c1.6,0.5,2.5-2.3,0.9-2.9
						c-80.8-29.8-168.3-26.2-247-1.9c-35.4,10.9-69.7,26.2-101.7,46.5c-36.1,22.9-68.2,52.8-98.5,84.9
						c-31.6,33.7-61.3,69.9-91.5,105.3c-23.9,28-48.7,54.9-73.9,81.3c-43.8,46.1-90.6,89-146,115c-30.8,14.5-63.6,23.2-97.3,25.4
						c-32.6-0.3-65.3-4.7-97.4-13.5c-51-14.2-100.1-40.4-143.3-76.9c48.2,30.1,103.9,41.7,156.4,37.1c87.8-7.7,167.7-60.9,232-126.4
						c70.6-71.8,125.7-161.3,185.5-245.2c58.1-81.7,122.3-160.5,204-209.4c82.3-49.4,176.3-64.2,270.3-50.4
						c11.7,1.7,23.4,4.1,34.9,7.1c2.5,0.6,2.7-3.9,0.2-4.6c-90.3-26.4-184.4-18.6-268.2,19.7c-83.6,38.2-150.9,107.9-209.8,184.9
						c-62.2,81.1-116.5,170.6-181.3,248.9c-62.5,75.4-136.9,141.2-227,164c-73.4,18.6-157.1,5-222.1-49.2
						c-8.9-9-17.6-18.3-25.9-28.3c-25.6-30.8-47.7-66.1-64.1-104.6c-18.4-42.9-29.6-89.4-35.8-136.1
						c-11.6-87.7-7.4-179.2,13.7-262.1c18.9-73.9,47.2-144.1,77.6-211.5c19.6-43.5,40.7-86,61.7-128.7c-10.1,25.7-19.6,51.9-28,78.6
						c-22.3,57.6-43.4,115.8-58.4,177c-14.9,60.7-21,125.3-13.5,189.6c8.2,70.8,35.1,136.6,78.4,188.8c38.4,46.4,86.5,85,139.9,98.4
						c51.2,12.8,103.4,1.1,148.4-24.7c98.4-56.4,152.9-172.8,191.8-289.6c39.5-119,67.8-245.4,123.9-354.7c0.6-1.2,1.3-2.4,2-3.6
						c42.3-67.8,92.7-128.2,154.9-170.6c66.9-45.6,146.3-71.6,226.3-58.8c19.3,3.1,38.9,7.6,57.5,15.5c2.5,1,3.8-3.3,1.3-4.4
						c-18.2-7.7-36.6-14.5-55.5-18.1c-19.1-3.6-38.3-4.8-57.4-4.1c-38.5,1.4-76,11.2-111.4,26.7c-73.9,32.3-136.8,89.1-187.7,158.7
						c-54.1,74-95.3,160.2-133.3,247.4c-19,43.7-37.3,87.9-56.2,131.7c-19.5,45.1-40.3,89.9-66.8,129.5
						c-50.7,76.1-127.8,132.9-215.4,111.7c-36.7-8.8-72.1-29.7-101.3-58.8c-28.7-28.4-50.3-64.5-66.4-104
						c-27.6-67.6-35.7-141.6-29.5-213.5c6.2-71.9,25.3-140.7,48.7-205.9c22.5-62.4,49.5-122,76.1-181.8c20-44.6,42.5-90,53.6-139.6
						c1.3-5.8,2.2-11.8,2.9-17.8c21.3-90.3,24.1-190.3,0.3-283.5c-27.8-109-91-205.7-173.4-266.3c-96.2-70.7-208.8-81.4-315.6-73.6
						c-112.4,8.2-217.1,41.3-317.4,96c-99.7,54.3-195.7,125.7-296,184.2c-12.3,6.7-24.5,13.5-36.7,20.6
						c-26.8,14.5-54,27.8-81.7,39.5c-50.2,13.5-104.8,6.5-154.9-13.7c-59.7-24-114.3-67-156.5-123.9c-8-10.9-15.5-22.1-22.8-33.7
						c-32.8-66.2-50.2-138.9-51.9-214c-1.8-77.5,11.5-153,30.9-225.1c35.8-133.2,90.8-265,81-411.4c-5.5-82.4-29.7-170.1-74.1-237.5
						c-1.3-2-4.2,0-3,2.3c17.5,33.4,33.5,67.5,45.4,104c12,36.9,20.1,75.3,24,114c7.4,73.8-2.1,146.3-18.8,215.7
						c-16.3,68.3-38.7,133.8-56.7,201.3c-19,71.6-33.1,146-32.7,222.7c0.3,64.8,10.9,133.8,36.7,193.8
						c-23.5-45.4-41.2-94.9-53.3-145.7c-19.1-79.7-24-161.4-21.6-242.5c4.9-163.4,36.6-325.8,14.1-491.1c-3.8-27.4-8.2-55-18.1-80.8
						c-7.8-20.2-18.1-39.1-29.7-56.7c-27.6-41.7-63-76.2-101.3-102.9C1513.5-1140.8,1399.2-1160.3,1298.9-1124.6z M2350.3,160.4
						c0.1-0.1,0.3-0.2,0.5-0.3c0,0,0,0,0,0.1C2350.6,160.2,2350.5,160.2,2350.3,160.4z M2808.2,968.3
						c20.9-95.7,50.9-187.4,75.1-281.5c22-85.5,40.4-175.3,34.8-267.3c-2.7-44.7-11.5-89.1-26.8-131c-11.3-31-25.5-63.2-44.9-88.7
						c-26.5-34.8-62.4-58.5-98.8-74c-55.9-23.9-115.5-29.6-173-25.6c-37.2,2.6-74,9.3-110.1,19c47.1-16.1,94.8-30.2,143.3-40.7
						c31-6.7,62.4-11.7,94.1-14.4c28.1-1.5,56.1-0.7,84.4,6.4c30,7.5,59.1,21.6,84.4,43.2c41,35.1,66.4,85.9,83.1,140.8
						c18.1,59.6,29.9,122.4,30.4,184.7c0.4,61.3-12.6,118.7-31.5,173.9c-9.4,27.6-20,54.4-30.5,81.4c-11,28-21.7,56.3-33.4,83.8
						c-23.2,54.5-46.9,108.4-65.6,165.6c-14,42.7-25.7,87.9-33.5,134.3C2794.1,1041.3,2800.3,1004.7,2808.2,968.3z M2890,1585.7
						c-40.4-75.4-71.1-157.5-88.8-243c0.2,0.5,0.2,0.9,0.4,1.4c0,0.2,0.3,0.1,0.3,0c-1.6-7-3.1-14.1-4.5-21.1
						c-2.4-13.2-4.5-26.4-6.2-39.7c-4.4-32.8-6.5-65.5-6.9-97.9c0.1-11.6,0.4-23.2,1.1-34.9c3.9-62.4,16.1-122.9,33.5-180.9
						c17.8-59.7,41.1-116,65.2-172.1c23.1-53.6,44.8-108.6,65-164.1c19.8-54.3,35.8-110.9,38.1-171.6c2.4-60.9-6.7-122.8-22.3-181.9
						c-15.8-59.5-38.2-116.5-79.6-158.2c-34.8-35.1-76.9-52.9-120.1-59.8c39.4,0.6,78.9,5.4,118,15.3
						c89.5,22.6,177.6,82.7,220.9,183.9c47.3,110.4,37.6,234.5,16.9,346.9c-20.2,109.3-55.8,214.5-102.6,309.7
						c-4.8,9.7-9.7,19.2-14.7,28.6c-17.6,28.4-34.9,57.1-50.2,87.2c-30.5,59.8-54.1,125.3-67.5,194.3c-16,82.7-17,170.3,0.4,255.3
						c21.9,107.2,72.5,205.9,136,287.9c8.5,10.9,17.2,21.6,26.1,31.9C2987.6,1739.6,2933.3,1666.6,2890,1585.7z M3217.4,1244.1
						c10.2,36.7,25.1,72.4,44.3,104.1c21.8,35.9,51.1,65.7,83.9,86.4c32.4,20.6,68.5,32.1,104.3,31.4c41.2-0.7,79.8-18.5,112.7-45
						c71.5-57.7,111-153,149.3-242.6c35.7-83.6,70.9-168,114.2-246.1c-11.6,26.5-21.8,54-31.3,81.4
						c-19.9,56.8-36.7,115.2-54.3,173.2c-35.8,118-78.9,242.9-166.8,317.5c-41.4,35.1-91.6,58.7-144.4,59.1
						c-54.5,0.4-106.1-26.7-149.4-68.1c-48.3-46-85.4-105.7-101.6-176.2c-15.4-66.5-13.7-137.8-1-202.6
						c11.1-56.6,28.8-110.1,48.2-162.8c-6.7,25.3-12.3,51-16.4,77.3C3197.9,1100.8,3198.2,1174.4,3217.4,1244.1z M3322.1,105
						c61.9,96.1,86.6,214.1,78.2,329.5c-5,67.6-21,130.3-44,189.4c-4.2,10-8.5,20-12.8,29.8c-4.8,10.8-9.7,21.6-14.5,32.5
						c-43.5,89.6-100.8,170.8-155.9,247.9c-100.1,140.2-222.2,291.4-236,488c-9,127.7,27.2,259.2,100.5,359.7
						c-55.9-71.3-103.3-152.4-131.6-243.4c-27.3-87.9-34.8-181.6-22.9-271.3c9.9-74.8,32.1-146.3,62.6-211.3
						c24.9-53.1,56.1-101.5,86-150.5c39.8-65.5,79.8-130.6,116.2-199c38-71.3,72.8-146,97.5-226c22.1-71.4,36.4-148.5,29.9-226.8
						c-6.5-77.9-37.6-149.3-85.9-204.9c-42.1-48.5-92-86.2-147.2-107.7c-47.9-18.8-97.5-25.7-146.7-24.7c46.8-3.7,94-2.8,140.5,3.3
						C3147.4-65.9,3251.4-4.8,3322.1,105z M2678.4-31.6c42.9-17.8,88-31.5,133.9-40.6c60.7-10.1,123.1-11.6,184.3,3.3
						c60.9,14.7,118.2,47.1,166.8,95.3c51.5,51.1,90.2,115.8,105,192.9c15,78.3,4.3,158.1-15.5,231.2
						c-22.1,81.4-55.6,157.2-92.6,229.2c-35.9,70-75.9,136.7-116.6,202.7c-10.5,16.9-21.1,33.8-31.7,50.7
						c45.8-89.7,81-187.1,104.6-289.4c25.4-110.2,41.9-231,6.7-345.4c-16.1-52.2-42.8-98.8-78.7-135.5
						c-34.7-35.3-75.6-59.6-118.4-76.1c-49-18.9-99.8-26.6-150.2-29c-26.2-1.3-52.3-0.5-78.1,1.8c-0.9,0-1.6,0.1-2.5,0.1
						c-4.3,0.3-8.5,0.8-12.8,1.4c-12.7,1.5-25.4,3.2-38,5.4c-90.3,15.4-178.9,43.6-264.2,78.7c-5.9,2.5-11.9,5-17.8,7.7
						c9.8-6.2,19.6-12.4,29.3-18.7C2484.9,73.8,2577.3,10.4,2678.4-31.6z"/>
					<path fill="#FED7A5" d="M-617.3,755.6c4.4-0.2,8.7-0.6,13-1.1c-12.4,3.6-24.9,6.8-37.5,9.5c-0.1-0.1-0.3-0.2-0.5-0.3
						c-77.6,9-110.3,6.6-35.6,6.6c-39.7,5.9-111.8,24.7-2.4,8.5c76.1-11.2,147.2-37.5,215.7-70.2c83.4-33.4,171.2-56.9,264.2-57.3
						c72.4-0.3,148.9,13.4,224,53c48.8,25.8,98.4,63.7,138.6,116.9c20,26.5,35.2,56.5,49.4,88.4c26.2,59,45.1,121.3,55.9,183.8
						c21.7,125.1,11,243.7-6.7,353.8c-19.1,119.6-47,233.1-66.4,352.5c-15.9,98.6-25.3,200.9-19.9,308.8
						c1.5,57.1,8,115.4,21.3,174.3c0.1,0.6,0.3,1.2,0.4,1.8c21.3,111,56,221.9,101.6,327.5c53.3,123.5,120.4,239.7,195.6,344.2
						c24.9,34.6,50.7,68.1,77.5,100.1c1.6,2,3.1,4.2,4.6,6.2c0.4,0.5,0.8,0.7,1.2,0.7c22.8,27,46.2,52.9,70.2,77.5
						c62.1,65.4,129.6,119.4,198,161.8c113.6,70.3,230,107.6,345,152.2c89.7,34.8,182.4,73.9,269.2,138.8
						c80,70.8,99.2,91.3,20.4,15.8c17,13.7,36.3,15.2-49.2-42.1c-1.9-1.4-3.8-3-5.8-4.4c-0.4-0.3-0.6-0.1-0.8,0.1
						c-125.4-82.1-263.5-123.2-387.8-173c-17.5-7-34.9-14.4-52.4-22.1c19.9,7.4,40,13.8,60,18.9c81.2,20.4,161.3,23.6,239.8,25.1
						c88.8,1.7,159.4-2.3,81.6-5.6c-88.5-3.7-175.4,0.1-265.4-13.2c-76.4-11.4-152.7-39.9-229.2-82.4
						c-68.3-39.4-135.1-88.1-198.9-151.3c-123.6-122.3-226.2-289.3-269.1-478.7c-37.6-166.3-24.9-320.7,23-448.3
						c36.7-98,88.4-181,140.5-261.6c58.3-90,121.7-179,173.9-279.1c-6.2,17.7-12.3,35.5-18.2,53.5c-16.7,39.1-33.7,77.9-49.6,117.8
						c-32,80.8-62.1,164-84.1,253.5c-10.2,41.4-18.7,84.3-22.9,129.6c-5.3,56.7-4.9,116.9-0.9,177.3
						c8.2,120.5,34.9,246.9,92.7,360.3c15,29.4,31.7,57.5,49.6,84c0.1,0.3,0.2,0.6,0.5,1c0.6,0.8,1.2,1.6,1.8,2.4
						c44,64.3,95.8,119.4,150.4,161.4c88.4,67.9,184,100,272.9,102.5c46.4,1.4,91.2-5.7,133.6-19.3c46.8-15,10.8-7.2-36.5,3.6
						c-40.1,9.3-82.3,11.9-125.5,7.5c12.6-0.3,25.1-1.6,37.4-3.9c67-13.1,96.3-35.7,33.8-13.8c-34.7,12.2-72.3,16.3-111.2,11.7
						c-37.9-7.6-76.2-20.7-114.3-39.8c-60.3-30.2-119.2-75.8-172.2-133.9c58.1,50.6,123.7,78.4,184.5,84.2
						c101.6,9.6,190.6-43.1,260.6-115c76.9-79-111.3,99.4-214.3,109.3c-84,8.1-182.3-28.7-261.7-114.8
						c-11.1-13.8-21.8-28.2-32.1-43.2c-32.1-46.4-60.2-98.1-82.1-152.5c-24.5-60.8-40.9-124.9-51.4-187.9
						c-19.6-118.7-21.2-238.6-2.6-343.5c16.7-93.5,44.5-179.9,75.1-262.2c19.7-53.2,41.2-104.7,62.5-156.2
						c-9.9,31.7-19.1,64.2-27,97.5c-21.7,71.2-42,143.4-55.2,221c-13,76.7-15.4,160.9-2,247.7c14.6,95.4,50.6,188.5,104.6,267.3
						c48,70,106.8,131.9,169.7,161.6c60.5,28.5,120.3,24.6,170.8,0.6c110.5-52.5-49.4-90.2-152.8-137.8
						c-43.4-19.9-85.9-55.5-122.1-100.6c-35.3-44-63.1-96.5-84.7-152.4c-36.9-95.5-51.6-195.1-49.6-288.9
						c2-93.8,19.2-180.3,41.9-261.3c21.6-77.5,48.7-150.3,75.5-223.2c20-54.5,42.9-109.5,52.3-172.6c1.1-7.4,1.7-15.1,2-23
						c18.3-114.5,14.3-246.2-20-374.8c-40.2-150.3-120.6-292.4-220.8-391C480.9,521.1,349.2,481.6,225.5,468
						c-130-14.4-249.5,5.9-362.1,55.7c-112,49.5-218.4,122.4-330.9,177c-13.9,5.9-27.5,12.4-41.1,19.1
						c-30.1,13.1-60.8,24.7-92.2,33.9c-57.4,6.6-121.3-15-181-52.8C-852.8,655.5-750.3,762.5-617.3,755.6z M-398.3,675.1
						c0.2-0.1,0.4-0.1,0.5-0.4c0,0,0,0,0.1,0.1C-397.9,674.9-398.1,675-398.3,675.1z M192.1,1845.9
						c17.4-121.7,45.7-236.4,67.1-355.3c19.4-108.2,34.4-222.6,21.3-345.6c-6.4-59.7-19.8-120.3-40.6-179.2
						c-15.3-43.5-34.2-89.3-58.6-127.4c-33.3-51.8-76.8-91.3-120.1-120c-66.6-44.1-136.4-65.1-202.9-72.7
						c-43.2-4.9-85.4-4.4-126.7,0.5c53.6-10.7,108-18.8,163.6-21.7c35.5-1.9,71.7-1.5,108.3,2.1c32.5,4.2,65.2,11.7,98.6,27.4
						c35.4,16.7,70.3,41.7,101.2,76.1c50.1,55.5,83.4,128.5,106.7,204.8c25.4,82.9,43.6,168.5,48.5,251
						c4.9,81.2-6.1,154.1-24.1,222.9c-9,34.3-19.3,67.5-29.7,100.7c-10.8,34.7-21.1,69.5-32.7,103.3c-23,66.8-46.8,132.7-64.4,204.1
						c-13.1,53.4-23.5,110.5-29.2,170.1C180.9,1939.2,185.6,1892.2,192.1,1845.9z M331.7,2680.5c-52.4-108.8-94-224.3-120.7-341.2
						c0.2,0.6,0.4,1.3,0.6,1.9c0.1,0.1,0.3,0.2,0.2-0.1c-2.4-9.7-4.6-19.3-6.7-28.9c-3.7-17.9-7.1-36-10.1-53.9
						c-7.5-44.5-12.3-88-15-131c-0.7-15.3-1.2-30.7-1.2-45.8c0.1-81.5,9.9-158.9,25.9-231.7C221,1775,244,1705.7,268,1637.1
						c23.2-65.7,44.4-133.6,63.8-202.5c19-67.4,33.6-138.6,32-218.2c-1.6-79.9-16.6-163.9-39-245.5c-22.7-82.2-52.7-162.5-104-227.1
						c-43-54.1-93.2-87.2-143.9-106c45.9,9.7,92.1,24.8,138.3,46.7c105.8,50.1,212.4,149.1,270.1,292.7
						c62.9,156.5,60.6,318.4,44.6,462.3c-15.6,139.9-49.3,271-97,386.3c-4.9,11.7-9.9,23.1-15,34.4c-18.4,33.6-36.4,67.7-52.2,104.2
						c-31.1,72.2-53.8,153.5-64.4,241.8c-12.7,105.7-7.5,221.3,18.8,337.6c33.2,146.5,99.1,288.3,178.8,411.1
						c10.6,16.4,21.5,32.3,32.6,48C456.2,2905.9,388,2797.1,331.7,2680.5z M687.8,2302.3c14.4,50.7,34.3,101.3,59,147.6
						c28,52.3,64.1,98.3,103.7,133c39.1,34.4,81.9,57.8,123.5,65c47.8,8.3,91.5-6.5,127.8-34.2c79-60.3,115.6,33.6,18.8,112.7
						c-45.7,37.1-102.3,57.1-163.6,45.8c-63.4-11.7-125.2-59.1-178.6-123.4c-59.5-71.7-106.9-159-130.8-255.6
						c-22.6-91.3-25.9-185.3-15.7-268.1c8.9-72.3,25.5-139.1,44.4-204.4c-6,31.9-10.7,64.7-13.5,98.5
						C654.7,2108.5,660.3,2205.8,687.8,2302.3z M727.5,819.8c78.8,140.9,116.1,302.5,114.5,453.1c-1,88.2-15.1,167.6-37.5,240.5
						c-4.1,12.2-8.4,24.5-12.7,36.5c-4.8,13.3-9.6,26.4-14.4,39.7c-44.1,108.7-104.9,203.2-163.4,292.8
						c-106.3,163-237.5,335.4-239.4,592.3c-1.2,166.9,50.3,348.8,142.8,498.2c-70.3-106.9-131.1-224.7-170.5-351.2
						c-38.1-122.3-53.5-247.8-46.2-363.9c6.1-96.6,26.9-186.2,57.6-265.3c25.2-64.7,58-121.6,89.1-179.7
						c41.6-77.7,83.4-155,120.8-237.1c39-85.8,74.1-176.7,97.2-276.8c20.5-89.4,31.7-188.2,18.4-293.2
						C670.5,901.4,629.2,800.1,569,715.6c-52.5-73.7-113.2-134.5-178.9-175.4c-56.9-35.5-115.2-55.9-172.4-65.6
						c54.2,5.6,109.1,17.4,163.6,35.9C512.2,554.6,637.4,658.7,727.5,819.8z M-30.6,494.9c48.7-13.9,100-21.8,152.7-23.7
						c69.9,0.3,142.3,12.4,214.4,45.5c71.8,33.1,140.7,88.7,200.8,163.3c63.6,79.1,113.1,173.4,135.9,278.6
						c23.1,106.9,16.3,209.9-1.4,302.2c-19.7,102.8-53.3,195.4-91.2,282.4c-36.7,84.5-78.4,163.7-120.9,241.9
						c-10.9,20.1-22.1,40-33.2,59.8c46.7-108.3,80.7-229.2,100.8-359.1c21.7-140,32.1-296-17.2-455.1
						c-22.4-72.6-56.8-140.4-101.3-196.7c-43-54.6-92.1-95.7-143.1-127.1c-58.3-36-117.9-57.6-176.7-72
						c-30.6-7.5-60.7-12.3-90.7-15.2c-1-0.1-1.9-0.3-2.9-0.4c-5-0.4-9.9-0.9-14.8-1c-14.6-0.9-29.2-1.4-43.7-1.4
						c-103.8,0.2-204.9,17.5-301.5,44.7c-6.8,1.9-13.5,4-20.1,6.1c10.9-6,21.9-12.1,32.7-18.2C-248,590.7-145.1,527.7-30.6,494.9z"
						/>
				</g>
			</g>
		</g>
		<g display="none">
			<path display="inline" fill="#E2B67A" d="M1127.7,2106.3c-8.2,0-8.2,12.8,0,12.8C1136,2119.1,1136,2106.3,1127.7,2106.3z"/>
			<path display="inline" fill="#E2B67A" d="M1255.7,2057.5c-0.3-1-0.8-1.8-1.6-2.5c-0.3-0.2-0.5-0.5-0.8-0.7
				c-0.9-0.8-1.8-1.5-3.1-1.8c-0.5-0.1-1.1-0.2-1.6-0.2s-1.1,0.1-1.6,0.2c-1.2,0.3-2.2,1-3.1,1.8c-0.3,0.2-0.5,0.5-0.8,0.7
				c-0.4,0.5-0.8,1-1.2,1.6c-0.3,0.6-0.5,1.2-0.8,1.8c-0.3,1-0.4,2-0.1,3.1c0,0.7,0.2,1.3,0.5,1.9c0.2,0.7,0.5,1.2,1,1.7
				c0.3,0.6,0.8,1,1.4,1.4c0.5,0.5,1,0.8,1.7,1c0.9,0.5,1.9,0.7,3,0.7c0.7-0.1,1.4-0.2,2-0.3c0.6-0.3,1.2-0.5,1.8-0.8
				c0.5-0.4,1-0.8,1.6-1.2c0.4-0.5,0.8-1,1.2-1.6c0.3-0.6,0.5-1.2,0.8-1.8c0.3-1,0.4-2,0.1-3.1
				C1256.2,2058.8,1256,2058.1,1255.7,2057.5z"/>
			<path display="inline" fill="#E2B67A" d="M1197.8,1945.3c-0.8,0-1.4,0-2.1,0c-1.5-0.2-2.7,0.3-3.6,1.2c-1.3,1-1.8,2.5-1.7,4
				c-0.1,1.6,0.4,3.1,1.7,4.1c0.9,0.9,2.2,1.4,3.6,1.2c0.7,0.1,1.3,0.1,2.1,0C1204.6,1955.5,1204.6,1945.7,1197.8,1945.3z"/>
			<path display="inline" fill="#E2B67A" d="M1329.7,1894c-9.1,0-9.1,14.2,0,14.2C1338.9,1908.2,1338.9,1894,1329.7,1894z"/>
			<path display="inline" fill="#E2B67A" d="M1074.2,1992.3c-4.7,0-4.7,7.3,0,7.3C1078.8,1999.5,1078.8,1992.3,1074.2,1992.3z"/>
			<path display="inline" fill="#E2B67A" d="M916.7,2039.7c0-0.1-0.1-0.2-0.1-0.3c0-0.1,0-0.1,0-0.2c0,0,0,0,0-0.1
				c-0.1-0.3-0.3-0.7-0.4-1c-0.3-0.4-0.5-0.8-0.8-1.2c-0.1-0.2-0.3-0.4-0.4-0.6c-0.1-0.2-0.3-0.4-0.4-0.6c-0.2-0.3-0.3-0.4-0.5-0.6
				c-0.1-0.1-0.2-0.2-0.3-0.2c-0.4-0.3-0.8-0.7-1.2-1c-0.4-0.5-0.9-0.8-1.5-1c-0.6-0.3-1.1-0.4-1.8-0.4c-0.6,0-1.2,0.1-1.8,0.4
				c-0.6,0.2-1.1,0.5-1.5,1c-0.2,0.3-0.5,0.6-0.7,0.9c-0.4,0.7-0.6,1.5-0.6,2.3c0.1,0.4,0.1,0.8,0.2,1.2c0.2,0.8,0.6,1.5,1.2,2
				c0.3,0.4,0.6,0.8,1,1.1c0.1,0.1,0.2,0.2,0.2,0.3c0,0.1,0.1,0.1,0.1,0.2c0.3,0.3,0.6,0.5,1,0.8c0,0,0,0,0.1,0
				c0.2,0.1,0.4,0.3,0.6,0.4c0.4,0.3,0.8,0.5,1.2,0.8c0.2,0.1,0.4,0.2,0.6,0.2c0.2,0.1,0.4,0.2,0.6,0.2c0.1,0,0.1,0,0.2,0
				c0.1,0,0.2,0.1,0.3,0.1c0.2,0.1,0.4,0.1,0.7,0.2c1.3,0.3,2.6,0,3.5-0.9s1.3-2.3,0.9-3.5C916.8,2040.1,916.8,2039.9,916.7,2039.7z
				"/>
			<path display="inline" fill="#E2B67A" d="M1387.4,1619.7c-6.8,0-6.8,10.5,0,10.5C1394.2,1630.2,1394.2,1619.7,1387.4,1619.7z"/>
			<path display="inline" fill="#E2B67A" d="M756.8,1908.6c-6.3,0-6.3,9.8,0,9.8S763.1,1908.6,756.8,1908.6z"/>
			<path display="inline" fill="#E2B67A" d="M1279.2,1717.9c-0.3-0.5-0.7-1-1.3-1.3c-0.6-0.3-1.2-0.5-1.8-0.5
				c-0.6,0-1.2,0.2-1.8,0.5c-0.5,0.3-1,0.7-1.3,1.3c-0.5,1.1-1,2.1-1.6,3.2c-0.5,0.8-0.7,1.7-0.7,2.7s0.2,1.9,0.7,2.7
				c1,1.6,2.8,2.7,4.7,2.7c1.9,0,3.7-1,4.7-2.7c0.5-0.8,0.7-1.7,0.7-2.7s-0.2-1.9-0.7-2.7C1280.3,1720.1,1279.7,1719,1279.2,1717.9z
				"/>
			<path display="inline" fill="#E2B67A" d="M982.2,1906.5c-0.3-0.2-0.5-0.4-0.8-0.6c-0.6-0.4-1.3-0.5-2-0.5c-0.7,0.1-1.3,0.2-2,0.2
				c-0.3,0-0.7,0.1-1,0.1c-0.7,0.1-1.3,0.1-1.9,0.5c-0.3,0.2-0.6,0.4-0.8,0.6c-0.1,0.1-0.2,0.2-0.3,0.3c-0.3,0.3-0.5,0.6-0.7,1
				s-0.3,0.8-0.3,1.2c0,0.8,0.3,1.6,0.9,2.2c0.1,0.1,0.2,0.2,0.2,0.2c0.3,0.3,0.4,0.4,0.8,0.7c0.6,0.4,1.2,0.4,1.9,0.5
				c0.3,0,0.7,0.1,1,0.1c0.7,0.1,1.3,0.2,2,0.2c0.5,0,1.1-0.1,1.5-0.3c0.5-0.2,0.9-0.4,1.3-0.8c0.4-0.4,0.7-0.8,0.8-1.3
				c0.2-0.5,0.4-1,0.3-1.5c0-0.4-0.1-0.7-0.1-1.1C983,1907.6,982.7,1907,982.2,1906.5z"/>
			<path display="inline" fill="#E2B67A" d="M2174.8,1733.8c-7.8,0-7.9,12.2,0,12.2C2182.6,1746,2182.6,1733.8,2174.8,1733.8z"/>
			<path display="inline" fill="#E2B67A" d="M2319,1649c-10.9,0-10.9,16.9,0,16.9S2329.9,1649,2319,1649z"/>
			<path display="inline" fill="#E2B67A" d="M2187.9,1905.5c-0.4-0.3-0.7-0.6-1.1-0.9c-0.8-0.5-1.8-0.7-2.8-0.7
				c-1-0.1-2-0.1-3.1-0.2c-0.8,0-1.5,0.1-2.2,0.5c-0.7,0.2-1.3,0.6-1.8,1.2c-0.5,0.5-0.9,1.1-1.2,1.8c-0.4,0.7-0.5,1.4-0.5,2.2
				c0.1,0.5,0.1,1,0.2,1.5c0.3,1,0.7,1.8,1.4,2.5c0.4,0.3,0.8,0.6,1.1,0.9c0.9,0.5,1.8,0.8,2.8,0.8c1-0.1,2-0.1,3.1-0.2
				c0.8,0,1.5-0.1,2.1-0.5c0.7-0.2,1.3-0.6,1.8-1.1s0.9-1.1,1.1-1.8c0.3-0.6,0.5-1.4,0.5-2.1c-0.1-0.5-0.1-1-0.2-1.4
				C2189,1907,2188.5,1906.2,2187.9,1905.5z"/>
			<path display="inline" fill="#E2B67A" d="M2473,1709.1c-0.5-0.3-1.1-0.6-1.6-0.8c-0.6-0.3-1.1-0.5-1.7-0.7
				c-0.3-0.1-0.7-0.1-1-0.2c-0.7-0.1-1.4-0.3-2-0.4c-1.1-0.2-2.1-0.2-3.2-0.3c-1.2-0.1-2.6,0.6-3.4,1.4c-0.8,0.8-1.5,2.2-1.4,3.4
				c0.1,1.2,0.5,2.5,1.4,3.4c0.9,0.8,2.1,1.5,3.4,1.4c1.1-0.1,2.2-0.1,3.2-0.3c0.7-0.1,1.4-0.3,2-0.4c0.3-0.1,0.6-0.1,0.9-0.2
				c0.6-0.1,1.2-0.4,1.8-0.7c0.5-0.3,1.1-0.6,1.6-0.8C2474.8,1713,2474.8,1710,2473,1709.1z"/>
			<path display="inline" fill="#E2B67A" d="M2373.8,1848c-0.3-0.2-0.5-0.3-0.8-0.5c-0.6-0.4-1.3-0.6-2-0.9
				c-0.6-0.2-1.3-0.4-1.9-0.6c-1-0.3-2.1-0.3-3.1,0s-1.9,0.8-2.6,1.5c-0.3,0.4-0.6,0.8-0.9,1.2c-0.5,0.9-0.8,1.9-0.8,3
				c0,0.8,0.1,1.6,0.5,2.3c0.2,0.7,0.6,1.4,1.2,1.9c0.7,0.7,1.6,1.2,2.6,1.5s2.1,0.3,3.1,0c0.6-0.2,1.3-0.4,1.9-0.6
				c0.7-0.2,1.4-0.5,2-0.9c0.3-0.2,0.5-0.3,0.8-0.5c0.6-0.4,1.1-0.9,1.5-1.5c0.4-0.7,0.6-1.4,0.6-2.1c0-0.8-0.2-1.5-0.6-2.1
				C2375,1848.9,2374.5,1848.4,2373.8,1848z"/>
			<path display="inline" fill="#E2B67A" d="M2591.1,1755c-7.6,0-7.6,11.8,0,11.8C2598.7,1766.9,2598.7,1755,2591.1,1755z"/>
			<path display="inline" fill="#E2B67A" d="M2434,2118.4c-8,0-8,12.4,0,12.4C2442,2130.8,2442,2118.4,2434,2118.4z"/>
			<path display="inline" fill="#E2B67A" d="M2269.6,1793.9c-0.1-0.4-0.1-0.8-0.2-1.2c-0.2-0.8-0.6-1.4-1.2-2
				c-0.7-0.6-1.4-1.2-2.4-1.4c-0.2,0-0.4-0.1-0.6-0.1c-0.4-0.1-0.8-0.2-1.1-0.3c-0.9-0.2-1.8-0.2-2.8,0c-0.9,0.2-1.7,0.7-2.3,1.3
				c-0.3,0.4-0.5,0.7-0.8,1.1c-0.5,0.8-0.7,1.7-0.7,2.6c0,0.7,0.1,1.4,0.4,2c0.2,0.6,0.6,1.2,1.1,1.7c0.7,0.6,1.4,1.1,2.3,1.3
				c0.9,0.2,1.8,0.2,2.8,0c0.4-0.1,0.8-0.2,1.1-0.3c0.2,0,0.4-0.1,0.6-0.1h0.1c0.4-0.2,0.8-0.3,1.1-0.5c0.2-0.1,0.4-0.3,0.5-0.4
				c0.2-0.1,0.4-0.3,0.5-0.4s0.1-0.1,0.2-0.2c0.4-0.4,0.8-0.9,0.9-1.5C2269.4,1795.1,2269.6,1794.6,2269.6,1793.9z"/>
			<path display="inline" fill="#E2B67A" d="M2278.3,1865.3c-0.1-0.1-0.2-0.2-0.3-0.3c-0.2-0.2-0.4-0.4-0.6-0.6
				c-0.4-0.3-0.7-0.6-1.1-0.8c-0.4-0.2-0.8-0.4-1.3-0.5c-0.7-0.2-1.4-0.3-2.1-0.1c-0.5,0-0.9,0.1-1.3,0.4c-0.4,0.1-0.8,0.4-1.2,0.7
				c-0.4,0.2-0.7,0.5-0.9,0.9c-0.3,0.3-0.6,0.7-0.7,1.2c-0.3,0.6-0.5,1.3-0.5,2c0.1,0.5,0.1,0.9,0.2,1.4c0.2,0.4,0.4,0.8,0.5,1.3
				c0.3,0.4,0.5,0.7,0.8,1.1c0.4,0.3,0.7,0.5,1.1,0.8c0.4,0.2,0.8,0.4,1.3,0.5c0.7,0.2,1.4,0.3,2.1,0.1c0.5,0,0.9-0.1,1.3-0.4
				c0.7-0.2,1.2-0.6,1.7-1.1c0.6-0.6,1.2-1.2,1.7-1.9c0.3-0.6,0.5-1.2,0.5-1.8c0-0.7-0.2-1.3-0.5-1.8
				C2278.9,1865.9,2278.6,1865.6,2278.3,1865.3z"/>
			<path display="inline" fill="#E2B67A" d="M2342.5,1744.4c-0.3-0.2-0.5-0.4-0.8-0.6c-0.6-0.4-1.3-0.5-2-0.5
				c-0.5,0-1.1,0.1-1.5,0.3c-0.5,0.2-0.9,0.4-1.3,0.8c-1,1-1.4,2.5-1,3.9c0.1,0.4,0.2,0.8,0.3,1.2c0,0.2,0.1,0.4,0.1,0.6
				s0.1,0.3,0.2,0.5c0.1,0.4,0.4,0.8,0.7,1.1c0.2,0.2,0.5,0.4,0.8,0.6l0.1,0.1c0.5,0.3,1,0.4,1.6,0.4s1.1-0.1,1.6-0.4l0.1-0.1
				c0.3-0.2,0.5-0.4,0.8-0.6c0.2-0.2,0.4-0.5,0.6-0.7c0.2-0.3,0.3-0.6,0.4-0.9c0.1-0.2,0.1-0.4,0.1-0.6c0.1-0.4,0.2-0.8,0.3-1.2
				c0.2-0.7,0.2-1.4,0-2.1C2343.3,1745.5,2343,1744.9,2342.5,1744.4z"/>
			<path display="inline" fill="#E2B67A" d="M2242.5,1682.7c-0.3-0.1-0.8,0-1.1,0.1c-1,0.7-2.1,1.4-3.1,2.1
				c-0.3,0.2-0.6,0.4-0.8,0.8c-0.2,0.3-0.3,0.7-0.3,1.1c0,0.6,0.2,1.1,0.6,1.5c0.4,0.4,1,0.6,1.5,0.6c0.4,0,0.7-0.1,1.1-0.3
				c0.3-0.2,0.6-0.4,0.8-0.8c0.7-1,1.4-2.1,2.1-3.1c0-0.1,0.1-0.2,0.1-0.3c0.1-0.2,0.1-0.4,0-0.6c0-0.3-0.2-0.6-0.4-0.8
				C2242.9,1682.8,2242.7,1682.7,2242.5,1682.7z"/>
			<path display="inline" fill="#E2B67A" d="M2174.8,1815.7c-3.8,0-3.8,5.9,0,5.9C2178.5,1821.6,2178.5,1815.7,2174.8,1815.7z"/>
			<path display="inline" fill="#E2B67A" d="M2413.9,1783.1c0.2,0,0.2-0.4,0-0.4C2413.6,1782.8,2413.6,1783.1,2413.9,1783.1z"/>
			<path display="inline" fill="#E2B67A" d="M2408.5,1774.5c-0.3-0.2-0.6-0.4-0.8-0.6c-0.6-0.4-1.3-0.6-2.1-0.6
				c-0.4,0-0.9,0.1-1.3,0.1c-0.1,0-0.2,0-0.3,0c-0.2,0-0.4,0.1-0.7,0.1c-0.5,0-1,0.2-1.5,0.5c-0.3,0.2-0.6,0.4-0.8,0.6
				c-0.3,0.3-0.5,0.7-0.8,1c-0.3,0.5-0.5,1.1-0.5,1.7s0.2,1.2,0.5,1.7l0.1,0.1c0.2,0.3,0.4,0.6,0.7,0.9c0.2,0.2,0.5,0.5,0.8,0.6
				s0.6,0.3,0.9,0.4c0.3,0.1,0.8,0.1,1.2,0.2c0.1,0,0.2,0,0.3,0c0.4,0,0.9,0.1,1.3,0.1c0.6,0,1.1-0.1,1.6-0.4
				c0.5-0.2,0.9-0.4,1.3-0.8c0.4-0.4,0.7-0.8,0.8-1.3c0.3-0.5,0.4-1,0.4-1.6c0-0.4-0.1-0.7-0.1-1.1
				C2409.4,1775.7,2409,1775.1,2408.5,1774.5z"/>
			<path display="inline" fill="#E2B67A" d="M2383.6,1684.2c0.2,0,0.2-0.4,0-0.4C2383.4,1683.8,2383.4,1684.2,2383.6,1684.2z"/>
			<path display="inline" fill="#E2B67A" d="M2298.1,1949.5c-0.4-0.3-0.8-0.6-1.2-0.9c-0.3-0.3-0.7-0.5-1-0.8
				c-0.3-0.5-0.6-1-0.9-1.4c-0.5-0.8-1.2-1.5-2-2c-0.9-0.5-1.8-0.8-2.8-0.8c-2,0-3.8,1.1-4.8,2.8c-1,1.7-1,3.9,0,5.6
				c0.5,0.8,1.2,1.5,2,2c0.9,0.5,1.8,0.8,2.8,0.8c0.5,0,0.9-0.1,1.4-0.1c0.3,0,0.6,0,0.9,0c0.8,0.2,1.5,0.4,2.3,0.6
				c0.3,0,0.6,0.1,0.9,0.1c0.5,0,0.9-0.1,1.3-0.3c0.7-0.3,1.3-0.7,1.6-1.4c0.3-0.5,0.4-1.1,0.5-1.7c0-0.5-0.1-0.9-0.3-1.3
				C2298.7,1950.2,2298.4,1949.9,2298.1,1949.5z"/>
			<path display="inline" fill="#E2B67A" d="M2386.4,1924.9c-1.2,0-1.2,1.9,0,1.9C2387.6,1926.8,2387.6,1924.9,2386.4,1924.9z"/>
			<path display="inline" fill="#E2B67A" d="M798.5,2023c-0.4-0.2-0.8-0.3-1.3-0.4c-0.4-0.1-0.9-0.2-1.3-0.2
				c-0.9-0.2-1.7-0.3-2.6-0.5c-0.5-0.1-1.1-0.1-1.6,0s-1,0.4-1.3,0.8c-0.5,0.6-0.9,1.3-0.9,2.2c0,0.8,0.3,1.6,0.9,2.2
				c0.4,0.4,0.8,0.6,1.3,0.8c0.5,0.1,1.1,0.1,1.6,0c0.9-0.2,1.7-0.3,2.6-0.5c0.4-0.1,0.9-0.2,1.3-0.2c0.5-0.1,0.9-0.2,1.3-0.4
				c0.4-0.1,0.7-0.3,1-0.7c0.2-0.3,0.4-0.7,0.4-1.1c0-0.3-0.1-0.7-0.3-0.9C799.4,2023.4,798.9,2023.1,798.5,2023z"/>
			<path display="inline" fill="#E2B67A" d="M973.9,2109.1c-4.7,0-4.7,7.3,0,7.3C978.5,2116.3,978.5,2109.1,973.9,2109.1z"/>
			<path display="inline" fill="#E2B67A" d="M861.2,1923.3c0.2,0,0.2-0.4,0-0.4C860.9,1922.9,860.9,1923.3,861.2,1923.3z"/>
			<path display="inline" fill="#E2B67A" d="M873.6,1903.5c-0.1-0.3-0.3-0.6-0.5-0.8c-0.2-0.2-0.6-0.3-0.9-0.3
				c-0.3,0-0.5,0.1-0.7,0.2c-0.3,0.2-0.6,0.5-0.7,0.9c-0.3,0.8-0.5,1.7-0.8,2.5c-0.2,0.7,0,1.7,0.6,2.2c0.4,0.4,1,0.7,1.6,0.7
				s1.2-0.3,1.6-0.7c0.6-0.6,0.8-1.5,0.6-2.2C874.1,1905.2,873.9,1904.3,873.6,1903.5z"/>
			<path display="inline" fill="#E2B67A" d="M1134.4,1866.6c-0.3-0.3-0.7-0.5-1.2-0.7c-0.2-0.1-0.5-0.1-0.7-0.2
				c-0.4-0.1-0.9-0.2-1.3-0.3c-1-0.2-2.1,0-2.7,0.7c-0.5,0.6-0.8,1.2-0.8,2c0,0.4,0.1,0.7,0.2,1.1c0.1,0.3,0.3,0.7,0.6,0.9
				c0.7,0.7,1.8,1,2.7,0.7c0.4-0.1,0.9-0.2,1.3-0.3c0.2-0.1,0.4-0.1,0.7-0.2c0.4-0.1,0.9-0.3,1.2-0.7c0.1-0.1,0.1-0.1,0.2-0.2
				c0.7-0.7,0.7-2,0-2.7C1134.5,1866.7,1134.5,1866.6,1134.4,1866.6z"/>
			<path display="inline" fill="#E2B67A" d="M1257.7,1840.6c0-0.5-0.1-0.9-0.3-1.4c-0.1-0.4-0.4-0.8-0.7-1.1
				c-0.2-0.2-0.5-0.4-0.7-0.5c-0.5-0.3-1.1-0.5-1.8-0.5c-0.2,0-0.5,0-0.7,0c-0.1,0-0.1,0-0.2,0c-0.2,0-0.4,0-0.7,0.1
				c-0.6,0-1.2,0.2-1.7,0.5l0,0c-0.3,0.2-0.6,0.5-0.9,0.7c-0.3,0.3-0.5,0.6-0.7,0.9v0.1c0,0.1-0.1,0.2-0.1,0.2
				c-0.3,0.6-0.6,1.2-0.9,1.8c-0.1,0.3-0.2,0.6-0.4,0.9c-0.2,0.5-0.2,1-0.1,1.5c0,0.3,0.1,0.6,0.3,0.9c0.1,0.5,0.4,0.9,0.8,1.2
				c0.2,0.2,0.5,0.4,0.7,0.6c0.3,0.1,0.6,0.2,0.9,0.4c0.5,0.2,1,0.2,1.5,0.1c0.5,0,0.9-0.2,1.4-0.4c0.6-0.3,1.2-0.6,1.8-0.9
				c0.1,0,0.1-0.1,0.2-0.1h0.1c0.2-0.1,0.4-0.2,0.5-0.4c0.3-0.2,0.6-0.5,0.8-0.8c0.1-0.2,0.3-0.3,0.4-0.5c0.2-0.4,0.3-0.7,0.5-1.1
				c0.1-0.4,0.1-0.8,0.2-1.2l0,0c0-0.1,0-0.1,0-0.2C1257.7,1841.1,1257.7,1840.9,1257.7,1840.6z"/>
			<path display="inline" fill="#E2B67A" d="M1468.5,1508.9c-0.2,0-0.2,0.4,0,0.4C1468.8,1509.2,1468.8,1508.9,1468.5,1508.9z"/>
			<path display="inline" fill="#E2B67A" d="M1473,1513L1473,1513L1473,1513L1473,1513L1473,1513z"/>
			<path display="inline" fill="#E2B67A" d="M1475.1,1510.1c-0.2-0.3-0.4-0.6-0.7-0.7c-0.3-0.2-0.6-0.3-0.9-0.4s-0.7-0.2-1.1-0.2
				c-0.2,0-0.4,0-0.6,0c-0.7,0.1-1.1,0.2-1.7,0.5c-0.2,0.1-0.4,0.2-0.5,0.3c-0.3,0.2-0.7,0.5-0.9,0.8c-0.3,0.3-0.5,0.6-0.7,1
				s-0.4,0.9-0.4,1.4s0.1,1,0.4,1.4c0.4,0.6,0.9,1.1,1.6,1.3c0.7,0.2,1.5,0.1,2.1-0.3c0.4-0.2,0.7-0.6,1-1c0.2-0.3,0.2-0.6,0.2-0.9
				c0-0.1,0.1-0.1,0.1-0.1c0,0.1,0,0.1,0,0.2c0-0.1,0-0.1,0.1-0.2s0.2-0.2,0.3-0.3c-0.1,0.1-0.1,0.1-0.2,0.2l0,0
				c0.1,0,0.1-0.1,0.2-0.1c0.1-0.1,0.2-0.1,0.3-0.2c0.1,0,0.2-0.1,0.3-0.1c-0.1,0-0.2,0-0.2,0l0,0c0.2,0,0.4-0.1,0.6-0.2
				c0.3-0.1,0.7-0.3,0.8-0.6c0.2-0.3,0.3-0.7,0.1-1.1C1475.2,1510.5,1475.2,1510.3,1475.1,1510.1z M1473.1,1512.8c0,0.1,0,0.1,0,0.2
				l0,0l0,0l0,0l0,0l0,0l0,0l0,0l-0.1,0.1l0.1-0.1C1473,1512.9,1473.1,1512.8,1473.1,1512.8z M1473,1513.1L1473,1513.1L1473,1513.1
				L1473,1513.1z M1473.6,1512.6L1473.6,1512.6L1473.6,1512.6L1473.6,1512.6z"/>
			<path display="inline" fill="#E2B67A" d="M1474.6,1512.3c-0.1,0-0.1,0.1-0.2,0.1C1474.4,1512.4,1474.4,1512.4,1474.6,1512.3
				C1474.5,1512.3,1474.5,1512.3,1474.6,1512.3z"/>
			<path display="inline" fill="#E2B67A" d="M1474.4,1512.4C1474.3,1512.4,1474.3,1512.4,1474.4,1512.4
				C1474.3,1512.4,1474.3,1512.4,1474.4,1512.4C1474.3,1512.4,1474.3,1512.4,1474.4,1512.4z"/>
			<path display="inline" fill="#E2B67A" d="M1474.3,1512.4L1474.3,1512.4C1474.3,1512.4,1474.2,1512.4,1474.3,1512.4
				C1474.2,1512.4,1474.3,1512.4,1474.3,1512.4z"/>
			<path display="inline" fill="#E2B67A" d="M1389.5,1766.7c-0.2-0.2-0.5-0.4-0.7-0.5c-0.5-0.3-1.1-0.5-1.8-0.5
				c-0.5,0-0.9,0.1-1.4,0.3c-0.4,0.1-0.8,0.4-1.1,0.7c-0.3,0.3-0.6,0.7-0.7,1.1c-0.2,0.4-0.3,0.9-0.3,1.4c0,0.3,0.1,0.6,0.1,0.9
				c0.2,0.6,0.5,1.1,0.9,1.6c0.2,0.2,0.5,0.4,0.7,0.6c0.5,0.3,1.1,0.5,1.8,0.5c0.5,0,0.9-0.1,1.4-0.3c0.4-0.1,0.8-0.4,1.1-0.7
				c0.3-0.3,0.6-0.7,0.7-1.1c0.2-0.4,0.3-0.9,0.3-1.4c0-0.3-0.1-0.6-0.1-0.9C1390.2,1767.7,1389.9,1767.2,1389.5,1766.7z"/>
			<path display="inline" fill="#E2B67A" d="M617.6,1882.2c-0.2-0.3-0.4-0.5-0.7-0.7c-0.2-0.2-0.5-0.4-0.8-0.5
				c-0.3-0.2-0.6-0.3-0.9-0.3c-0.5-0.1-1-0.1-1.5,0.1c-0.4,0.1-0.8,0.3-1.1,0.4c-0.1,0-0.2,0.1-0.3,0.1c-0.4,0.1-0.7,0.3-1.1,0.4
				c-0.2,0.1-0.4,0.2-0.5,0.4c-0.2,0.2-0.4,0.3-0.5,0.4c-0.2,0.2-0.3,0.3-0.5,0.5s-0.3,0.3-0.5,0.5c-0.1,0.1-0.2,0.2-0.2,0.2
				l-0.1,0.1c0,0,0,0,0,0.1c-0.2,0.3-0.5,0.6-0.7,0.9c-0.4,0.6-0.5,1.4-0.7,2.2c-0.3,1.3,0,2.7,0.9,3.6c0.5,0.5,1,0.8,1.6,0.9
				c0.7,0.2,1.3,0.2,2,0c0.4-0.1,0.8-0.2,1.1-0.3c0.8-0.2,1-0.4,1.6-0.8c0.2-0.2,0.4-0.3,0.5-0.4s0.2-0.1,0.2-0.2
				c0.2-0.2,0.3-0.3,0.5-0.5c0.2-0.1,0.3-0.3,0.5-0.4c0.4-0.4,0.8-0.9,1-1.4c0.2-0.4,0.3-0.8,0.5-1.2c0.1-0.3,0.3-0.6,0.4-0.9
				c0-0.3,0.1-0.7,0.1-1s-0.1-0.7-0.1-1C618.1,1883,617.9,1882.5,617.6,1882.2z"/>
			<path display="inline" fill="#E2B67A" d="M1010.5,2011.4c-0.1-0.4-0.3-0.8-0.5-1.1c-0.5-1-2.2-1-2.7,0c-0.2,0.4-0.4,0.7-0.5,1.1
				c-0.1,0.3-0.1,0.6-0.2,0.9c-0.1,0.6-0.3,1.2-0.4,1.8c-0.2,0.9,0,1.9,0.7,2.5c0.5,0.5,1.1,0.8,1.8,0.8s1.4-0.3,1.8-0.8
				c0.7-0.7,0.9-1.6,0.7-2.5c-0.1-0.6-0.3-1.2-0.4-1.8C1010.7,2012,1010.6,2011.7,1010.5,2011.4z"/>
			<path display="inline" fill="#E2B67A" d="M2505.8,2177v-0.1c0-0.5-0.1-1.1-0.3-1.5c0-0.2-0.1-0.4-0.2-0.5
				c-0.2-0.3-0.4-0.6-0.6-0.8c0,0,0-0.1-0.1-0.1c-0.1-0.1-0.2-0.3-0.3-0.4c-0.3-0.3-0.7-0.6-1.1-0.7c-0.4-0.2-0.8-0.3-1.3-0.3
				c-0.3,0-0.6,0.1-0.9,0.1c-0.6,0.2-1.1,0.4-1.5,0.9c-0.1,0.1-0.2,0.3-0.3,0.4c-0.3,0.3-0.5,0.6-0.7,1c-0.4,0.7-0.5,1.3-0.6,2.1
				c0,0.1,0,0.1,0,0.2c0,0.5-0.1,1-0.1,1.5c0,0.6,0.1,1.1,0.4,1.6c0.2,0.5,0.4,0.9,0.8,1.3c0.4,0.4,0.8,0.7,1.3,0.8
				c0.5,0.3,1,0.4,1.6,0.4c0.4,0,0.7-0.1,1.1-0.1c0.7-0.2,1.3-0.5,1.8-1.1c0.2-0.3,0.4-0.6,0.6-0.8c0.4-0.6,0.6-1.3,0.6-2.1
				c0-0.5-0.1-1-0.1-1.5C2505.8,2177.2,2505.8,2177.1,2505.8,2177z"/>
			<path display="inline" fill="#E2B67A" d="M2323,2053.4v-0.1c0-0.5-0.1-1.1-0.3-1.5c0-0.2-0.1-0.4-0.2-0.5
				c-0.2-0.3-0.4-0.6-0.6-0.8c0,0,0-0.1-0.1-0.1c-0.1-0.1-0.2-0.3-0.3-0.4c-0.3-0.3-0.7-0.6-1.1-0.7c-0.4-0.2-0.8-0.3-1.3-0.3
				c-0.3,0-0.6,0.1-0.9,0.1c-0.6,0.2-1.1,0.4-1.5,0.9c-0.1,0.1-0.2,0.3-0.3,0.4c-0.3,0.3-0.5,0.6-0.7,1c-0.4,0.7-0.5,1.3-0.6,2.1
				c0,0.1,0,0.1,0,0.2c0,0.5-0.1,1-0.1,1.5c0,0.6,0.1,1.1,0.4,1.6c0.2,0.5,0.4,0.9,0.8,1.3c0.4,0.4,0.8,0.7,1.3,0.8
				c0.5,0.3,1,0.4,1.6,0.4c0.4,0,0.7-0.1,1.1-0.1c0.7-0.2,1.3-0.5,1.8-1.1c0.2-0.3,0.4-0.6,0.6-0.8c0.4-0.6,0.6-1.3,0.6-2.1
				c0-0.5-0.1-1-0.1-1.5C2323,2053.5,2323,2053.4,2323,2053.4z"/>
			<path display="inline" fill="#E2B67A" d="M3301.4,1266.4c-0.1-0.1-0.2-0.2-0.3-0.4c-0.2-0.2-0.3-0.3-0.6-0.5s-0.4-0.3-0.6-0.4
				c0,0-0.1,0-0.1-0.1c-0.4-0.2-0.7-0.4-1.1-0.5c-0.8-0.5-1.7-0.7-2.7-0.7s-1.9,0.2-2.7,0.7c-1.6,0.9-2.6,2.7-2.6,4.6s1,3.7,2.6,4.6
				c0.8,0.5,1.7,0.7,2.7,0.7s1.9-0.2,2.7-0.7c0.4-0.2,0.7-0.4,1.1-0.5c0.5-0.2,1-0.6,1.3-1c0.1-0.1,0.2-0.2,0.3-0.4
				c0.4-0.3,0.6-0.8,0.8-1.2c0.2-0.5,0.3-0.9,0.3-1.5c0-0.3-0.1-0.7-0.1-1C3302.2,1267.4,3301.9,1266.8,3301.4,1266.4z"/>
			<path display="inline" fill="#E2B67A" d="M3383.5,1201.9c-0.3-0.4-0.6-0.8-0.9-1.2c-0.4-0.4-0.8-0.7-1.2-0.9c0,0,0,0-0.1,0
				l-0.1-0.1c-0.1-0.1-0.2-0.1-0.3-0.2c-1.5-0.9-3.5-0.9-5,0c-0.1,0.1-0.2,0.1-0.3,0.2l-0.1,0.1c0,0,0,0-0.1,0
				c-0.2,0.1-0.4,0.3-0.6,0.5c-0.6,0.4-1.1,1-1.5,1.7l0,0c-0.4,0.7-0.7,1.4-0.7,2.2c-0.2,0.8-0.1,1.6,0.1,2.4
				c0.2,0.5,0.4,0.9,0.6,1.4c0,0.1,0.1,0.2,0.1,0.3c0.1,0.2,0.1,0.3,0.2,0.5c0.5,0.8,1.1,1.5,2,2s1.8,0.7,2.8,0.8
				c1,0,1.9-0.3,2.8-0.8c0.8-0.5,1.5-1.1,2-2c0.1-0.2,0.1-0.3,0.2-0.5c0-0.1,0.1-0.2,0.1-0.2c0.2-0.5,0.4-0.9,0.6-1.4
				c0.1-0.5,0.1-1,0.2-1.6c0-0.8-0.1-1.6-0.5-2.3C3383.7,1202.4,3383.6,1202.1,3383.5,1201.9z"/>
			<path display="inline" fill="#E2B67A" d="M3340.9,1074.3c-0.4-0.2-0.8-0.3-1.2-0.3c-0.7,0-1.2,0.3-1.7,0.7
				c-0.7,0.5-1.3,1.1-2,1.6s-1.4,1-2,1.6c-0.3,0.3-0.6,0.6-0.9,0.9c-0.5,0.5-1.1,1.1-1.4,1.7c-0.4,0.6-0.7,1.4-0.9,2
				c-0.2,0.7-0.1,1.3-0.1,2c0,1.1,0.5,2,1.3,2.7c0.8,0.6,2,1,3,0.6c0.6-0.2,1.3-0.4,1.8-0.7c0.4-0.2,0.8-0.6,1.2-1s0.7-0.8,1-1.2
				c0.2-0.4,0.4-0.8,0.6-1.2c0.3-0.5,0.5-1.1,0.8-1.6c0.7-1.7,1.2-3.4,1.8-5.1C3342.3,1076.1,3341.8,1074.8,3340.9,1074.3z"/>
			<path display="inline" fill="#E2B67A" d="M3438.2,1028.9c-0.6-0.4-1.2-0.6-1.9-0.6c-0.7-0.2-1.3-0.1-2,0.1
				c-0.9,0.4-1.7,0.7-2.6,1.1c-1.1,0.3-2,0.8-2.8,1.6c-0.8,0.8-1.3,1.7-1.6,2.8c-0.6,2.2,0,4.5,1.6,6.1s3.9,2.2,6.1,1.6
				c1.1-0.3,2-0.8,2.8-1.6c0.8-0.8,1.3-1.7,1.6-2.8c0.4-0.9,0.7-1.7,1.1-2.6c0.2-0.7,0.2-1.3,0.1-2c0-0.7-0.2-1.3-0.6-1.9
				C3439,1029.4,3439.5,1029.9,3438.2,1028.9z"/>
			<path display="inline" fill="#E2B67A" d="M3407.4,948.7c-0.3-0.3-0.6-0.4-1-0.6c-0.3-0.1-0.6-0.1-0.9,0c-0.3,0-0.6,0.1-0.8,0.3
				c-1.1,0.7-2.1,1.3-3.2,2c-0.9,0.6-1.6,1.6-1.5,2.6c0,0.3,0.1,0.5,0.1,0.8c0.1,0.5,0.4,1,0.8,1.3c0.3,0.3,0.6,0.5,1,0.6
				c0.4,0.2,0.8,0.3,1.2,0.3c1.1,0,2.1-0.6,2.6-1.5c0.7-1.1,1.3-2.1,2-3.2c0.1-0.2,0.1-0.3,0.2-0.5c0.1-0.3,0.1-0.6,0-0.9
				c0-0.2-0.1-0.4-0.1-0.5C3407.8,949.2,3407.7,948.9,3407.4,948.7z"/>
			<path display="inline" fill="#E2B67A" d="M3373.8,808.1c0.3-0.4,0.6-0.8,0.7-1.3c0-0.3,0.1-0.7,0.1-1c0-0.7-0.2-1.3-0.5-1.9
				c-0.2-0.3-0.4-0.5-0.6-0.8c0,0-0.1,0-0.1-0.1c-0.3-0.4-0.7-0.8-1.1-1.1c-0.4-0.3-0.9-0.4-1.4-0.4c-0.5-0.1-1-0.1-1.5,0.1
				c-0.6,0.2-1.2,0.5-1.7,1c-0.1,0.1-0.2,0.3-0.3,0.4c-0.3,0.4-0.6,0.8-0.7,1.3c0,0.1-0.1,0.9-0.1,1c0,0,0,0,0,0.1
				c0,0.4,0.1,0.7,0.2,1.1c0,0,0,0,0,0.1c0.1,0.2,0.3,0.7,0.4,0.9l0,0l0,0l0,0c0.1,0.1,0.5,0.6,0.6,0.8c0,0,0,0.1,0.1,0.1l0,0
				c0.2,0.1,0.6,0.5,0.8,0.6l0,0c0,0,0.1,0,0.1,0.1c0.3,0.2,0.7,0.3,1,0.4c0.5,0.2,1,0.2,1.5,0.1c0.5,0,1-0.2,1.4-0.4
				C3373.2,808.8,3373.6,808.5,3373.8,808.1z M3372.6,802.5c0.2,0.2,0.4,0.3,0.6,0.5c-0.4-0.3-0.8-0.6-1.3-0.7
				C3372.1,802.3,3372.4,802.4,3372.6,802.5z"/>
			<path display="inline" fill="#E2B67A" d="M3400.7,707.7c0.2-0.1,0.5-0.2,0.7-0.4c0.6-0.3,1-1,1-1.7c0-0.6-0.4-1.4-1-1.7
				c-0.2-0.1-0.5-0.2-0.7-0.4c-0.2-0.1-0.4-0.2-0.6-0.3c-0.2-0.1-0.3-0.3-0.5-0.4c-0.4-0.2-0.8-0.4-1.2-0.4
				c-0.4-0.1-0.9-0.1-1.3,0.1c-0.3,0.1-0.5,0.2-0.8,0.3c-0.5,0.3-0.9,0.7-1.2,1.2c-0.3,0.4-0.5,1.1-0.5,1.6c0,0.3,0.1,0.5,0.1,0.8
				c0.1,0.3,0.2,0.5,0.3,0.8c0,0,0,0,0.1,0.1c0.2,0.4,0.5,0.7,0.8,0.9c0.3,0.3,0.7,0.5,1.1,0.6c0.3,0,0.6,0.1,0.9,0.1
				c0.6,0,1.1-0.1,1.6-0.4c0.2-0.1,0.4-0.3,0.5-0.4C3400.3,707.9,3400.5,707.8,3400.7,707.7z"/>
			<path display="inline" fill="#E2B67A" d="M3369.7,615c-0.1-0.4-0.1-0.9-0.2-1.3c-0.2-0.9-0.7-1.6-1.3-2.2c-0.5-0.5-1-0.8-1.6-1
				c-0.6-0.3-1.2-0.5-1.9-0.4c-0.7,0-1.3,0.1-1.9,0.4c-0.6,0.2-1.2,0.6-1.6,1c-0.6,0.6-1.1,1.4-1.3,2.2c-0.2,0.5-0.4,1.1-0.6,1.6
				c-0.1,0.2-0.2,0.5-0.3,0.7c-0.1,0.3-0.1,0.5-0.2,0.8c-0.1,0.8-0.4,1.7-0.3,2.6c0.1,0.8,0.1,1.7,0.6,2.4c0.4,0.7,1,1.2,1.7,1.5
				s1.6,0.4,2.4,0.2c0.5-0.1,1-0.4,1.4-0.7c0.7-0.4,1.3-1,1.9-1.6c1-1.1,1.8-2.4,2.6-3.7C3369.5,616.8,3369.7,615.9,3369.7,615z"/>
			<path display="inline" fill="#E2B67A" d="M3163,1252c-0.3-0.6-0.7-1-1.2-1.3c-0.5-0.4-1-0.7-1.6-0.9c-0.4-0.1-0.7-0.2-1.1-0.3
				c-0.9-0.2-1.8-0.2-2.7,0s-1.6,0.7-2.3,1.3c-0.3,0.3-0.5,0.7-0.8,1c-0.5,0.8-0.7,1.7-0.7,2.6c0,0.7,0.1,1.4,0.4,2
				c0.2,0.6,0.6,1.2,1.1,1.7c0.6,0.6,1.4,1.1,2.3,1.3c0.9,0.2,1.8,0.2,2.7,0c0.4-0.1,0.7-0.2,1.1-0.3c0.4-0.2,0.8-0.3,1.1-0.5
				c0.6-0.3,1-0.7,1.3-1.2c0.3-0.3,0.5-0.7,0.6-1.1c0.3-0.6,0.4-1.2,0.4-1.9c-0.1-0.4-0.1-0.9-0.2-1.3
				C3163.3,1252.7,3163.1,1252.3,3163,1252z"/>
			<path display="inline" fill="#E2B67A" d="M3260.3,1166.8c-6.6,0-6.6,10.2,0,10.2C3266.8,1177,3266.8,1166.8,3260.3,1166.8z"/>
			<path display="inline" fill="#E2B67A" d="M2960.9,1181.8c-0.4-0.4-0.8-0.7-1.3-0.9c-0.5-0.3-1-0.4-1.6-0.4
				c-1.5,0-2.9,0.8-3.6,2.1c-0.2,0.3-0.3,0.6-0.5,0.9c-0.2,0.4-0.5,0.9-0.5,1.3c0,0.2-0.1,0.3-0.1,0.5c-0.2,0.6-0.2,1.2,0,1.8
				c0.2,0.6,0.4,1.1,0.9,1.5c0.4,0.4,0.9,0.7,1.5,0.9c0.6,0.2,1.2,0.2,1.8,0c0.2,0,0.3-0.1,0.5-0.1c0.5-0.1,0.9-0.3,1.3-0.5
				c0.3-0.2,0.6-0.3,0.9-0.5c0.6-0.4,1.1-0.9,1.5-1.5s0.6-1.3,0.6-2.1c0-0.4-0.1-0.7-0.1-1.1
				C2961.8,1183,2961.4,1182.3,2960.9,1181.8z"/>
			<path display="inline" fill="#E2B67A" d="M2821.6,1109.9c-0.7-0.1-1.4-0.1-2,0.1c-0.1,0-0.2,0.1-0.3,0.1
				c-0.2,0.1-0.4,0.1-0.6,0.2c-0.2,0.1-0.4,0.3-0.5,0.4c-0.2,0.1-0.3,0.3-0.5,0.5c-0.5,0.6-0.9,1.2-1.1,2c-0.1,0.4-0.2,0.8-0.2,1.2
				c0,0.3,0.1,0.6,0.1,0.9c0,0.1,0.1,0.3,0.1,0.4c0.1,0.4,0.3,0.7,0.6,1c0.2,0.1,0.3,0.2,0.5,0.3c0.3,0.2,0.7,0.3,1.1,0.3
				c0.3,0,0.6-0.1,0.9-0.2c0.3-0.1,0.5-0.2,0.7-0.5c0.2-0.2,0.4-0.4,0.5-0.7c0.1-0.3,0.2-0.6,0.2-0.9c0-0.4-0.1-0.7-0.3-1l0,0
				c0,0,0,0.1,0.1,0.1c0-0.1,0-0.1-0.1-0.2l0,0c0-0.1,0-0.1,0-0.2c0.1-0.1,0.1-0.2,0.2-0.3c0.1-0.2,0.3-0.3,0.4-0.5l0,0
				c-0.1,0.1-0.2,0.2-0.2,0.3c0.1-0.1,0.2-0.3,0.4-0.4c0.1,0,0.1-0.1,0.2-0.1c0.1,0,0.2-0.1,0.3-0.1c-0.1,0-0.1,0-0.2,0l0,0
				c0.1,0,0.2,0,0.3,0s0.3-0.1,0.4-0.2h0.1c0.2-0.1,0.5-0.2,0.6-0.5c0.1-0.2,0.2-0.5,0.1-0.8c-0.1-0.3-0.3-0.6-0.5-0.9
				C2822.5,1110.2,2822,1110,2821.6,1109.9z M2821.7,1112.9L2821.7,1112.9L2821.7,1112.9L2821.7,1112.9z M2821.4,1113.1
				C2821.5,1113,2821.5,1113,2821.4,1113.1C2821.5,1113,2821.5,1113,2821.4,1113.1L2821.4,1113.1z M2821.8,1112.8
				C2821.8,1112.8,2821.7,1112.8,2821.8,1112.8L2821.8,1112.8C2821.7,1112.8,2821.8,1112.8,2821.8,1112.8L2821.8,1112.8z"/>
			<path display="inline" fill="#E2B67A" d="M3026.1,1119.9c-0.6-0.6-1.3-1.2-2.2-1.4c-0.3-0.1-0.5-0.1-0.8-0.2
				c-0.5-0.1-1-0.3-1.6-0.4c-0.9-0.2-1.7-0.2-2.6,0c-0.8,0.2-1.5,0.6-2.1,1.3c-0.3,0.3-0.5,0.7-0.8,1c-0.4,0.8-0.7,1.6-0.7,2.5
				c0,0.7,0.1,1.3,0.4,1.9c0.2,0.6,0.5,1.1,1,1.6c1.2,1.2,3,1.7,4.7,1.3c0.5-0.1,1-0.3,1.6-0.4c0.3-0.1,0.5-0.1,0.8-0.2
				c0.9-0.2,1.6-0.8,2.2-1.4c0.4-0.3,0.6-0.7,0.8-1.2c0.2-0.4,0.3-0.9,0.3-1.4c0-0.3-0.1-0.7-0.1-1
				C3026.9,1120.9,3026.6,1120.3,3026.1,1119.9z"/>
			<path display="inline" fill="#E2B67A" d="M3138.1,1156.7c-0.2-0.2-0.5-0.4-0.7-0.5c-0.5-0.3-1.1-0.5-1.7-0.5
				c-0.3,0-0.5,0.1-0.8,0.1h-0.1c-0.2,0-0.3,0-0.5,0.1c-0.4,0-0.9,0.2-1.2,0.4c-0.3,0.2-0.5,0.4-0.8,0.6c-0.1,0.1-0.2,0.1-0.2,0.2
				c-0.3,0.3-0.5,0.6-0.6,1c-0.2,0.4-0.3,0.7-0.3,1.1c0,0.3,0.1,0.5,0.1,0.8c0.1,0.5,0.4,0.9,0.8,1.3c0.1,0.1,0.1,0.1,0.2,0.2
				c0,0,0,0,0.1,0c0.1,0.1,0.2,0.2,0.4,0.3c0.1,0.1,0.2,0.2,0.4,0.3c0.3,0.1,0.5,0.2,0.8,0.3c0.3,0,0.6,0.1,0.9,0.1h0.1
				c0.3,0,0.5,0.1,0.8,0.1c0.5,0,0.9-0.1,1.3-0.3c0.4-0.1,0.8-0.4,1.1-0.7c0.3-0.3,0.6-0.7,0.7-1.1c0.2-0.4,0.3-0.9,0.3-1.3
				c0-0.3-0.1-0.6-0.1-0.9C3138.9,1157.6,3138.6,1157.1,3138.1,1156.7z"/>
			<path display="inline" fill="#E2B67A" d="M3238,1071.4c-0.3-0.3-0.6-0.5-1-0.6c-0.1,0-0.3-0.1-0.4-0.1c-0.3-0.1-0.5-0.1-0.8-0.1
				c-0.4,0-0.6,0.1-0.9,0.2c-0.3,0.1-0.6,0.2-1,0.3c-0.7,0.2-1.3,0.4-2,0.6c-0.8,0.3-1.5,0.8-1.9,1.5c-0.3,0.5-0.4,1-0.4,1.6
				c0,0.4,0.1,0.9,0.3,1.2c0.1,0.4,0.4,0.7,0.7,1s0.6,0.5,1,0.7s0.8,0.3,1.2,0.3c0.6,0,1.1-0.1,1.6-0.4c0.6-0.4,1.2-0.8,1.7-1.2
				c0.3-0.2,0.6-0.4,0.8-0.6c0.5-0.3,0.9-0.7,1.2-1.2c0.1-0.1,0.1-0.3,0.2-0.4c0.2-0.3,0.3-0.7,0.3-1.1c0-0.3-0.1-0.6-0.2-0.9
				C3238.4,1071.9,3238.2,1071.6,3238,1071.4z"/>
			<path display="inline" fill="#E2B67A" d="M3311.6,982.7c-5.4,0-5.4,8.3,0,8.3C3316.9,991.1,3316.9,982.7,3311.6,982.7z"/>
			<path display="inline" fill="#E2B67A" d="M3423.3,1117.9c-6,0-6,9.3,0,9.3C3429.3,1127.1,3429.3,1117.9,3423.3,1117.9z"/>
			<path display="inline" fill="#E2B67A" d="M3357.5,523.3c-0.1-0.1-0.1-0.2-0.2-0.3c-0.1-0.2-0.2-0.2-0.4-0.4s-0.3-0.2-0.4-0.3
				h-0.1c-0.2-0.1-0.5-0.2-0.7-0.4c-0.6-0.3-1.2-0.5-1.9-0.5s-1.3,0.2-1.9,0.5c-1.2,0.7-1.9,1.9-1.9,3.3c0,1.3,0.7,2.6,1.9,3.3
				c0.6,0.3,1.2,0.5,1.9,0.5s1.3-0.2,1.9-0.5c0.2-0.1,0.5-0.2,0.7-0.4c0.3-0.2,0.7-0.4,0.9-0.7c0.1-0.1,0.1-0.2,0.2-0.3
				c0.3-0.2,0.5-0.5,0.6-0.9c0.2-0.3,0.3-0.7,0.2-1.1c0-0.2-0.1-0.5-0.1-0.7C3358.1,524,3357.8,523.6,3357.5,523.3z"/>
			<path display="inline" fill="#E2B67A" d="M3440.6,826.5c-0.1-0.5-0.2-1-0.4-1.4c-0.1-0.2-0.2-0.4-0.2-0.6
				c-0.2-0.3-0.4-0.5-0.6-0.7c-0.1-0.1-0.3-0.3-0.5-0.3c-0.3-0.2-0.6-0.2-0.9-0.2c-0.4,0-0.8,0.1-1.2,0.3c-0.5,0.3-1,0.9-1.1,1.4
				s-0.2,1-0.4,1.4c-0.2,0.3-0.4,0.6-0.6,1c-0.7,1.1-0.7,2.7,0,3.8c0.7,1.2,1.9,1.9,3.3,1.9c1.3,0,2.6-0.7,3.3-1.9
				c0.7-1.1,0.7-2.7,0-3.8C3441.1,827.1,3440.9,826.8,3440.6,826.5z"/>
			<path display="inline" fill="#E2B67A" d="M3540.4,463.4c0.2,0.3,0.3,0.6,0.5,0.9c0.9,1.7,2.2,2.3,3.4,2.1
				c1.2,0.2,2.5-0.4,3.4-2.1c0.2-0.3,0.3-0.6,0.5-0.9C3552.5,455,3535.9,455,3540.4,463.4z"/>
			<path display="inline" fill="#E2B67A" d="M3560.7,345.1c-5.4,0-5.4,8.4,0,8.4C3566.2,353.6,3566.2,345.1,3560.7,345.1z"/>
			<path display="inline" fill="#E2B67A" d="M3608.7,281.7c0.2,0.3,0.4,0.5,0.6,0.8c0.3,0.2,0.5,0.4,0.8,0.6
				c0.3,0.1,0.6,0.3,0.9,0.4c0.5,0.2,1,0.2,1.5,0.1c0.3,0,0.7-0.1,1-0.3c0.5-0.2,0.9-0.4,1.2-0.8c0.3-0.3,0.6-0.6,1-0.9
				c0.3-0.2,0.4-0.5,0.5-0.8c0.2-0.3,0.2-0.7,0.2-1c0-0.2-0.1-0.5-0.1-0.7c-0.1-0.4-0.4-0.8-0.7-1.2c-0.3-0.3-0.6-0.6-1-0.9
				c-0.3-0.2-0.5-0.4-0.8-0.6c-0.3-0.1-0.6-0.3-0.9-0.4c-0.5-0.2-1-0.2-1.5-0.1c-0.3,0-0.7,0.1-1,0.3c-0.3,0.1-0.6,0.3-0.9,0.5
				c-0.3,0.2-0.5,0.4-0.7,0.7c-0.2,0.2-0.4,0.5-0.5,0.9c-0.2,0.5-0.4,1-0.3,1.5c0,0.3,0.1,0.7,0.1,1
				C3608.4,281.1,3608.6,281.4,3608.7,281.7z"/>
			<path display="inline" fill="#E2B67A" d="M3527,567.7c-0.2-0.3-0.4-0.6-0.7-0.8c-0.2-0.2-0.4-0.3-0.7-0.5
				c-0.3-0.1-0.5-0.2-0.8-0.3c-0.4-0.1-0.9-0.2-1.3-0.1c-0.3,0-0.6,0.1-0.8,0.2c-0.3,0.1-0.5,0.2-0.7,0.4c-0.2,0.1-0.4,0.3-0.6,0.6
				c-0.2,0.2-0.3,0.4-0.4,0.7c-0.2,0.4-0.3,0.8-0.3,1.2c0,0.3,0.1,0.6,0.1,0.9c0.1,0.3,0.2,0.5,0.3,0.8c0.2,0.2,0.3,0.4,0.5,0.7
				c0.2,0.2,0.4,0.3,0.7,0.5c0.3,0.1,0.5,0.2,0.8,0.3c0.4,0.1,0.9,0.2,1.3,0.1c0.3,0,0.6-0.1,0.8-0.2c0.4-0.1,0.7-0.4,1-0.7
				c0.2-0.3,0.4-0.6,0.7-0.8c0.2-0.2,0.3-0.4,0.4-0.7c0.1-0.2,0.2-0.5,0.2-0.8c0-0.2,0-0.4-0.1-0.5
				C3527.5,568.3,3527.3,568,3527,567.7z"/>
			<path display="inline" fill="#E2B67A" d="M3569.5,660.9c-0.2-0.1-0.3-0.3-0.5-0.4c-0.4-0.2-0.8-0.3-1.2-0.3
				c-0.5-0.1-1.1-0.1-1.6-0.2c-0.4,0-0.7,0.1-1,0.2c-0.3,0.1-0.6,0.3-0.8,0.5c-0.3,0.2-0.4,0.5-0.5,0.8c-0.2,0.3-0.2,0.6-0.2,1
				c0,0.2,0.1,0.5,0.1,0.7c0.1,0.4,0.3,0.8,0.7,1.1c0.2,0.1,0.3,0.3,0.5,0.4c0.4,0.2,0.8,0.4,1.3,0.4c0.5-0.1,1.1-0.1,1.6-0.2
				c0.3,0,0.6-0.1,0.9-0.2c0.3-0.1,0.6-0.3,0.8-0.5s0.4-0.5,0.5-0.8c0.2-0.3,0.2-0.6,0.2-0.9c0-0.2-0.1-0.4-0.1-0.6
				C3570,661.6,3569.8,661.2,3569.5,660.9z"/>
			<path display="inline" fill="#E2B67A" d="M3616.4,405.2L3616.4,405.2C3616.4,405.1,3616.4,405.1,3616.4,405.2z"/>
			<path display="inline" fill="#E2B67A" d="M3613.8,409.6c0.1-0.1,0.2-0.1,0.3-0.2c0,0,0.1,0,0.1-0.1l0,0c0.1-0.1,0.3-0.2,0.4-0.3
				c0.1,0,0.2-0.1,0.2-0.1c0.2-0.2,0.4-0.3,0.7-0.5c0.2-0.2,0.4-0.4,0.5-0.7c0,0,0,0,0-0.1c-0.2,0.2-0.3,0.4-0.5,0.6
				c0.4-0.5,0.6-0.7,0.7-1.3c0-0.1,0.1-0.6,0.1-0.9c0-0.2-0.1-0.8-0.1-1c-0.1-0.4-0.3-0.8-0.6-1.1c-0.1-0.1-0.2-0.3-0.3-0.4
				c-0.3-0.2-0.6-0.5-0.9-0.7c-0.4-0.3-0.9-0.4-1.3-0.6c-0.8-0.3-1.8-0.1-2.6,0c-0.5,0.1-1.1,0.4-1.5,0.6c-0.1,0-0.2,0.1-0.3,0.1
				c-0.7,0.4-1.1,1-1.6,1.6c-0.3,0.4-0.5,1-0.7,1.5s-0.2,1.1-0.3,1.6c0,0.3,0.1,0.7,0.1,1c0.1,0.5,0.3,0.9,0.7,1.3
				c0.2,0.3,0.4,0.5,0.7,0.7c0.4,0.3,0.8,0.6,1.3,0.7c0.3,0,0.7,0.1,1,0.1s0.7-0.1,1-0.1c0.5-0.1,0.9-0.3,1.3-0.7
				c0.4-0.3,0.7-0.6,1-1.1c0,0,0,0,0-0.1l0.1-0.1c0,0,0,0-0.1,0.1l0,0C3613.6,409.7,3613.7,409.6,3613.8,409.6z M3613.3,410
				c-0.2,0.1-0.4,0.3-0.5,0.4C3613,410.2,3613.2,410.1,3613.3,410C3613.3,409.9,3613.3,409.9,3613.3,410z"/>
			<path display="inline" fill="#E2B67A" d="M3676.8,354.2c-0.2-0.2-0.5-0.4-0.7-0.6c-0.3-0.1-0.6-0.2-0.9-0.4
				c-0.5-0.1-0.9-0.2-1.4-0.1c-0.5,0-0.9,0.2-1.3,0.4c-0.7,0.4-1.5,0.8-2.2,1.2c-0.6,0.4-1.2,0.9-1.5,1.5c-0.4,0.7-0.6,1.4-0.6,2.2
				c0.1,0.4,0.1,0.8,0.2,1.1c0.2,0.7,0.6,1.4,1.1,1.9c0.4,0.4,0.8,0.7,1.4,0.9c0.5,0.3,1.1,0.4,1.6,0.4c1.5,0,3-0.8,3.7-2.1
				c0.4-0.7,0.8-1.5,1.2-2.2c0.1-0.3,0.2-0.6,0.4-0.9c0.1-0.5,0.2-1,0.1-1.4c0-0.3-0.1-0.6-0.2-0.9
				C3677.4,354.9,3677.2,354.5,3676.8,354.2z"/>
			<path display="inline" fill="#E2B67A" d="M3679.2,288.9c-0.6-0.3-1.2-0.6-1.8-0.8c-0.1,0-0.3-0.1-0.4-0.1
				c-0.5-0.2-1.1-0.2-1.6-0.2c-0.3,0-0.6-0.1-1-0.1c-0.7,0-1.3,0.1-1.9,0.4c-0.6,0.2-1.1,0.5-1.6,1c-0.5,0.4-0.8,1-1,1.6
				c-0.3,0.6-0.4,1.2-0.4,1.9c0.1,0.4,0.1,0.9,0.2,1.3c0.2,0.8,0.6,1.5,1.3,2.1c0.3,0.3,0.7,0.5,1,0.8c0.8,0.4,1.6,0.7,2.5,0.7
				c0.3,0,0.6-0.1,0.9-0.1c0.1,0,0.2,0,0.3,0c0.4-0.1,0.8-0.1,1.3-0.2h0.1c0.1,0,0.3-0.1,0.4-0.1c0.6-0.2,1.2-0.4,1.8-0.8
				c0.2-0.1,0.5-0.3,0.7-0.4c1.1-0.7,1.9-1.9,1.9-3.2c0-1.3-0.7-2.6-1.9-3.2C3679.6,289.2,3679.4,289,3679.2,288.9z"/>
			<path display="inline" fill="#E2B67A" d="M3762.6,328.9c-0.7-0.7-1.5-1.2-2.5-1.4c-1-0.3-2-0.3-3,0c-0.4,0.1-0.8,0.1-1.2,0.2
				c-0.9,0.3-1.7,0.7-2.4,1.4c-0.7,0.7-1.1,1.5-1.4,2.4c-0.3,1.8-0.3,1.1,0,2.9c0.3,0.9,0.7,1.7,1.4,2.4c0.7,0.7,1.5,1.1,2.4,1.4
				c0.4,0.1,0.8,0.1,1.2,0.2c1,0.3,2,0.3,3,0s1.8-0.7,2.5-1.4c0.3-0.4,0.6-0.8,0.9-1.1c0.5-0.9,0.8-1.8,0.8-2.8
				c0-0.8-0.1-1.5-0.5-2.2C3763.5,330,3763.1,329.4,3762.6,328.9z"/>
			<path display="inline" fill="#E2B67A" d="M3714.6,227c-4.1,0-4.2,6.4,0,6.4C3718.8,233.5,3718.8,227,3714.6,227z"/>
			<path display="inline" fill="#E2B67A" d="M3785.8,240.6c-0.3-0.6-0.7-1-1.3-1.4c-0.5-0.4-1-0.7-1.7-0.9c-0.3-0.1-0.6-0.2-0.9-0.2
				c-0.9-0.2-1.8-0.2-2.7,0s-1.6,0.7-2.3,1.3c-0.3,0.3-0.5,0.7-0.8,1c-0.5,0.8-0.7,1.7-0.7,2.6c0,0.7,0.1,1.4,0.4,2
				c0.2,0.6,0.6,1.2,1.1,1.7c0.6,0.6,1.4,1.1,2.3,1.3c0.9,0.2,1.8,0.2,2.7,0c0.3-0.1,0.6-0.2,0.9-0.2c0.4-0.2,0.8-0.3,1.2-0.5
				c0.6-0.3,1-0.7,1.4-1.3c0.3-0.3,0.5-0.7,0.6-1.1c0.3-0.6,0.4-1.2,0.4-1.9c-0.1-0.4-0.1-0.9-0.2-1.3
				C3786.1,241.4,3785.9,241,3785.8,240.6z"/>
			<path display="inline" fill="#E2B67A" d="M3837.4,271.3c-3.8,0-3.8,5.9,0,5.9C3841.1,277.2,3841.1,271.3,3837.4,271.3z"/>
			<path display="inline" fill="#E2B67A" d="M3627.1,505.2c-0.4-0.4-0.8-0.6-1.3-0.8c-0.1-0.1-0.3-0.1-0.4-0.2
				c-0.3-0.1-0.6-0.1-0.9-0.1c-0.3-0.1-0.5-0.3-0.8-0.3c-0.1,0-0.2-0.1-0.3-0.1h-0.1c-0.4-0.1-0.9-0.1-1.3-0.2
				c-0.4,0.1-0.9,0.1-1.3,0.2h-0.1c-0.2,0-0.3,0.1-0.5,0.1c-0.6,0.2-1.2,0.3-1.8,0.5c-0.7,0.2-1.2,0.5-1.7,0.9s-1,0.8-1.3,1.4
				c-0.4,0.6-0.6,1.2-0.6,1.9c-0.2,0.7-0.1,1.3,0.1,2c0.4,1.2,1.2,2.4,2.3,3c0.4,0.2,0.8,0.3,1.2,0.5c0.9,0.2,1.8,0.2,2.7,0
				c0.6-0.2,1.2-0.5,1.8-0.7c0.1-0.1,0.3-0.1,0.4-0.2c0.4-0.2,0.9-0.3,1.3-0.6c0.3-0.3,0.7-0.5,1-0.8s0.5-0.7,0.8-1
				c0.1-0.1,0.1-0.2,0.2-0.3c0.1-0.1,0.1-0.2,0.2-0.3l0.1-0.1c0.4-0.4,0.7-0.9,1-1.3c0.5-0.8,0.5-1.8,0.1-2.6
				C3627.5,505.8,3627.3,505.5,3627.1,505.2z"/>
			<path display="inline" fill="#E2B67A" d="M754.1,1801.4c0.4-0.5,0.8-1,1.2-1.6c0.2-0.3,0.4-0.5,0.5-0.9s0.1-0.9-0.1-1.3
				c-0.3-0.7-1-1.2-1.8-1.2c-0.6,0-1.2,0-1.9,0c-0.4,0-0.8,0.1-1.2,0.2c-0.2,0.1-0.3,0.1-0.5,0.2c-0.3,0.1-0.6,0.3-1,0.4
				c-0.5,0.1-1,0.4-1.3,0.8c-0.2,0.2-0.3,0.4-0.5,0.6c-0.3,0.5-0.4,1-0.4,1.5c0,0.4,0.1,0.8,0.3,1.2c0.1,0.4,0.3,0.7,0.6,1
				s0.6,0.5,1,0.6c0.4,0.2,0.8,0.3,1.2,0.3c0.5,0,1.1-0.1,1.5-0.4c0.3-0.2,0.6-0.4,0.9-0.5C753.2,1802.1,753.8,1801.9,754.1,1801.4z
				"/>
			<path display="inline" fill="#E2B67A" d="M461.6,1752.3c-0.1-0.4-0.3-0.8-0.6-1.2c-0.3-0.5-0.8-0.9-1.3-1.2
				c-0.5-0.2-1.3-0.4-1.8-0.1c-0.4,0.2-0.8,0.3-1.1,0.5c-0.4,0.2-0.8,0.6-1.1,0.9c-0.4,0.4-0.7,0.8-1,1.2c-0.1,0.2-0.3,0.5-0.4,0.7
				c-0.4,0.7-0.7,1.5-1,2.3c-0.2,0.5-0.4,1-0.6,1.5c-0.2,0.6-0.2,1.1-0.1,1.7c0,0.6,0.2,1.1,0.5,1.6s0.6,0.9,1.1,1.2
				c0.4,0.4,0.9,0.6,1.5,0.8c1.1,0.2,2.3,0.2,3.3-0.4c0.9-0.6,1.7-1.5,2-2.6c0.1-0.5,0.3-1,0.4-1.5c0.1-0.2,0.1-0.5,0.2-0.7
				c0.1-0.6,0.2-1.1,0.3-1.7c0-0.2,0.1-0.5,0.1-0.7s0-0.5,0-0.7C461.8,1753.3,461.8,1752.8,461.6,1752.3z"/>
			<path display="inline" fill="#E2B67A" d="M592.8,1720.1c-4.3,0-4.3,6.7,0,6.7C597.1,1726.7,597.1,1720.1,592.8,1720.1z"/>
			<path display="inline" fill="#E2B67A" d="M130.2,591.9c-0.1-0.5-0.1-0.9-0.2-1.4c0,0,0,0,0-0.1v-0.1c0,0,0,0,0-0.1l0,0l0,0
				c-0.2-0.4-0.3-0.8-0.5-1.1l0,0c-0.2-0.4-0.4-0.7-0.7-1l-1-0.7l-1.1-0.5l0,0h-0.1h-0.1c-0.5-0.1-0.4-0.2-1.4-0.2
				c-0.1,0-1.3,0.2-1.4,0.2s-1.2,0.5-1.3,0.5c0,0,0,0-0.1,0c-0.1,0.1-0.3,0.1-0.4,0.2c-0.3,0.2-0.6,0.4-0.9,0.5
				c-0.9,0.5-1.5,1.2-2,2c-0.5,0.9-0.8,1.8-0.8,2.9c0.1,0.5,0.1,1,0.2,1.5c0.3,1,0.8,1.8,1.5,2.5c0.5,0.6,1.1,0.9,1.8,1.2
				c0.7,0.4,1.4,0.5,2.2,0.5c2,0,3.9-1.1,4.9-2.8c0.2-0.3,0.3-0.5,0.5-0.8c0.1-0.1,0.2-0.3,0.2-0.4c0.2-0.3,0.2-0.5,0.4-0.8
				c0,0.1,0.2-0.4,0.3-0.7C130.1,592.8,130.1,592.3,130.2,591.9z"/>
			<path display="inline" fill="#E2B67A" d="M215.7,539.6c-0.2-0.2-0.5-0.4-0.7-0.6c-0.6-0.3-1.2-0.5-1.9-0.5
				c-0.8,0.1-1.2,0.1-1.9,0.5c0,0-0.1,0-0.1,0.1c-0.1,0-0.1,0.1-0.2,0.1c-0.1,0.1-0.3,0.2-0.4,0.2c-0.3,0.2-0.6,0.3-0.8,0.5
				c-0.6,0.4-1.1,0.9-1.5,1.5s-0.6,1.3-0.6,2.1c0,0.4,0.1,0.7,0.1,1.1c0.2,0.7,0.6,1.3,1.1,1.8c0.4,0.4,0.8,0.7,1.3,0.9
				c0.5,0.3,1,0.4,1.6,0.4c1.5,0,2.8-0.8,3.6-2.1c0.2-0.3,0.3-0.6,0.5-0.8c0.1-0.1,0.2-0.3,0.2-0.4c0-0.1,0.1-0.1,0.1-0.2
				c0,0,0-0.1,0.1-0.1c0.4-0.7,0.5-1.1,0.5-1.9c0-0.5-0.1-1-0.3-1.4C216.3,540.3,216,539.9,215.7,539.6z"/>
			<path display="inline" fill="#E2B67A" d="M266.7,630.4c-3.8,0-3.8,5.9,0,5.9C270.4,636.3,270.5,630.4,266.7,630.4z"/>
			<path display="inline" fill="#E2B67A" d="M140,745.6c0-0.1,0-0.1,0-0.2v-0.1c0-0.3,0-0.7-0.1-1s-0.2-0.6-0.4-0.9
				c-0.3-0.6-0.9-1.2-1.6-1.5c-0.8-0.4-1.3-0.6-2.2-0.6c-0.2,0-0.8,0-1.2,0.2s-0.9,0.3-1.3,0.5c-0.1,0-0.2,0.1-0.3,0.2
				c-0.4,0.3-0.8,0.5-1.2,0.9s-0.8,0.9-1.1,1.4c-0.1,0.3-0.3,0.6-0.4,0.8c-0.1,0.3-0.3,0.6-0.3,0.9c-0.2,0.6-0.2,1.3-0.3,1.9
				c0,0.6,0.1,1.3,0.2,1.9c0.2,0.8,0.7,1.6,1.3,2.2c0.3,0.3,0.7,0.5,1,0.8c0.8,0.5,1.6,0.7,2.5,0.7c0.7,0,1.3-0.1,1.9-0.4
				c0.6-0.2,1.2-0.5,1.6-1c0.5-0.5,0.8-1,1-1.6c0.3-0.6,0.5-1.2,0.4-1.9c0-0.5-0.1-0.9-0.2-1.3v-0.1c0.1-0.2,0.2-0.3,0.2-0.5
				c0.3-0.9,0.1-1.4,0-2.3C139.9,744.9,140,745.2,140,745.6z"/>
			<path display="inline" fill="#E2B67A" d="M237.3,727.4c-0.4-0.3-0.9-0.6-1.3-0.9c-0.7-0.4-1.5-0.6-2.3-0.6s-1.6,0.2-2.3,0.6
				c-1.4,0.8-2.2,2.3-2.2,3.9c0,1.6,0.9,3.1,2.2,3.9c0.7,0.4,1.5,0.6,2.3,0.6s1.6-0.2,2.3-0.6c0.4-0.3,0.9-0.6,1.3-0.9
				c0.5-0.3,0.9-0.7,1.3-1.3c0.3-0.5,0.5-1.1,0.5-1.8c0-0.6-0.2-1.2-0.5-1.8C238.3,728.1,237.8,727.7,237.3,727.4z"/>
			<path display="inline" fill="#E2B67A" d="M358.8,706c-0.3-0.6-0.7-1-1.3-1.4c-0.5-0.4-1-0.7-1.7-0.9c-0.9-0.2-1.7-0.2-2.6,0
				c-0.4,0.2-0.8,0.3-1.2,0.5c-0.7,0.4-1.3,1-1.7,1.7c-0.4,0.6-0.5,1.2-0.6,1.8s-0.1,1.3,0.1,1.9c0.2,0.8,0.6,1.5,1.3,2.1
				c0.3,0.3,0.7,0.5,1,0.8c0.8,0.4,1.6,0.7,2.5,0.7c0.4-0.1,0.9-0.1,1.3-0.2c0.8-0.2,1.5-0.6,2.1-1.3c0.6-0.6,1-1.3,1.3-2.1
				c0.1-0.4,0.1-0.9,0.2-1.3c0-0.4-0.1-0.7-0.1-1.1C359.3,706.9,359.1,706.4,358.8,706z"/>
			<path display="inline" fill="#E2B67A" d="M393.1,822c-0.3-0.3-0.6-0.7-0.8-1c-0.3-0.2-0.5-0.4-0.8-0.6c-0.3-0.1-0.6-0.3-1-0.4
				c-0.5-0.2-1.1-0.2-1.6-0.1c-0.4,0-0.7,0.1-1,0.3c-0.3,0.1-0.6,0.3-0.9,0.5s-0.5,0.4-0.7,0.7c-0.3,0.3-0.4,0.5-0.5,0.9
				c-0.3,0.5-0.4,1-0.3,1.6c0,0.4,0.1,0.7,0.1,1.1c0.1,0.3,0.3,0.6,0.4,1c0.2,0.3,0.4,0.5,0.6,0.8c0.3,0.2,0.5,0.4,0.8,0.6
				c0.3,0.1,0.6,0.3,1,0.4c0.5,0.2,1.1,0.2,1.6,0.1c0.4,0,0.7-0.1,1-0.3c0.5-0.2,0.9-0.4,1.3-0.8c0.3-0.3,0.6-0.7,0.8-1
				c0.3-0.2,0.4-0.5,0.5-0.8c0.2-0.3,0.2-0.7,0.2-1c0-0.2-0.1-0.5-0.1-0.7C393.7,822.7,393.5,822.3,393.1,822z"/>
			<path display="inline" fill="#E2B67A" d="M244.7,884.2c-4.9,0-4.9,7.6,0,7.6C249.6,891.8,249.6,884.2,244.7,884.2z"/>
			<path display="inline" fill="#E2B67A" d="M474,894.3c-0.4-0.2-0.8-0.4-1.3-0.4c-0.4-0.1-0.9-0.1-1.3-0.2
				c-0.9-0.1-1.8-0.3-2.6-0.4c-0.4-0.1-0.7-0.1-1.1,0c-0.3,0.1-0.6,0.3-0.9,0.5c-0.4,0.4-0.6,0.9-0.6,1.5c0,0.5,0.2,1.1,0.6,1.5
				c0.3,0.3,0.6,0.4,0.9,0.5c0.4,0.1,0.7,0.1,1.1,0c0.9-0.1,1.8-0.3,2.6-0.4c0.4-0.1,0.9-0.1,1.3-0.2c0.4-0.1,0.9-0.3,1.3-0.4
				c0.4-0.2,0.8-0.5,0.7-1C474.7,894.8,474.4,894.5,474,894.3z"/>
			<path display="inline" fill="#E2B67A" d="M596.5,936.9L596.5,936.9c-0.2-0.2-0.2-0.2-0.3-0.3c-0.1-0.1-0.2-0.3-0.3-0.4
				c-0.4-0.4-0.9-0.7-1.4-0.9c-0.5-0.3-1.1-0.4-1.7-0.4c-0.6,0-1.2,0.1-1.7,0.4c-0.5,0.2-1,0.5-1.4,0.9c-0.2,0.3-0.5,0.6-0.7,0.9
				c-0.4,0.7-0.6,1.4-0.6,2.2c0.1,0.4,0.1,0.8,0.2,1.2c0.2,0.7,0.6,1.4,1.1,1.9c0.1,0.1,0.3,0.2,0.4,0.3c0.1,0.1,0.1,0.1,0.2,0.2
				l0.1,0.1c0.7,0.6,1,0.9,1.9,1.1c0.8,0.2,1.5,0.2,2.3,0c0.7-0.2,1.3-0.6,1.9-1.1c0.5-0.5,0.9-1.2,1.1-1.9c0.2-0.8,0.2-1.5,0-2.3
				C597.4,938,597,937.6,596.5,936.9z"/>
			<path display="inline" fill="#E2B67A" d="M471.3,990.2L471.3,990.2c-0.1-0.1-0.1-0.1-0.1-0.2l0,0c-0.2-0.2-0.5-0.4-0.7-0.5
				c-0.4-0.2-0.6-0.3-1-0.4c-0.1,0-0.2-0.1-0.4-0.1c-0.6-0.2-1.3-0.2-1.9,0s-1.1,0.5-1.6,0.9c-0.2,0.2-0.4,0.5-0.6,0.7
				c-0.3,0.6-0.5,1.2-0.5,1.8c0,0.5,0.1,1,0.3,1.4c0.1,0.4,0.4,0.8,0.7,1.2c0.4,0.4,1,0.7,1.6,0.9s1.3,0.2,1.9,0
				c0.1,0,0.2-0.1,0.4-0.1c0.2,0,0.3-0.1,0.6-0.2c0.5-0.2,0.7-0.3,1.1-0.7c0.1-0.1,0.2-0.2,0.2-0.3c0.3-0.2,0.6-0.5,0.8-0.8
				c0.2-0.4,0.4-0.8,0.4-1.3s-0.1-0.9-0.4-1.3C472,990.7,471.7,990.4,471.3,990.2z"/>
			<path display="inline" fill="#E2B67A" d="M972,393c0.5-0.1,0.9-0.1,1.4-0.2c0.4-0.2,0.8-0.3,1.2-0.5c0.6-0.3,1.1-0.8,1.4-1.3
				c0.3-0.3,0.5-0.7,0.7-1.1c0.3-0.6,0.5-1.3,0.4-2c0-0.7-0.1-1.5-0.2-2.2c-0.2-0.7-0.5-1.2-1-1.7s-1-0.8-1.7-1
				c-0.7-0.1-1.5-0.2-2.2-0.2c-0.5,0.1-0.9,0.1-1.4,0.2c-0.4,0.2-0.8,0.3-1.2,0.5c-0.6,0.3-1.1,0.8-1.4,1.3
				c-0.3,0.3-0.5,0.7-0.7,1.1s-0.4,0.8-0.4,1.3c-0.1,0.5-0.1,0.9,0,1.4c0,0.5,0.1,0.9,0.4,1.3c0.2,0.6,0.6,1.2,1.1,1.7
				c0.3,0.3,0.7,0.5,1,0.8c0.4,0.2,0.8,0.3,1.2,0.5C971.1,392.9,971.6,392.9,972,393z"/>
			<path display="inline" fill="#E2B67A" d="M1131.4,368.2c-6.3,0-6.3,9.8,0,9.8C1137.7,378.1,1137.8,368.2,1131.4,368.2z"/>
			<path display="inline" fill="#E2B67A" d="M1063.3,368c-0.1-0.1-0.2-0.2-0.2-0.2c-0.2-0.2-0.4-0.4-0.6-0.5
				c-0.3-0.2-0.5-0.2-0.8-0.3c-0.3-0.1-0.6-0.1-0.9-0.2c-0.5-0.1-1-0.1-1.5,0s-0.9,0.4-1.3,0.7c-0.1,0.2-0.3,0.4-0.4,0.6
				c-0.3,0.4-0.4,0.9-0.4,1.4c0,0.4,0.1,0.8,0.2,1.1c0.1,0.4,0.3,0.7,0.6,0.9c0.4,0.4,0.8,0.6,1.3,0.7s1,0.1,1.5,0
				c0.3-0.1,0.6-0.1,0.9-0.2s0.5-0.1,0.8-0.3c0.2-0.1,0.4-0.3,0.6-0.5c0.1-0.1,0.2-0.2,0.2-0.2c0.2-0.2,0.4-0.4,0.4-0.7
				c0.1-0.3,0.2-0.5,0.2-0.8c0-0.2-0.1-0.4-0.1-0.6C1063.8,368.6,1063.6,368.2,1063.3,368z"/>
			<path display="inline" fill="#E2B67A" d="M1213.9,289.5c-4,0-4,6.2,0,6.2S1217.9,289.5,1213.9,289.5z"/>
			<path display="inline" fill="#E2B67A" d="M1142.1,240.2c-0.8-0.7-0.9-0.7-1.9-1.1h-0.1c-0.1,0-0.2-0.1-0.2-0.1
				c-0.8-0.2-1.5-0.2-2.3,0c-0.7,0.2-1.4,0.6-1.9,1.1c-0.2,0.3-0.4,0.6-0.7,0.9c-0.4,0.7-0.6,1.4-0.6,2.2c0,0.6,0.1,1.1,0.4,1.6
				c0.2,0.5,0.5,1,0.9,1.4c0.5,0.5,1.2,0.9,1.9,1.1c0.8,0.2,1.5,0.2,2.3,0c0.1,0,0.2-0.1,0.2-0.1h0.1c0.9-0.4,1.1-0.4,1.9-1.1
				c0.4-0.4,0.7-0.8,0.8-1.3c0.3-0.5,0.4-1,0.4-1.6c0-0.4-0.1-0.7-0.1-1.1C1143,241.3,1142.6,240.7,1142.1,240.2z"/>
			<path display="inline" fill="#E2B67A" d="M1056.2,263.4c-0.3-0.3-0.7-0.5-1.1-0.6c-0.2-0.1-0.5-0.2-0.7-0.2
				c-0.2-0.1-0.5-0.1-0.7-0.2c-0.5-0.1-1-0.2-1.5-0.3c-0.4-0.1-0.9-0.1-1.3-0.2c-0.4,0.1-0.9,0.1-1.3,0.2c-0.4,0.2-0.8,0.3-1.2,0.5
				c-0.3,0.3-0.7,0.5-1,0.8s-0.5,0.7-0.8,1c-0.2,0.4-0.3,0.8-0.5,1.2c-0.1,0.4-0.1,0.9-0.2,1.3c0,0.7,0.1,1.3,0.4,1.9
				c0.1,0.4,0.3,0.8,0.6,1.1c0.2,0.4,0.5,0.7,0.9,0.9c0.3,0.3,0.7,0.5,1.1,0.6c0.4,0.2,0.8,0.3,1.3,0.3c0.4,0.1,0.9,0.1,1.3,0
				c0.5,0,0.9-0.1,1.3-0.3c0.4-0.1,0.8-0.3,1.1-0.6c0.5-0.4,1-0.8,1.3-1.4c0.2-0.5,0.5-1.1,0.7-1.6c0.3-0.7,0.7-1.4,0.9-2.1
				c0.1-0.6,0.1-1.3-0.2-1.9C1056.4,263.7,1056.3,263.5,1056.2,263.4z"/>
			<path display="inline" fill="#E2B67A" d="M922.4,299.8c0-0.1-0.1-0.2-0.1-0.3c-0.2-0.6-0.6-1-1.2-1.2c-0.1,0-0.2-0.1-0.3-0.1
				h-0.1l0,0c-0.2,0-0.4-0.1-0.7-0.1c-0.2,0-0.4,0.1-0.7,0.1l0,0c-0.1,0-0.2,0-0.3,0.1c-0.4,0.1-0.8,0.2-1.1,0.2
				c-0.6,0.2-1.1,0.5-1.5,0.9s-0.7,0.9-0.9,1.5c-0.3,1.2,0,2.5,0.9,3.3c0.9,0.9,2.1,1.2,3.3,0.9c0.6-0.2,1.1-0.5,1.5-0.9
				s0.7-0.9,0.9-1.5c0.1-0.4,0.2-0.8,0.2-1.1c0-0.1,0-0.2,0.1-0.3c0-0.1,0-0.3,0.1-0.4C922.6,300.4,922.6,300.3,922.4,299.8
				C922.5,299.8,922.5,299.8,922.4,299.8z"/>
			<path display="inline" fill="#E2B67A" d="M834.4,260.5c-0.7-0.7-0.9-0.7-1.8-1.1c-0.4-0.2-0.8-0.4-1.3-0.5
				c-0.9-0.2-1.8-0.4-2.6-0.6c-1.7-0.4-3.7,0-5,1.3c-0.9,1-1.5,2.2-1.5,3.6c0,0.7,0.1,1.4,0.4,2c0.2,0.6,0.6,1.2,1.1,1.6
				c1.3,1.3,3.2,1.7,5,1.3c0.9-0.2,1.8-0.4,2.6-0.6c0.4-0.1,0.9-0.3,1.3-0.5c0.4-0.1,0.7-0.2,1-0.5c0.3-0.2,0.5-0.4,0.8-0.6
				c0.1-0.1,0.1-0.1,0.2-0.2c0.7-0.7,1.1-1.6,1.1-2.6s-0.4-1.9-1.1-2.5C834.5,260.7,834.4,260.6,834.4,260.5z"/>
			<path display="inline" fill="#E2B67A" d="M748.5,209.1c0.3,0.3,0.7,0.5,1.1,0.6c0.6,0.2,1.1,0.2,1.7,0c0.5-0.2,1-0.4,1.4-0.8
				c1-0.8,2-1.7,3-2.5c0.1-0.2,0.2-0.3,0.4-0.5c0.2-0.3,0.3-0.5,0.3-0.8c0.1-0.2,0.1-0.4,0-0.6c0-0.3-0.1-0.6-0.3-0.8
				c-0.2-0.3-0.5-0.6-0.8-0.8c-0.5-0.3-1.2-0.4-1.8-0.2c-1.3,0.3-2.6,0.7-3.9,1c-1,0.3-2,1.2-2.2,2.2c-0.2,0.8-0.1,1.7,0.3,2.4
				C747.9,208.6,748.2,208.9,748.5,209.1z"/>
			<path display="inline" fill="#E2B67A" d="M928.4,225.4L928.4,225.4L928.4,225.4c-0.1-0.1-0.2-0.2-0.2-0.2
				c-0.1-0.1-0.2-0.1-0.2-0.2c-0.2-0.2-0.5-0.4-0.8-0.5c-0.3-0.2-0.6-0.2-1-0.2c-0.2,0-0.4,0.1-0.7,0.1c-0.4,0.1-0.8,0.3-1.1,0.6
				c-0.4,0.3-0.7,0.6-0.9,1c-0.1,0.3-0.2,0.5-0.3,0.8s-0.1,0.6-0.1,0.9c0,0.3,0.1,0.6,0.1,0.8c0,0,0,0,0,0.1s0,0.1,0,0.2
				c0,0.1,0.1,0.3,0.1,0.4c0.1,0.2,0.2,0.5,0.3,0.7c0.2,0.3,0.4,0.6,0.8,0.8c0.2,0.2,0.4,0.3,0.7,0.4c0.4,0.2,0.7,0.3,1.2,0.3
				c0.3,0,0.5-0.1,0.8-0.1c0.2-0.1,0.5-0.2,0.7-0.3c0.3-0.2,0.6-0.4,0.8-0.8c0.3-0.3,0.4-0.6,0.5-1c0-0.1,0.1-0.3,0.1-0.4
				c0-0.1,0-0.1,0-0.2c0.1-0.3,0.1-0.6,0.1-0.9c0-0.5-0.2-1.2-0.4-1.6C928.8,225.9,928.6,225.6,928.4,225.4z"/>
			<path display="inline" fill="#E2B67A" d="M1249.4,175.9c-0.4,0.4-0.7,0.8-0.8,1.3c-0.3,0.5-0.4,1-0.4,1.6c0,0.4,0.1,0.7,0.1,1.1
				c0.2,0.7,0.5,1.3,1.1,1.8c0.3,0.2,0.6,0.4,0.8,0.6c0.6,0.4,1.3,0.6,2.1,0.6c0.6,0,1.1-0.1,1.6-0.4c0.5-0.2,0.9-0.4,1.3-0.8
				c0.4-0.4,0.7-0.8,0.8-1.3c0.3-0.5,0.4-1,0.4-1.6c0-0.4-0.1-0.7-0.1-1.1c-0.2-0.7-0.5-1.3-1.1-1.8c-0.3-0.2-0.6-0.4-0.8-0.6
				c-0.6-0.4-1.3-0.6-2.1-0.6c-0.6,0-1.1,0.1-1.6,0.4C1250.2,175.2,1249.8,175.5,1249.4,175.9z"/>
			<path display="inline" fill="#E2B67A" d="M1159,142.7c-0.3-0.1-0.7-0.1-1,0c-0.6,0.2-1.1,0.4-1.7,0.7c-0.5,0.1-0.9,0.4-1.2,0.7
				c-0.3,0.3-0.6,0.7-0.7,1.2c-0.3,0.9,0,2,0.7,2.7s1.7,1,2.7,0.7c0.5-0.1,0.9-0.4,1.2-0.7c0.3-0.3,0.6-0.7,0.7-1.2
				c0.2-0.6,0.4-1.1,0.7-1.7c0.1-0.3,0.1-0.7,0-1s-0.3-0.6-0.5-0.9C1159.6,142.9,1159.3,142.8,1159,142.7z"/>
			<path display="inline" fill="#E2B67A" d="M1249.1,99.8c0.5-0.1,0.9-0.6,1.1-1.1c0.1-0.2,0.1-0.4,0.2-0.6s0.1-0.5,0.1-0.7
				c0.2-0.2,0.3-0.5,0.5-0.7c0.1-0.2,0.1-0.4-0.1-0.6c-0.1-0.1-0.4-0.2-0.6-0.1c-0.2,0.2-0.5,0.3-0.7,0.5c-0.1,0-0.1-0.1-0.2,0
				c-0.1,0-0.1,0-0.2,0s-0.2,0.1-0.3,0.1c-0.2,0.1-0.4,0.1-0.6,0.2c-0.5,0.1-0.9,0.6-1.1,1.1c-0.1,0.5,0,1.1,0.4,1.5
				C1248,99.8,1248.5,100,1249.1,99.8z"/>
			<path display="inline" fill="#E2B67A" d="M1480.5,202.4c-0.3-0.5-0.6-0.9-1.1-1.2c-0.4-0.4-0.9-0.6-1.5-0.8
				c-0.3-0.1-0.6-0.1-0.9-0.2c-0.8-0.2-1.6-0.2-2.4,0s-1.4,0.6-2,1.2c-0.2,0.3-0.5,0.6-0.7,0.9c-0.4,0.7-0.6,1.5-0.6,2.3
				c0,0.6,0.1,1.2,0.4,1.7c0.2,0.6,0.5,1,0.9,1.5c0.6,0.6,1.2,0.9,2,1.2c0.8,0.2,1.6,0.2,2.4,0c0.3-0.1,0.6-0.1,0.9-0.2
				c0.3-0.1,0.7-0.3,1-0.4c0.5-0.3,0.9-0.6,1.2-1.1c0.3-0.3,0.5-0.6,0.6-1c0.3-0.5,0.4-1.1,0.4-1.7c-0.1-0.4-0.1-0.8-0.2-1.2
				C1480.8,203.1,1480.6,202.8,1480.5,202.4z"/>
			<path display="inline" fill="#E2B67A" d="M1468.2,135c0-0.3-0.1-0.7-0.1-1c-0.2-0.6-0.5-1.2-1-1.7c-0.2-0.2-0.4-0.5-0.6-0.7
				c-0.3-0.3-0.7-0.5-1-0.8c-0.4-0.2-0.8-0.3-1.2-0.5c-0.6-0.2-1.3-0.2-1.9-0.1c-0.4,0-0.8,0.1-1.2,0.3c-0.4,0.1-0.8,0.3-1.1,0.6
				c-0.4,0.2-0.7,0.5-0.9,0.9c-0.3,0.3-0.5,0.7-0.6,1.1c-0.3,0.6-0.4,1.2-0.4,1.9c0.1,0.4,0.1,0.9,0.2,1.3c0.2,0.4,0.3,0.8,0.5,1.2
				c0.3,0.3,0.5,0.7,0.8,1s0.7,0.5,1,0.8c0.4,0.2,0.8,0.3,1.2,0.5c0.6,0.2,1.3,0.2,1.9,0.1c0.4,0,0.8-0.1,1.2-0.3
				c0.6-0.2,1.1-0.5,1.6-1c0.2-0.2,0.4-0.5,0.6-0.7c0.4-0.3,0.6-0.8,0.8-1.2C1468.1,136,1468.2,135.5,1468.2,135z"/>
			<path display="inline" fill="#E2B67A" d="M1577.6,93.7c-0.3-0.2-0.5-0.4-0.8-0.6c-0.6-0.4-1.3-0.5-2-0.6c-0.6,0-1.1,0.1-1.6,0.3
				c-0.5,0.2-0.9,0.4-1.3,0.8s-0.7,0.8-0.8,1.3c-0.3,0.5-0.4,1-0.3,1.6c0,0.4,0.1,0.7,0.1,1.1c0.2,0.7,0.5,1.3,1,1.8
				c0.3,0.2,0.5,0.4,0.8,0.6c0.6,0.4,1.3,0.5,2,0.6c0.6,0,1.1-0.1,1.6-0.3c0.5-0.2,0.9-0.4,1.3-0.8s0.7-0.8,0.8-1.3
				c0.3-0.5,0.4-1,0.3-1.6c0-0.4-0.1-0.7-0.1-1.1C1578.5,94.8,1578.1,94.2,1577.6,93.7z"/>
			<path display="inline" fill="#E2B67A" d="M1565.6,198.3c-5.7,0-5.7,8.9,0,8.9C1571.3,207.2,1571.4,198.3,1565.6,198.3z"/>
			<path display="inline" fill="#E2B67A" d="M1497.9,340.1c-0.2-0.2-0.4-0.3-0.6-0.5c-0.5-0.3-1-0.4-1.6-0.4c-0.1,0-0.3,0-0.4,0
				c-0.5,0-0.9,0.1-1.4,0.2c-0.3,0.1-0.8,0.3-1.1,0.5c-0.1,0-0.2,0.1-0.2,0.1c-0.2,0.1-0.3,0.2-0.5,0.2c-0.6,0.4-1.1,0.9-1.5,1.5
				c-0.4,0.7-0.6,1.4-0.6,2.1c0.1,0.4,0.1,0.7,0.2,1.1c0.2,0.7,0.6,1.3,1.1,1.9c0.4,0.4,0.8,0.7,1.4,0.9c0.5,0.3,1,0.4,1.6,0.4
				c0.8,0,1.5-0.2,2.1-0.6s1.1-0.9,1.5-1.5c0.1-0.2,0.2-0.3,0.2-0.5c0-0.1,0.1-0.2,0.1-0.2c0.2-0.4,0.4-0.8,0.5-1.1
				c0.1-0.4,0.1-0.9,0.2-1.4c0-0.1,0-0.3,0-0.4c0-0.4-0.1-0.8-0.3-1.2C1498.4,340.7,1498.2,340.4,1497.9,340.1z"/>
			<path display="inline" fill="#E2B67A" d="M1660.1,136.8c-0.4-0.3-0.9-0.6-1.3-0.9c-0.5-0.3-1-0.4-1.6-0.4s-1.1,0.1-1.6,0.4
				c-1,0.6-1.6,1.6-1.6,2.7c0,1.1,0.6,2.2,1.6,2.7c0.5,0.3,1,0.4,1.6,0.4s1.1-0.1,1.6-0.4c0.4-0.3,0.9-0.6,1.3-0.9
				c0.3-0.2,0.6-0.4,0.8-0.8c0.2-0.3,0.3-0.7,0.3-1.1c0-0.4-0.1-0.7-0.3-1.1C1660.7,137.3,1660.4,137,1660.1,136.8z"/>
			<path display="inline" fill="#E2B67A" d="M3325.1,359.8v-0.1v-0.1c-0.2-0.4-0.3-0.7-0.5-1.1c0-0.1-0.1-0.2-0.2-0.2
				c-0.3-0.4-0.5-0.8-0.9-1.2c-0.4-0.4-0.8-0.7-1.3-0.8c-0.5-0.3-1-0.4-1.6-0.3c-0.4,0-0.7,0.1-1.1,0.1c-0.7,0.2-1.3,0.5-1.8,1
				c-0.1,0.1-0.2,0.3-0.3,0.4s-0.2,0.3-0.3,0.5c0,0,0,0.1-0.1,0.1c0,0.1-0.1,0.1-0.1,0.2c-0.3,0.5-0.5,1-0.7,1.5
				c-0.1,0.4-0.2,0.7-0.3,1.1c-0.2,0.9-0.2,1.7,0,2.6c0.2,0.8,0.6,1.5,1.3,2.1c0.3,0.3,0.7,0.5,1,0.8c0.8,0.4,1.6,0.7,2.5,0.7
				c0.7,0,1.3-0.1,1.9-0.4c0.6-0.2,1.1-0.5,1.6-1c1.2-1.2,1.7-3,1.3-4.7C3325.3,360.5,3325.2,360.1,3325.1,359.8z"/>
			<path display="inline" fill="#E2B67A" d="M3347.2,206.6c-0.4-0.5-0.9-0.9-1.3-1.4c-0.3-0.2-0.6-0.5-0.9-0.7
				c-0.4-0.1-0.7-0.3-1-0.4c-0.6-0.2-1.2-0.2-1.8-0.1c-0.4,0-0.8,0.1-1.1,0.3c-0.4,0.1-0.7,0.3-1,0.6c-0.3,0.2-0.6,0.5-0.8,0.8
				c-0.3,0.3-0.5,0.6-0.6,1c-0.3,0.5-0.4,1.1-0.4,1.7c0.1,0.4,0.1,0.8,0.2,1.2c0.1,0.3,0.3,0.7,0.4,1c0.2,0.3,0.5,0.6,0.7,0.9
				c0.3,0.2,0.6,0.5,0.9,0.7c0.3,0.1,0.7,0.3,1,0.4c0.6,0.2,1.2,0.2,1.8,0.1c0.4,0,0.8-0.1,1.1-0.3c0.5-0.2,1-0.5,1.4-0.9
				c0.4-0.5,0.9-0.9,1.3-1.4c0.2-0.2,0.4-0.5,0.5-0.8c0.2-0.3,0.2-0.6,0.2-0.9c0-0.2-0.1-0.4-0.1-0.6
				C3347.7,207.2,3347.5,206.9,3347.2,206.6z"/>
			<path display="inline" fill="#E2B67A" d="M3249.2,200.1c-0.1-0.1-0.2-0.2-0.3-0.4c-0.2-0.2-0.3-0.3-0.6-0.5
				c-0.2-0.2-0.5-0.4-0.7-0.5c-0.3-0.2-0.7-0.4-1-0.7c-0.9-0.5-1.8-0.7-2.8-0.8c-1,0-1.9,0.3-2.8,0.8c-1.7,1-2.7,2.8-2.7,4.8
				c0,1.9,1.1,3.8,2.7,4.8c0.9,0.5,1.8,0.7,2.8,0.8c1,0,1.9-0.3,2.8-0.8c0.3-0.2,0.7-0.4,1-0.7c0.5-0.3,0.9-0.6,1.3-1
				c0.1-0.1,0.2-0.2,0.3-0.4c0.4-0.3,0.6-0.8,0.8-1.2c0.2-0.5,0.3-0.9,0.3-1.5c0-0.3-0.1-0.7-0.1-1
				C3250,201.1,3249.7,200.6,3249.2,200.1z"/>
			<path display="inline" fill="#E2B67A" d="M3285.9,112.7c0.9-0.2,1.7-0.5,2.6-0.7c0.4-0.1,0.9-0.2,1.3-0.3
				c0.6-0.2,1.1-0.4,1.6-0.7c1.2-0.6,1.2-2.6,0-3.2c-0.5-0.3-1.1-0.5-1.6-0.7c-0.4-0.1-0.9-0.2-1.3-0.3c-0.9-0.2-1.7-0.5-2.6-0.7
				c-2.2-0.6-4.4,1.1-4.4,3.3c0,0.9,0.4,1.8,1,2.4C3283.4,112.7,3284.7,113,3285.9,112.7z"/>
			<path display="inline" fill="#E2B67A" d="M3281.2,508.8c-0.2-0.2-0.5-0.4-0.8-0.5c-0.3-0.2-0.6-0.2-0.9-0.2
				c-0.7,0-1.3,0.3-1.7,0.7l0,0c-0.2,0.2-0.4,0.5-0.5,0.8c-0.2,0.3-0.2,0.6-0.2,1c0,0.2,0.1,0.4,0.1,0.7c0.1,0.4,0.3,0.8,0.6,1.1
				c0.2,0.3,0.5,0.4,0.8,0.5c0.1,0.2,0.2,0.5,0.4,0.7c0.2,0.5,1,0.5,1.2,0c0.1-0.2,0.2-0.5,0.4-0.7c0.3-0.1,0.6-0.3,0.8-0.5
				s0.4-0.5,0.5-0.8c0.2-0.3,0.2-0.6,0.2-1C3282,510,3281.8,509.3,3281.2,508.8C3281.3,508.9,3281.3,508.8,3281.2,508.8z"/>
			<path display="inline" fill="#E2B67A" d="M3291.3,789.9c-0.1-0.4-0.3-0.9-0.4-1.3c-0.2-0.6-0.5-1.2-0.8-1.8
				c-0.4-0.8-1.4-1.3-2.3-1.3s-1.9,0.5-2.3,1.3c-0.3,0.6-0.6,1.2-0.8,1.8c-0.1,0.4-0.3,0.9-0.4,1.3c-0.4,1.2,0,2.7,0.9,3.5
				c0.2,0.2,0.5,0.4,0.7,0.6c0.6,0.3,1.2,0.5,1.8,0.5c0.5,0,1-0.1,1.4-0.3c0.5-0.1,0.8-0.4,1.2-0.8c0.5-0.5,0.8-1,0.9-1.6
				C3291.4,791.2,3291.4,790.6,3291.3,789.9z"/>
			<path display="inline" fill="#E2B67A" d="M3198.8,920c0.1,0.8,0.1,1.6,0.2,2.4c-0.1,1.5,1.1,2.2,2.2,2.1c1.2,0.1,2.3-0.6,2.2-2.1
				c0.1-0.8,0.1-1.6,0.2-2.4C3203.8,916.9,3198.6,916.9,3198.8,920z"/>
		</g>
	</g>
</g>
</svg>
