<?xml version="1.0" encoding="utf-8"?>
<!-- Generator: Adobe Illustrator 26.1.0, SVG Export Plug-In . SVG Version: 6.00 Build 0)  -->
<svg version="1.1" id="Warstwa_1" xmlns="http://www.w3.org/2000/svg" xmlns:xlink="http://www.w3.org/1999/xlink" x="0px" y="0px"
	 viewBox="0 0 4000 2500" style="enable-background:new 0 0 4000 2500;" xml:space="preserve">
<style type="text/css">
	.st0{display:none;}
	.st1{display:inline;}
	.st2{clip-path:url(#SVGID_00000080177811679446614450000011106822054009177275_);fill:#151619;}
	.st3{clip-path:url(#SVGID_00000163793814497539433150000011673940846101275301_);fill:#151619;}
	.st4{clip-path:url(#SVGID_00000085967959586168691390000006862463758997173428_);fill:#18191B;}
	.st5{clip-path:url(#SVGID_00000065768991167925239940000013757184817604383641_);fill:#1B1B1D;}
	.st6{clip-path:url(#SVGID_00000183234827367709764140000000315665776890615724_);fill:#1D1D1F;}
	.st7{clip-path:url(#SVGID_00000175320107328929107260000015012156442495246769_);fill:#1F1F20;}
	.st8{clip-path:url(#SVGID_00000006677537384028401880000017730402134483187863_);fill:#202021;}
	.st9{clip-path:url(#SVGID_00000122701250941741916810000005159936471163854988_);fill:#212122;}
	.st10{clip-path:url(#SVGID_00000018196988165644172240000003824287196092942474_);fill:#222222;}
	.st11{clip-path:url(#SVGID_00000041994000641949758200000001046734466078344326_);fill:#222223;}
	.st12{clip-path:url(#SVGID_00000036253303344411321360000013496916186601320867_);fill:#232323;}
	.st13{clip-path:url(#SVGID_00000131325366775147776940000008582785628844223616_);fill:#232323;}
	.st14{clip-path:url(#SVGID_00000073712793175331858560000004638750191690341563_);fill:#232323;}
	.st15{clip-path:url(#SVGID_00000085231831551653153720000008318679867540794252_);fill:#232323;}
	.st16{clip-path:url(#SVGID_00000176011399611129494100000016992298507428344239_);fill:#232323;}
	.st17{opacity:0.1;clip-path:url(#SVGID_00000176753317669305876890000004372800026234998155_);}
	.st18{display:inline;fill:#E2B67A;}
	.st19{opacity:0.1;clip-path:url(#SVGID_00000180364509154999359300000004830993032020557209_);}
</style>
<g id="Background" class="st0">
	<g class="st1">
		<g>
			<g>
				<g>
					<defs>
						<rect id="SVGID_1_" width="4000" height="2500"/>
					</defs>
					<clipPath id="SVGID_00000148629593044350751250000006361037864544971403_">
						<use xlink:href="#SVGID_1_"  style="overflow:visible;"/>
					</clipPath>
					
						<rect style="clip-path:url(#SVGID_00000148629593044350751250000006361037864544971403_);fill:#151619;" width="4000" height="2500"/>
				</g>
			</g>
			<g>
				<g>
					<defs>
						<rect id="SVGID_00000177482022982682385570000010962401281677190836_" width="4000" height="2500"/>
					</defs>
					<clipPath id="SVGID_00000030473649154804945190000007261037489945513638_">
						<use xlink:href="#SVGID_00000177482022982682385570000010962401281677190836_"  style="overflow:visible;"/>
					</clipPath>
					<path style="clip-path:url(#SVGID_00000030473649154804945190000007261037489945513638_);fill:#151619;" d="M4001,1355v919.8
						V2501H-1V97.7h-1.3c2.7-4,5.5-8,8.2-12c11-16,22.2-31.8,33.5-47.6c5.7-7.9,11.4-15.7,17.2-23.5c2.9-3.9,5.8-7.8,8.7-11.7
						C66.8,1,68.2-1,69.7-2.9V-1H4001V1355z"/>
				</g>
			</g>
			<g>
				<g>
					<defs>
						<rect id="SVGID_00000066476238740510380530000006264026696896496537_" width="4000" height="2500"/>
					</defs>
					<clipPath id="SVGID_00000139982685674293202940000005936741538928053404_">
						<use xlink:href="#SVGID_00000066476238740510380530000006264026696896496537_"  style="overflow:visible;"/>
					</clipPath>
					<path style="clip-path:url(#SVGID_00000139982685674293202940000005936741538928053404_);fill:#18191B;" d="M4001,1355.1v854.1
						V2501H137.9v6.8c-2.5-3.8-5-7.5-7.4-11.3c-19.7-30.1-38.6-60.8-56.8-91.8s-35.5-62.6-52.1-94.5c-8.3-16-16.4-32.1-24.2-48.3H-1
						V456.2h-3.2C3.7,440,11.7,423.9,20,407.9c16.5-32,33.8-63.5,51.9-94.6c36.2-62.2,75.5-122.6,117.8-181
						c21.1-29.2,43-57.9,65.6-86.1c11.3-14.1,22.7-28,34.4-41.9c2.9-3.5,5.8-6.9,8.8-10.3v5h3691.1v-3c1.5,1.7,2.9,3.4,4.4,5.2
						c2.9,3.5,5.8,6.9,8.7,10.4h-1.6L4001,1355.1L4001,1355.1z"/>
				</g>
			</g>
			<g>
				<g>
					<defs>
						<rect id="SVGID_00000165207311074410599180000012105324309464146842_" width="4000" height="2500"/>
					</defs>
					<clipPath id="SVGID_00000008838948317851629380000012200656726226774941_">
						<use xlink:href="#SVGID_00000165207311074410599180000012105324309464146842_"  style="overflow:visible;"/>
					</clipPath>
					<path style="clip-path:url(#SVGID_00000008838948317851629380000012200656726226774941_);fill:#1B1B1D;" d="M4001,1355.3v788.4
						v261.9h1.4c-18.1,27.9-37,55.3-56.5,82.2c-4.9,6.7-9.8,13.4-14.8,20.1v-7H349.2l0,0c-2.5-3.4-4.9-6.7-7.4-10.1
						c-78.2-107.7-145.6-222.7-200.7-343.8s-97.9-248.2-127-380C7,1734.2,0.6,1701-5,1667.4h4v-616.8h-4.5
						c5.5-33.5,11.8-66.8,19-99.7c28.8-131.9,71.4-259,126.3-380.2s122.1-236.4,200.1-344.2c39-53.9,80.7-106,125-156
						C487,45.5,509.7,21,533.1-3v2h3217.2v-4.8c23.4,24,46.2,48.4,68.4,73.4c44.3,50,86.1,102,125.2,155.8
						c19.6,26.9,38.4,54.3,56.6,82.1c2.3,3.5,4.5,7,6.8,10.5h-6.3L4001,1355.3L4001,1355.3z"/>
				</g>
			</g>
			<g>
				<g>
					<defs>
						<rect id="SVGID_00000003093680843791917630000009638055285183580091_" width="4000" height="2500"/>
					</defs>
					<clipPath id="SVGID_00000078731907984332371520000007486574892111748271_">
						<use xlink:href="#SVGID_00000003093680843791917630000009638055285183580091_"  style="overflow:visible;"/>
					</clipPath>
					<path style="clip-path:url(#SVGID_00000078731907984332371520000007486574892111748271_);fill:#1D1D1F;" d="M4001,1355.4v374.1
						V2015h5.2c-2.9,7.1-5.8,14.1-8.8,21.1c-5.9,14.1-12,28-18.3,41.9c-50.3,111.1-111.9,216.7-183.4,315.5
						c-17.9,24.7-36.4,49-55.5,72.8c-9.5,11.9-19.2,23.7-29.1,35.4v-0.9H576.7v3.6c-9.9-11.7-19.6-23.5-29.2-35.4
						c-19.1-23.8-37.7-48.1-55.6-72.7c-71.7-98.7-133.4-204.2-183.9-315.2c-101-222-157-466.1-157.2-722.4
						C150.4,846.3,372.9,382,733.2,45.8c11.3-10.5,22.6-20.9,34.2-31.1c5.8-5.1,11.6-10.2,17.4-15.3c1.5-1.3,2.9-2.5,4.4-3.8V-1
						h2709.7v-2c5.8,5.1,11.6,10.1,17.4,15.3c11.5,10.2,22.9,20.6,34.2,31.1C3730.8,211.2,3876.8,411,3977.8,633
						c6.3,13.9,12.4,27.8,18.4,41.9c3,7,5.9,14.1,8.8,21.1h-4V1355.4z"/>
				</g>
			</g>
			<g>
				<g>
					<defs>
						<rect id="SVGID_00000126292225368598546740000015598527643718072982_" width="4000" height="2500"/>
					</defs>
					<clipPath id="SVGID_00000118355702532146682250000016128711776188273542_">
						<use xlink:href="#SVGID_00000126292225368598546740000015598527643718072982_"  style="overflow:visible;"/>
					</clipPath>
					<path style="clip-path:url(#SVGID_00000118355702532146682250000016128711776188273542_);fill:#1F1F20;" d="M3953.9,1355.6
						c0.2,233-50.3,455-141.7,657c-45.7,101-101.7,197-166.7,286.8c-32.5,44.9-67.3,88.3-104.1,130c-18.4,20.9-37.4,41.3-56.9,61.3
						c-4.9,5-9.8,10-14.7,14.9v-4.6H818.1v6.9c-4.9-4.9-9.8-9.9-14.7-14.9c-19.5-20-38.5-40.4-57-61.2
						c-36.9-41.6-71.8-85-104.4-129.8c-65.2-89.7-121.3-185.6-167.2-286.5c-91.8-201.8-142.7-423.7-142.9-656.7
						c-0.4-466,201.9-888.1,529.4-1193.7c40.9-38.2,83.8-74.6,128.5-109c22.3-17.2,45.1-33.9,68.4-50.2c5.8-4.1,11.6-8.1,17.5-12.1
						V-1h2140.8v-1.1c2.9,2,5.8,4,8.7,6c23.3,16.2,46.1,32.9,68.5,50c44.8,34.4,87.7,70.7,128.7,108.8
						C3750.4,467.9,3953.5,889.6,3953.9,1355.6z"/>
				</g>
			</g>
			<g>
				<g>
					<defs>
						<rect id="SVGID_00000065062945494909581580000013961736615675040178_" width="4000" height="2500"/>
					</defs>
					<clipPath id="SVGID_00000132768329914518103330000005614311899486763676_">
						<use xlink:href="#SVGID_00000065062945494909581580000013961736615675040178_"  style="overflow:visible;"/>
					</clipPath>
					<path style="clip-path:url(#SVGID_00000132768329914518103330000005614311899486763676_);fill:#202021;" d="M3772.8,1355.8
						c0.4,419.4-181.7,799.3-476.4,1074.4c-18.4,17.2-37.3,34-56.6,50.3c-9.6,8.2-19.4,16.3-29.2,24.2v-3.7H1077.3v5.5
						c-9.9-7.9-19.6-16-29.3-24.2c-19.3-16.3-38.2-33.1-56.6-50.2C696.1,2157.5,513.4,1778,513,1358.6S694.7,559.3,989.4,284.2
						c73.7-68.8,154.4-131,241.1-185.7c43.3-27.3,88.1-52.8,134.3-76.2c11.5-5.9,23.2-11.6,34.9-17.2c5.9-2.8,11.7-5.6,17.6-8.3V-1
						H2866v-3.4c5.9,2.7,11.8,5.5,17.6,8.3c11.7,5.6,23.4,11.3,34.9,17.1c46.2,23.3,91.1,48.7,134.4,76
						c86.8,54.5,167.6,116.6,241.4,185.2C3589.7,556.8,3772.4,936.4,3772.8,1355.8z"/>
				</g>
			</g>
			<g>
				<g>
					<defs>
						<rect id="SVGID_00000054253338952984907100000009146418384385568410_" width="4000" height="2500"/>
					</defs>
					<clipPath id="SVGID_00000132805526460860770280000013871263392406259364_">
						<use xlink:href="#SVGID_00000054253338952984907100000009146418384385568410_"  style="overflow:visible;"/>
					</clipPath>
					<path style="clip-path:url(#SVGID_00000132805526460860770280000013871263392406259364_);fill:#212122;" d="M3591.7,1355.9
						c0.3,372.8-161.5,710.5-423.5,955c-65.5,61.1-137.2,116.4-214.3,165c-9.6,6.1-19.3,12-29.1,17.9c-4.9,2.9-9.8,5.8-14.7,8.7
						v-1.6H1377.8v2.9c-4.9-2.9-9.9-5.8-14.8-8.7c-9.8-5.8-19.5-11.8-29.2-17.9c-77.1-48.5-149-103.6-214.6-164.7
						c-262.4-244.1-424.8-581.4-425.2-954.2C693.5,612.8,1341.6,7.8,2141.7,7.1C2941.9,6.4,3591,610.3,3591.7,1355.9z"/>
				</g>
			</g>
			<g>
				<g>
					<defs>
						<rect id="SVGID_00000116232296309899760720000006777863969055741338_" width="4000" height="2500"/>
					</defs>
					<clipPath id="SVGID_00000022522024296408329690000005025776465467945611_">
						<use xlink:href="#SVGID_00000116232296309899760720000006777863969055741338_"  style="overflow:visible;"/>
					</clipPath>
					<path style="clip-path:url(#SVGID_00000022522024296408329690000005025776465467945611_);fill:#222222;" d="M3410.6,1356.1
						c0.3,326.2-141.4,621.6-370.6,835.6c-114.6,107-251.1,193.6-402.7,253.5c-37.9,15-76.7,28.3-116.4,39.8
						c-19.8,5.8-39.9,11.1-60.1,16c-10.1,2.4-20.3,4.8-30.5,7v-7h-603.1v0.5c-20.3-4.8-40.3-10.1-60.2-15.9
						c-39.7-11.5-78.6-24.7-116.5-39.6c-151.7-59.6-288.4-146-403.2-252.8c-229.6-213.6-371.7-508.8-372-835
						C874.7,705.8,1441.8,176.4,2142,175.8C2842,175.3,3410,703.7,3410.6,1356.1z"/>
				</g>
			</g>
			<g>
				<g>
					<defs>
						<rect id="SVGID_00000055698383502175103400000010578340054828857244_" width="4000" height="2500"/>
					</defs>
					<clipPath id="SVGID_00000140717822084039018690000002163892482389401474_">
						<use xlink:href="#SVGID_00000055698383502175103400000010578340054828857244_"  style="overflow:visible;"/>
					</clipPath>
					
						<ellipse style="clip-path:url(#SVGID_00000140717822084039018690000002163892482389401474_);fill:#222223;" cx="2142.9" cy="1357.2" rx="1086.6" ry="1012.5"/>
				</g>
			</g>
			<g>
				<g>
					<defs>
						<rect id="SVGID_00000005986400285380361900000004717912824441888687_" width="4000" height="2500"/>
					</defs>
					<clipPath id="SVGID_00000178175875294708493520000010446978382391198630_">
						<use xlink:href="#SVGID_00000005986400285380361900000004717912824441888687_"  style="overflow:visible;"/>
					</clipPath>
					
						<ellipse style="clip-path:url(#SVGID_00000178175875294708493520000010446978382391198630_);fill:#232323;" cx="2142.9" cy="1357.2" rx="905.5" ry="843.8"/>
				</g>
			</g>
			<g>
				<g>
					<defs>
						<rect id="SVGID_00000132778127212821313230000000372539398022599308_" width="4000" height="2500"/>
					</defs>
					<clipPath id="SVGID_00000130646502879022265210000007052873935653806007_">
						<use xlink:href="#SVGID_00000132778127212821313230000000372539398022599308_"  style="overflow:visible;"/>
					</clipPath>
					
						<ellipse style="clip-path:url(#SVGID_00000130646502879022265210000007052873935653806007_);fill:#232323;" cx="2142.9" cy="1357.2" rx="724.4" ry="675"/>
				</g>
			</g>
			<g>
				<g>
					<defs>
						<rect id="SVGID_00000060010417396022002000000004953069901768445827_" width="4000" height="2500"/>
					</defs>
					<clipPath id="SVGID_00000054243355485845253370000002668479707635627945_">
						<use xlink:href="#SVGID_00000060010417396022002000000004953069901768445827_"  style="overflow:visible;"/>
					</clipPath>
					
						<ellipse style="clip-path:url(#SVGID_00000054243355485845253370000002668479707635627945_);fill:#232323;" cx="2142.9" cy="1357.2" rx="543.3" ry="506.3"/>
				</g>
			</g>
			<g>
				<g>
					<defs>
						<rect id="SVGID_00000034063303342147032840000004417198830830096803_" width="4000" height="2500"/>
					</defs>
					<clipPath id="SVGID_00000174604351558033380770000001445543548515627912_">
						<use xlink:href="#SVGID_00000034063303342147032840000004417198830830096803_"  style="overflow:visible;"/>
					</clipPath>
					
						<ellipse style="clip-path:url(#SVGID_00000174604351558033380770000001445543548515627912_);fill:#232323;" cx="2142.9" cy="1357.2" rx="362.2" ry="337.5"/>
				</g>
			</g>
			<g>
				<g>
					<defs>
						<rect id="SVGID_00000101100376460114855660000000124553634980998328_" width="4000" height="2500"/>
					</defs>
					<clipPath id="SVGID_00000150807697716231735080000005630843309611330981_">
						<use xlink:href="#SVGID_00000101100376460114855660000000124553634980998328_"  style="overflow:visible;"/>
					</clipPath>
					
						<ellipse style="clip-path:url(#SVGID_00000150807697716231735080000005630843309611330981_);fill:#232323;" cx="2142.9" cy="1357.2" rx="181.1" ry="168.8"/>
				</g>
			</g>
		</g>
	</g>
</g>
<g id="Object">
	<g>
		<g>
			<g>
				<g>
					<defs>
						<rect id="SVGID_00000057870449423801055820000008267952783036975527_" x="0" width="4000" height="2500"/>
					</defs>
					<clipPath id="SVGID_00000137103635900061260020000016063143098960607362_">
						<use xlink:href="#SVGID_00000057870449423801055820000008267952783036975527_"  style="overflow:visible;"/>
					</clipPath>
					<g style="opacity:0.1;clip-path:url(#SVGID_00000137103635900061260020000016063143098960607362_);">
						<path class="st0" d="M-243.2-831c-8.9,11.5-17,23.8-24.5,36.7c-1,1.7,2.1,4.4,3.1,2.7c30.5-48.2,72.1-86.3,123-107.9
							c43.9-18.7,94.2-25.1,147.1-19.2c46,5.2,94.5,19.8,141.1,45.4c19.8,10.8,39.2,23.6,57.7,39.1c19.8,16.6,36.1,35.6,52.4,56.7
							C367.3-632.8,430.6-463,513.5-304.8c40.5,77.1,86.1,152.1,141.6,219.8C705-24.4,762,30.2,823.5,71c4.1,2.9,8.4,5.9,12.8,8.6
							c0.2,0.2,0.4,0,0.6-0.1c117.9,73.4,257.8,89.6,336.9,14.2c2.5-2.6,5.1-5,7.6-7.8c-6.3,9.3-12.8,18.1-19.5,26.9
							c-0.2,0-0.3-0.1-0.5,0.1c-44.3,47.6-105,76.3-173.8,81c-68,4.7-142.6-14.1-214.6-53.7c-73-40-140.7-99.8-196.3-172.1
							c-32.4-42.1-61.5-86.8-93.7-129.2c-31.4-41.3-65.7-77.9-104.4-109.3c-35.4-28.7-74-57.4-112.7-72.3c-34-13.1-68-15.5-96.8-6.5
							c-7.1,2.2-13.5,5.3-19.7,9.2c-1.2,0.8,0.5,3.6,2,3.1c29.4-12,62.3-15.8,98.6-5.5c40.5,11.5,80.4,40,117.4,69
							c40.7,31.9,77,69,109.8,111.5c32.4,42.1,61.5,86.7,94,128.9c54.2,70.6,119.3,129.5,190.2,170.4
							c69.6,40.3,142.2,61.6,209.3,60.7c65.5-0.9,125.6-21.7,171.4-61.3c-22.3,25.4-46.9,48.3-74.8,67.6
							C916.4,308.9,678,271.1,480.6,125.5C433.1,90.5,386.9,48.6,346.4,2c-2.1-2.4-4.8-0.1-2.7,2.3C505,190.7,725.2,287.9,908.2,269
							c96.9-10,174.4-54.5,235.5-124.4c42.6-48.6,76.6-105.8,106.5-166.4c38.8-69.1,84.1-132.9,141-182.5
							c44.3-38.5,96.3-68.8,157.1-78.7c39.5-6.5,83.9-4.6,128.2,14c22.2,9.3,42.5,23.4,63,39.9c37.8,30.3,72.5,66.6,102.2,107.6
							c59.6,81.8,96.8,176,126.6,267.5c32.3,99.4,57.2,198.8,89.4,298.2c26.6,82.1,58.7,163.3,101.9,241
							c21.9,41.8,47.5,82,77.5,118.8c0.3,0.4,0.6,0.8,1,1.2c54,71.6,116.3,135.9,183.3,190.7c78.4,64,162.5,115.1,247.2,153.5
							c28.1,12.7,56.3,24,84.6,33.9c1.7,0.7,3.5,1.5,5.2,2.2c0.5,0.2,0.8,0.1,1-0.1c23.9,8.1,47.9,15.2,71.7,20.9
							c62.3,15.9,123.7,20.7,181.3,16.1c95.7-7.5,181-41.2,268-68.7c68-21.5,139.3-41.2,216.5-38.7
							c75.3,10.6,156.3,49.6,222.9,115.8c91.6,91.1,139.7,220,175,335.8c35.9,117.6,57.9,235.2,89.7,353
							c30.3,112.1,69.5,226.9,132.6,332.6c56.9,95.2,134.3,183.4,223.2,235.9c11.3,6.7,22.8,12.6,34.3,17.9c1.2,0.5,1.7-1.3,0.4-2
							c-94.2-46.4-177.4-133.7-240-231c-67.9-105.7-110.2-223-142.7-337.2c-33.8-118.5-57.6-236.9-92.1-355.5
							c-33.4-114.9-77.4-240.5-163.6-335.8c-64-70.6-145.2-114.1-221.4-128.9c15.5,1.3,31.1,3.3,47,6.5
							c138.2,28.2,247.1,132.1,344.1,256.2c-0.5-0.2-0.8,0.4-0.4,0.7c4.6,5.4,9.2,11,13.8,16.6c25.5,33.6,50.5,68.6,74.8,103.6
							c24.9,39.3,47.1,80.1,66.1,122.1c38.5,85.1,66,172.3,105.9,256.9c72.8,154,183,303.7,322.6,386.4
							c67.3,39.8,138.7,63.2,203.1,59.3c1.4-0.1,0.7-2.6-0.7-2.6c-122.8,1.1-258.5-81-362.2-198.3
							c-60.9-68.9-111.2-147.9-151.7-230.1c-40.7-82.5-68.8-167.6-105-251.1c-16.6-38.1-35.4-75.4-56.5-111.6
							c37.7,54.9,74.6,109.5,111.8,159.8c79.3,107.2,168.5,200.6,272.4,271.5c100.8,68.8,208.7,114.9,312.4,132.3
							c50,8.3,98.9,9.9,145.4,4.7c0.8-0.1,0.4-1.6-0.4-1.5c-202.1,22-446.9-89.9-629.4-288.9c-96.6-105.4-172.7-230.2-255-347.7
							c-77-109.6-163.8-221-271.9-287.4c-81.3-50-158.3-65.4-231.9-62.9c-1.8-0.1-3.5-0.2-5.2-0.3c-0.3-0.1-0.4,0.2-0.5,0.5
							c-107.3,4.9-207.3,47.4-301.9,75.9c-13.4,4-26.7,7.8-40.3,11.3c15-5,29.7-10.8,43.8-17.6c57.4-27.6,107.7-67.7,156.5-108.1
							c55.1-45.7,110.6-91,180.2-114.1c36.6-12.1,76.1-18.3,117.5-17.3c28.8,2.4,58.4,8.4,87.9,18.3c41.7,13.9,83.7,35.3,123.5,63.3
							c46.6,32.8,89.1,75.3,127.3,121.8c84.8,103.4,149.6,222.2,234.6,325.3c78.6,95.1,170.2,178.9,268.6,236.7
							c86.8,51.1,179.6,82.7,264.2,83.1c10.7,0,21.2-0.3,31.7-1.1c1.3-0.1,0.6-2.6-0.7-2.5c-85.5,4.5-180-21.8-270-70.3
							c-100.9-54.4-195.7-136.4-277.3-231.3c-42.9-50-81.3-103.7-118.4-158.5c-38.1-56.2-75.3-113.3-117.2-166.6
							c-37.2-47.2-78.3-91.4-124.1-126.2c-38-28.9-78.3-51.6-118.8-67.4c-25.5-10-51-17.4-76-22.1c49.1,5.6,99.8,20.9,150,43.1
							c49.1,21.8,97.6,50,144.9,81.4c46.7,31,92.4,65.1,137.8,100.3c42.8,33.2,85.3,67.2,128.3,99.9c37.9,28.9,76.4,57,116.2,80.2
							c17.3,10.1,34.8,19.3,52.5,26.5c36,15.1,74.4,28,108.5,25.7c16.2-1.1,30.8-6,42.6-15.6c2.2-1.7-1.4-6.4-3.8-4.9
							c-28.3,20-68.5,14.9-107.1,2.7c-24.3-7.6-48.7-17.7-72.6-30.5c-38.9-20.8-76.9-47.3-114-74.9c-42.4-31.3-84.2-64.7-126.1-97.4
							c-44.4-34.6-89-68.7-134.6-100.2c-46.7-32.3-94.6-62.1-143.1-86.1c-48.9-24.2-98.7-42.5-147.6-52
							c-52.3-10.1-102.7-10-149.4-0.1c-63.6,13.5-118,44.8-166.9,83.5c-55.7,44-107.7,92.8-167.9,130.3
							c-51.1,31.9-108.4,50.9-171.2,59.7c-56.5,6.6-115.5,5.6-178-7.7c-121.2-25.9-245.8-96.3-342.2-215
							c-84.6-104.2-133.9-226.3-151.5-346.7c-13.6-92.4-12.6-181.8-10.4-269.5c2.5-98,8.6-198,3.6-300.2c2.7,16.6,5.5,33,8.6,49.5
							c4.3,38,8.1,75.9,13.1,114.2c10.2,77.3,22.4,155.2,42.1,233.7c9.1,36.3,19.7,72.8,33.8,108.8c17.6,45.1,40.1,89.9,64.9,132.7
							c49.6,85.6,112.6,165.7,190,219.9c20.1,14.1,40.6,26.1,61.5,36.4c0.2,0.1,0.4,0.4,0.7,0.5c0.6,0.3,1.4,0.6,2,0.8
							c50.8,24.8,102.9,38.5,151.9,41c79.3,4,149.8-22.7,205.4-67.7c29.1-23.6,53.8-52.4,74.9-85c23.2-35.9,42.2-75.6,62.4-114.2
							c40-76.2,86.5-147.9,146.1-204c53.7-50.6,118.2-87.7,193.8-101.7c67.2-12.4,142.4-6.5,217.9,22.5c18.4,7.1,37.2,15,55.5,25.1
							c2.1,1.2,2.8-2.1,0.6-3.3c-36-19.9-71.6-35.3-108.2-44.8c-36.2-9.5-72.1-13.4-106.4-12.7c-71.8,1.3-136.8,22.4-192.5,57.8
							c-67.3,42.9-120.7,105.1-164.8,175c-22.5,35.7-42,73.9-61.4,112.3c-19.3,38.4-39.1,76.7-64,109.8c-21.2,28.1-46,52.3-74.3,72
							c7.6-6.9,14.8-14.4,21.5-22.7c36.4-45.1,55.9-105.7,68-169.7c5.6-29.4,10.5-59.3,14.7-89.3c6.5-46.1,10.5-93.5,16.1-139.9
							c5.6-46.3,12.7-92.2,25.2-134.7c11.4-38.1,28.2-72.2,49.2-102.2c45.3-64.6,109.1-112.7,186-131.2c10.3-2.5,20.9-4.5,31.7-6.1
							c1.5-0.2,0.8-3.3-0.8-3.2c-80.2,7.9-148,50.4-197.7,108.6c-22.4,26.2-41.6,56-56.2,89.6c-16.6,37.9-26.2,80.6-33.2,124.6
							c-7.2,46.1-11.6,93.7-16.8,140.8c-4.1,37.2-9.5,73.9-15.6,110.2c-10.3,63.3-24.8,124.9-55,174.4c-16.8,27.5-38.3,50.4-64,67.6
							c-26.1,14.3-54.5,24.7-84.8,30.7c-48.2,9.3-101.2,6.4-155.1-8.9c54.4,7,105-6.9,144.3-34.7c65.8-46.6,101.1-132.8,117.4-223.6
							c18-99.7,14.2-209.2,17.1-315.5c2.8-103.5,11.9-206.9,50.9-289.9c39.2-83.7,106.2-139.7,188.4-168.7
							c10.2-3.6,20.8-6.6,31.6-8.9c2.3-0.5,0.1-4.9-2.3-4.5c-86,15.3-156.8,64.8-203.1,138.6c-46.2,73.6-62.7,169.8-68.6,269.2
							c-6.3,104.7-1.9,213.9-11.8,317.2c-9.6,99.5-33.8,195.2-93.4,257.1c-48.5,50.5-122.5,75-203.1,52.6
							c-11.9-4.6-23.8-9.5-35.7-15.3c-36.8-17.8-73.2-41.4-106.8-70.6c-37.5-32.5-71.2-71.6-101-113.1
							c-55.9-78-101.3-166.7-128.7-254.8c-24.3-78.6-39.2-157.8-50.8-235.3c-7.6-50-13.4-99.8-19.4-149.7c5.6,28.9,12,58,19.6,87.1
							c12.9,64.6,27.1,129.3,47.8,194c20.5,64.2,50,128.3,90.2,185.9c44.2,63.5,100.7,113.9,163,144c55.3,26.8,114.2,42,163.8,30.8
							c47.6-10.8,82.9-45.2,105-89.8c48.3-97.5,29.7-232.3-1.5-360.5c-31.9-130.5-76.7-263.1-90.2-391.9c-0.2-1.4-0.2-2.9-0.3-4.3
							c-2.4-83.2,5.5-163.1,32.5-231.1c29-73.2,78.4-133.3,148.9-157c17-5.7,35-10.2,54-11c2.5-0.2,1.3-4.8-1.3-4.8
							c-18.6,0.8-36.9,2.6-53.8,7.6c-17.1,5.1-33.1,12.6-47.9,21.8c-29.9,18.5-54.6,44.6-74.5,75.1c-41.7,63.7-61.5,145.7-65,234.5
							c-3.7,94.4,9.4,194.6,25.6,294.3c8.1,50,17.1,100.1,25.4,150.1c8.5,51.5,15.8,103.3,15.8,152.7c0.2,94.9-31,183.2-112.1,202.3
							c-33.9,8.1-73.2,4.1-112-10.5c-38-14.1-74.4-38.7-108.3-69c-58-51.8-103.8-118.4-137.2-189.3c-33.4-71-54.8-144.8-70.9-217.1
							c-15.3-69.3-25.6-137.9-36.2-206.5c-7.8-51.3-14.1-104.4-31.7-156.4c-2.1-6.1-4.5-12.2-7.2-18.2
							c-31.1-95.2-82.2-191.3-150.8-269.1c-80.2-91-182-154.4-279.9-175.1c-114.3-24.1-209.6,16.1-290.5,71.3
							c-85.1,58-150.9,136.3-201.6,233c-50.5,96.1-88.9,206.7-137.6,307.1c-6.2,11.9-12.3,23.8-18.3,36c-13.6,25.7-28.2,50.5-44,74
							c-32.8,35.3-80,53-130.7,56.3c-60.3,3.9-126.7-12.4-190.6-47.6c-12.2-6.8-24.1-14-36.1-21.8c-61.4-48.1-114-109.3-155.3-179.8
							C628-182.5,598.4-260,575.5-337.1c-42.4-142.4-68.8-292-154.6-426.5c-48.3-75.7-114.3-148.1-185.5-192.2
							c-2.1-1.3-3.3,1.9-1.2,3.5c31.7,23.9,62.6,49.1,91.5,78.4c29.2,29.6,56.1,62.4,79.8,97.4c45.2,66.7,76.2,139.7,99.9,213
							c23.4,72.1,40.4,144.2,62.1,216.3c23,76.4,51.4,153.3,92.6,225.9c34.8,61.3,79.9,122,132.4,167.4
							c-42.9-32.6-83.4-71.6-120.1-114.4c-57.7-67.1-105.1-142.4-146.4-220.4C443-445.8,381.8-614,275.8-760.7
							c-17.6-24.3-35.8-48.5-57.5-68.6c-17-15.7-35.2-29-53.9-40.5C120.3-897,73.8-913.9,29-922.1
							C-80.9-942.4-182.3-909.7-243.2-831z M1278.6-82.2c0-0.1,0.1-0.3,0.2-0.5c0,0,0,0,0.1,0.1
							C1278.7-82.5,1278.6-82.5,1278.6-82.2z M2073.5,479.4c-34.3-100.1-59.3-200.5-90.1-300.6c-28-90.9-61.2-184.4-114.7-269.1
							c-26-41.2-56.6-79.4-91.1-112.3c-25.5-24.4-54-48.5-83-64.1c-39.6-21.2-80.9-27.6-118.1-26c-57.2,2.3-107.7,23.6-151.4,53.1
							c-28.2,19.1-54,41.9-77.6,67.3c28.9-36.3,59.4-71,92.4-102.7c21.1-20.2,43.5-39,67.3-55.7c21.6-14,44.3-25.7,70.6-31.7
							c27.9-6.3,58.6-5.9,90.2,3.2c51.3,15,98.6,51.8,141.2,96.4c46.2,48.4,89,102.7,122.6,161.6c33,58,53.2,118.2,67.5,179
							c7.2,30.4,13,60.5,19.1,90.9c6.2,31.5,12.7,63.1,18,94.4c10.6,62.1,20.4,123.8,36,186.4c11.6,46.8,26.3,94.9,44.9,142.4
							C2101.2,555,2086.6,517.5,2073.5,479.4z M2467.5,1028.5c-72.3-53.5-140.5-117.6-200.1-190.8c0.4,0.4,0.6,0.8,1.1,1.1
							c0.1,0.2,0.3,0,0.2-0.1c-5-5.9-10-12-14.8-18c-8.9-11.4-17.6-23-26.1-34.9c-21-29.1-40.1-59.2-57.6-89.8
							c-6.1-11-12-22.2-17.7-33.6c-30.1-60.9-52.6-123.8-69.7-186.6c-17.6-64.6-29.1-128.4-39.7-192.4
							c-10.2-61.2-22.2-123.1-35.6-184.7c-13.2-60.4-30.6-121.2-61.1-179.8c-30.5-58.8-70.7-113.5-114.6-162.6
							c-44.3-49.4-92.5-93.4-147.7-114.5c-46.4-17.7-89.4-15.8-127.5-3c31.7-17,65.7-30.2,102.1-38.3c83.3-18.6,185.5-1,273.9,75.7
							c96.5,83.6,154.8,205.6,198.2,321.5c42.1,112.7,69.8,228.4,83.2,339.7c1.3,11.3,2.5,22.6,3.5,33.7
							c1.1,34.8,2.6,69.8,6.5,105.2c7.6,70.4,23.7,143.1,49.7,214.5c31.3,85.6,77.2,169.1,136.3,242
							c74.5,91.9,167.4,162.9,261.6,212.3c12.6,6.5,25.2,12.8,37.8,18.6C2627.2,1130.9,2545.1,1085.9,2467.5,1028.5z M2546.3,558.1
							c27.7,30.3,58.6,57.5,90.7,78.9c36.5,24.3,75.7,39.5,112.8,44.4c36.8,5.1,71.7-0.2,99.8-16.9c32.4-19.1,53.7-53.2,65.8-93.1
							c26.2-86.7,6.9-194.8-10.3-296.9c-16.1-95.3-33-191.1-40.1-284.5c4.9,30.3,11.4,61,18.4,91.2c14.4,62.8,32.1,125.7,49,188.6
							c34.3,127.9,66.5,265.7,36.3,375.8c-14.3,51.8-41.7,96.6-83.5,120.6c-43.2,24.7-98.7,22.1-155.3,2.2
							c-63-22-124.3-62.1-174.8-121.7c-47.7-56.2-84.3-124.6-108.7-191.7c-21.3-58.7-35.7-117.3-48.3-176
							c8.1,27,17.4,53.9,28.1,80.7C2454.5,430.9,2493.9,500.5,2546.3,558.1z M2023-569.3c100.5,63.5,183,164.4,237.8,277.6
							c32,66.4,52.7,133,65.8,199.3c2,11.4,3.9,22.8,5.7,34c1.9,12.4,3.8,24.8,5.8,37.3c13.1,104.4,10.7,207.1,7.9,304.9
							c-5,177.8-21.8,375.8,72,568.4c60.8,125.2,159.7,233.7,271.6,296.3c-82.5-42.6-163.4-98.4-234.4-172
							c-68.6-71.2-124.4-156.7-162.7-247.1c-32-75.4-52.4-153.1-62.7-228.4c-8.5-61.5-9.4-121.4-11.7-181.2
							c-3.2-79.9-6-159.6-13.4-240.7c-7.7-84.6-19.8-171-42.7-258c-20.4-77.6-50.1-157.1-97-228.5c-46.7-71-109.5-124.8-177.5-156
							c-59.4-27.2-119.2-40.6-174.6-36.3c-48.2,3.6-91.3,19.2-130,42.2c35.3-24.4,73.4-44.7,113.7-59.7
							C1792.8-653.3,1908.2-641.8,2023-569.3z M1437.6-411c24.7-36.1,53.3-69.2,85-98.4c43-36.7,91.9-66,148.5-79.3
							c56.3-13.3,119.2-8.2,183.6,15.8c68.2,25.4,133.5,69.5,186.4,136c53.6,67.6,87.6,148.1,110.8,226.2
							c25.8,87.1,39.4,174,48.3,258.8c8.7,82.5,12.4,163.6,15.1,244.4c0.6,20.7,1.2,41.5,1.8,62.3
							c-11.3-105.6-35.1-213.7-70.8-321.3c-38.5-115.9-89.7-237.9-178.6-330.6c-40.6-42.3-86.7-74.6-134.8-93.3
							c-46.4-18-92-22.7-134.8-19.2c-49.1,4-93.6,19.4-135.1,39.7c-21.6,10.5-41.9,22.9-61.2,36.6c-0.7,0.4-1.2,0.8-1.9,1.2
							c-3.3,2.2-6.3,4.6-9.4,7.1c-9.3,7.1-18.5,14.4-27.4,22.1c-63.7,55-119.3,121.4-168.5,192.8c-3.4,5-6.8,10.1-10.1,15.3
							c4.5-10.3,9-20.5,13.4-30.8C1339.6-224.5,1379.4-326,1437.6-411z"/>
						<path d="M-767.8,1809.4c3.4-2.2,6.6-4.5,9.8-6.9c-8,9-16.2,17.6-24.8,25.8c-0.1-0.1-0.3-0.1-0.6-0.1
							c-57,43.2-84.3,55.6-24.8,22.2c-28.5,23.3-75.9,73.4,2.6,9.1c54.6-44.7,97.3-101.4,134.4-163c48.6-69,106-130.5,179.9-172.5
							c57.5-32.7,125.7-53.9,206.6-49.9c52.6,2.7,112.3,16.4,172.6,48.9c30,16.2,58.1,37.9,86.4,61.8
							c52.3,44.3,100.5,94.9,142.4,149.4c83.9,109,138.6,226.3,183.1,338.6c48.5,122,86.7,242.1,134.9,364.1
							c39.9,100.6,86.9,201.9,148.6,301.8c31.6,53.5,67.8,105.9,109.8,155.8c0.4,0.5,0.9,1,1.3,1.5
							c76.1,95.8,162.8,185.5,255.3,265.2c108.2,93.3,223.6,173.5,339.1,239c38.3,21.7,76.6,41.9,115,60.3c2.3,1.2,4.7,2.6,7,3.8
							c0.6,0.3,1,0.3,1.3,0.1c32.5,15.4,65,29.5,97.2,42.1c84.3,34.3,166.8,55.3,243.9,64.9c127.9,15.9,240.5-0.8,355.8-9.9
							c90-7.1,184.6-11.5,288.3,11.3c101.4,31.4,127.6,42.3,24.7,5.9c20.8,5.4,37-1.8-61.6-17.9c-2.3-0.5-4.6-1.1-7-1.6
							c-0.5-0.1-0.5,0.2-0.6,0.5c-143.6-21.8-275.5,1-401,9.3c-17.7,1.2-35.5,1.9-53.5,2.5c19.8-1.9,39.2-4.8,57.9-8.9
							c75.5-17,141-49.7,204.3-83.4c71.6-38.1,125.7-73.5,62-41.8c-72.5,36.1-139.6,78.5-218.4,106.2
							c-66.9,23.3-142.9,30.4-226.4,24.3c-75.4-6.8-154.5-23.2-239-54.6c-163.6-60.7-334.2-173.3-469.3-333.8
							c-118.5-140.9-190.6-293.1-220.5-435.5c-23-109.4-26-211.2-27.4-311c-1.5-111.4,1.6-224.2-10.2-342.5
							c4.5,19.6,9.1,39.2,14,58.9c7.5,44.6,14.7,89,23.2,133.9c17.6,91,37.9,183.3,68,278.1c13.9,43.8,30,88.3,50.8,133.2
							c26,56.2,58.4,113.1,93.7,168.6c70.7,110.6,159.3,218.6,265.7,300.3c27.6,21.2,55.9,40.4,84.2,57.5c0.2,0.2,0.5,0.5,0.9,0.7
							c0.9,0.5,1.8,1,2.7,1.5c69.3,41.3,139.9,70.4,205.7,85.9c106.6,24.9,199.8,12.6,271.9-24.8c37.7-19.4,69.6-46.2,96.1-78
							c29.3-35.2,4.8-11.7-27.2,19.7c-27,26.8-59.2,48.1-96,63.2c9.9-5.9,19.1-12.7,27.7-20.4c46.4-42.4,57.7-76.9,19.6-28.2
							c-21.1,27.1-48.9,47.8-82.3,60.8c-34.2,9.7-71.7,14.4-112.2,13.4c-64.1-1.7-135.3-18.6-208.5-50c73.2,22,140.3,19.1,191.8-2.6
							c86-36.3,128.8-126.1,146.3-225.6c19.2-109.3-35.7,144.1-112.5,199.5c-62.6,45.2-160.5,54.3-269.6,8.1
							c-16.2-8.1-32.4-17-48.6-26.6c-50.3-29.7-100.2-66.1-146.6-108c-51.9-46.7-99.1-100.2-141-155.3
							c-78.8-103.8-144-216.9-185-324.7c-36.5-96.2-60.4-190.6-79.8-282.3c-12.6-59.3-23-117.7-33.4-176.1
							c9,34.5,19,69.4,30.4,104.6c20.6,77.2,42.9,154.8,73.7,234.3c30.5,78.6,73.4,159.5,130.3,235.9
							c62.4,84,140.7,156.2,225.7,206.8c75.5,44.9,155.3,77.4,221.2,77.4c63.4,0,108.9-30.5,136.3-75.8
							c60-99.2-87.4-63.5-195.1-62.4c-45.2,0.5-98-14.2-150.8-40.8c-51.5-26-101.7-63.3-148.6-106.7c-80.3-74.1-145-162-193.4-251.9
							c-48.4-89.9-80.7-179.6-105.8-266.6c-24.1-83.2-41.3-164.4-58.8-245.5c-13.1-60.6-24.2-123.1-50.3-187.1
							c-3.1-7.5-6.7-15.1-10.7-22.7c-46.4-116.8-119.7-239.9-215.6-346.6c-112.1-124.6-251.8-223.4-384.1-272.2
							c-154.2-56-280.1-34.6-385.9,7.8c-111.2,44.5-195.6,117.2-258.7,214.8c-62.8,97-108.7,213.8-169.3,315.9
							c-7.9,11.8-15.3,24.1-22.6,36.5c-17,25.9-35.3,50.6-55.4,73.4c-42.2,31.9-104.6,40-172.3,30.8
							C-1008.7,1819.7-870.1,1875.4-767.8,1809.4z M-636.3,1635.1c0.1-0.2,0.3-0.3,0.2-0.6c0,0,0,0,0.1,0.1
							C-636.1,1634.7-636.2,1634.9-636.3,1635.1z M457.5,2481.7c-51-123.2-89.5-244.7-135.8-367c-42.2-111.3-91.2-226.5-167.1-337.4
							c-36.9-53.8-79.8-105.3-127.8-151.8c-35.4-34.4-74.8-69.4-114.5-94.6c-54.1-34.2-109.8-52.3-159.6-60.1
							c-76.5-12.1-143.3-0.8-200.3,21.8c-37,14.7-70.4,34-100.6,57.1c37-34.1,76-66.1,118.7-93.7c27.3-17.7,56.3-33.5,87.4-46.4
							c28.1-10.5,58.2-18.1,93.1-18.1c37.1,0,78.2,8.1,121.1,26.9c69.5,30.2,134.9,84.6,194.1,146.6
							c64.4,67.3,124.5,140.3,172.3,216.4c47.2,74.8,77.2,148.9,99.5,222.2c11.1,36.6,20.6,72.7,30,108.8
							c9.9,37.7,20.2,75.4,29,112.6c17.3,73.7,33.4,146.8,57.4,222.4c18,56.5,40.1,115.3,67.3,174.4
							C498.3,2575.2,477,2528.6,457.5,2481.7z M1013.2,3211c-99.7-79.8-194.3-170.7-277.9-269.7c0.5,0.5,1,1.1,1.5,1.5
							c0.1,0.1,0.3,0.1,0.1-0.2c-7.1-8.1-13.9-16.3-20.7-24.4c-12.5-15.3-24.8-31-36.8-46.6c-29.7-38.9-56.7-78-81.7-117.6
							c-8.7-14.2-17.3-28.6-25.3-42.9c-43.3-77.4-76.7-155.2-102.8-231.4c-26.9-78.2-45.5-154.3-62.9-230.1
							c-16.5-72.7-35.8-146.6-57-220.6c-20.8-72.4-47.1-146.5-90.7-221.3c-43.8-75.1-100.5-148.1-161.8-215.4
							c-61.9-67.8-128.5-130.6-203.8-168.9c-63.1-32.1-120.7-41-171.1-36.2c41.7-11.3,86.6-17.7,135-17.5
							c110.9,0.2,248.6,46.5,371,156.9c133.4,120.3,217.8,274.9,281.7,418.6c62.1,139.7,105.1,279.1,128.5,409.8
							c2.3,13.3,4.4,26.3,6.4,39.3c3.2,40.1,7.1,80.5,13.9,122.2c13.7,82.4,38.9,169.7,77.5,258.2
							c46.2,105.9,111.9,213.3,194.8,311.8c104.5,124.1,232.5,229.2,361.4,310c17.2,10.8,34.3,21,51.5,31
							C1232.4,3369.2,1120.1,3296.4,1013.2,3211z M1095.4,2693c38.5,41.7,81.3,80.8,125.6,113.6c50.2,37.1,103.4,64.6,153.4,79.8
							c49.5,15.1,96,18.2,133,6.4c42.5-13.5,69.4-47.1,83.6-89.6c30.8-92.5,110-19.8,75,98.5c-16.6,55.6-51.1,99.9-105.9,116.6
							c-56.7,17.3-131.2-0.1-208-37.2c-85.6-41.4-169.8-103-240.3-184c-66.6-76.5-119.3-164.2-155.3-247.3
							c-31.4-72.6-53.8-143.4-73.5-213.7c12.2,32.9,25.9,66.2,41.7,99.5C965.8,2524,1022.1,2613.8,1095.4,2693z M337.4,1269
							c137.8,98.4,253.6,235,332.5,378.6c46.2,84.1,77.2,165.7,98.2,244.9c3.2,13.4,6.4,27,9.3,40.3c3.3,14.8,6.4,29.3,9.7,44.1
							c22.8,122.8,24.7,239.7,25.8,350.8c2.2,202.2-10.5,424.4,124.8,668.9c87.9,158.9,225.8,308.4,379.1,408.7
							c-112.9-70-224.1-154.5-322.8-256.9c-95.5-99-174.6-211.1-230.6-324.5c-46.6-94.4-77.8-188.7-95.4-277.4
							c-14.4-72.6-18.6-141.3-24.8-210.3c-8.3-92.3-16.1-184.3-30.1-278.9c-14.6-98.8-35.1-200.8-70-306
							c-31.3-94-75-192.7-141.5-286.4c-66.1-93-153-170.6-245.9-223.9c-81.1-46.4-161.8-77-235.9-86.4
							c-64.2-8.2-121.5-1.5-172.2,14.9c46.1-18.9,96.2-32.3,149.4-39.1C24.7,1113.7,179.8,1156.4,337.4,1269z M-439.4,1299.7
							c31.4-35,68-65.4,109-90.8c55.8-31,119.9-51.9,195-52.7c74.8-0.7,159.3,21.2,246.9,65.1c92.8,46.6,182.4,113.9,256.6,203.5
							c75.3,91.1,124.8,191.8,159.8,287.3c39.1,106.3,61.6,209.2,77.8,308.7c15.8,96.6,24.8,190.3,32.6,283.5
							c2,23.9,3.7,47.8,5.4,71.6c-20.5-123.6-57.8-253.5-111-385.7c-57.3-142.5-132.1-295.1-256.1-424
							c-56.5-58.9-120-107.8-185.4-141.3c-63.3-32.6-124.3-49.6-181.7-56.6c-65.6-8.1-124.6-1.9-179.1,10.7
							c-28.4,6.6-54.9,15.5-80.3,26.1c-0.8,0.4-1.7,0.6-2.5,0.9c-4.2,1.9-8.4,3.6-12.3,5.7c-12.1,5.7-24,11.7-35.5,18.2
							c-82.6,46.6-153.9,108.2-216.3,177.2c-4.4,4.8-8.6,9.8-12.8,14.8c5.5-10.6,11-21.3,16.3-31.9
							C-561.5,1487.8-513.1,1382-439.4,1299.7z"/>
					</g>
				</g>
			</g>
		</g>
		<g class="st0">
			<path class="st18" d="M1127.7,1961.5c-8.2,0-8.2,12.8,0,12.8C1136,1974.3,1136,1961.5,1127.7,1961.5z"/>
			<path class="st18" d="M1255.7,1912.7c-0.3-1-0.8-1.8-1.6-2.5c-0.3-0.2-0.5-0.5-0.8-0.7c-0.9-0.8-1.8-1.5-3.1-1.8
				c-0.5-0.1-1.1-0.2-1.6-0.2s-1.1,0.1-1.6,0.2c-1.2,0.3-2.2,1-3.1,1.8c-0.3,0.2-0.5,0.5-0.8,0.7c-0.4,0.5-0.8,1-1.2,1.6
				c-0.3,0.6-0.5,1.2-0.8,1.8c-0.3,1-0.4,2-0.1,3.1c0,0.7,0.2,1.3,0.5,1.9c0.2,0.7,0.5,1.2,1,1.7c0.3,0.6,0.8,1,1.4,1.4
				c0.5,0.5,1,0.8,1.7,1c0.9,0.5,1.9,0.7,3,0.7c0.7-0.1,1.4-0.2,2-0.3c0.6-0.3,1.2-0.5,1.8-0.8c0.5-0.4,1-0.8,1.6-1.2
				c0.4-0.5,0.8-1,1.2-1.6c0.3-0.6,0.5-1.2,0.8-1.8c0.3-1,0.4-2,0.1-3.1C1256.2,1914,1256,1913.3,1255.7,1912.7z"/>
			<path class="st18" d="M1197.8,1800.5c-0.8,0-1.4,0-2.1,0c-1.5-0.2-2.7,0.3-3.6,1.2c-1.3,1-1.8,2.5-1.7,4
				c-0.1,1.6,0.4,3.1,1.7,4.1c0.9,0.9,2.2,1.4,3.6,1.2c0.7,0.1,1.3,0.1,2.1,0C1204.6,1810.7,1204.6,1800.9,1197.8,1800.5z"/>
			<path class="st18" d="M1329.7,1749.2c-9.1,0-9.1,14.2,0,14.2C1338.9,1763.4,1338.9,1749.2,1329.7,1749.2z"/>
			<path class="st18" d="M1074.2,1847.5c-4.7,0-4.7,7.3,0,7.3C1078.8,1854.7,1078.8,1847.5,1074.2,1847.5z"/>
			<path class="st18" d="M916.7,1894.9c0-0.1-0.1-0.2-0.1-0.3c0-0.1,0-0.1,0-0.2c0,0,0,0,0-0.1c-0.1-0.3-0.3-0.7-0.4-1
				c-0.3-0.4-0.5-0.8-0.8-1.2c-0.1-0.2-0.3-0.4-0.4-0.6c-0.1-0.2-0.3-0.4-0.4-0.6c-0.2-0.3-0.3-0.4-0.5-0.6
				c-0.1-0.1-0.2-0.2-0.3-0.2c-0.4-0.3-0.8-0.7-1.2-1c-0.4-0.5-0.9-0.8-1.5-1c-0.6-0.3-1.1-0.4-1.8-0.4c-0.6,0-1.2,0.1-1.8,0.4
				c-0.6,0.2-1.1,0.5-1.5,1c-0.2,0.3-0.5,0.6-0.7,0.9c-0.4,0.7-0.6,1.5-0.6,2.3c0.1,0.4,0.1,0.8,0.2,1.2c0.2,0.8,0.6,1.5,1.2,2
				c0.3,0.4,0.6,0.8,1,1.1c0.1,0.1,0.2,0.2,0.2,0.3c0,0.1,0.1,0.1,0.1,0.2c0.3,0.3,0.6,0.5,1,0.8c0,0,0,0,0.1,0
				c0.2,0.1,0.4,0.3,0.6,0.4c0.4,0.3,0.8,0.5,1.2,0.8c0.2,0.1,0.4,0.2,0.6,0.2c0.2,0.1,0.4,0.2,0.6,0.2c0.1,0,0.1,0,0.2,0
				c0.1,0,0.2,0.1,0.3,0.1c0.2,0.1,0.4,0.1,0.7,0.2c1.3,0.3,2.6,0,3.5-0.9s1.3-2.3,0.9-3.5C916.8,1895.3,916.8,1895.1,916.7,1894.9z
				"/>
			<path class="st18" d="M1387.4,1474.9c-6.8,0-6.8,10.5,0,10.5C1394.2,1485.4,1394.2,1474.9,1387.4,1474.9z"/>
			<path class="st18" d="M756.8,1763.8c-6.3,0-6.3,9.8,0,9.8S763.1,1763.8,756.8,1763.8z"/>
			<path class="st18" d="M1279.2,1573.1c-0.3-0.5-0.7-1-1.3-1.3c-0.6-0.3-1.2-0.5-1.8-0.5c-0.6,0-1.2,0.2-1.8,0.5
				c-0.5,0.3-1,0.7-1.3,1.3c-0.5,1.1-1,2.1-1.6,3.2c-0.5,0.8-0.7,1.7-0.7,2.7s0.2,1.9,0.7,2.7c1,1.6,2.8,2.7,4.7,2.7
				c1.9,0,3.7-1,4.7-2.7c0.5-0.8,0.7-1.7,0.7-2.7s-0.2-1.9-0.7-2.7C1280.3,1575.3,1279.7,1574.2,1279.2,1573.1z"/>
			<path class="st18" d="M982.2,1761.7c-0.3-0.2-0.5-0.4-0.8-0.6c-0.6-0.4-1.3-0.5-2-0.5c-0.7,0.1-1.3,0.2-2,0.2
				c-0.3,0-0.7,0.1-1,0.1c-0.7,0.1-1.3,0.1-1.9,0.5c-0.3,0.2-0.6,0.4-0.8,0.6c-0.1,0.1-0.2,0.2-0.3,0.3c-0.3,0.3-0.5,0.6-0.7,1
				s-0.3,0.8-0.3,1.2c0,0.8,0.3,1.6,0.9,2.2c0.1,0.1,0.2,0.2,0.2,0.2c0.3,0.3,0.4,0.4,0.8,0.7c0.6,0.4,1.2,0.4,1.9,0.5
				c0.3,0,0.7,0.1,1,0.1c0.7,0.1,1.3,0.2,2,0.2c0.5,0,1.1-0.1,1.5-0.3c0.5-0.2,0.9-0.4,1.3-0.8c0.4-0.4,0.7-0.8,0.8-1.3
				c0.2-0.5,0.4-1,0.3-1.5c0-0.4-0.1-0.7-0.1-1.1C983,1762.8,982.7,1762.2,982.2,1761.7z"/>
			<path class="st18" d="M2174.8,1589c-7.8,0-7.9,12.2,0,12.2C2182.6,1601.2,2182.6,1589,2174.8,1589z"/>
			<path class="st18" d="M2319,1504.2c-10.9,0-10.9,16.9,0,16.9S2329.9,1504.2,2319,1504.2z"/>
			<path class="st18" d="M2187.9,1760.7c-0.4-0.3-0.7-0.6-1.1-0.9c-0.8-0.5-1.8-0.7-2.8-0.7c-1-0.1-2-0.1-3.1-0.2
				c-0.8,0-1.5,0.1-2.2,0.5c-0.7,0.2-1.3,0.6-1.8,1.2c-0.5,0.5-0.9,1.1-1.2,1.8c-0.4,0.7-0.5,1.4-0.5,2.2c0.1,0.5,0.1,1,0.2,1.5
				c0.3,1,0.7,1.8,1.4,2.5c0.4,0.3,0.8,0.6,1.1,0.9c0.9,0.5,1.8,0.8,2.8,0.8c1-0.1,2-0.1,3.1-0.2c0.8,0,1.5-0.1,2.1-0.5
				c0.7-0.2,1.3-0.6,1.8-1.1s0.9-1.1,1.1-1.8c0.3-0.6,0.5-1.4,0.5-2.1c-0.1-0.5-0.1-1-0.2-1.4
				C2189,1762.2,2188.5,1761.4,2187.9,1760.7z"/>
			<path class="st18" d="M2473,1564.3c-0.5-0.3-1.1-0.6-1.6-0.8c-0.6-0.3-1.1-0.5-1.7-0.7c-0.3-0.1-0.7-0.1-1-0.2
				c-0.7-0.1-1.4-0.3-2-0.4c-1.1-0.2-2.1-0.2-3.2-0.3c-1.2-0.1-2.6,0.6-3.4,1.4c-0.8,0.8-1.5,2.2-1.4,3.4c0.1,1.2,0.5,2.5,1.4,3.4
				c0.9,0.8,2.1,1.5,3.4,1.4c1.1-0.1,2.2-0.1,3.2-0.3c0.7-0.1,1.4-0.3,2-0.4c0.3-0.1,0.6-0.1,0.9-0.2c0.6-0.1,1.2-0.4,1.8-0.7
				c0.5-0.3,1.1-0.6,1.6-0.8C2474.8,1568.2,2474.8,1565.2,2473,1564.3z"/>
			<path class="st18" d="M2373.8,1703.2c-0.3-0.2-0.5-0.3-0.8-0.5c-0.6-0.4-1.3-0.6-2-0.9c-0.6-0.2-1.3-0.4-1.9-0.6
				c-1-0.3-2.1-0.3-3.1,0s-1.9,0.8-2.6,1.5c-0.3,0.4-0.6,0.8-0.9,1.2c-0.5,0.9-0.8,1.9-0.8,3c0,0.8,0.1,1.6,0.5,2.3
				c0.2,0.7,0.6,1.4,1.2,1.9c0.7,0.7,1.6,1.2,2.6,1.5s2.1,0.3,3.1,0c0.6-0.2,1.3-0.4,1.9-0.6c0.7-0.2,1.4-0.5,2-0.9
				c0.3-0.2,0.5-0.3,0.8-0.5c0.6-0.4,1.1-0.9,1.5-1.5c0.4-0.7,0.6-1.4,0.6-2.1c0-0.8-0.2-1.5-0.6-2.1
				C2375,1704.1,2374.5,1703.6,2373.8,1703.2z"/>
			<path class="st18" d="M2591.1,1610.2c-7.6,0-7.6,11.8,0,11.8C2598.7,1622.1,2598.7,1610.2,2591.1,1610.2z"/>
			<path class="st18" d="M2434,1973.6c-8,0-8,12.4,0,12.4C2442,1986,2442,1973.6,2434,1973.6z"/>
			<path class="st18" d="M2269.6,1649.1c-0.1-0.4-0.1-0.8-0.2-1.2c-0.2-0.8-0.6-1.4-1.2-2c-0.7-0.6-1.4-1.2-2.4-1.4
				c-0.2,0-0.4-0.1-0.6-0.1c-0.4-0.1-0.8-0.2-1.1-0.3c-0.9-0.2-1.8-0.2-2.8,0c-0.9,0.2-1.7,0.7-2.3,1.3c-0.3,0.4-0.5,0.7-0.8,1.1
				c-0.5,0.8-0.7,1.7-0.7,2.6c0,0.7,0.1,1.4,0.4,2c0.2,0.6,0.6,1.2,1.1,1.7c0.7,0.6,1.4,1.1,2.3,1.3c0.9,0.2,1.8,0.2,2.8,0
				c0.4-0.1,0.8-0.2,1.1-0.3c0.2,0,0.4-0.1,0.6-0.1h0.1c0.4-0.2,0.8-0.3,1.1-0.5c0.2-0.1,0.4-0.3,0.5-0.4c0.2-0.1,0.4-0.3,0.5-0.4
				s0.1-0.1,0.2-0.2c0.4-0.4,0.8-0.9,0.9-1.5C2269.4,1650.3,2269.6,1649.8,2269.6,1649.1z"/>
			<path class="st18" d="M2278.3,1720.5c-0.1-0.1-0.2-0.2-0.3-0.3c-0.2-0.2-0.4-0.4-0.6-0.6c-0.4-0.3-0.7-0.6-1.1-0.8
				c-0.4-0.2-0.8-0.4-1.3-0.5c-0.7-0.2-1.4-0.3-2.1-0.1c-0.5,0-0.9,0.1-1.3,0.4c-0.4,0.1-0.8,0.4-1.2,0.7c-0.4,0.2-0.7,0.5-0.9,0.9
				c-0.3,0.3-0.6,0.7-0.7,1.2c-0.3,0.6-0.5,1.3-0.5,2c0.1,0.5,0.1,0.9,0.2,1.4c0.2,0.4,0.4,0.8,0.5,1.3c0.3,0.4,0.5,0.7,0.8,1.1
				c0.4,0.3,0.7,0.5,1.1,0.8c0.4,0.2,0.8,0.4,1.3,0.5c0.7,0.2,1.4,0.3,2.1,0.1c0.5,0,0.9-0.1,1.3-0.4c0.7-0.2,1.2-0.6,1.7-1.1
				c0.6-0.6,1.2-1.2,1.7-1.9c0.3-0.6,0.5-1.2,0.5-1.8c0-0.7-0.2-1.3-0.5-1.8C2278.9,1721.1,2278.6,1720.8,2278.3,1720.5z"/>
			<path class="st18" d="M2342.5,1599.6c-0.3-0.2-0.5-0.4-0.8-0.6c-0.6-0.4-1.3-0.5-2-0.5c-0.5,0-1.1,0.1-1.5,0.3
				c-0.5,0.2-0.9,0.4-1.3,0.8c-1,1-1.4,2.5-1,3.9c0.1,0.4,0.2,0.8,0.3,1.2c0,0.2,0.1,0.4,0.1,0.6s0.1,0.3,0.2,0.5
				c0.1,0.4,0.4,0.8,0.7,1.1c0.2,0.2,0.5,0.4,0.8,0.6l0.1,0.1c0.5,0.3,1,0.4,1.6,0.4s1.1-0.1,1.6-0.4l0.1-0.1
				c0.3-0.2,0.5-0.4,0.8-0.6c0.2-0.2,0.4-0.5,0.6-0.7c0.2-0.3,0.3-0.6,0.4-0.9c0.1-0.2,0.1-0.4,0.1-0.6c0.1-0.4,0.2-0.8,0.3-1.2
				c0.2-0.7,0.2-1.4,0-2.1C2343.3,1600.7,2343,1600.1,2342.5,1599.6z"/>
			<path class="st18" d="M2242.5,1537.9c-0.3-0.1-0.8,0-1.1,0.1c-1,0.7-2.1,1.4-3.1,2.1c-0.3,0.2-0.6,0.4-0.8,0.8
				c-0.2,0.3-0.3,0.7-0.3,1.1c0,0.6,0.2,1.1,0.6,1.5c0.4,0.4,1,0.6,1.5,0.6c0.4,0,0.7-0.1,1.1-0.3c0.3-0.2,0.6-0.4,0.8-0.8
				c0.7-1,1.4-2.1,2.1-3.1c0-0.1,0.1-0.2,0.1-0.3c0.1-0.2,0.1-0.4,0-0.6c0-0.3-0.2-0.6-0.4-0.8
				C2242.9,1538,2242.7,1537.9,2242.5,1537.9z"/>
			<path class="st18" d="M2174.8,1670.9c-3.8,0-3.8,5.9,0,5.9C2178.5,1676.8,2178.5,1670.9,2174.8,1670.9z"/>
			<path class="st18" d="M2413.9,1638.3c0.2,0,0.2-0.4,0-0.4C2413.6,1638,2413.6,1638.3,2413.9,1638.3z"/>
			<path class="st18" d="M2408.5,1629.7c-0.3-0.2-0.6-0.4-0.8-0.6c-0.6-0.4-1.3-0.6-2.1-0.6c-0.4,0-0.9,0.1-1.3,0.1
				c-0.1,0-0.2,0-0.3,0c-0.2,0-0.4,0.1-0.7,0.1c-0.5,0-1,0.2-1.5,0.5c-0.3,0.2-0.6,0.4-0.8,0.6c-0.3,0.3-0.5,0.7-0.8,1
				c-0.3,0.5-0.5,1.1-0.5,1.7s0.2,1.2,0.5,1.7l0.1,0.1c0.2,0.3,0.4,0.6,0.7,0.9c0.2,0.2,0.5,0.5,0.8,0.6s0.6,0.3,0.9,0.4
				c0.3,0.1,0.8,0.1,1.2,0.2c0.1,0,0.2,0,0.3,0c0.4,0,0.9,0.1,1.3,0.1c0.6,0,1.1-0.1,1.6-0.4c0.5-0.2,0.9-0.4,1.3-0.8
				c0.4-0.4,0.7-0.8,0.8-1.3c0.3-0.5,0.4-1,0.4-1.6c0-0.4-0.1-0.7-0.1-1.1C2409.4,1630.9,2409,1630.3,2408.5,1629.7z"/>
			<path class="st18" d="M2383.6,1539.4c0.2,0,0.2-0.4,0-0.4C2383.4,1539,2383.4,1539.4,2383.6,1539.4z"/>
			<path class="st18" d="M2298.1,1804.7c-0.4-0.3-0.8-0.6-1.2-0.9c-0.3-0.3-0.7-0.5-1-0.8c-0.3-0.5-0.6-1-0.9-1.4
				c-0.5-0.8-1.2-1.5-2-2c-0.9-0.5-1.8-0.8-2.8-0.8c-2,0-3.8,1.1-4.8,2.8c-1,1.7-1,3.9,0,5.6c0.5,0.8,1.2,1.5,2,2
				c0.9,0.5,1.8,0.8,2.8,0.8c0.5,0,0.9-0.1,1.4-0.1c0.3,0,0.6,0,0.9,0c0.8,0.2,1.5,0.4,2.3,0.6c0.3,0,0.6,0.1,0.9,0.1
				c0.5,0,0.9-0.1,1.3-0.3c0.7-0.3,1.3-0.7,1.6-1.4c0.3-0.5,0.4-1.1,0.5-1.7c0-0.5-0.1-0.9-0.3-1.3
				C2298.7,1805.4,2298.4,1805.1,2298.1,1804.7z"/>
			<path class="st18" d="M2386.4,1780.1c-1.2,0-1.2,1.9,0,1.9C2387.6,1782,2387.6,1780.1,2386.4,1780.1z"/>
			<path class="st18" d="M798.5,1878.2c-0.4-0.2-0.8-0.3-1.3-0.4c-0.4-0.1-0.9-0.2-1.3-0.2c-0.9-0.2-1.7-0.3-2.6-0.5
				c-0.5-0.1-1.1-0.1-1.6,0s-1,0.4-1.3,0.8c-0.5,0.6-0.9,1.3-0.9,2.2c0,0.8,0.3,1.6,0.9,2.2c0.4,0.4,0.8,0.6,1.3,0.8
				c0.5,0.1,1.1,0.1,1.6,0c0.9-0.2,1.7-0.3,2.6-0.5c0.4-0.1,0.9-0.2,1.3-0.2c0.5-0.1,0.9-0.2,1.3-0.4c0.4-0.1,0.7-0.3,1-0.7
				c0.2-0.3,0.4-0.7,0.4-1.1c0-0.3-0.1-0.7-0.3-0.9C799.4,1878.6,798.9,1878.3,798.5,1878.2z"/>
			<path class="st18" d="M973.9,1964.3c-4.7,0-4.7,7.3,0,7.3C978.5,1971.5,978.5,1964.3,973.9,1964.3z"/>
			<path class="st18" d="M861.2,1778.5c0.2,0,0.2-0.4,0-0.4C860.9,1778.1,860.9,1778.5,861.2,1778.5z"/>
			<path class="st18" d="M873.6,1758.7c-0.1-0.3-0.3-0.6-0.5-0.8c-0.2-0.2-0.6-0.3-0.9-0.3c-0.3,0-0.5,0.1-0.7,0.2
				c-0.3,0.2-0.6,0.5-0.7,0.9c-0.3,0.8-0.5,1.7-0.8,2.5c-0.2,0.7,0,1.7,0.6,2.2c0.4,0.4,1,0.7,1.6,0.7s1.2-0.3,1.6-0.7
				c0.6-0.6,0.8-1.5,0.6-2.2C874.1,1760.4,873.9,1759.5,873.6,1758.7z"/>
			<path class="st18" d="M1134.4,1721.8c-0.3-0.3-0.7-0.5-1.2-0.7c-0.2-0.1-0.5-0.1-0.7-0.2c-0.4-0.1-0.9-0.2-1.3-0.3
				c-1-0.2-2.1,0-2.7,0.7c-0.5,0.6-0.8,1.2-0.8,2c0,0.4,0.1,0.7,0.2,1.1c0.1,0.3,0.3,0.7,0.6,0.9c0.7,0.7,1.8,1,2.7,0.7
				c0.4-0.1,0.9-0.2,1.3-0.3c0.2-0.1,0.4-0.1,0.7-0.2c0.4-0.1,0.9-0.3,1.2-0.7c0.1-0.1,0.1-0.1,0.2-0.2c0.7-0.7,0.7-2,0-2.7
				C1134.5,1721.9,1134.5,1721.8,1134.4,1721.8z"/>
			<path class="st18" d="M1257.7,1695.8c0-0.5-0.1-0.9-0.3-1.4c-0.1-0.4-0.4-0.8-0.7-1.1c-0.2-0.2-0.5-0.4-0.7-0.5
				c-0.5-0.3-1.1-0.5-1.8-0.5c-0.2,0-0.5,0-0.7,0c-0.1,0-0.1,0-0.2,0c-0.2,0-0.4,0-0.7,0.1c-0.6,0-1.2,0.2-1.7,0.5l0,0
				c-0.3,0.2-0.6,0.5-0.9,0.7c-0.3,0.3-0.5,0.6-0.7,0.9v0.1c0,0.1-0.1,0.2-0.1,0.2c-0.3,0.6-0.6,1.2-0.9,1.8
				c-0.1,0.3-0.2,0.6-0.4,0.9c-0.2,0.5-0.2,1-0.1,1.5c0,0.3,0.1,0.6,0.3,0.9c0.1,0.5,0.4,0.9,0.8,1.2c0.2,0.2,0.5,0.4,0.7,0.6
				c0.3,0.1,0.6,0.2,0.9,0.4c0.5,0.2,1,0.2,1.5,0.1c0.5,0,0.9-0.2,1.4-0.4c0.6-0.3,1.2-0.6,1.8-0.9c0.1,0,0.1-0.1,0.2-0.1h0.1
				c0.2-0.1,0.4-0.2,0.5-0.4c0.3-0.2,0.6-0.5,0.8-0.8c0.1-0.2,0.3-0.3,0.4-0.5c0.2-0.4,0.3-0.7,0.5-1.1c0.1-0.4,0.1-0.8,0.2-1.2l0,0
				c0-0.1,0-0.1,0-0.2C1257.7,1696.3,1257.7,1696.1,1257.7,1695.8z"/>
			<path class="st18" d="M1468.5,1364.1c-0.2,0-0.2,0.4,0,0.4C1468.8,1364.4,1468.8,1364.1,1468.5,1364.1z"/>
			<path class="st18" d="M1473,1368.2L1473,1368.2L1473,1368.2L1473,1368.2L1473,1368.2z"/>
			<path class="st18" d="M1475.1,1365.3c-0.2-0.3-0.4-0.6-0.7-0.7c-0.3-0.2-0.6-0.3-0.9-0.4s-0.7-0.2-1.1-0.2c-0.2,0-0.4,0-0.6,0
				c-0.7,0.1-1.1,0.2-1.7,0.5c-0.2,0.1-0.4,0.2-0.5,0.3c-0.3,0.2-0.7,0.5-0.9,0.8c-0.3,0.3-0.5,0.6-0.7,1s-0.4,0.9-0.4,1.4
				s0.1,1,0.4,1.4c0.4,0.6,0.9,1.1,1.6,1.3c0.7,0.2,1.5,0.1,2.1-0.3c0.4-0.2,0.7-0.6,1-1c0.2-0.3,0.2-0.6,0.2-0.9
				c0-0.1,0.1-0.1,0.1-0.1c0,0.1,0,0.1,0,0.2c0-0.1,0-0.1,0.1-0.2s0.2-0.2,0.3-0.3c-0.1,0.1-0.1,0.1-0.2,0.2l0,0
				c0.1,0,0.1-0.1,0.2-0.1c0.1-0.1,0.2-0.1,0.3-0.2c0.1,0,0.2-0.1,0.3-0.1c-0.1,0-0.2,0-0.2,0l0,0c0.2,0,0.4-0.1,0.6-0.2
				c0.3-0.1,0.7-0.3,0.8-0.6c0.2-0.3,0.3-0.7,0.1-1.1C1475.2,1365.7,1475.2,1365.5,1475.1,1365.3z M1473.1,1368c0,0.1,0,0.1,0,0.2
				l0,0l0,0l0,0l0,0l0,0l0,0l0,0l-0.1,0.1l0.1-0.1C1473,1368.1,1473.1,1368,1473.1,1368z M1473,1368.3L1473,1368.3L1473,1368.3
				L1473,1368.3z M1473.6,1367.8L1473.6,1367.8L1473.6,1367.8L1473.6,1367.8z"/>
			<path class="st18" d="M1474.6,1367.5c-0.1,0-0.1,0.1-0.2,0.1C1474.4,1367.6,1474.4,1367.6,1474.6,1367.5
				C1474.5,1367.5,1474.5,1367.5,1474.6,1367.5z"/>
			<path class="st18" d="M1474.4,1367.6C1474.3,1367.6,1474.3,1367.6,1474.4,1367.6C1474.3,1367.6,1474.3,1367.6,1474.4,1367.6
				C1474.3,1367.6,1474.3,1367.6,1474.4,1367.6z"/>
			<path class="st18" d="M1474.3,1367.6L1474.3,1367.6C1474.3,1367.6,1474.2,1367.6,1474.3,1367.6
				C1474.2,1367.6,1474.3,1367.6,1474.3,1367.6z"/>
			<path class="st18" d="M1389.5,1621.9c-0.2-0.2-0.5-0.4-0.7-0.5c-0.5-0.3-1.1-0.5-1.8-0.5c-0.5,0-0.9,0.1-1.4,0.3
				c-0.4,0.1-0.8,0.4-1.1,0.7c-0.3,0.3-0.6,0.7-0.7,1.1c-0.2,0.4-0.3,0.9-0.3,1.4c0,0.3,0.1,0.6,0.1,0.9c0.2,0.6,0.5,1.1,0.9,1.6
				c0.2,0.2,0.5,0.4,0.7,0.6c0.5,0.3,1.1,0.5,1.8,0.5c0.5,0,0.9-0.1,1.4-0.3c0.4-0.1,0.8-0.4,1.1-0.7c0.3-0.3,0.6-0.7,0.7-1.1
				c0.2-0.4,0.3-0.9,0.3-1.4c0-0.3-0.1-0.6-0.1-0.9C1390.2,1622.9,1389.9,1622.4,1389.5,1621.9z"/>
			<path class="st18" d="M617.6,1737.4c-0.2-0.3-0.4-0.5-0.7-0.7c-0.2-0.2-0.5-0.4-0.8-0.5c-0.3-0.2-0.6-0.3-0.9-0.3
				c-0.5-0.1-1-0.1-1.5,0.1c-0.4,0.1-0.8,0.3-1.1,0.4c-0.1,0-0.2,0.1-0.3,0.1c-0.4,0.1-0.7,0.3-1.1,0.4c-0.2,0.1-0.4,0.2-0.5,0.4
				c-0.2,0.2-0.4,0.3-0.5,0.4c-0.2,0.2-0.3,0.3-0.5,0.5s-0.3,0.3-0.5,0.5c-0.1,0.1-0.2,0.2-0.2,0.2l-0.1,0.1c0,0,0,0,0,0.1
				c-0.2,0.3-0.5,0.6-0.7,0.9c-0.4,0.6-0.5,1.4-0.7,2.2c-0.3,1.3,0,2.7,0.9,3.6c0.5,0.5,1,0.8,1.6,0.9c0.7,0.2,1.3,0.2,2,0
				c0.4-0.1,0.8-0.2,1.1-0.3c0.8-0.2,1-0.4,1.6-0.8c0.2-0.2,0.4-0.3,0.5-0.4s0.2-0.1,0.2-0.2c0.2-0.2,0.3-0.3,0.5-0.5
				c0.2-0.1,0.3-0.3,0.5-0.4c0.4-0.4,0.8-0.9,1-1.4c0.2-0.4,0.3-0.8,0.5-1.2c0.1-0.3,0.3-0.6,0.4-0.9c0-0.3,0.1-0.7,0.1-1
				s-0.1-0.7-0.1-1C618.1,1738.2,617.9,1737.7,617.6,1737.4z"/>
			<path class="st18" d="M1010.5,1866.6c-0.1-0.4-0.3-0.8-0.5-1.1c-0.5-1-2.2-1-2.7,0c-0.2,0.4-0.4,0.7-0.5,1.1
				c-0.1,0.3-0.1,0.6-0.2,0.9c-0.1,0.6-0.3,1.2-0.4,1.8c-0.2,0.9,0,1.9,0.7,2.5c0.5,0.5,1.1,0.8,1.8,0.8s1.4-0.3,1.8-0.8
				c0.7-0.7,0.9-1.6,0.7-2.5c-0.1-0.6-0.3-1.2-0.4-1.8C1010.7,1867.2,1010.6,1866.9,1010.5,1866.6z"/>
			<path class="st18" d="M2505.8,2032.2v-0.1c0-0.5-0.1-1.1-0.3-1.5c0-0.2-0.1-0.4-0.2-0.5c-0.2-0.3-0.4-0.6-0.6-0.8
				c0,0,0-0.1-0.1-0.1c-0.1-0.1-0.2-0.3-0.3-0.4c-0.3-0.3-0.7-0.6-1.1-0.7c-0.4-0.2-0.8-0.3-1.3-0.3c-0.3,0-0.6,0.1-0.9,0.1
				c-0.6,0.2-1.1,0.4-1.5,0.9c-0.1,0.1-0.2,0.3-0.3,0.4c-0.3,0.3-0.5,0.6-0.7,1c-0.4,0.7-0.5,1.3-0.6,2.1c0,0.1,0,0.1,0,0.2
				c0,0.5-0.1,1-0.1,1.5c0,0.6,0.1,1.1,0.4,1.6c0.2,0.5,0.4,0.9,0.8,1.3c0.4,0.4,0.8,0.7,1.3,0.8c0.5,0.3,1,0.4,1.6,0.4
				c0.4,0,0.7-0.1,1.1-0.1c0.7-0.2,1.3-0.5,1.8-1.1c0.2-0.3,0.4-0.6,0.6-0.8c0.4-0.6,0.6-1.3,0.6-2.1c0-0.5-0.1-1-0.1-1.5
				C2505.8,2032.4,2505.8,2032.3,2505.8,2032.2z"/>
			<path class="st18" d="M2323,1908.6v-0.1c0-0.5-0.1-1.1-0.3-1.5c0-0.2-0.1-0.4-0.2-0.5c-0.2-0.3-0.4-0.6-0.6-0.8
				c0,0,0-0.1-0.1-0.1c-0.1-0.1-0.2-0.3-0.3-0.4c-0.3-0.3-0.7-0.6-1.1-0.7c-0.4-0.2-0.8-0.3-1.3-0.3c-0.3,0-0.6,0.1-0.9,0.1
				c-0.6,0.2-1.1,0.4-1.5,0.9c-0.1,0.1-0.2,0.3-0.3,0.4c-0.3,0.3-0.5,0.6-0.7,1c-0.4,0.7-0.5,1.3-0.6,2.1c0,0.1,0,0.1,0,0.2
				c0,0.5-0.1,1-0.1,1.5c0,0.6,0.1,1.1,0.4,1.6c0.2,0.5,0.4,0.9,0.8,1.3c0.4,0.4,0.8,0.7,1.3,0.8c0.5,0.3,1,0.4,1.6,0.4
				c0.4,0,0.7-0.1,1.1-0.1c0.7-0.2,1.3-0.5,1.8-1.1c0.2-0.3,0.4-0.6,0.6-0.8c0.4-0.6,0.6-1.3,0.6-2.1c0-0.5-0.1-1-0.1-1.5
				C2323,1908.7,2323,1908.6,2323,1908.6z"/>
			<path class="st18" d="M3301.4,1121.6c-0.1-0.1-0.2-0.2-0.3-0.4c-0.2-0.2-0.3-0.3-0.6-0.5s-0.4-0.3-0.6-0.4c0,0-0.1,0-0.1-0.1
				c-0.4-0.2-0.7-0.4-1.1-0.5c-0.8-0.5-1.7-0.7-2.7-0.7s-1.9,0.2-2.7,0.7c-1.6,0.9-2.6,2.7-2.6,4.6s1,3.7,2.6,4.6
				c0.8,0.5,1.7,0.7,2.7,0.7s1.9-0.2,2.7-0.7c0.4-0.2,0.7-0.4,1.1-0.5c0.5-0.2,1-0.6,1.3-1c0.1-0.1,0.2-0.2,0.3-0.4
				c0.4-0.3,0.6-0.8,0.8-1.2c0.2-0.5,0.3-0.9,0.3-1.5c0-0.3-0.1-0.7-0.1-1C3302.2,1122.6,3301.9,1122,3301.4,1121.6z"/>
			<path class="st18" d="M3383.5,1057.1c-0.3-0.4-0.6-0.8-0.9-1.2c-0.4-0.4-0.8-0.7-1.2-0.9c0,0,0,0-0.1,0l-0.1-0.1
				c-0.1-0.1-0.2-0.1-0.3-0.2c-1.5-0.9-3.5-0.9-5,0c-0.1,0.1-0.2,0.1-0.3,0.2l-0.1,0.1c0,0,0,0-0.1,0c-0.2,0.1-0.4,0.3-0.6,0.5
				c-0.6,0.4-1.1,1-1.5,1.7l0,0c-0.4,0.7-0.7,1.4-0.7,2.2c-0.2,0.8-0.1,1.6,0.1,2.4c0.2,0.5,0.4,0.9,0.6,1.4c0,0.1,0.1,0.2,0.1,0.3
				c0.1,0.2,0.1,0.3,0.2,0.5c0.5,0.8,1.1,1.5,2,2s1.8,0.7,2.8,0.8c1,0,1.9-0.3,2.8-0.8c0.8-0.5,1.5-1.1,2-2c0.1-0.2,0.1-0.3,0.2-0.5
				c0-0.1,0.1-0.2,0.1-0.2c0.2-0.5,0.4-0.9,0.6-1.4c0.1-0.5,0.1-1,0.2-1.6c0-0.8-0.1-1.6-0.5-2.3
				C3383.7,1057.6,3383.6,1057.3,3383.5,1057.1z"/>
			<path class="st18" d="M3340.9,929.5c-0.4-0.2-0.8-0.3-1.2-0.3c-0.7,0-1.2,0.3-1.7,0.7c-0.7,0.5-1.3,1.1-2,1.6s-1.4,1-2,1.6
				c-0.3,0.3-0.6,0.6-0.9,0.9c-0.5,0.5-1.1,1.1-1.4,1.7c-0.4,0.6-0.7,1.4-0.9,2c-0.2,0.7-0.1,1.3-0.1,2c0,1.1,0.5,2,1.3,2.7
				c0.8,0.6,2,1,3,0.6c0.6-0.2,1.3-0.4,1.8-0.7c0.4-0.2,0.8-0.6,1.2-1s0.7-0.8,1-1.2c0.2-0.4,0.4-0.8,0.6-1.2
				c0.3-0.5,0.5-1.1,0.8-1.6c0.7-1.7,1.2-3.4,1.8-5.1C3342.3,931.3,3341.8,930,3340.9,929.5z"/>
			<path class="st18" d="M3438.2,884.1c-0.6-0.4-1.2-0.6-1.9-0.6c-0.7-0.2-1.3-0.1-2,0.1c-0.9,0.4-1.7,0.7-2.6,1.1
				c-1.1,0.3-2,0.8-2.8,1.6c-0.8,0.8-1.3,1.7-1.6,2.8c-0.6,2.2,0,4.5,1.6,6.1s3.9,2.2,6.1,1.6c1.1-0.3,2-0.8,2.8-1.6
				c0.8-0.8,1.3-1.7,1.6-2.8c0.4-0.9,0.7-1.7,1.1-2.6c0.2-0.7,0.2-1.3,0.1-2c0-0.7-0.2-1.3-0.6-1.9
				C3439,884.6,3439.5,885.1,3438.2,884.1z"/>
			<path class="st18" d="M3407.4,803.9c-0.3-0.3-0.6-0.4-1-0.6c-0.3-0.1-0.6-0.1-0.9,0c-0.3,0-0.6,0.1-0.8,0.3
				c-1.1,0.7-2.1,1.3-3.2,2c-0.9,0.6-1.6,1.6-1.5,2.6c0,0.3,0.1,0.5,0.1,0.8c0.1,0.5,0.4,1,0.8,1.3c0.3,0.3,0.6,0.5,1,0.6
				c0.4,0.2,0.8,0.3,1.2,0.3c1.1,0,2.1-0.6,2.6-1.5c0.7-1.1,1.3-2.1,2-3.2c0.1-0.2,0.1-0.3,0.2-0.5c0.1-0.3,0.1-0.6,0-0.9
				c0-0.2-0.1-0.4-0.1-0.5C3407.8,804.4,3407.7,804.1,3407.4,803.9z"/>
			<path class="st18" d="M3373.8,663.3c0.3-0.4,0.6-0.8,0.7-1.3c0-0.3,0.1-0.7,0.1-1c0-0.7-0.2-1.3-0.5-1.9
				c-0.2-0.3-0.4-0.5-0.6-0.8c0,0-0.1,0-0.1-0.1c-0.3-0.4-0.7-0.8-1.1-1.1c-0.4-0.3-0.9-0.4-1.4-0.4c-0.5-0.1-1-0.1-1.5,0.1
				c-0.6,0.2-1.2,0.5-1.7,1c-0.1,0.1-0.2,0.3-0.3,0.4c-0.3,0.4-0.6,0.8-0.7,1.3c0,0.1-0.1,0.9-0.1,1c0,0,0,0,0,0.1
				c0,0.4,0.1,0.7,0.2,1.1c0,0,0,0,0,0.1c0.1,0.2,0.3,0.7,0.4,0.9l0,0l0,0l0,0c0.1,0.1,0.5,0.6,0.6,0.8c0,0,0,0.1,0.1,0.1l0,0
				c0.2,0.1,0.6,0.5,0.8,0.6l0,0c0,0,0.1,0,0.1,0.1c0.3,0.2,0.7,0.3,1,0.4c0.5,0.2,1,0.2,1.5,0.1c0.5,0,1-0.2,1.4-0.4
				C3373.2,664,3373.6,663.7,3373.8,663.3z M3372.6,657.7c0.2,0.2,0.4,0.3,0.6,0.5c-0.4-0.3-0.8-0.6-1.3-0.7
				C3372.1,657.5,3372.4,657.6,3372.6,657.7z"/>
			<path class="st18" d="M3400.7,562.9c0.2-0.1,0.5-0.2,0.7-0.4c0.6-0.3,1-1,1-1.7c0-0.6-0.4-1.4-1-1.7c-0.2-0.1-0.5-0.2-0.7-0.4
				c-0.2-0.1-0.4-0.2-0.6-0.3c-0.2-0.1-0.3-0.3-0.5-0.4c-0.4-0.2-0.8-0.4-1.2-0.4c-0.4-0.1-0.9-0.1-1.3,0.1
				c-0.3,0.1-0.5,0.2-0.8,0.3c-0.5,0.3-0.9,0.7-1.2,1.2c-0.3,0.4-0.5,1.1-0.5,1.6c0,0.3,0.1,0.5,0.1,0.8c0.1,0.3,0.2,0.5,0.3,0.8
				c0,0,0,0,0.1,0.1c0.2,0.4,0.5,0.7,0.8,0.9c0.3,0.3,0.7,0.5,1.1,0.6c0.3,0,0.6,0.1,0.9,0.1c0.6,0,1.1-0.1,1.6-0.4
				c0.2-0.1,0.4-0.3,0.5-0.4C3400.3,563.1,3400.5,563,3400.7,562.9z"/>
			<path class="st18" d="M3369.7,470.2c-0.1-0.4-0.1-0.9-0.2-1.3c-0.2-0.9-0.7-1.6-1.3-2.2c-0.5-0.5-1-0.8-1.6-1
				c-0.6-0.3-1.2-0.5-1.9-0.4c-0.7,0-1.3,0.1-1.9,0.4c-0.6,0.2-1.2,0.6-1.6,1c-0.6,0.6-1.1,1.4-1.3,2.2c-0.2,0.5-0.4,1.1-0.6,1.6
				c-0.1,0.2-0.2,0.5-0.3,0.7c-0.1,0.3-0.1,0.5-0.2,0.8c-0.1,0.8-0.4,1.7-0.3,2.6c0.1,0.8,0.1,1.7,0.6,2.4c0.4,0.7,1,1.2,1.7,1.5
				s1.6,0.4,2.4,0.2c0.5-0.1,1-0.4,1.4-0.7c0.7-0.4,1.3-1,1.9-1.6c1-1.1,1.8-2.4,2.6-3.7C3369.5,472,3369.7,471.1,3369.7,470.2z"/>
			<path class="st18" d="M3163,1107.2c-0.3-0.6-0.7-1-1.2-1.3c-0.5-0.4-1-0.7-1.6-0.9c-0.4-0.1-0.7-0.2-1.1-0.3
				c-0.9-0.2-1.8-0.2-2.7,0s-1.6,0.7-2.3,1.3c-0.3,0.3-0.5,0.7-0.8,1c-0.5,0.8-0.7,1.7-0.7,2.6c0,0.7,0.1,1.4,0.4,2
				c0.2,0.6,0.6,1.2,1.1,1.7c0.6,0.6,1.4,1.1,2.3,1.3c0.9,0.2,1.8,0.2,2.7,0c0.4-0.1,0.7-0.2,1.1-0.3c0.4-0.2,0.8-0.3,1.1-0.5
				c0.6-0.3,1-0.7,1.3-1.2c0.3-0.3,0.5-0.7,0.6-1.1c0.3-0.6,0.4-1.2,0.4-1.9c-0.1-0.4-0.1-0.9-0.2-1.3
				C3163.3,1107.9,3163.1,1107.5,3163,1107.2z"/>
			<path class="st18" d="M3260.3,1022c-6.6,0-6.6,10.2,0,10.2C3266.8,1032.2,3266.8,1022,3260.3,1022z"/>
			<path class="st18" d="M2960.9,1037c-0.4-0.4-0.8-0.7-1.3-0.9c-0.5-0.3-1-0.4-1.6-0.4c-1.5,0-2.9,0.8-3.6,2.1
				c-0.2,0.3-0.3,0.6-0.5,0.9c-0.2,0.4-0.5,0.9-0.5,1.3c0,0.2-0.1,0.3-0.1,0.5c-0.2,0.6-0.2,1.2,0,1.8c0.2,0.6,0.4,1.1,0.9,1.5
				c0.4,0.4,0.9,0.7,1.5,0.9c0.6,0.2,1.2,0.2,1.8,0c0.2,0,0.3-0.1,0.5-0.1c0.5-0.1,0.9-0.3,1.3-0.5c0.3-0.2,0.6-0.3,0.9-0.5
				c0.6-0.4,1.1-0.9,1.5-1.5s0.6-1.3,0.6-2.1c0-0.4-0.1-0.7-0.1-1.1C2961.8,1038.2,2961.4,1037.5,2960.9,1037z"/>
			<path class="st18" d="M2821.6,965.1c-0.7-0.1-1.4-0.1-2,0.1c-0.1,0-0.2,0.1-0.3,0.1c-0.2,0.1-0.4,0.1-0.6,0.2
				c-0.2,0.1-0.4,0.3-0.5,0.4c-0.2,0.1-0.3,0.3-0.5,0.5c-0.5,0.6-0.9,1.2-1.1,2c-0.1,0.4-0.2,0.8-0.2,1.2c0,0.3,0.1,0.6,0.1,0.9
				c0,0.1,0.1,0.3,0.1,0.4c0.1,0.4,0.3,0.7,0.6,1c0.2,0.1,0.3,0.2,0.5,0.3c0.3,0.2,0.7,0.3,1.1,0.3c0.3,0,0.6-0.1,0.9-0.2
				c0.3-0.1,0.5-0.2,0.7-0.5c0.2-0.2,0.4-0.4,0.5-0.7c0.1-0.3,0.2-0.6,0.2-0.9c0-0.4-0.1-0.7-0.3-1l0,0c0,0,0,0.1,0.1,0.1
				c0-0.1,0-0.1-0.1-0.2l0,0c0-0.1,0-0.1,0-0.2c0.1-0.1,0.1-0.2,0.2-0.3c0.1-0.2,0.3-0.3,0.4-0.5l0,0c-0.1,0.1-0.2,0.2-0.2,0.3
				c0.1-0.1,0.2-0.3,0.4-0.4c0.1,0,0.1-0.1,0.2-0.1c0.1,0,0.2-0.1,0.3-0.1c-0.1,0-0.1,0-0.2,0l0,0c0.1,0,0.2,0,0.3,0
				s0.3-0.1,0.4-0.2h0.1c0.2-0.1,0.5-0.2,0.6-0.5c0.1-0.2,0.2-0.5,0.1-0.8c-0.1-0.3-0.3-0.6-0.5-0.9
				C2822.5,965.4,2822,965.2,2821.6,965.1z M2821.7,968.1L2821.7,968.1L2821.7,968.1L2821.7,968.1z M2821.4,968.3
				C2821.5,968.2,2821.5,968.2,2821.4,968.3C2821.5,968.2,2821.5,968.2,2821.4,968.3L2821.4,968.3z M2821.8,968
				C2821.8,968,2821.7,968,2821.8,968L2821.8,968C2821.7,968,2821.8,968,2821.8,968L2821.8,968z"/>
			<path class="st18" d="M3026.1,975.1c-0.6-0.6-1.3-1.2-2.2-1.4c-0.3-0.1-0.5-0.1-0.8-0.2c-0.5-0.1-1-0.3-1.6-0.4
				c-0.9-0.2-1.7-0.2-2.6,0c-0.8,0.2-1.5,0.6-2.1,1.3c-0.3,0.3-0.5,0.7-0.8,1c-0.4,0.8-0.7,1.6-0.7,2.5c0,0.7,0.1,1.3,0.4,1.9
				c0.2,0.6,0.5,1.1,1,1.6c1.2,1.2,3,1.7,4.7,1.3c0.5-0.1,1-0.3,1.6-0.4c0.3-0.1,0.5-0.1,0.8-0.2c0.9-0.2,1.6-0.8,2.2-1.4
				c0.4-0.3,0.6-0.7,0.8-1.2c0.2-0.4,0.3-0.9,0.3-1.4c0-0.3-0.1-0.7-0.1-1C3026.9,976.1,3026.6,975.5,3026.1,975.1z"/>
			<path class="st18" d="M3138.1,1011.9c-0.2-0.2-0.5-0.4-0.7-0.5c-0.5-0.3-1.1-0.5-1.7-0.5c-0.3,0-0.5,0.1-0.8,0.1h-0.1
				c-0.2,0-0.3,0-0.5,0.1c-0.4,0-0.9,0.2-1.2,0.4c-0.3,0.2-0.5,0.4-0.8,0.6c-0.1,0.1-0.2,0.1-0.2,0.2c-0.3,0.3-0.5,0.6-0.6,1
				c-0.2,0.4-0.3,0.7-0.3,1.1c0,0.3,0.1,0.5,0.1,0.8c0.1,0.5,0.4,0.9,0.8,1.3c0.1,0.1,0.1,0.1,0.2,0.2c0,0,0,0,0.1,0
				c0.1,0.1,0.2,0.2,0.4,0.3c0.1,0.1,0.2,0.2,0.4,0.3c0.3,0.1,0.5,0.2,0.8,0.3c0.3,0,0.6,0.1,0.9,0.1h0.1c0.3,0,0.5,0.1,0.8,0.1
				c0.5,0,0.9-0.1,1.3-0.3c0.4-0.1,0.8-0.4,1.1-0.7c0.3-0.3,0.6-0.7,0.7-1.1c0.2-0.4,0.3-0.9,0.3-1.3c0-0.3-0.1-0.6-0.1-0.9
				C3138.9,1012.8,3138.6,1012.3,3138.1,1011.9z"/>
			<path class="st18" d="M3238,926.6c-0.3-0.3-0.6-0.5-1-0.6c-0.1,0-0.3-0.1-0.4-0.1c-0.3-0.1-0.5-0.1-0.8-0.1
				c-0.4,0-0.6,0.1-0.9,0.2c-0.3,0.1-0.6,0.2-1,0.3c-0.7,0.2-1.3,0.4-2,0.6c-0.8,0.3-1.5,0.8-1.9,1.5c-0.3,0.5-0.4,1-0.4,1.6
				c0,0.4,0.1,0.9,0.3,1.2c0.1,0.4,0.4,0.7,0.7,1s0.6,0.5,1,0.7s0.8,0.3,1.2,0.3c0.6,0,1.1-0.1,1.6-0.4c0.6-0.4,1.2-0.8,1.7-1.2
				c0.3-0.2,0.6-0.4,0.8-0.6c0.5-0.3,0.9-0.7,1.2-1.2c0.1-0.1,0.1-0.3,0.2-0.4c0.2-0.3,0.3-0.7,0.3-1.1c0-0.3-0.1-0.6-0.2-0.9
				C3238.4,927.1,3238.2,926.8,3238,926.6z"/>
			<path class="st18" d="M3311.6,837.9c-5.4,0-5.4,8.3,0,8.3C3316.9,846.3,3316.9,837.9,3311.6,837.9z"/>
			<path class="st18" d="M3423.3,973.1c-6,0-6,9.3,0,9.3C3429.3,982.3,3429.3,973.1,3423.3,973.1z"/>
			<path class="st18" d="M3357.5,378.5c-0.1-0.1-0.1-0.2-0.2-0.3c-0.1-0.2-0.2-0.2-0.4-0.4s-0.3-0.2-0.4-0.3h-0.1
				c-0.2-0.1-0.5-0.2-0.7-0.4c-0.6-0.3-1.2-0.5-1.9-0.5s-1.3,0.2-1.9,0.5c-1.2,0.7-1.9,1.9-1.9,3.3c0,1.3,0.7,2.6,1.9,3.3
				c0.6,0.3,1.2,0.5,1.9,0.5s1.3-0.2,1.9-0.5c0.2-0.1,0.5-0.2,0.7-0.4c0.3-0.2,0.7-0.4,0.9-0.7c0.1-0.1,0.1-0.2,0.2-0.3
				c0.3-0.2,0.5-0.5,0.6-0.9c0.2-0.3,0.3-0.7,0.2-1.1c0-0.2-0.1-0.5-0.1-0.7C3358.1,379.2,3357.8,378.8,3357.5,378.5z"/>
			<path class="st18" d="M3440.6,681.7c-0.1-0.5-0.2-1-0.4-1.4c-0.1-0.2-0.2-0.4-0.2-0.6c-0.2-0.3-0.4-0.5-0.6-0.7
				c-0.1-0.1-0.3-0.3-0.5-0.3c-0.3-0.2-0.6-0.2-0.9-0.2c-0.4,0-0.8,0.1-1.2,0.3c-0.5,0.3-1,0.9-1.1,1.4s-0.2,1-0.4,1.4
				c-0.2,0.3-0.4,0.6-0.6,1c-0.7,1.1-0.7,2.7,0,3.8c0.7,1.2,1.9,1.9,3.3,1.9c1.3,0,2.6-0.7,3.3-1.9c0.7-1.1,0.7-2.7,0-3.8
				C3441.1,682.3,3440.9,682,3440.6,681.7z"/>
			<path class="st18" d="M3540.4,318.6c0.2,0.3,0.3,0.6,0.5,0.9c0.9,1.7,2.2,2.3,3.4,2.1c1.2,0.2,2.5-0.4,3.4-2.1
				c0.2-0.3,0.3-0.6,0.5-0.9C3552.5,310.2,3535.9,310.2,3540.4,318.6z"/>
			<path class="st18" d="M3560.7,200.3c-5.4,0-5.4,8.4,0,8.4C3566.2,208.8,3566.2,200.3,3560.7,200.3z"/>
			<path class="st18" d="M3608.7,136.9c0.2,0.3,0.4,0.5,0.6,0.8c0.3,0.2,0.5,0.4,0.8,0.6c0.3,0.1,0.6,0.3,0.9,0.4
				c0.5,0.2,1,0.2,1.5,0.1c0.3,0,0.7-0.1,1-0.3c0.5-0.2,0.9-0.4,1.2-0.8c0.3-0.3,0.6-0.6,1-0.9c0.3-0.2,0.4-0.5,0.5-0.8
				c0.2-0.3,0.2-0.7,0.2-1c0-0.2-0.1-0.5-0.1-0.7c-0.1-0.4-0.4-0.8-0.7-1.2c-0.3-0.3-0.6-0.6-1-0.9c-0.3-0.2-0.5-0.4-0.8-0.6
				c-0.3-0.1-0.6-0.3-0.9-0.4c-0.5-0.2-1-0.2-1.5-0.1c-0.3,0-0.7,0.1-1,0.3c-0.3,0.1-0.6,0.3-0.9,0.5c-0.3,0.2-0.5,0.4-0.7,0.7
				c-0.2,0.2-0.4,0.5-0.5,0.9c-0.2,0.5-0.4,1-0.3,1.5c0,0.3,0.1,0.7,0.1,1C3608.4,136.3,3608.6,136.6,3608.7,136.9z"/>
			<path class="st18" d="M3527,422.9c-0.2-0.3-0.4-0.6-0.7-0.8c-0.2-0.2-0.4-0.3-0.7-0.5c-0.3-0.1-0.5-0.2-0.8-0.3
				c-0.4-0.1-0.9-0.2-1.3-0.1c-0.3,0-0.6,0.1-0.8,0.2c-0.3,0.1-0.5,0.2-0.7,0.4c-0.2,0.1-0.4,0.3-0.6,0.6c-0.2,0.2-0.3,0.4-0.4,0.7
				c-0.2,0.4-0.3,0.8-0.3,1.2c0,0.3,0.1,0.6,0.1,0.9c0.1,0.3,0.2,0.5,0.3,0.8c0.2,0.2,0.3,0.4,0.5,0.7c0.2,0.2,0.4,0.3,0.7,0.5
				c0.3,0.1,0.5,0.2,0.8,0.3c0.4,0.1,0.9,0.2,1.3,0.1c0.3,0,0.6-0.1,0.8-0.2c0.4-0.1,0.7-0.4,1-0.7c0.2-0.3,0.4-0.6,0.7-0.8
				c0.2-0.2,0.3-0.4,0.4-0.7c0.1-0.2,0.2-0.5,0.2-0.8c0-0.2,0-0.4-0.1-0.5C3527.5,423.5,3527.3,423.2,3527,422.9z"/>
			<path class="st18" d="M3569.5,516.1c-0.2-0.1-0.3-0.3-0.5-0.4c-0.4-0.2-0.8-0.3-1.2-0.3c-0.5-0.1-1.1-0.1-1.6-0.2
				c-0.4,0-0.7,0.1-1,0.2c-0.3,0.1-0.6,0.3-0.8,0.5c-0.3,0.2-0.4,0.5-0.5,0.8c-0.2,0.3-0.2,0.6-0.2,1c0,0.2,0.1,0.5,0.1,0.7
				c0.1,0.4,0.3,0.8,0.7,1.1c0.2,0.1,0.3,0.3,0.5,0.4c0.4,0.2,0.8,0.4,1.3,0.4c0.5-0.1,1.1-0.1,1.6-0.2c0.3,0,0.6-0.1,0.9-0.2
				c0.3-0.1,0.6-0.3,0.8-0.5s0.4-0.5,0.5-0.8c0.2-0.3,0.2-0.6,0.2-0.9c0-0.2-0.1-0.4-0.1-0.6C3570,516.8,3569.8,516.4,3569.5,516.1z
				"/>
			<path class="st18" d="M3616.4,260.4L3616.4,260.4C3616.4,260.3,3616.4,260.3,3616.4,260.4z"/>
			<path class="st18" d="M3613.8,264.8c0.1-0.1,0.2-0.1,0.3-0.2c0,0,0.1,0,0.1-0.1l0,0c0.1-0.1,0.3-0.2,0.4-0.3
				c0.1,0,0.2-0.1,0.2-0.1c0.2-0.2,0.4-0.3,0.7-0.5c0.2-0.2,0.4-0.4,0.5-0.7c0,0,0,0,0-0.1c-0.2,0.2-0.3,0.4-0.5,0.6
				c0.4-0.5,0.6-0.7,0.7-1.3c0-0.1,0.1-0.6,0.1-0.9c0-0.2-0.1-0.8-0.1-1c-0.1-0.4-0.3-0.8-0.6-1.1c-0.1-0.1-0.2-0.3-0.3-0.4
				c-0.3-0.2-0.6-0.5-0.9-0.7c-0.4-0.3-0.9-0.4-1.3-0.6c-0.8-0.3-1.8-0.1-2.6,0c-0.5,0.1-1.1,0.4-1.5,0.6c-0.1,0-0.2,0.1-0.3,0.1
				c-0.7,0.4-1.1,1-1.6,1.6c-0.3,0.4-0.5,1-0.7,1.5s-0.2,1.1-0.3,1.6c0,0.3,0.1,0.7,0.1,1c0.1,0.5,0.3,0.9,0.7,1.3
				c0.2,0.3,0.4,0.5,0.7,0.7c0.4,0.3,0.8,0.6,1.3,0.7c0.3,0,0.7,0.1,1,0.1s0.7-0.1,1-0.1c0.5-0.1,0.9-0.3,1.3-0.7
				c0.4-0.3,0.7-0.6,1-1.1c0,0,0,0,0-0.1l0.1-0.1c0,0,0,0-0.1,0.1l0,0C3613.6,264.9,3613.7,264.8,3613.8,264.8z M3613.3,265.2
				c-0.2,0.1-0.4,0.3-0.5,0.4C3613,265.4,3613.2,265.3,3613.3,265.2C3613.3,265.1,3613.3,265.1,3613.3,265.2z"/>
			<path class="st18" d="M3676.8,209.4c-0.2-0.2-0.5-0.4-0.7-0.6c-0.3-0.1-0.6-0.2-0.9-0.4c-0.5-0.1-0.9-0.2-1.4-0.1
				c-0.5,0-0.9,0.2-1.3,0.4c-0.7,0.4-1.5,0.8-2.2,1.2c-0.6,0.4-1.2,0.9-1.5,1.5c-0.4,0.7-0.6,1.4-0.6,2.2c0.1,0.4,0.1,0.8,0.2,1.1
				c0.2,0.7,0.6,1.4,1.1,1.9c0.4,0.4,0.8,0.7,1.4,0.9c0.5,0.3,1.1,0.4,1.6,0.4c1.5,0,3-0.8,3.7-2.1c0.4-0.7,0.8-1.5,1.2-2.2
				c0.1-0.3,0.2-0.6,0.4-0.9c0.1-0.5,0.2-1,0.1-1.4c0-0.3-0.1-0.6-0.2-0.9C3677.4,210.1,3677.2,209.7,3676.8,209.4z"/>
			<path class="st18" d="M3679.2,144.1c-0.6-0.3-1.2-0.6-1.8-0.8c-0.1,0-0.3-0.1-0.4-0.1c-0.5-0.2-1.1-0.2-1.6-0.2
				c-0.3,0-0.6-0.1-1-0.1c-0.7,0-1.3,0.1-1.9,0.4c-0.6,0.2-1.1,0.5-1.6,1c-0.5,0.4-0.8,1-1,1.6c-0.3,0.6-0.4,1.2-0.4,1.9
				c0.1,0.4,0.1,0.9,0.2,1.3c0.2,0.8,0.6,1.5,1.3,2.1c0.3,0.3,0.7,0.5,1,0.8c0.8,0.4,1.6,0.7,2.5,0.7c0.3,0,0.6-0.1,0.9-0.1
				c0.1,0,0.2,0,0.3,0c0.4-0.1,0.8-0.1,1.3-0.2h0.1c0.1,0,0.3-0.1,0.4-0.1c0.6-0.2,1.2-0.4,1.8-0.8c0.2-0.1,0.5-0.3,0.7-0.4
				c1.1-0.7,1.9-1.9,1.9-3.2c0-1.3-0.7-2.6-1.9-3.2C3679.6,144.4,3679.4,144.2,3679.2,144.1z"/>
			<path class="st18" d="M3762.6,184.1c-0.7-0.7-1.5-1.2-2.5-1.4c-1-0.3-2-0.3-3,0c-0.4,0.1-0.8,0.1-1.2,0.2
				c-0.9,0.3-1.7,0.7-2.4,1.4c-0.7,0.7-1.1,1.5-1.4,2.4c-0.3,1.8-0.3,1.1,0,2.9c0.3,0.9,0.7,1.7,1.4,2.4c0.7,0.7,1.5,1.1,2.4,1.4
				c0.4,0.1,0.8,0.1,1.2,0.2c1,0.3,2,0.3,3,0s1.8-0.7,2.5-1.4c0.3-0.4,0.6-0.8,0.9-1.1c0.5-0.9,0.8-1.8,0.8-2.8
				c0-0.8-0.1-1.5-0.5-2.2C3763.5,185.2,3763.1,184.6,3762.6,184.1z"/>
			<path class="st18" d="M3714.6,82.2c-4.1,0-4.2,6.4,0,6.4C3718.8,88.7,3718.8,82.2,3714.6,82.2z"/>
			<path class="st18" d="M3785.8,95.8c-0.3-0.6-0.7-1-1.3-1.4c-0.5-0.4-1-0.7-1.7-0.9c-0.3-0.1-0.6-0.2-0.9-0.2
				c-0.9-0.2-1.8-0.2-2.7,0s-1.6,0.7-2.3,1.3c-0.3,0.3-0.5,0.7-0.8,1c-0.5,0.8-0.7,1.7-0.7,2.6c0,0.7,0.1,1.4,0.4,2
				c0.2,0.6,0.6,1.2,1.1,1.7c0.6,0.6,1.4,1.1,2.3,1.3c0.9,0.2,1.8,0.2,2.7,0c0.3-0.1,0.6-0.2,0.9-0.2c0.4-0.2,0.8-0.3,1.2-0.5
				c0.6-0.3,1-0.7,1.4-1.3c0.3-0.3,0.5-0.7,0.6-1.1c0.3-0.6,0.4-1.2,0.4-1.9c-0.1-0.4-0.1-0.9-0.2-1.3
				C3786.1,96.6,3785.9,96.2,3785.8,95.8z"/>
			<path class="st18" d="M3837.4,126.5c-3.8,0-3.8,5.9,0,5.9C3841.1,132.4,3841.1,126.5,3837.4,126.5z"/>
			<path class="st18" d="M3627.1,360.4c-0.4-0.4-0.8-0.6-1.3-0.8c-0.1-0.1-0.3-0.1-0.4-0.2c-0.3-0.1-0.6-0.1-0.9-0.1
				c-0.3-0.1-0.5-0.3-0.8-0.3c-0.1,0-0.2-0.1-0.3-0.1h-0.1c-0.4-0.1-0.9-0.1-1.3-0.2c-0.4,0.1-0.9,0.1-1.3,0.2h-0.1
				c-0.2,0-0.3,0.1-0.5,0.1c-0.6,0.2-1.2,0.3-1.8,0.5c-0.7,0.2-1.2,0.5-1.7,0.9s-1,0.8-1.3,1.4c-0.4,0.6-0.6,1.2-0.6,1.9
				c-0.2,0.7-0.1,1.3,0.1,2c0.4,1.2,1.2,2.4,2.3,3c0.4,0.2,0.8,0.3,1.2,0.5c0.9,0.2,1.8,0.2,2.7,0c0.6-0.2,1.2-0.5,1.8-0.7
				c0.1-0.1,0.3-0.1,0.4-0.2c0.4-0.2,0.9-0.3,1.3-0.6c0.3-0.3,0.7-0.5,1-0.8s0.5-0.7,0.8-1c0.1-0.1,0.1-0.2,0.2-0.3
				c0.1-0.1,0.1-0.2,0.2-0.3l0.1-0.1c0.4-0.4,0.7-0.9,1-1.3c0.5-0.8,0.5-1.8,0.1-2.6C3627.5,361,3627.3,360.7,3627.1,360.4z"/>
			<path class="st18" d="M754.1,1656.6c0.4-0.5,0.8-1,1.2-1.6c0.2-0.3,0.4-0.5,0.5-0.9s0.1-0.9-0.1-1.3c-0.3-0.7-1-1.2-1.8-1.2
				c-0.6,0-1.2,0-1.9,0c-0.4,0-0.8,0.1-1.2,0.2c-0.2,0.1-0.3,0.1-0.5,0.2c-0.3,0.1-0.6,0.3-1,0.4c-0.5,0.1-1,0.4-1.3,0.8
				c-0.2,0.2-0.3,0.4-0.5,0.6c-0.3,0.5-0.4,1-0.4,1.5c0,0.4,0.1,0.8,0.3,1.2c0.1,0.4,0.3,0.7,0.6,1s0.6,0.5,1,0.6
				c0.4,0.2,0.8,0.3,1.2,0.3c0.5,0,1.1-0.1,1.5-0.4c0.3-0.2,0.6-0.4,0.9-0.5C753.2,1657.3,753.8,1657.1,754.1,1656.6z"/>
			<path class="st18" d="M461.6,1607.5c-0.1-0.4-0.3-0.8-0.6-1.2c-0.3-0.5-0.8-0.9-1.3-1.2c-0.5-0.2-1.3-0.4-1.8-0.1
				c-0.4,0.2-0.8,0.3-1.1,0.5c-0.4,0.2-0.8,0.6-1.1,0.9c-0.4,0.4-0.7,0.8-1,1.2c-0.1,0.2-0.3,0.5-0.4,0.7c-0.4,0.7-0.7,1.5-1,2.3
				c-0.2,0.5-0.4,1-0.6,1.5c-0.2,0.6-0.2,1.1-0.1,1.7c0,0.6,0.2,1.1,0.5,1.6s0.6,0.9,1.1,1.2c0.4,0.4,0.9,0.6,1.5,0.8
				c1.1,0.2,2.3,0.2,3.3-0.4c0.9-0.6,1.7-1.5,2-2.6c0.1-0.5,0.3-1,0.4-1.5c0.1-0.2,0.1-0.5,0.2-0.7c0.1-0.6,0.2-1.1,0.3-1.7
				c0-0.2,0.1-0.5,0.1-0.7s0-0.5,0-0.7C461.8,1608.5,461.8,1608,461.6,1607.5z"/>
			<path class="st18" d="M592.8,1575.3c-4.3,0-4.3,6.7,0,6.7C597.1,1581.9,597.1,1575.3,592.8,1575.3z"/>
			<path class="st18" d="M130.2,447.1c-0.1-0.5-0.1-0.9-0.2-1.4c0,0,0,0,0-0.1v-0.1c0,0,0,0,0-0.1l0,0l0,0c-0.2-0.4-0.3-0.8-0.5-1.1
				l0,0c-0.2-0.4-0.4-0.7-0.7-1l-1-0.7l-1.1-0.5l0,0h-0.1h-0.1c-0.5-0.1-0.4-0.2-1.4-0.2c-0.1,0-1.3,0.2-1.4,0.2s-1.2,0.5-1.3,0.5
				c0,0,0,0-0.1,0c-0.1,0.1-0.3,0.1-0.4,0.2c-0.3,0.2-0.6,0.4-0.9,0.5c-0.9,0.5-1.5,1.2-2,2c-0.5,0.9-0.8,1.8-0.8,2.9
				c0.1,0.5,0.1,1,0.2,1.5c0.3,1,0.8,1.8,1.5,2.5c0.5,0.6,1.1,0.9,1.8,1.2c0.7,0.4,1.4,0.5,2.2,0.5c2,0,3.9-1.1,4.9-2.8
				c0.2-0.3,0.3-0.5,0.5-0.8c0.1-0.1,0.2-0.3,0.2-0.4c0.2-0.3,0.2-0.5,0.4-0.8c0,0.1,0.2-0.4,0.3-0.7
				C130.1,448,130.1,447.5,130.2,447.1z"/>
			<path class="st18" d="M215.7,394.8c-0.2-0.2-0.5-0.4-0.7-0.6c-0.6-0.3-1.2-0.5-1.9-0.5c-0.8,0.1-1.2,0.1-1.9,0.5
				c0,0-0.1,0-0.1,0.1c-0.1,0-0.1,0.1-0.2,0.1c-0.1,0.1-0.3,0.2-0.4,0.2c-0.3,0.2-0.6,0.3-0.8,0.5c-0.6,0.4-1.1,0.9-1.5,1.5
				s-0.6,1.3-0.6,2.1c0,0.4,0.1,0.7,0.1,1.1c0.2,0.7,0.6,1.3,1.1,1.8c0.4,0.4,0.8,0.7,1.3,0.9c0.5,0.3,1,0.4,1.6,0.4
				c1.5,0,2.8-0.8,3.6-2.1c0.2-0.3,0.3-0.6,0.5-0.8c0.1-0.1,0.2-0.3,0.2-0.4c0-0.1,0.1-0.1,0.1-0.2c0,0,0-0.1,0.1-0.1
				c0.4-0.7,0.5-1.1,0.5-1.9c0-0.5-0.1-1-0.3-1.4C216.3,395.5,216,395.1,215.7,394.8z"/>
			<path class="st18" d="M266.7,485.6c-3.8,0-3.8,5.9,0,5.9C270.4,491.5,270.5,485.6,266.7,485.6z"/>
			<path class="st18" d="M140,600.8c0-0.1,0-0.1,0-0.2v-0.1c0-0.3,0-0.7-0.1-1s-0.2-0.6-0.4-0.9c-0.3-0.6-0.9-1.2-1.6-1.5
				c-0.8-0.4-1.3-0.6-2.2-0.6c-0.2,0-0.8,0-1.2,0.2s-0.9,0.3-1.3,0.5c-0.1,0-0.2,0.1-0.3,0.2c-0.4,0.3-0.8,0.5-1.2,0.9
				s-0.8,0.9-1.1,1.4c-0.1,0.3-0.3,0.6-0.4,0.8c-0.1,0.3-0.3,0.6-0.3,0.9c-0.2,0.6-0.2,1.3-0.3,1.9c0,0.6,0.1,1.3,0.2,1.9
				c0.2,0.8,0.7,1.6,1.3,2.2c0.3,0.3,0.7,0.5,1,0.8c0.8,0.5,1.6,0.7,2.5,0.7c0.7,0,1.3-0.1,1.9-0.4c0.6-0.2,1.2-0.5,1.6-1
				c0.5-0.5,0.8-1,1-1.6c0.3-0.6,0.5-1.2,0.4-1.9c0-0.5-0.1-0.9-0.2-1.3v-0.1c0.1-0.2,0.2-0.3,0.2-0.5c0.3-0.9,0.1-1.4,0-2.3
				C139.9,600.1,140,600.4,140,600.8z"/>
			<path class="st18" d="M237.3,582.6c-0.4-0.3-0.9-0.6-1.3-0.9c-0.7-0.4-1.5-0.6-2.3-0.6s-1.6,0.2-2.3,0.6
				c-1.4,0.8-2.2,2.3-2.2,3.9c0,1.6,0.9,3.1,2.2,3.9c0.7,0.4,1.5,0.6,2.3,0.6s1.6-0.2,2.3-0.6c0.4-0.3,0.9-0.6,1.3-0.9
				c0.5-0.3,0.9-0.7,1.3-1.3c0.3-0.5,0.5-1.1,0.5-1.8c0-0.6-0.2-1.2-0.5-1.8C238.3,583.3,237.8,582.9,237.3,582.6z"/>
			<path class="st18" d="M358.8,561.2c-0.3-0.6-0.7-1-1.3-1.4c-0.5-0.4-1-0.7-1.7-0.9c-0.9-0.2-1.7-0.2-2.6,0
				c-0.4,0.2-0.8,0.3-1.2,0.5c-0.7,0.4-1.3,1-1.7,1.7c-0.4,0.6-0.5,1.2-0.6,1.8s-0.1,1.3,0.1,1.9c0.2,0.8,0.6,1.5,1.3,2.1
				c0.3,0.3,0.7,0.5,1,0.8c0.8,0.4,1.6,0.7,2.5,0.7c0.4-0.1,0.9-0.1,1.3-0.2c0.8-0.2,1.5-0.6,2.1-1.3c0.6-0.6,1-1.3,1.3-2.1
				c0.1-0.4,0.1-0.9,0.2-1.3c0-0.4-0.1-0.7-0.1-1.1C359.3,562.1,359.1,561.6,358.8,561.2z"/>
			<path class="st18" d="M393.1,677.2c-0.3-0.3-0.6-0.7-0.8-1c-0.3-0.2-0.5-0.4-0.8-0.6c-0.3-0.1-0.6-0.3-1-0.4
				c-0.5-0.2-1.1-0.2-1.6-0.1c-0.4,0-0.7,0.1-1,0.3c-0.3,0.1-0.6,0.3-0.9,0.5s-0.5,0.4-0.7,0.7c-0.3,0.3-0.4,0.5-0.5,0.9
				c-0.3,0.5-0.4,1-0.3,1.6c0,0.4,0.1,0.7,0.1,1.1c0.1,0.3,0.3,0.6,0.4,1c0.2,0.3,0.4,0.5,0.6,0.8c0.3,0.2,0.5,0.4,0.8,0.6
				c0.3,0.1,0.6,0.3,1,0.4c0.5,0.2,1.1,0.2,1.6,0.1c0.4,0,0.7-0.1,1-0.3c0.5-0.2,0.9-0.4,1.3-0.8c0.3-0.3,0.6-0.7,0.8-1
				c0.3-0.2,0.4-0.5,0.5-0.8c0.2-0.3,0.2-0.7,0.2-1c0-0.2-0.1-0.5-0.1-0.7C393.7,677.9,393.5,677.5,393.1,677.2z"/>
			<path class="st18" d="M244.7,739.4c-4.9,0-4.9,7.6,0,7.6C249.6,747,249.6,739.4,244.7,739.4z"/>
			<path class="st18" d="M474,749.5c-0.4-0.2-0.8-0.4-1.3-0.4c-0.4-0.1-0.9-0.1-1.3-0.2c-0.9-0.1-1.8-0.3-2.6-0.4
				c-0.4-0.1-0.7-0.1-1.1,0c-0.3,0.1-0.6,0.3-0.9,0.5c-0.4,0.4-0.6,0.9-0.6,1.5c0,0.5,0.2,1.1,0.6,1.5c0.3,0.3,0.6,0.4,0.9,0.5
				c0.4,0.1,0.7,0.1,1.1,0c0.9-0.1,1.8-0.3,2.6-0.4c0.4-0.1,0.9-0.1,1.3-0.2c0.4-0.1,0.9-0.3,1.3-0.4c0.4-0.2,0.8-0.5,0.7-1
				C474.7,750,474.4,749.7,474,749.5z"/>
			<path class="st18" d="M596.5,792.1L596.5,792.1c-0.2-0.2-0.2-0.2-0.3-0.3s-0.2-0.3-0.3-0.4c-0.4-0.4-0.9-0.7-1.4-0.9
				c-0.5-0.3-1.1-0.4-1.7-0.4c-0.6,0-1.2,0.1-1.7,0.4c-0.5,0.2-1,0.5-1.4,0.9c-0.2,0.3-0.5,0.6-0.7,0.9c-0.4,0.7-0.6,1.4-0.6,2.2
				c0.1,0.4,0.1,0.8,0.2,1.2c0.2,0.7,0.6,1.4,1.1,1.9c0.1,0.1,0.3,0.2,0.4,0.3c0.1,0.1,0.1,0.1,0.2,0.2l0.1,0.1
				c0.7,0.6,1,0.9,1.9,1.1c0.8,0.2,1.5,0.2,2.3,0c0.7-0.2,1.3-0.6,1.9-1.1c0.5-0.5,0.9-1.2,1.1-1.9c0.2-0.8,0.2-1.5,0-2.3
				C597.4,793.2,597,792.8,596.5,792.1z"/>
			<path class="st18" d="M471.3,845.4L471.3,845.4c-0.1-0.1-0.1-0.1-0.1-0.2l0,0c-0.2-0.2-0.5-0.4-0.7-0.5c-0.4-0.2-0.6-0.3-1-0.4
				c-0.1,0-0.2-0.1-0.4-0.1c-0.6-0.2-1.3-0.2-1.9,0s-1.1,0.5-1.6,0.9c-0.2,0.2-0.4,0.5-0.6,0.7c-0.3,0.6-0.5,1.2-0.5,1.8
				c0,0.5,0.1,1,0.3,1.4c0.1,0.4,0.4,0.8,0.7,1.2c0.4,0.4,1,0.7,1.6,0.9s1.3,0.2,1.9,0c0.1,0,0.2-0.1,0.4-0.1c0.2,0,0.3-0.1,0.6-0.2
				c0.5-0.2,0.7-0.3,1.1-0.7c0.1-0.1,0.2-0.2,0.2-0.3c0.3-0.2,0.6-0.5,0.8-0.8c0.2-0.4,0.4-0.8,0.4-1.3s-0.1-0.9-0.4-1.3
				C472,845.9,471.7,845.6,471.3,845.4z"/>
			<path class="st18" d="M972,248.2c0.5-0.1,0.9-0.1,1.4-0.2c0.4-0.2,0.8-0.3,1.2-0.5c0.6-0.3,1.1-0.8,1.4-1.3
				c0.3-0.3,0.5-0.7,0.7-1.1c0.3-0.6,0.5-1.3,0.4-2c0-0.7-0.1-1.5-0.2-2.2c-0.2-0.7-0.5-1.2-1-1.7s-1-0.8-1.7-1
				c-0.7-0.1-1.5-0.2-2.2-0.2c-0.5,0.1-0.9,0.1-1.4,0.2c-0.4,0.2-0.8,0.3-1.2,0.5c-0.6,0.3-1.1,0.8-1.4,1.3
				c-0.3,0.3-0.5,0.7-0.7,1.1s-0.4,0.8-0.4,1.3c-0.1,0.5-0.1,0.9,0,1.4c0,0.5,0.1,0.9,0.4,1.3c0.2,0.6,0.6,1.2,1.1,1.7
				c0.3,0.3,0.7,0.5,1,0.8c0.4,0.2,0.8,0.3,1.2,0.5C971.1,248.1,971.6,248.1,972,248.2z"/>
			<path class="st18" d="M1131.4,223.4c-6.3,0-6.3,9.8,0,9.8C1137.7,233.3,1137.8,223.4,1131.4,223.4z"/>
			<path class="st18" d="M1063.3,223.2c-0.1-0.1-0.2-0.2-0.2-0.2c-0.2-0.2-0.4-0.4-0.6-0.5c-0.3-0.2-0.5-0.2-0.8-0.3
				c-0.3-0.1-0.6-0.1-0.9-0.2c-0.5-0.1-1-0.1-1.5,0s-0.9,0.4-1.3,0.7c-0.1,0.2-0.3,0.4-0.4,0.6c-0.3,0.4-0.4,0.9-0.4,1.4
				c0,0.4,0.1,0.8,0.2,1.1c0.1,0.4,0.3,0.7,0.6,0.9c0.4,0.4,0.8,0.6,1.3,0.7s1,0.1,1.5,0c0.3-0.1,0.6-0.1,0.9-0.2s0.5-0.1,0.8-0.3
				c0.2-0.1,0.4-0.3,0.6-0.5c0.1-0.1,0.2-0.2,0.2-0.2c0.2-0.2,0.4-0.4,0.4-0.7c0.1-0.3,0.2-0.5,0.2-0.8c0-0.2-0.1-0.4-0.1-0.6
				C1063.8,223.8,1063.6,223.4,1063.3,223.2z"/>
			<path class="st18" d="M1213.9,144.7c-4,0-4,6.2,0,6.2S1217.9,144.7,1213.9,144.7z"/>
			<path class="st18" d="M1142.1,95.4c-0.8-0.7-0.9-0.7-1.9-1.1h-0.1c-0.1,0-0.2-0.1-0.2-0.1c-0.8-0.2-1.5-0.2-2.3,0
				c-0.7,0.2-1.4,0.6-1.9,1.1c-0.2,0.3-0.4,0.6-0.7,0.9c-0.4,0.7-0.6,1.4-0.6,2.2c0,0.6,0.1,1.1,0.4,1.6c0.2,0.5,0.5,1,0.9,1.4
				c0.5,0.5,1.2,0.9,1.9,1.1c0.8,0.2,1.5,0.2,2.3,0c0.1,0,0.2-0.1,0.2-0.1h0.1c0.9-0.4,1.1-0.4,1.9-1.1c0.4-0.4,0.7-0.8,0.8-1.3
				c0.3-0.5,0.4-1,0.4-1.6c0-0.4-0.1-0.7-0.1-1.1C1143,96.5,1142.6,95.9,1142.1,95.4z"/>
			<path class="st18" d="M1056.2,118.6c-0.3-0.3-0.7-0.5-1.1-0.6c-0.2-0.1-0.5-0.2-0.7-0.2c-0.2-0.1-0.5-0.1-0.7-0.2
				c-0.5-0.1-1-0.2-1.5-0.3c-0.4-0.1-0.9-0.1-1.3-0.2c-0.4,0.1-0.9,0.1-1.3,0.2c-0.4,0.2-0.8,0.3-1.2,0.5c-0.3,0.3-0.7,0.5-1,0.8
				s-0.5,0.7-0.8,1c-0.2,0.4-0.3,0.8-0.5,1.2c-0.1,0.4-0.1,0.9-0.2,1.3c0,0.7,0.1,1.3,0.4,1.9c0.1,0.4,0.3,0.8,0.6,1.1
				c0.2,0.4,0.5,0.7,0.9,0.9c0.3,0.3,0.7,0.5,1.1,0.6c0.4,0.2,0.8,0.3,1.3,0.3c0.4,0.1,0.9,0.1,1.3,0c0.5,0,0.9-0.1,1.3-0.3
				c0.4-0.1,0.8-0.3,1.1-0.6c0.5-0.4,1-0.8,1.3-1.4c0.2-0.5,0.5-1.1,0.7-1.6c0.3-0.7,0.7-1.4,0.9-2.1c0.1-0.6,0.1-1.3-0.2-1.9
				C1056.4,118.9,1056.3,118.7,1056.2,118.6z"/>
			<path class="st18" d="M922.4,155c0-0.1-0.1-0.2-0.1-0.3c-0.2-0.6-0.6-1-1.2-1.2c-0.1,0-0.2-0.1-0.3-0.1h-0.1l0,0
				c-0.2,0-0.4-0.1-0.7-0.1c-0.2,0-0.4,0.1-0.7,0.1l0,0c-0.1,0-0.2,0-0.3,0.1c-0.4,0.1-0.8,0.2-1.1,0.2c-0.6,0.2-1.1,0.5-1.5,0.9
				s-0.7,0.9-0.9,1.5c-0.3,1.2,0,2.5,0.9,3.3c0.9,0.9,2.1,1.2,3.3,0.9c0.6-0.2,1.1-0.5,1.5-0.9s0.7-0.9,0.9-1.5
				c0.1-0.4,0.2-0.8,0.2-1.1c0-0.1,0-0.2,0.1-0.3c0-0.1,0-0.3,0.1-0.4C922.6,155.6,922.6,155.5,922.4,155
				C922.5,155,922.5,155,922.4,155z"/>
			<path class="st18" d="M834.4,115.7c-0.7-0.7-0.9-0.7-1.8-1.1c-0.4-0.2-0.8-0.4-1.3-0.5c-0.9-0.2-1.8-0.4-2.6-0.6
				c-1.7-0.4-3.7,0-5,1.3c-0.9,1-1.5,2.2-1.5,3.6c0,0.7,0.1,1.4,0.4,2c0.2,0.6,0.6,1.2,1.1,1.6c1.3,1.3,3.2,1.7,5,1.3
				c0.9-0.2,1.8-0.4,2.6-0.6c0.4-0.1,0.9-0.3,1.3-0.5c0.4-0.1,0.7-0.2,1-0.5c0.3-0.2,0.5-0.4,0.8-0.6c0.1-0.1,0.1-0.1,0.2-0.2
				c0.7-0.7,1.1-1.6,1.1-2.6s-0.4-1.9-1.1-2.5C834.5,115.9,834.4,115.8,834.4,115.7z"/>
			<path class="st18" d="M748.5,64.3c0.3,0.3,0.7,0.5,1.1,0.6c0.6,0.2,1.1,0.2,1.7,0c0.5-0.2,1-0.4,1.4-0.8c1-0.8,2-1.7,3-2.5
				c0.1-0.2,0.2-0.3,0.4-0.5c0.2-0.3,0.3-0.5,0.3-0.8c0.1-0.2,0.1-0.4,0-0.6c0-0.3-0.1-0.6-0.3-0.8c-0.2-0.3-0.5-0.6-0.8-0.8
				c-0.5-0.3-1.2-0.4-1.8-0.2c-1.3,0.3-2.6,0.7-3.9,1c-1,0.3-2,1.2-2.2,2.2c-0.2,0.8-0.1,1.7,0.3,2.4
				C747.9,63.8,748.2,64.1,748.5,64.3z"/>
			<path class="st18" d="M928.4,80.6L928.4,80.6L928.4,80.6c-0.1-0.1-0.2-0.2-0.2-0.2c-0.1-0.1-0.2-0.1-0.2-0.2
				c-0.2-0.2-0.5-0.4-0.8-0.5c-0.3-0.2-0.6-0.2-1-0.2c-0.2,0-0.4,0.1-0.7,0.1c-0.4,0.1-0.8,0.3-1.1,0.6c-0.4,0.3-0.7,0.6-0.9,1
				c-0.1,0.3-0.2,0.5-0.3,0.8s-0.1,0.6-0.1,0.9c0,0.3,0.1,0.6,0.1,0.8c0,0,0,0,0,0.1s0,0.1,0,0.2c0,0.1,0.1,0.3,0.1,0.4
				c0.1,0.2,0.2,0.5,0.3,0.7c0.2,0.3,0.4,0.6,0.8,0.8c0.2,0.2,0.4,0.3,0.7,0.4c0.4,0.2,0.7,0.3,1.2,0.3c0.3,0,0.5-0.1,0.8-0.1
				c0.2-0.1,0.5-0.2,0.7-0.3c0.3-0.2,0.6-0.4,0.8-0.8c0.3-0.3,0.4-0.6,0.5-1c0-0.1,0.1-0.3,0.1-0.4c0-0.1,0-0.1,0-0.2
				c0.1-0.3,0.1-0.6,0.1-0.9c0-0.5-0.2-1.2-0.4-1.6C928.8,81.1,928.6,80.8,928.4,80.6z"/>
			<path class="st18" d="M1249.4,31.1c-0.4,0.4-0.7,0.8-0.8,1.3c-0.3,0.5-0.4,1-0.4,1.6c0,0.4,0.1,0.7,0.1,1.1
				c0.2,0.7,0.5,1.3,1.1,1.8c0.3,0.2,0.6,0.4,0.8,0.6c0.6,0.4,1.3,0.6,2.1,0.6c0.6,0,1.1-0.1,1.6-0.4c0.5-0.2,0.9-0.4,1.3-0.8
				c0.4-0.4,0.7-0.8,0.8-1.3c0.3-0.5,0.4-1,0.4-1.6c0-0.4-0.1-0.7-0.1-1.1c-0.2-0.7-0.5-1.3-1.1-1.8c-0.3-0.2-0.6-0.4-0.8-0.6
				c-0.6-0.4-1.3-0.6-2.1-0.6c-0.6,0-1.1,0.1-1.6,0.4C1250.2,30.4,1249.8,30.7,1249.4,31.1z"/>
			<path class="st18" d="M1159-2.1c-0.3-0.1-0.7-0.1-1,0c-0.6,0.2-1.1,0.4-1.7,0.7c-0.5,0.1-0.9,0.4-1.2,0.7
				c-0.3,0.3-0.6,0.7-0.7,1.2c-0.3,0.9,0,2,0.7,2.7s1.7,1,2.7,0.7c0.5-0.1,0.9-0.4,1.2-0.7c0.3-0.3,0.6-0.7,0.7-1.2
				c0.2-0.6,0.4-1.1,0.7-1.7c0.1-0.3,0.1-0.7,0-1s-0.3-0.6-0.5-0.9C1159.6-1.9,1159.3-2,1159-2.1z"/>
			<path class="st18" d="M1249.1-45c0.5-0.1,0.9-0.6,1.1-1.1c0.1-0.2,0.1-0.4,0.2-0.6s0.1-0.5,0.1-0.7c0.2-0.2,0.3-0.5,0.5-0.7
				c0.1-0.2,0.1-0.4-0.1-0.6c-0.1-0.1-0.4-0.2-0.6-0.1c-0.2,0.2-0.5,0.3-0.7,0.5c-0.1,0-0.1-0.1-0.2,0c-0.1,0-0.1,0-0.2,0
				s-0.2,0.1-0.3,0.1c-0.2,0.1-0.4,0.1-0.6,0.2c-0.5,0.1-0.9,0.6-1.1,1.1c-0.1,0.5,0,1.1,0.4,1.5C1248-45,1248.5-44.8,1249.1-45z"/>
			<path class="st18" d="M1480.5,57.6c-0.3-0.5-0.6-0.9-1.1-1.2c-0.4-0.4-0.9-0.6-1.5-0.8c-0.3-0.1-0.6-0.1-0.9-0.2
				c-0.8-0.2-1.6-0.2-2.4,0s-1.4,0.6-2,1.2c-0.2,0.3-0.5,0.6-0.7,0.9c-0.4,0.7-0.6,1.5-0.6,2.3c0,0.6,0.1,1.2,0.4,1.7
				c0.2,0.6,0.5,1,0.9,1.5c0.6,0.6,1.2,0.9,2,1.2c0.8,0.2,1.6,0.2,2.4,0c0.3-0.1,0.6-0.1,0.9-0.2c0.3-0.1,0.7-0.3,1-0.4
				c0.5-0.3,0.9-0.6,1.2-1.1c0.3-0.3,0.5-0.6,0.6-1c0.3-0.5,0.4-1.1,0.4-1.7c-0.1-0.4-0.1-0.8-0.2-1.2
				C1480.8,58.3,1480.6,58,1480.5,57.6z"/>
			<path class="st18" d="M1468.2-9.8c0-0.3-0.1-0.7-0.1-1c-0.2-0.6-0.5-1.2-1-1.7c-0.2-0.2-0.4-0.5-0.6-0.7c-0.3-0.3-0.7-0.5-1-0.8
				c-0.4-0.2-0.8-0.3-1.2-0.5c-0.6-0.2-1.3-0.2-1.9-0.1c-0.4,0-0.8,0.1-1.2,0.3c-0.4,0.1-0.8,0.3-1.1,0.6c-0.4,0.2-0.7,0.5-0.9,0.9
				c-0.3,0.3-0.5,0.7-0.6,1.1c-0.3,0.6-0.4,1.2-0.4,1.9c0.1,0.4,0.1,0.9,0.2,1.3c0.2,0.4,0.3,0.8,0.5,1.2c0.3,0.3,0.5,0.7,0.8,1
				s0.7,0.5,1,0.8c0.4,0.2,0.8,0.3,1.2,0.5c0.6,0.2,1.3,0.2,1.9,0.1c0.4,0,0.8-0.1,1.2-0.3c0.6-0.2,1.1-0.5,1.6-1
				c0.2-0.2,0.4-0.5,0.6-0.7c0.4-0.3,0.6-0.8,0.8-1.2C1468.1-8.8,1468.2-9.3,1468.2-9.8z"/>
			<path class="st18" d="M1577.6-51.1c-0.3-0.2-0.5-0.4-0.8-0.6c-0.6-0.4-1.3-0.5-2-0.6c-0.6,0-1.1,0.1-1.6,0.3
				c-0.5,0.2-0.9,0.4-1.3,0.8s-0.7,0.8-0.8,1.3c-0.3,0.5-0.4,1-0.3,1.6c0,0.4,0.1,0.7,0.1,1.1c0.2,0.7,0.5,1.3,1,1.8
				c0.3,0.2,0.5,0.4,0.8,0.6c0.6,0.4,1.3,0.5,2,0.6c0.6,0,1.1-0.1,1.6-0.3c0.5-0.2,0.9-0.4,1.3-0.8s0.7-0.8,0.8-1.3
				c0.3-0.5,0.4-1,0.3-1.6c0-0.4-0.1-0.7-0.1-1.1C1578.5-50,1578.1-50.6,1577.6-51.1z"/>
			<path class="st18" d="M1565.6,53.5c-5.7,0-5.7,8.9,0,8.9C1571.3,62.4,1571.4,53.5,1565.6,53.5z"/>
			<path class="st18" d="M1497.9,195.3c-0.2-0.2-0.4-0.3-0.6-0.5c-0.5-0.3-1-0.4-1.6-0.4c-0.1,0-0.3,0-0.4,0c-0.5,0-0.9,0.1-1.4,0.2
				c-0.3,0.1-0.8,0.3-1.1,0.5c-0.1,0-0.2,0.1-0.2,0.1c-0.2,0.1-0.3,0.2-0.5,0.2c-0.6,0.4-1.1,0.9-1.5,1.5c-0.4,0.7-0.6,1.4-0.6,2.1
				c0.1,0.4,0.1,0.7,0.2,1.1c0.2,0.7,0.6,1.3,1.1,1.9c0.4,0.4,0.8,0.7,1.4,0.9c0.5,0.3,1,0.4,1.6,0.4c0.8,0,1.5-0.2,2.1-0.6
				s1.1-0.9,1.5-1.5c0.1-0.2,0.2-0.3,0.2-0.5c0-0.1,0.1-0.2,0.1-0.2c0.2-0.4,0.4-0.8,0.5-1.1c0.1-0.4,0.1-0.9,0.2-1.4
				c0-0.1,0-0.3,0-0.4c0-0.4-0.1-0.8-0.3-1.2C1498.4,195.9,1498.2,195.6,1497.9,195.3z"/>
			<path class="st18" d="M1660.1-8c-0.4-0.3-0.9-0.6-1.3-0.9c-0.5-0.3-1-0.4-1.6-0.4s-1.1,0.1-1.6,0.4c-1,0.6-1.6,1.6-1.6,2.7
				c0,1.1,0.6,2.2,1.6,2.7c0.5,0.3,1,0.4,1.6,0.4s1.1-0.1,1.6-0.4c0.4-0.3,0.9-0.6,1.3-0.9c0.3-0.2,0.6-0.4,0.8-0.8
				c0.2-0.3,0.3-0.7,0.3-1.1c0-0.4-0.1-0.7-0.3-1.1C1660.7-7.5,1660.4-7.8,1660.1-8z"/>
			<path class="st18" d="M3325.1,215v-0.1v-0.1c-0.2-0.4-0.3-0.7-0.5-1.1c0-0.1-0.1-0.2-0.2-0.2c-0.3-0.4-0.5-0.8-0.9-1.2
				c-0.4-0.4-0.8-0.7-1.3-0.8c-0.5-0.3-1-0.4-1.6-0.3c-0.4,0-0.7,0.1-1.1,0.1c-0.7,0.2-1.3,0.5-1.8,1c-0.1,0.1-0.2,0.3-0.3,0.4
				s-0.2,0.3-0.3,0.5c0,0,0,0.1-0.1,0.1c0,0.1-0.1,0.1-0.1,0.2c-0.3,0.5-0.5,1-0.7,1.5c-0.1,0.4-0.2,0.7-0.3,1.1
				c-0.2,0.9-0.2,1.7,0,2.6c0.2,0.8,0.6,1.5,1.3,2.1c0.3,0.3,0.7,0.5,1,0.8c0.8,0.4,1.6,0.7,2.5,0.7c0.7,0,1.3-0.1,1.9-0.4
				c0.6-0.2,1.1-0.5,1.6-1c1.2-1.2,1.7-3,1.3-4.7C3325.3,215.7,3325.2,215.3,3325.1,215z"/>
			<path class="st18" d="M3347.2,61.8c-0.4-0.5-0.9-0.9-1.3-1.4c-0.3-0.2-0.6-0.5-0.9-0.7c-0.4-0.1-0.7-0.3-1-0.4
				c-0.6-0.2-1.2-0.2-1.8-0.1c-0.4,0-0.8,0.1-1.1,0.3c-0.4,0.1-0.7,0.3-1,0.6c-0.3,0.2-0.6,0.5-0.8,0.8c-0.3,0.3-0.5,0.6-0.6,1
				c-0.3,0.5-0.4,1.1-0.4,1.7c0.1,0.4,0.1,0.8,0.2,1.2c0.1,0.3,0.3,0.7,0.4,1c0.2,0.3,0.5,0.6,0.7,0.9c0.3,0.2,0.6,0.5,0.9,0.7
				c0.3,0.1,0.7,0.3,1,0.4c0.6,0.2,1.2,0.2,1.8,0.1c0.4,0,0.8-0.1,1.1-0.3c0.5-0.2,1-0.5,1.4-0.9c0.4-0.5,0.9-0.9,1.3-1.4
				c0.2-0.2,0.4-0.5,0.5-0.8c0.2-0.3,0.2-0.6,0.2-0.9c0-0.2-0.1-0.4-0.1-0.6C3347.7,62.4,3347.5,62.1,3347.2,61.8z"/>
			<path class="st18" d="M3249.2,55.3c-0.1-0.1-0.2-0.2-0.3-0.4c-0.2-0.2-0.3-0.3-0.6-0.5c-0.2-0.2-0.5-0.4-0.7-0.5
				c-0.3-0.2-0.7-0.4-1-0.7c-0.9-0.5-1.8-0.7-2.8-0.8c-1,0-1.9,0.3-2.8,0.8c-1.7,1-2.7,2.8-2.7,4.8c0,1.9,1.1,3.8,2.7,4.8
				c0.9,0.5,1.8,0.7,2.8,0.8c1,0,1.9-0.3,2.8-0.8c0.3-0.2,0.7-0.4,1-0.7c0.5-0.3,0.9-0.6,1.3-1c0.1-0.1,0.2-0.2,0.3-0.4
				c0.4-0.3,0.6-0.8,0.8-1.2c0.2-0.5,0.3-0.9,0.3-1.5c0-0.3-0.1-0.7-0.1-1C3250,56.3,3249.7,55.8,3249.2,55.3z"/>
			<path class="st18" d="M3285.9-32.1c0.9-0.2,1.7-0.5,2.6-0.7c0.4-0.1,0.9-0.2,1.3-0.3c0.6-0.2,1.1-0.4,1.6-0.7
				c1.2-0.6,1.2-2.6,0-3.2c-0.5-0.3-1.1-0.5-1.6-0.7c-0.4-0.1-0.9-0.2-1.3-0.3c-0.9-0.2-1.7-0.5-2.6-0.7c-2.2-0.6-4.4,1.1-4.4,3.3
				c0,0.9,0.4,1.8,1,2.4C3283.4-32.1,3284.7-31.8,3285.9-32.1z"/>
			<path class="st18" d="M3281.2,364c-0.2-0.2-0.5-0.4-0.8-0.5c-0.3-0.2-0.6-0.2-0.9-0.2c-0.7,0-1.3,0.3-1.7,0.7l0,0
				c-0.2,0.2-0.4,0.5-0.5,0.8c-0.2,0.3-0.2,0.6-0.2,1c0,0.2,0.1,0.4,0.1,0.7c0.1,0.4,0.3,0.8,0.6,1.1c0.2,0.3,0.5,0.4,0.8,0.5
				c0.1,0.2,0.2,0.5,0.4,0.7c0.2,0.5,1,0.5,1.2,0c0.1-0.2,0.2-0.5,0.4-0.7c0.3-0.1,0.6-0.3,0.8-0.5s0.4-0.5,0.5-0.8
				c0.2-0.3,0.2-0.6,0.2-1C3282,365.2,3281.8,364.5,3281.2,364C3281.3,364.1,3281.3,364,3281.2,364z"/>
			<path class="st18" d="M3291.3,645.1c-0.1-0.4-0.3-0.9-0.4-1.3c-0.2-0.6-0.5-1.2-0.8-1.8c-0.4-0.8-1.4-1.3-2.3-1.3
				s-1.9,0.5-2.3,1.3c-0.3,0.6-0.6,1.2-0.8,1.8c-0.1,0.4-0.3,0.9-0.4,1.3c-0.4,1.2,0,2.7,0.9,3.5c0.2,0.2,0.5,0.4,0.7,0.6
				c0.6,0.3,1.2,0.5,1.8,0.5c0.5,0,1-0.1,1.4-0.3c0.5-0.1,0.8-0.4,1.2-0.8c0.5-0.5,0.8-1,0.9-1.6
				C3291.4,646.4,3291.4,645.8,3291.3,645.1z"/>
			<path class="st18" d="M3198.8,775.2c0.1,0.8,0.1,1.6,0.2,2.4c-0.1,1.5,1.1,2.2,2.2,2.1c1.2,0.1,2.3-0.6,2.2-2.1
				c0.1-0.8,0.1-1.6,0.2-2.4C3203.8,772.1,3198.6,772.1,3198.8,775.2z"/>
		</g>
		<g>
			<g>
				<g>
					<defs>
						<rect id="SVGID_00000046308654480455826900000002973883671656719015_" x="0" width="4000" height="2500"/>
					</defs>
					<clipPath id="SVGID_00000114755024188974436210000013531761742499648667_">
						<use xlink:href="#SVGID_00000046308654480455826900000002973883671656719015_"  style="overflow:visible;"/>
					</clipPath>
					<g style="opacity:0.1;clip-path:url(#SVGID_00000114755024188974436210000013531761742499648667_);">
						<path class="st0" d="M4249.3,3395c9.9-10.6,19.2-22.1,27.9-34.3c1.2-1.6-1.7-4.6-2.8-3c-34.9,45.1-79.9,79.1-132.7,95.8
							c-45.5,14.4-96.2,16.1-148.2,5.3c-45.3-9.6-92.2-28.6-136.2-58.5c-18.7-12.7-36.8-27.2-53.7-44.4
							c-18.1-18.4-32.6-38.9-46.8-61.4c-96.5-154.4-143.5-329.4-211.1-494.7c-33-80.6-71.4-159.6-120.3-232.2
							c-43.9-65-95.6-124.7-153-171.1c-3.9-3.3-7.8-6.6-11.9-9.7c-0.2-0.3-0.4-0.1-0.6,0c-110.5-84.2-248.2-113.5-334-45.9
							c-2.8,2.3-5.6,4.5-8.3,7c7.2-8.6,14.4-16.9,22-25c0.2,0,0.3,0.1,0.5-0.1c48.6-43.2,111.8-66.1,180.6-64.2
							c68.1,1.7,140.7,27.5,208.6,73.7c68.9,46.7,130.6,112.6,179.2,189.9c28.3,44.9,53.1,92.3,81.1,137.4
							c27.3,44.1,58.1,83.7,93.7,118.7c32.5,31.9,68.3,64.1,105.4,82.6c32.6,16.3,66.2,21.8,95.7,15.6c7.3-1.6,13.9-4,20.5-7.3
							c1.3-0.7-0.2-3.6-1.7-3.3c-30.4,9.2-63.5,9.8-98.7-3.8c-39.2-15.2-76.2-47.4-110.4-79.7c-37.6-35.6-70.1-75.9-98.8-121.4
							c-28.3-44.9-53-92.2-81.4-137.2c-47.3-75.4-106.6-140.2-173.3-187.6c-65.4-46.7-135.7-74.8-202.7-80.1
							c-65.3-5.2-127,9.8-176.4,44.9c24.6-23.2,51.2-43.6,80.8-60.2c160.1-89.9,393.8-29.8,576.6,133.8c44,39.3,86.1,85.4,122,135.6
							c1.9,2.6,4.7,0.5,2.9-2c-143-200.8-353-318.3-537-316.7c-97.4,0.8-178.7,37.8-246.2,101.6c-47,44.4-86.2,98.1-121.7,155.6
							c-45.2,65.1-96.2,124.4-157.5,168.4c-47.7,34.1-102.3,59.4-163.8,63.6c-40,2.7-84-3.3-126.3-26c-21.2-11.3-40.1-27.3-59-45.6
							c-34.8-33.7-65.9-73.1-91.6-116.7c-51.6-87.1-79.8-184.3-100.9-278.3c-22.8-102-38.2-203.3-60.9-305.3
							c-18.8-84.3-43.1-168.1-78.7-249.5c-17.9-43.7-39.6-86.1-66-125.6c-0.3-0.5-0.6-0.8-0.9-1.3c-47-76.4-103-146.3-164.5-207.1
							c-72-71.1-150.9-129.9-231.6-176.1c-26.8-15.3-53.8-29.2-81-41.7c-1.7-0.8-3.3-1.9-5-2.7c-0.4-0.3-0.8-0.1-1,0
							c-23.1-10.4-46.3-19.6-69.4-27.5c-60.5-21.7-121.2-32.3-179-33.1c-96-1.6-184.1,24-273.3,43.1c-69.7,15-142.6,27.9-219.2,18.2
							c-74-17.7-150.9-64.1-211-136.3C415.3,869.9,379.6,737,355.3,618.4c-24.6-120.5-35.5-239.6-56-359.9
							C279.7,144.1,251.5,26.1,198.6-85C150.9-185.1,82.2-280.2-1.4-340.9c-10.6-7.8-21.5-14.7-32.4-21.1c-1.2-0.7-1.8,1.1-0.6,1.9
							c89.4,55.1,164,149.8,217.1,252.5c57.7,111.6,88.7,232.4,110.3,349.2c22.5,121.2,35,241.3,58.2,362.6
							C373.6,721.8,405.6,851,482.5,954c57,76.3,133.8,127.3,208.3,149.2c-15.3-2.7-30.6-6.2-46.2-10.9
							C509.7,1051.2,411,937.5,326.1,804.9c0.4,0.3,0.9-0.3,0.5-0.7c-4.1-5.8-8.2-11.9-12.2-17.8c-22.3-35.8-43.9-73-64.7-110.2
							c-21.1-41.5-39.3-84.2-54.3-127.8c-30.3-88.3-49.4-177.8-81.3-265.8C56.3,122.4-39.4-37-170.5-132.5
							c-63.2-46-132.1-76-196.6-78.1c-1.4-0.1-1,2.6,0.5,2.6c122.3,10.5,249.8,105,341.9,231.5c54.1,74.3,96.8,157.7,129.4,243.4
							c32.7,85.9,52.7,173.4,80.9,259.8c12.9,39.5,28.2,78.4,45.7,116.5c-32.4-58.2-63.9-116-96.3-169.6
							C66.2,359.4-13.9,258-110.6,177.6c-93.8-78-196.9-134.1-298.5-161.1c-49-13-97.5-19.1-144.3-18.4c-0.8,0-0.5,1.5,0.3,1.5
							c203.3-2.9,436.5,131.6,599.4,346.9c86.2,114,150.3,245.4,221.1,370.1c66.3,116.4,142.2,235.4,243.6,311.7
							c76.2,57.5,151.5,80.1,225,84.5c1.7,0.3,3.4,0.5,5.2,0.8c0.3,0.1,0.4-0.2,0.5-0.5c107.3,5.3,210.8-27.7,307.7-47.2
							c13.7-2.7,27.4-5.2,41.2-7.4c-15.4,3.6-30.5,7.9-45.3,13.4c-59.7,22.1-113.6,57.3-165.9,92.8
							c-59.2,40.3-118.7,80.2-190.1,96.7c-37.6,8.6-77.4,11-118.6,6.2c-28.4-5.1-57.3-13.9-85.8-26.5c-40.2-17.7-80-43.1-117-74.6
							c-43.3-37.1-81.6-83.4-115.2-133.3c-74.6-110.9-128-235.3-202.9-345.9c-69.2-102.1-152.6-194.2-245.1-261
							c-81.6-59-171-99.3-255.2-107.6c-10.6-1-21.1-1.7-31.6-1.9c-1.3,0-0.8,2.5,0.5,2.5c85.5,3.6,177.2,38.7,262.2,95.5
							c95.4,63.6,182,154.2,254.2,256.4c38,53.8,71.1,110.9,103,168.9c32.6,59.6,64.3,119.9,101,176.9
							c32.6,50.5,69.3,98.4,111.6,137.3c35.1,32.4,73.1,58.7,111.9,78.3c24.5,12.4,49.1,22.2,73.6,29.1
							c-48.4-10.2-97.4-30.2-145.3-57c-46.9-26.4-92.5-59-136.6-94.7c-43.6-35.3-85.9-73.6-127.7-112.8
							C86.5,960.3,47.5,922.5,7.8,885.9c-35-32.3-70.7-64-108.1-90.8c-16.3-11.7-32.8-22.5-49.8-31.4
							c-34.4-18.4-71.4-34.9-105.6-35.8c-16.3-0.4-31.2,3.1-43.9,11.5c-2.3,1.5,0.8,6.5,3.3,5.2c30.1-17.3,69.6-8.4,106.9,7.4
							c23.4,9.8,46.8,22.2,69.4,37.2c36.8,24.4,72.1,54.3,106.4,85.3c39.3,35.2,77.7,72.3,116.4,108.8
							c40.9,38.6,82.2,76.7,124.6,112.4c43.5,36.5,88.3,70.7,134.4,99.2c46.4,28.7,94.2,51.6,142,65.7
							c51.1,15,101.3,19.6,148.7,14.2c64.5-7.4,121.7-33.5,174-67.4c59.5-38.5,115.9-82.2,179.5-114c53.9-27,112.7-40.5,176-43.3
							c56.9-1.3,115.5,5.3,176.5,24.5c118.2,37.2,235.7,119,320.4,246.3c74.4,111.7,111.9,237.9,118.2,359.5
							c4.8,93.3-4.6,182.2-15,269.3c-11.7,97.3-27.2,196.3-31.9,298.6c-1.1-16.8-2.4-33.3-3.9-50.1c-0.7-38.3-0.9-76.4-2.3-114.9
							c-2.9-77.9-7.7-156.6-19.9-236.6c-5.6-37-12.8-74.3-23.4-111.5c-13.3-46.6-31.5-93.3-52.1-138.3
							c-41.3-89.9-96.5-175.6-168.4-236.8c-18.6-15.9-38-29.8-57.8-42.1c-0.2-0.2-0.4-0.4-0.6-0.5c-0.6-0.3-1.3-0.7-2-1
							c-48.2-29.4-98.8-48.1-147.4-55.1c-78.6-11.4-151.3,8.5-210.9,48c-31.2,20.7-58.5,47.1-82.6,77.6
							c-26.5,33.5-49.1,71.3-72.9,107.8c-47,72.1-100,139.1-164.6,189.4c-58.2,45.3-126,76.2-202.5,83c-68.1,6-142.4-7-214.8-42.9
							c-17.7-8.8-35.7-18.5-52.9-30.2c-2-1.4-3,1.8-0.9,3.2c34,23.3,67.9,41.9,103.5,54.8c35.2,12.9,70.6,20.1,104.8,22.7
							c71.6,5.5,138.3-9.4,197-39.4c71-36.4,130.1-93.3,180.6-158.7c25.7-33.4,48.8-69.6,71.7-106c22.8-36.4,46.1-72.7,74.1-103.3
							c23.7-26,50.8-47.7,80.7-64.7c-8.3,6.2-16.1,13-23.6,20.6c-40.5,41.5-65.6,100-83.7,162.5c-8.4,28.7-16,58-23,87.6
							c-10.8,45.3-19.2,92.1-29.2,137.8c-10,45.6-21.3,90.6-37.8,131.7c-14.9,36.8-34.8,69.2-58.6,97.2
							c-51.2,60.1-119.3,101.9-197.5,113.1c-10.5,1.6-21.3,2.5-32.1,3.1c-1.6,0.1-1.1,3.2,0.5,3.2c80.6-0.3,152.1-36.2,207.1-89.5
							c24.8-23.9,46.6-51.9,64.4-83.9c20-36.1,33.7-77.8,44.8-120.9c11.5-45.2,20.4-92.2,30-138.6c7.6-36.7,16.5-72.6,25.9-108.2
							c16.2-62.1,36.4-122.1,71.2-168.4c19.3-25.8,42.9-46.6,70-61.3c27.4-11.8,56.6-19.5,87.3-22.6c48.8-4.8,101.4,3.1,153.6,23.4
							c-53.5-12.1-105.1-3-146.9,21c-69.9,40.2-113.2,122.6-138,211.6c-27.3,97.5-33.8,207-46.8,312.5
							c-12.5,102.8-31.4,204.9-78,283.8c-46.9,79.6-118.9,129.1-203.5,150.2c-10.5,2.6-21.3,4.6-32.3,5.9c-2.4,0.3-0.5,4.9,1.9,4.6
							c87-7.2,162.2-49.8,215.3-118.9c53-68.9,78.4-163.2,93.7-261.6c16.2-103.7,22.1-212.8,41.6-314.7
							c18.9-98.1,52.1-191.1,117.2-247.1c53.1-45.7,129-63.1,207.1-33.3c11.4,5.7,22.8,11.7,34.1,18.6c35,21.2,69,48.1,99.6,80.3
							c34.3,35.9,64.1,78,89.9,122.1c48.4,82.9,85.2,175.5,104.1,265.7c16.8,80.5,24.1,160.8,28.5,239.1
							c2.8,50.5,3.9,100.6,5.2,150.8c-2.9-29.3-6.5-58.9-11.3-88.5c-6.8-65.5-14.8-131.2-29.3-197.7
							c-14.3-65.9-37.7-132.4-72.3-193.6c-38.1-67.4-89.5-122.9-148.7-158.8c-52.5-31.9-109.7-52.5-160.2-46.1
							c-48.4,6.2-86.8,37.2-113,79.5c-57.3,92.5-51.5,228.5-32.5,359c19.5,133,51.6,269.2,52.9,398.6c0,1.4,0,2.9-0.1,4.3
							c-5.4,83.1-20.9,161.8-54.1,227c-35.8,70.1-90.6,125.4-163,142.2c-17.5,4.1-35.8,6.8-54.8,5.9c-2.5-0.1-1.7,4.7,0.9,4.9
							c18.6,0.9,37,0.9,54.3-2.5c17.5-3.5,34.1-9.4,49.7-17.2c31.5-15.6,58.5-39.3,81.2-67.8c47.5-59.5,74.9-139.3,86.8-227.3
							c12.5-93.6,8.9-194.6,2.2-295.4c-3.4-50.5-7.6-101.2-11.1-151.8c-3.6-52.1-6-104.3-1.3-153.5c8.8-94.5,48.1-179.5,130.6-190.8
							c34.5-4.8,73.3,2.9,110.5,21c36.5,17.6,70.4,45.5,101.3,78.9c52.8,57,92.2,127.6,118.8,201.4c26.5,73.8,40.9,149.3,50.1,222.8
							c8.7,70.4,12.5,139.7,16.6,209c3,51.8,4.2,105.2,16.8,158.7c1.5,6.2,3.4,12.6,5.4,18.8c22,97.7,63.8,198.2,124.7,282.1
							c71.3,98.1,166.7,170.9,262.2,200.7c111.5,34.7,210.2,3.7,296-43.6c90.2-49.8,163.1-121.4,222.7-213
							c59.3-90.9,108-197.5,165.9-292.8c7.3-11.2,14.5-22.5,21.6-34.1c16-24.3,32.8-47.6,50.8-69.5c36-32,84.6-45.3,135.4-43.7
							c60.4,1.8,125,24.3,185.3,65.3c11.5,7.9,22.7,16.2,33.9,25.1c56.6,53.7,103.2,119.6,137.7,193.6
							c35.7,76.4,57.9,156.4,73.4,235.3c28.8,145.7,41,297.2,113.8,439.1c40.9,79.9,99.8,158.2,166.6,208.8c2,1.5,3.5-1.6,1.5-3.4
							c-29.3-26.7-57.7-54.7-83.8-86.6c-26.3-32.3-50-67.5-70.3-104.5c-38.7-70.7-62.7-146.3-79.4-221.5
							c-16.5-74-26.7-147.4-41.4-221.2c-15.7-78.2-36.7-157.5-70.9-233.6c-28.8-64.3-68.1-129-116.1-179.2
							c39.6,36.5,76.2,79.1,108.7,125.2c51.1,72.2,91.2,151.6,125,233.2c68,164.3,113.1,337.6,204.8,493.6
							c15.3,25.8,31.1,51.7,50.7,73.7c15.4,17.2,32.4,32.2,49.8,45.4c41.4,31.3,86.2,52.5,130,64.8
							C4077.2,3490.5,4181.2,3467.6,4249.3,3395z M2804.8,2506.1c0,0.1-0.2,0.3-0.3,0.5c0,0,0,0,0-0.1
							C2804.6,2506.4,2804.7,2506.4,2804.8,2506.1z M2066.3,1872.1c24.7,102.9,40.1,205.2,61.4,307.8
							c19.3,93.2,43.6,189.3,88.8,278.7c22,43.5,48.9,84.4,80.1,120.4c23.1,26.6,49.2,53.4,76.6,71.6c37.5,24.8,77.9,35.1,115.1,37
							c57.2,3.1,109.5-13.3,155.7-38.6c29.9-16.4,57.7-36.6,83.6-59.7c-32.2,33.4-65.8,65.1-101.7,93.5
							c-22.9,18.1-46.9,34.7-72.2,49.2c-22.8,11.9-46.5,21.5-73.3,24.9c-28.4,3.6-58.9,0.4-89.5-11.7
							c-49.7-19.7-93.3-60.9-131.5-109.3c-41.4-52.6-78.9-110.7-106.8-172.4c-27.4-60.8-41.8-122.7-50.4-184.6
							c-4.3-30.9-7.3-61.5-10.4-92.2c-3.2-31.9-6.7-64-9.1-95.7c-4.7-62.8-8.6-125.2-18.2-189c-7.1-47.6-17.3-96.9-31.2-146
							C2045.9,1794.3,2056.8,1833,2066.3,1872.1z M1725.8,1288.4c67,60,128.8,130.3,181.3,208.8c-0.4-0.4-0.6-0.8-1-1.2
							c-0.1-0.2-0.3,0-0.3,0.1c4.4,6.4,8.8,12.9,13.1,19.3c7.8,12.2,15.4,24.6,22.7,37.2c18.1,31,34.3,62.7,48.9,94.8
							c5,11.6,9.9,23.2,14.5,35.1c24.3,63.5,40.7,128.2,51.8,192.3c11.5,66,16.8,130.6,21.4,195.3c4.3,61.9,10.5,124.6,18.1,187.3
							c7.4,61.3,19,123.5,43.8,184.8c24.8,61.5,59.7,119.7,98.8,172.7c39.4,53.3,83.3,101.7,136.2,127.9c44.5,22,87.5,24.1,126.6,15
							c-33.2,14-68.3,23.8-105.3,28.5c-84.7,10.7-184.8-16.5-265.5-101.1c-88.2-92.3-134.8-219.3-167.1-338.8
							c-31.3-116.2-48-234-50.9-346c-0.3-11.4-0.4-22.7-0.3-33.9c2.2-34.8,4-69.7,3.5-105.3c-0.9-70.8-10.1-144.6-29.3-218.2
							c-23.1-88.2-60.9-175.7-112.9-253.8c-65.5-98.5-151.3-177.9-240.5-236c-11.9-7.7-23.9-15.1-35.9-22.1
							C1576.4,1171.4,1653.9,1223.9,1725.8,1288.4z M1603,1749.3c-24.7-32.7-52.9-62.7-82.9-87.1c-34-27.6-71.6-46.4-108.1-54.9
							c-36.1-8.5-71.3-6.6-100.9,7.4c-34.1,15.9-58.5,47.9-74.3,86.5c-34.3,83.9-25.2,193.3-17.7,296.5
							c7.1,96.4,14.9,193.3,13.2,287c-2-30.6-5.6-61.8-9.8-92.5c-8.4-63.9-20.1-128.2-31-192.4c-22.1-130.6-41.2-270.8-0.7-377.5
							c19.1-50.2,50.6-92.3,94.5-112.2c45.3-20.6,100.4-12.7,154.8,12.4c60.6,27.9,117.9,73.5,162.5,137.6
							c42.2,60.4,72.2,132,90.2,201.1c15.7,60.4,24.5,120.2,31.5,179.8c-5.6-27.6-12.2-55.3-20.4-82.9
							C1682.5,1884.6,1649.8,1811.5,1603,1749.3z M2017.8,2920.9c-94.1-72.7-166.7-180.9-210.6-298.8
							c-25.6-69.1-39.9-137.4-46.8-204.7c-0.9-11.5-1.7-23-2.5-34.4c-0.8-12.5-1.4-25.1-2.2-37.7c-3.2-105.2,8.9-207.2,20.9-304.3
							c21.8-176.5,57.1-372.1-18.1-572.7c-48.8-130.3-137-247.7-242.5-320.5c78.1,50.2,153.4,113.3,217.2,193.4
							c61.5,77.3,109.1,167.7,138.7,261.3c24.7,78.1,37.7,157.4,40.9,233.3c2.6,62-2.1,121.7-5.5,181.5c-4.4,79.9-9,159.4-9.3,240.9
							c-0.3,85,3.6,172.2,18.2,260.9c13,79.2,35.1,161.2,75,236.6c39.8,75.1,97.2,134.6,162.1,172c56.5,32.7,114.8,51.7,170.4,52.6
							c48.3,1,92.7-10.5,133.4-29.7c-37.4,21-77.3,37.6-118.8,48.7C2239,3026.3,2125.3,3004,2017.8,2920.9z M2615.5,2818.5
							c-28,33.6-59.6,63.9-93.9,89.9c-46.2,32.5-97.7,57.1-155.3,64.9c-57.3,7.9-119.5-3.1-181.3-33
							c-65.5-31.8-126.4-81.8-172.7-153c-47-72.3-73.3-155.6-89-235.7c-17.4-89.1-22.9-176.9-23.7-262.2
							c-0.9-82.9,3.1-164.1,8-244.8c1.3-20.7,2.7-41.4,4.1-62.2c1.3,106.2,14.9,216.1,40.3,326.5c27.4,119,66.9,245.3,146.7,346
							c36.5,46,79.3,82.4,125.5,105.6c44.5,22.3,89.4,31.3,132.4,31.9c49.2,0.7,95.1-10.5,138.2-26.8c22.4-8.4,43.9-18.9,64.4-30.7
							c0.8-0.3,1.3-0.7,2-1c3.5-1.9,6.7-3.9,10.1-6.1c9.9-6.2,19.8-12.6,29.3-19.4c68.6-48.7,130.2-109.6,185.9-176.1
							c3.8-4.7,7.7-9.4,11.5-14.2c-5.4,9.8-10.9,19.6-16.2,29.4C2730.6,2642.1,2681.4,2739.3,2615.5,2818.5z"/>
						<path d="M5020.3,815.7c-3.6,1.8-7,3.8-10.4,5.9c8.8-8.2,17.8-16,27.1-23.3c0.1,0.1,0.3,0.1,0.5,0.1
							c60.8-37.7,89.2-47.4,26.8-19.7c30.5-20.6,82.5-65.9-1.7-9.3c-58.6,39.3-106.4,91.8-149.2,149.7
							c-54.9,64.1-117.9,120-195.3,154.8c-60.3,27.1-130.2,41.8-210.4,30.2c-52.1-7.6-110.2-26.9-167.3-65
							c-28.4-19-54.3-43.2-80.2-69.6c-47.9-49-91.1-103.9-127.7-162.1c-73.3-116.4-116.6-238.3-150.4-354.4
							c-36.8-126-63.5-249.2-100-375.2c-30.2-103.9-67.5-209.2-119.5-314.5c-26.4-56.2-57.6-111.8-94.6-165.5
							c-0.3-0.6-0.8-1.1-1.1-1.6c-66.7-102.5-144.6-200-229.2-288.1c-99-103.1-206.2-193.8-315.1-269.9c-36-25.2-72.4-49-108.8-70.9
							c-2.2-1.4-4.4-3-6.6-4.5c-0.6-0.3-1-0.4-1.3-0.3c-30.9-18.4-61.9-35.5-92.8-51.1c-80.7-42.1-160.9-70.8-236.7-87.6
							c-125.8-27.9-239.5-21.9-355.2-23.7c-90.2-1.4-184.9-6-286-38.4c-98-40.8-123.1-54.1-24-8.2c-20.2-7.3-37-1.7,59.6,23.7
							c2.2,0.7,4.5,1.6,6.8,2.2c0.5,0.2,0.5-0.1,0.6-0.4c140.9,35.2,274.3,25,400.1,28.5c17.7,0.5,35.5,1.4,53.5,2.6
							c-19.9,0-39.5,1.1-58.4,3.4c-76.8,9.8-145.1,36.2-211.3,63.8c-74.9,31.2-132.1,61.3-65.7,35.8c75.5-29.1,146.4-65,227.4-85.1
							c68.8-16.9,145.1-16.8,227.7-2.9c74.4,13.9,151.6,37.6,232.8,76.9c157.1,75.9,316.4,204,435.7,376.5
							c104.7,151.5,162.2,309.7,178.5,454.4c12.6,111.1,6,212.7-2,312.2c-9,111.1-22.7,223.1-22.1,342c-2.6-19.9-5.4-39.9-8.4-59.9
							c-3.3-45.1-6.2-90-10.5-135.5c-8.9-92.2-20.5-186.1-41.5-283.3c-9.7-45-21.6-90.8-38-137.4c-20.6-58.4-47.4-118.1-77.4-176.7
							c-60-116.8-138-232.6-236.3-324c-25.5-23.7-51.8-45.5-78.4-65.2c-0.2-0.3-0.4-0.5-0.9-0.8c-0.9-0.6-1.7-1.1-2.6-1.7
							c-65.1-47.7-132.6-83.3-196.7-104.9c-103.7-34.8-197.7-31.3-273.1-0.9c-39.4,15.8-73.6,39.4-103,68.6
							c-32.5,32.2-5.8,11.2,28.9-17.1c29.4-24.1,63.5-42.3,101.5-53.9c-10.4,5-20.3,10.9-29.5,17.7c-50.2,37.8-64.7,71.2-22.1,26.2
							c23.6-25,53.2-43,87.7-52.8c35-6.5,72.8-7.6,113-2.7c63.7,7.7,132.9,31.3,202.8,69.4c-70.8-28.8-137.9-32.2-191.2-15.4
							c-89.1,28.1-140.1,113.4-166.9,210.8c-29.4,107,49.1-140.1,130.7-188c66.6-39.1,164.9-38.9,269.1,17.3
							c15.4,9.6,30.6,20,45.8,31.1c47.3,34.3,93.5,75.3,135.8,121.3c47.3,51.4,89.2,109.1,125.8,167.9
							c68.7,110.8,122.9,229.5,153.6,340.7c27.3,99.2,42.2,195.4,52.9,288.6c7,60.2,11.8,119.4,16.7,178.5
							c-5.7-35.2-12.4-70.9-20.4-107c-13.3-78.8-28.2-158.2-51.3-240.2c-23-81.1-58.1-165.7-107.5-247.1
							c-54.3-89.5-125.4-168.7-205.2-227.1c-70.9-51.9-147.3-91.7-212.9-97.9c-63.1-6-111.3,20.1-142.9,62.6
							c-69.1,93.1,81,71.4,188.3,80.5c45,3.7,96.2,23.4,146.3,54.9c48.9,30.7,95.2,72.6,137.9,120.2
							c72.9,81.3,129.1,174.9,168.8,269c39.7,94,63.5,186.4,80.2,275.4c16.1,85.1,25.6,167.5,35.4,249.9
							c7.3,61.6,12.5,124.8,32.4,191c2.3,7.8,5.2,15.6,8.5,23.6c35.2,120.7,96.6,250.2,181.9,365.4
							c99.8,134.6,229.6,246.2,356.8,307.1c148.3,70.3,275.6,60.8,384.9,28.6c114.9-33.8,205.7-98.2,277.8-189.4
							c71.7-90.7,128.4-202.6,198.3-298.5c9-11,17.5-22.5,25.9-34.2c19.4-24.2,39.9-47.1,62-67.8c45-27.8,107.9-30,174.4-14.5
							C5261,828.1,5128.3,759.6,5020.3,815.7z M4872.9,976.8c-0.1,0.2-0.3,0.2-0.2,0.6c0,0,0,0-0.1-0.1
							C4872.6,977.2,4872.8,977,4872.9,976.8z M3863.7,30.9c39.1,127.5,66.1,252,100.6,378.2c31.5,114.8,69.4,234.1,134.6,351.6
							c31.7,57,69.6,112.3,112.9,163.2c32,37.6,67.9,76.2,105.1,105c50.6,39.2,104.4,62.4,153.2,74.9
							c75.1,19.2,142.6,14.3,201.5-2.8c38.2-11.1,73.2-27.2,105.6-47.4c-40,30.5-81.9,58.7-127,82.1c-28.8,15-59.2,28-91.4,38
							c-29,7.9-59.6,12.5-94.4,9.2c-36.9-3.5-77.1-15.5-118.1-38.2c-66.3-36.7-126.3-96.9-179.4-164.2
							c-57.8-73-110.7-151.4-151.2-231.7c-39.9-78.9-62.8-155.5-78.2-230.6c-7.6-37.4-13.6-74.3-19.6-111.1
							c-6.3-38.5-13-76.9-18.2-114.8c-10.2-75-19.4-149.3-36.2-226.8c-12.6-58-29.1-118.6-50.6-180
							C3831.9-66,3848.7-17.5,3863.7,30.9z M3379.2-747.4c91.7,88.8,177.4,188.3,251.2,294.7c-0.4-0.5-0.9-1.1-1.3-1.7
							c-0.1-0.1-0.3-0.1-0.1,0.2c6.3,8.8,12.4,17.5,18.3,26.3c11,16.4,21.8,33.2,32.2,49.9c25.9,41.5,49.1,83,70.3,124.7
							c7.3,15,14.5,30.1,21.2,45.1c35.8,81.1,61.8,161.7,80.5,240c19.4,80.4,30.7,157.9,40.9,235c9.6,73.9,21.8,149.3,36,225
							c13.9,74.1,33.1,150.3,69.5,228.9c36.6,78.9,86.1,156.9,140.8,229.7c55.2,73.4,115.6,142.1,187,187.4
							c59.8,37.9,116.3,52.2,166.9,52.2c-42.6,7.3-87.8,9.4-136.1,4.7c-110.4-10.7-243.1-69.7-354.6-191.1
							c-121.5-132.4-191-294.2-241.1-443.3c-48.7-144.9-78.3-287.8-89.3-420.1c-1.1-13.5-1.9-26.6-2.6-39.8
							c0.5-40.2,0.5-80.8-2.4-123c-5.9-83.3-22.8-172.6-52.8-264.3c-36-109.8-91.3-222.9-164.5-328.8
							c-92.3-133.4-209.9-250-330.5-342.7c-16.1-12.4-32.2-24.2-48.4-35.7C3175.8-925.5,3280.8-842.6,3379.2-747.4z M3248.6-239.5
							c-34.4-45.1-73.3-88.1-114.3-125c-46.4-41.7-96.9-74-145.2-93.9c-47.8-19.7-93.9-27.2-131.8-18.9
							c-43.6,9.4-73.5,40.3-91.6,81.3c-39.4,89.2-111.3,9.4-65.4-105.1c21.8-53.8,60.2-94.7,116.4-106.1
							c58.1-11.8,130.6,12.4,203.5,56.6c81.3,49.3,159.4,118.6,221.9,205.8c59.1,82.4,103.3,174.7,131.3,260.8
							c24.4,75.2,40,147.8,53,219.7c-9.1-33.9-19.6-68.3-32.2-103C3361.7-59,3314.1-153.7,3248.6-239.5z M3869.1,1249.6
							c-127.9-111-230.3-257.9-295.4-408.3c-38.1-88.1-61.3-172.3-74.7-253.1c-2-13.7-3.8-27.5-5.5-41c-1.9-15-3.6-29.8-5.5-44.8
							c-11.1-124.4-2-240.9,7.3-351.7c16.9-201.5,50.4-421.5-61.3-677.7c-72.6-166.4-195.8-328.3-338.9-442.6
							c105.8,80.3,208.5,175,297.2,286.2c85.7,107.5,153.9,226.6,199,344.8c37.5,98.3,59.6,195.1,68.9,285.2
							c7.5,73.7,5.2,142.4,4.8,211.7c-0.5,92.7-1.3,185,3.7,280.5c5.3,99.8,16,203.2,40.9,311.3c22.3,96.5,56.5,198.9,113.9,298.4
							c57.1,98.8,136.2,184.3,223.8,246c76.3,53.9,153.8,91.9,226.7,108.2c63.2,14.2,120.8,13,172.9,1.4
							c-47.7,14.5-98.8,23.1-152.4,24.9C4165.8,1433.7,4015.3,1376.5,3869.1,1249.6z M4645.3,1292.2
							c-34.5,31.9-73.9,58.7-117.1,80.1c-58.5,25.6-124.3,40.3-199.1,34.1c-74.5-6.3-156.6-36.1-239.7-88.1
							c-88-55.1-170.9-130.6-236.3-226.8c-66.4-97.8-106.2-202.7-132.1-301.1c-28.9-109.5-41.6-214.1-48.4-314.6
							c-6.6-97.6-6.7-191.8-5.7-285.3c0.2-24,0.8-48,1.4-71.8c8.8,125,33.7,257.8,74.2,394.5c43.6,147.3,103.7,306.3,215,446.3
							c50.7,63.9,109.3,118.6,171.3,158.1c60,38.4,119.1,61.1,175.5,73.4c64.6,14.2,123.8,13.6,179.3,6.2
							c28.9-3.9,56.1-10.2,82.4-18.5c0.9-0.3,1.7-0.4,2.6-0.7c4.4-1.5,8.7-2.8,12.8-4.5c12.6-4.5,25-9.4,37.1-14.8
							c86.6-38.6,163.4-93.2,232-156.1c4.8-4.4,9.5-9,14.1-13.5c-6.5,10-13,20.1-19.3,30.2
							C4784.6,1116.4,4726.5,1217.2,4645.3,1292.2z"/>
					</g>
				</g>
			</g>
		</g>
	</g>
</g>
</svg>
