<?xml version="1.0" encoding="utf-8"?>
<!-- Generator: Adobe Illustrator 26.1.0, SVG Export Plug-In . SVG Version: 6.00 Build 0)  -->
<svg version="1.1" id="Warstwa_1" xmlns="http://www.w3.org/2000/svg" xmlns:xlink="http://www.w3.org/1999/xlink" x="0px" y="0px"
	 viewBox="0 0 4000 2500" enable-background="new 0 0 4000 2500" xml:space="preserve">
<g id="Background" display="none">
	<g display="inline">
		<g>
			<g>
				<defs>
					<rect id="SVGID_1_" width="4000" height="2500"/>
				</defs>
				<clipPath id="SVGID_00000062904735045023649930000010827064694491167111_">
					<use xlink:href="#SVGID_1_"  overflow="visible"/>
				</clipPath>
				
					<rect clip-path="url(#SVGID_00000062904735045023649930000010827064694491167111_)" fill="#151619" width="4000" height="2500"/>
			</g>
			<g>
				<defs>
					<rect id="SVGID_00000046306132474884964170000006439714774381972358_" width="4000" height="2500"/>
				</defs>
				<clipPath id="SVGID_00000153667309531831769690000010452722748580034713_">
					<use xlink:href="#SVGID_00000046306132474884964170000006439714774381972358_"  overflow="visible"/>
				</clipPath>
				<path clip-path="url(#SVGID_00000153667309531831769690000010452722748580034713_)" fill="#151619" d="M4001,1355v919.8V2501H-1
					V97.7h-1.3c2.7-4,5.5-8,8.2-12c11-16,22.2-31.8,33.5-47.6c5.7-7.9,11.4-15.7,17.2-23.5c2.9-3.9,5.8-7.8,8.7-11.7
					C66.8,1,68.2-1,69.7-2.9V-1H4001V1355z"/>
			</g>
			<g>
				<defs>
					<rect id="SVGID_00000146478050728363761880000003592431072559575462_" width="4000" height="2500"/>
				</defs>
				<clipPath id="SVGID_00000104693264588947874200000005001225172383148199_">
					<use xlink:href="#SVGID_00000146478050728363761880000003592431072559575462_"  overflow="visible"/>
				</clipPath>
				<path clip-path="url(#SVGID_00000104693264588947874200000005001225172383148199_)" fill="#18191B" d="M4001,1355.1v854.1V2501
					H137.9v6.8c-2.5-3.8-5-7.5-7.4-11.3c-19.7-30.1-38.6-60.8-56.8-91.8s-35.5-62.6-52.1-94.5c-8.3-16-16.4-32.1-24.2-48.3H-1V456.2
					h-3.2C3.7,440,11.7,423.9,20,407.9c16.5-32,33.8-63.5,51.9-94.6c36.2-62.2,75.5-122.6,117.8-181c21.1-29.2,43-57.9,65.6-86.1
					c11.3-14.1,22.7-28,34.4-41.9c2.9-3.5,5.8-6.9,8.8-10.3v5h3691.1v-3c1.5,1.7,2.9,3.4,4.4,5.2c2.9,3.5,5.8,6.9,8.7,10.4h-1.6
					L4001,1355.1L4001,1355.1z"/>
			</g>
			<g>
				<defs>
					<rect id="SVGID_00000148642863030910269880000014890529582547971513_" width="4000" height="2500"/>
				</defs>
				<clipPath id="SVGID_00000015327522669996159470000017776828344668024458_">
					<use xlink:href="#SVGID_00000148642863030910269880000014890529582547971513_"  overflow="visible"/>
				</clipPath>
				<path clip-path="url(#SVGID_00000015327522669996159470000017776828344668024458_)" fill="#1B1B1D" d="M4001,1355.3v788.4v261.9
					h1.4c-18.1,27.9-37,55.3-56.5,82.2c-4.9,6.7-9.8,13.4-14.8,20.1v-7H349.2l0,0c-2.5-3.4-4.9-6.7-7.4-10.1
					c-78.2-107.7-145.6-222.7-200.7-343.8s-97.9-248.2-127-380C7,1734.2,0.6,1701-5,1667.4h4v-616.8h-4.5
					c5.5-33.5,11.8-66.8,19-99.7c28.8-131.9,71.4-259,126.3-380.2s122.1-236.4,200.1-344.2c39-53.9,80.7-106,125-156
					C487,45.5,509.7,21,533.1-3v2h3217.2v-4.8c23.4,24,46.2,48.4,68.4,73.4c44.3,50,86.1,102,125.2,155.8
					c19.6,26.9,38.4,54.3,56.6,82.1c2.3,3.5,4.5,7,6.8,10.5h-6.3L4001,1355.3L4001,1355.3z"/>
			</g>
			<g>
				<defs>
					<rect id="SVGID_00000121963207145761432160000017671424281220255673_" width="4000" height="2500"/>
				</defs>
				<clipPath id="SVGID_00000020377201728054679690000013858366004588290974_">
					<use xlink:href="#SVGID_00000121963207145761432160000017671424281220255673_"  overflow="visible"/>
				</clipPath>
				<path clip-path="url(#SVGID_00000020377201728054679690000013858366004588290974_)" fill="#1D1D1F" d="M4001,1355.4v374.1V2015
					h5.2c-2.9,7.1-5.8,14.1-8.8,21.1c-5.9,14.1-12,28-18.3,41.9c-50.3,111.1-111.9,216.7-183.4,315.5c-17.9,24.7-36.4,49-55.5,72.8
					c-9.5,11.9-19.2,23.7-29.1,35.4v-0.9H576.7v3.6c-9.9-11.7-19.6-23.5-29.2-35.4c-19.1-23.8-37.7-48.1-55.6-72.7
					c-71.7-98.7-133.4-204.2-183.9-315.2c-101-222-157-466.1-157.2-722.4C150.4,846.3,372.9,382,733.2,45.8
					c11.3-10.5,22.6-20.9,34.2-31.1c5.8-5.1,11.6-10.2,17.4-15.3c1.5-1.3,2.9-2.5,4.4-3.8V-1h2709.7v-2c5.8,5.1,11.6,10.1,17.4,15.3
					c11.5,10.2,22.9,20.6,34.2,31.1C3730.8,211.2,3876.8,411,3977.8,633c6.3,13.9,12.4,27.8,18.4,41.9c3,7,5.9,14.1,8.8,21.1h-4
					V1355.4z"/>
			</g>
			<g>
				<defs>
					<rect id="SVGID_00000016771096644594236460000008071220231814578308_" width="4000" height="2500"/>
				</defs>
				<clipPath id="SVGID_00000083049631538386062180000002038105394594419614_">
					<use xlink:href="#SVGID_00000016771096644594236460000008071220231814578308_"  overflow="visible"/>
				</clipPath>
				<path clip-path="url(#SVGID_00000083049631538386062180000002038105394594419614_)" fill="#1F1F20" d="M3953.9,1355.6
					c0.2,233-50.3,455-141.7,657c-45.7,101-101.7,197-166.7,286.8c-32.5,44.9-67.3,88.3-104.1,130c-18.4,20.9-37.4,41.3-56.9,61.3
					c-4.9,5-9.8,10-14.7,14.9v-4.6H818.1v6.9c-4.9-4.9-9.8-9.9-14.7-14.9c-19.5-20-38.5-40.4-57-61.2
					c-36.9-41.6-71.8-85-104.4-129.8c-65.2-89.7-121.3-185.6-167.2-286.5c-91.8-201.8-142.7-423.7-142.9-656.7
					c-0.4-466,201.9-888.1,529.4-1193.7c40.9-38.2,83.8-74.6,128.5-109c22.3-17.2,45.1-33.9,68.4-50.2c5.8-4.1,11.6-8.1,17.5-12.1
					V-1h2140.8v-1.1c2.9,2,5.8,4,8.7,6c23.3,16.2,46.1,32.9,68.5,50c44.8,34.4,87.7,70.7,128.7,108.8
					C3750.4,467.9,3953.5,889.6,3953.9,1355.6z"/>
			</g>
			<g>
				<defs>
					<rect id="SVGID_00000133511809312121260310000017199849963596670343_" width="4000" height="2500"/>
				</defs>
				<clipPath id="SVGID_00000084529563153314070280000006068038059809674154_">
					<use xlink:href="#SVGID_00000133511809312121260310000017199849963596670343_"  overflow="visible"/>
				</clipPath>
				<path clip-path="url(#SVGID_00000084529563153314070280000006068038059809674154_)" fill="#202021" d="M3772.8,1355.8
					c0.4,419.4-181.7,799.3-476.4,1074.4c-18.4,17.2-37.3,34-56.6,50.3c-9.6,8.2-19.4,16.3-29.2,24.2v-3.7H1077.3v5.5
					c-9.9-7.9-19.6-16-29.3-24.2c-19.3-16.3-38.2-33.1-56.6-50.2C696.1,2157.5,513.4,1778,513,1358.6S694.7,559.3,989.4,284.2
					c73.7-68.8,154.4-131,241.1-185.7c43.3-27.3,88.1-52.8,134.3-76.2c11.5-5.9,23.2-11.6,34.9-17.2c5.9-2.8,11.7-5.6,17.6-8.3V-1
					H2866v-3.4c5.9,2.7,11.8,5.5,17.6,8.3c11.7,5.6,23.4,11.3,34.9,17.1c46.2,23.3,91.1,48.7,134.4,76
					c86.8,54.5,167.6,116.6,241.4,185.2C3589.7,556.8,3772.4,936.4,3772.8,1355.8z"/>
			</g>
			<g>
				<defs>
					<rect id="SVGID_00000125600316746634289260000005153717706573905044_" width="4000" height="2500"/>
				</defs>
				<clipPath id="SVGID_00000089542871223902986140000004602098580528867739_">
					<use xlink:href="#SVGID_00000125600316746634289260000005153717706573905044_"  overflow="visible"/>
				</clipPath>
				<path clip-path="url(#SVGID_00000089542871223902986140000004602098580528867739_)" fill="#212122" d="M3591.7,1355.9
					c0.3,372.8-161.5,710.5-423.5,955c-65.5,61.1-137.2,116.4-214.3,165c-9.6,6.1-19.3,12-29.1,17.9c-4.9,2.9-9.8,5.8-14.7,8.7v-1.6
					H1377.8v2.9c-4.9-2.9-9.9-5.8-14.8-8.7c-9.8-5.8-19.5-11.8-29.2-17.9c-77.1-48.5-149-103.6-214.6-164.7
					c-262.4-244.1-424.8-581.4-425.2-954.2C693.5,612.8,1341.6,7.8,2141.7,7.1C2941.9,6.4,3591,610.3,3591.7,1355.9z"/>
			</g>
			<g>
				<defs>
					<rect id="SVGID_00000088814000382825704960000016776344946035226529_" width="4000" height="2500"/>
				</defs>
				<clipPath id="SVGID_00000049932115838216254560000007535106424696602785_">
					<use xlink:href="#SVGID_00000088814000382825704960000016776344946035226529_"  overflow="visible"/>
				</clipPath>
				<path clip-path="url(#SVGID_00000049932115838216254560000007535106424696602785_)" fill="#222222" d="M3410.6,1356.1
					c0.3,326.2-141.4,621.6-370.6,835.6c-114.6,107-251.1,193.6-402.7,253.5c-37.9,15-76.7,28.3-116.4,39.8
					c-19.8,5.8-39.9,11.1-60.1,16c-10.1,2.4-20.3,4.8-30.5,7v-7h-603.1v0.5c-20.3-4.8-40.3-10.1-60.2-15.9
					c-39.7-11.5-78.6-24.7-116.5-39.6c-151.7-59.6-288.4-146-403.2-252.8c-229.6-213.6-371.7-508.8-372-835
					C874.7,705.8,1441.8,176.4,2142,175.8C2842,175.3,3410,703.7,3410.6,1356.1z"/>
			</g>
			<g>
				<defs>
					<rect id="SVGID_00000035501371082692677470000014888184245784593076_" width="4000" height="2500"/>
				</defs>
				<clipPath id="SVGID_00000138552380157476951470000013706425539045304967_">
					<use xlink:href="#SVGID_00000035501371082692677470000014888184245784593076_"  overflow="visible"/>
				</clipPath>
				
					<ellipse clip-path="url(#SVGID_00000138552380157476951470000013706425539045304967_)" fill="#222223" cx="2142.9" cy="1357.2" rx="1086.6" ry="1012.5"/>
			</g>
			<g>
				<defs>
					<rect id="SVGID_00000019663702671010009880000007853676544116099717_" width="4000" height="2500"/>
				</defs>
				<clipPath id="SVGID_00000149364286685397846980000013866898614388512398_">
					<use xlink:href="#SVGID_00000019663702671010009880000007853676544116099717_"  overflow="visible"/>
				</clipPath>
				
					<ellipse clip-path="url(#SVGID_00000149364286685397846980000013866898614388512398_)" fill="#232323" cx="2142.9" cy="1357.2" rx="905.5" ry="843.8"/>
			</g>
			<g>
				<defs>
					<rect id="SVGID_00000045596513127607933560000002831086408589588394_" width="4000" height="2500"/>
				</defs>
				<clipPath id="SVGID_00000047763750738302736100000006339716704879128755_">
					<use xlink:href="#SVGID_00000045596513127607933560000002831086408589588394_"  overflow="visible"/>
				</clipPath>
				
					<ellipse clip-path="url(#SVGID_00000047763750738302736100000006339716704879128755_)" fill="#232323" cx="2142.9" cy="1357.2" rx="724.4" ry="675"/>
			</g>
			<g>
				<defs>
					<rect id="SVGID_00000080186421980281777290000002616514461408097725_" width="4000" height="2500"/>
				</defs>
				<clipPath id="SVGID_00000011753645439815924370000013310905832537628316_">
					<use xlink:href="#SVGID_00000080186421980281777290000002616514461408097725_"  overflow="visible"/>
				</clipPath>
				
					<ellipse clip-path="url(#SVGID_00000011753645439815924370000013310905832537628316_)" fill="#232323" cx="2142.9" cy="1357.2" rx="543.3" ry="506.3"/>
			</g>
			<g>
				<defs>
					<rect id="SVGID_00000072250525272525427790000006977809154567048871_" width="4000" height="2500"/>
				</defs>
				<clipPath id="SVGID_00000109008845358549192780000015088867378977014435_">
					<use xlink:href="#SVGID_00000072250525272525427790000006977809154567048871_"  overflow="visible"/>
				</clipPath>
				
					<ellipse clip-path="url(#SVGID_00000109008845358549192780000015088867378977014435_)" fill="#232323" cx="2142.9" cy="1357.2" rx="362.2" ry="337.5"/>
			</g>
			<g>
				<defs>
					<rect id="SVGID_00000017506218805249967560000007348613895111765938_" width="4000" height="2500"/>
				</defs>
				<clipPath id="SVGID_00000177469585061922368480000008776559417278443151_">
					<use xlink:href="#SVGID_00000017506218805249967560000007348613895111765938_"  overflow="visible"/>
				</clipPath>
				
					<ellipse clip-path="url(#SVGID_00000177469585061922368480000008776559417278443151_)" fill="#232323" cx="2142.9" cy="1357.2" rx="181.1" ry="168.8"/>
			</g>
		</g>
	</g>
</g>
<g id="Object">
	<g>
		<g>
			<g>
				<defs>
					<rect id="SVGID_00000012470538611624050040000014558509974623024823_" width="4000" height="2500"/>
				</defs>
				<clipPath id="SVGID_00000124858399190994566320000000284573472776103599_">
					<use xlink:href="#SVGID_00000012470538611624050040000014558509974623024823_"  overflow="visible"/>
				</clipPath>
				<g opacity="0.1" clip-path="url(#SVGID_00000124858399190994566320000000284573472776103599_)">
					<path fill="#FED7A5" d="M4498.3-469c-5-16.1-11-32-18-47.6c-0.9-2.1-4.9-0.7-3.9,1.4c24.5,60.6,34.6,126.6,26,191.6
						c-7.5,56.1-28.7,111.2-61.7,161.2c-28.7,43.5-66.7,83.7-113,115.2c-19.7,13.4-40.7,25.3-63.5,34.4
						c-24.4,9.8-49.2,14.7-75.6,18.1c-180.6,23.1-357.4-17.6-534.6-31.1c-86.4-6.6-173.9-6.5-260.4,8.1
						c-77.6,13.2-153.7,37.4-220.7,74.7c-4.7,2.5-9.4,4.9-14,7.6c-0.3,0.1-0.3,0.4-0.3,0.6c-124.3,74.4-212,206.4-190.2,333.3
						c0.8,4.2,1.5,8.3,2.5,12.5c-4.5-12.1-8.6-24.2-12.4-36.5c0.1-0.2,0.2-0.3,0.2-0.5c-16.7-74.4-8.8-153.8,23.6-226.5
						c32-71.9,87.3-136.1,158.8-184.8c72.4-49.4,158.6-81.1,249.1-93c52.6-6.9,105.8-8.8,158.5-15.4c51.4-6.4,100.5-18.6,147.4-38.5
						c42.9-18.2,87.5-39.7,120.7-69.7c29.1-26.4,49.1-59.4,56.7-94.2c1.9-8.6,2.7-16.9,2.7-25.6c0-1.8-3.3-1.6-3.6,0.1
						c-5.5,37.3-19.7,72.9-47.5,103.5c-31.1,34-76.2,56.9-120.3,76.6c-48.5,21.7-98.9,35.5-152.2,42.5
						c-52.6,6.9-105.7,8.9-158.5,15.8c-88.3,11.5-172.4,41.2-244.5,87.8C3078.8-1.3,3022.4,59.2,2987.7,128
						c-33.9,67.1-48.1,140.9-39,211.9c-9.6-38.3-15.9-77.4-17.5-117.7c-8.4-217.8,149.7-436.5,376.9-547
						c54.6-26.6,114.4-47.7,175.3-60c3.1-0.6,2.6-4.8-0.5-4.1c-242.6,48.6-441.1,212.2-522,409.7c-42.9,104.7-46.3,210.8-19.7,316
						c18.5,73.3,48.7,143.1,84,211c37.7,82.1,67.6,167.5,79.3,255.9c9,68.8,7.1,140.3-16.7,208.2c-15.4,44.1-40.6,88.1-79.7,121.6
						c-19.5,16.8-42.3,28.6-67,39.3c-45.6,19.7-94.6,32.5-144.8,37.3c-100.6,9.9-199.7-10.4-292.7-36.7
						c-100.9-28.5-198-64.8-298.8-93.4c-83.3-23.6-168.9-41.3-257.2-45.4c-46.9-3.5-94.3-2.4-141.2,5.3c-0.5,0.1-1,0.2-1.5,0.3
						c-89,10.6-176.3,34.2-257.9,68.4c-95.5,40.1-183.2,93.9-260.3,156.2c-25.6,20.6-50,42.3-73.3,65c-1.5,1.3-3.1,2.6-4.6,3.9
						c-0.4,0.3-0.5,0.7-0.5,1.1c-19.6,19.3-38.1,39.3-55.5,60c-46.4,53.3-82.9,112.8-109.6,174.2c-44.3,101.8-61,209.3-83.9,314.6
						c-17.8,82.2-39,166.9-81.9,243.8c-48.8,69.9-124.5,128-215.6,154.8c-125.3,36.7-259.5,6-375.9-29.7
						c-118.2-36.3-229.1-86.5-345.3-127c-110.6-38.5-228.2-69.6-350.7-70.7c-110.4-1-225.7,23.1-317.1,81
						c-11.7,7.4-22.7,15.4-33.3,23.8c-1.1,0.9,0.2,2.5,1.4,1.6c89-66.9,206.6-97.6,321.8-101c125.1-3.7,246.5,25.8,360,63.3
						c117.9,39,230.3,87.8,348.6,126.1c114.6,37.1,243.9,69.9,369.9,41.2c93.5-21.3,173.2-77,225.9-145.3
						c-9.3,14.9-19.2,29.5-30.4,43.8c-96.9,122.9-242.2,169.3-398.2,191.2c0.4-0.3,0.2-1-0.4-0.9c-7,1.4-14.2,2.6-21.2,3.8
						c-41.9,5.2-84.5,8.9-127,12c-46.3,1-92.5-1.7-138-8.4c-92.1-13.5-180.3-39.4-272.8-51.1c-168.5-21.2-353.1-1.8-496.7,88.9
						c-69.2,43.7-126.7,101.7-157.5,169.6c-0.7,1.5,1.9,2.4,2.6,0.9c64.1-125.4,205.1-212.5,359-245.3
						c90.3-19.3,183.7-21.6,274.4-12c91.1,9.7,177.8,33.7,267.4,48.4c40.9,6.7,82.4,10.6,124.1,11.6c-66.3,4.4-131.8,8.1-194,14.9
						c-132.4,14.3-258.4,47.2-373.2,108.9c-111.4,59.8-207.3,140.9-276.9,235.5c-33.5,45.7-60.6,94.3-80.9,144.8
						c-0.3,0.9,1.2,1.3,1.5,0.5c88.3-218.9,312.4-398.3,576.8-460.7c140-33,285.6-33.2,428.3-44.3c133.2-10.4,273.1-29.9,386.3-98.5
						c85.2-51.6,139-120.4,175.8-196.6c1-1.7,2-3.4,3-5.1c0.2-0.3,0-0.6-0.2-0.8c52.6-112,69.7-239.7,95.7-353.4
						c3.7-16,7.6-31.9,11.9-47.8c-3.7,18.4-6.6,36.8-8.3,55.4c-7.1,75.3,0.1,151.1,8.3,225.6c9.4,84.2,18.3,168.6,0.9,253.5
						c-9.2,44.6-24.9,88.5-47.5,130.1c-17.2,27.7-38,54-61.9,78c-33.7,33.8-74.2,63.2-118.7,86.3c-52.4,27.1-110.7,44-170.1,54
						c-132,22.2-266.6,14.7-398.6,37.3c-121.8,21-241,62.3-341.8,126.5c-89,56.6-164.8,131.3-209.9,217
						c-5.7,10.8-10.9,21.7-15.8,32.8c-0.6,1.4,1.8,2.2,2.4,0.8c41.5-89.6,113.6-169.3,202.2-230.8
						c99.3-68.9,218.6-114.5,341.9-138.6c64.9-12.8,130.5-18.5,196.3-22.4c67.6-3.9,135.4-6.5,202.5-16.2
						c59.5-8.6,118.5-23,172.1-48c44.5-20.8,84.9-47.7,119.8-79c21.9-19.7,41.7-41,58.8-63.6c-30.7,46.4-70.4,88.5-115.7,125.7
						c-44.4,36.4-93.8,68.2-145.4,96.8c-50.9,28.3-103.9,53.6-157.5,77.9c-50.7,23-101.8,45.1-152.2,68.5
						c-44.4,20.7-88.5,42.4-129.1,68.4c-17.7,11.3-34.6,23.5-50.2,36.9c-31.8,27.3-62.9,58.3-79,94.3c-7.6,17.2-11.2,35-9.4,52.9
						c0.3,3.3,6.2,2.5,6.1-0.8c-1.9-41.2,23.7-78.7,54.4-110.4c19.3-19.9,40.7-38.5,64.2-54.9c38.1-26.7,80.6-48.9,123.5-69.5
						c48.9-23.7,99.1-45.5,148.8-67.9c52.7-23.7,105.1-48,155.8-74.9c52-27.5,102.4-57.6,148.3-92.2c46.3-34.7,88.1-73.9,122-117.7
						c36.2-46.8,62.8-98.2,79.1-151.7c22.3-72.8,24.7-147.5,17.9-221.1c-7.6-83.7-21.3-166.6-21.1-251
						c0.1-71.6,14.5-141.5,40.2-210.6c24.3-61.5,56.4-120.8,100.7-176c86-107,211.4-190.1,362.4-214.6
						c132.7-21.6,261.7,3.8,372.7,60.3c85.2,43.3,160,99.5,232.8,155.9c81.3,63.1,162.4,131,251.3,189.1
						c-15.4-7.5-30.7-14.7-46.4-21.9c-34.3-19.2-68.3-38.7-103.2-57.2c-70.6-37.3-142.8-73.1-219.4-101.6
						c-35.4-13.2-71.9-24.9-109.7-32.9c-47.4-10.1-97-14.8-146.3-16.1c-98.4-2.5-199.4,12-286,57.1c-22.4,11.7-43.5,25.2-63.3,40
						c-0.2,0.1-0.5,0.2-0.7,0.4c-0.6,0.4-1.2,1-1.8,1.5c-47.7,36.3-87,80.7-115,129c-45.3,78.1-60.1,166.2-51.6,250.4
						c4.5,44.1,15.7,87.1,32.1,128.6c18,45.7,41.4,89.6,63.3,133.9c43.2,87.7,79,179.2,94.8,274.4c14.2,85.8,11.4,174.2-16.8,259.6
						c-25.1,75.9-69.9,148.6-134.3,207.5c-15.8,14.4-32.4,28.6-50.6,40.8c-2.1,1.4,0.3,4.1,2.4,2.6c35.9-24.3,67.7-50.9,95.1-82.3
						c27.1-30.9,49.4-65,67-100.2c36.9-73.7,53.5-152.7,53.1-231.1c-0.5-94.8-24.8-187.5-60.5-275.6c-18.2-44.9-40-88.3-62.3-131.7
						c-22.1-43.3-44-87-58.8-132.9c-12.5-38.9-19.8-79.1-21.4-119.8c1.8,12,4.3,24,7.8,35.9c18.8,64.8,59.6,122,107.1,173.9
						c21.8,23.8,44.5,47.3,67.6,70.1c35.5,35,73.3,68.4,109.6,102.9c36.2,34.3,71.1,69.8,100.2,108.8c26.1,35.1,46,73.2,60.2,113.1
						c30.5,85.9,37.3,180.4,12.3,270c-3.3,12-7.3,24-11.6,35.9c-0.7,1.8,2.4,2.8,3.1,1.1c35.8-86.3,35.8-181.4,12.9-267.9
						c-10.3-38.9-25.3-76.8-45.8-112.4c-23.2-40.2-54.1-76.4-87.5-110.7c-35-35.8-72.9-69.6-109.9-104
						c-29.3-27.2-57.3-55.4-84.7-83.9c-47.9-49.6-92.3-102.3-118-163.5c-14.3-34.1-22.3-70.1-23.1-106.7c1.7-35.3,7.9-70.6,19-105.1
						c17.6-54.7,48.1-106.8,89.6-152c-34.7,50.9-49.7,110.8-47.1,168c4.4,95.7,58.5,184.7,126.5,257.4
						c74.5,79.8,169,143.7,257.1,212.3c85.8,66.8,168.2,139.9,217.6,230.7c49.8,91.5,61.7,194.2,42.5,295.5
						c-2.4,12.6-5.5,25.2-9.2,37.6c-0.8,2.7,4.1,3.1,4.9,0.5c32.6-96.7,28.3-199.3-9.5-291.8c-37.6-92.4-110.1-168.5-190.8-236
						c-85.1-71.1-179.5-134.1-261.3-207.9c-78.9-71.2-146.7-154.9-167.5-253.6c-16.9-80.5,1.6-170.7,63-238.8
						c10.1-9.3,20.6-18.3,31.8-26.8c34.5-26.4,73.6-48.7,116-64.9c47.2-18,98-28.1,148.9-32.7c95.4-8.7,194.2,0.1,283.1,26.7
						c79.1,23.8,153.8,57.8,225.5,93.8c46.3,23.3,91.3,48.1,136.5,72.8c-27.4-12.1-55.3-23.6-83.8-34
						c-61.3-26.8-123.4-52.3-189-71.3c-65-18.9-134.6-28.4-204.6-23.2c-77,5.7-149.4,31.9-207.8,76.5c-52,39.6-95.9,90-112.7,147.3
						c-16.1,55-5.7,112.2,20.1,162.2c56.6,109.3,180.2,173.7,304.9,221.2c127,48.3,262.5,84.6,378.4,150.4c1.3,0.8,2.5,1.5,3.8,2.3
						c71.5,49,134.6,106.4,177.8,175.8c46.4,74.7,71,161.9,53.6,248.1c-4.2,20.8-10,41.9-19.3,61.7c-1.2,2.7,3.4,4.3,4.8,1.6
						c9.1-19.4,17.3-39,22-59.4c4.8-20.5,6.9-41.4,7-62.1c0.2-41.8-8.8-83-23.9-122.1c-31.7-81.7-90.4-152.4-163.5-210.8
						c-77.7-62.1-169.1-110.6-261.8-155.8c-46.5-22.6-93.5-44.5-140.1-66.9c-47.9-23.2-95.4-47.8-137.2-78.3
						c-80.1-58.4-138.2-144.6-111.3-238.8c11.2-39.4,35.4-76.8,68.1-107.3c32.1-29.8,72-51.7,115.4-67.3
						c74.3-26.9,154.8-32.3,232.3-22.4c77.6,9.9,151.2,33.7,220.7,62.1c66.5,27.2,129.8,59.2,193.4,90.8
						c47.4,23.7,95.5,50.1,148.7,64.4c6.2,1.7,12.7,2.9,19.1,3.9c96.8,27.2,204.8,34.7,306.8,13.1
						c119.2-25.3,226.6-89.4,295.9-176.1c80.8-101.1,97.4-222.9,93.6-339.1c-3.9-122.3-35.1-237.5-89.8-348.7
						c-54.4-110.7-127.4-218-186.2-329.5c-6.7-13.7-13.5-27.2-20.7-40.8c-14.5-29.7-27.7-59.8-39.1-90.4
						c-12.4-55.1-2.4-114,21.6-167.4c28.6-63.7,77.5-121,141-164.3c12.1-8.2,24.5-15.9,37.5-23.2c73-32.6,152.5-48.2,233.9-46.6
						c83.9,1.5,165,19.3,242.2,43.7c142.5,44.9,282.7,110.5,441.6,106.4c89.4-2.2,185.4-24.5,260.2-69.7c2.3-1.3,0.2-4.6-2.3-3.4
						c-36.9,17.5-74.5,33.3-114.5,44.6c-40.4,11.4-82.3,18.4-124.4,20.9c-80.2,4.8-158.2-8.9-232.6-30.1
						c-73.2-20.8-143-48-215.4-70.6c-76.6-23.9-156.5-42.5-239.5-45.5c-70.2-2.6-145.3,5.8-211.4,31c50.2-23.5,104.5-40.4,160-51.3
						c87.1-17.1,175.7-18.7,263.3-12.5c176.6,12.7,350.9,54.4,530.8,37.5c29.8-2.8,59.9-6.4,88.3-16c22.2-7.5,43.1-17.8,62.7-29.6
						c46.4-28.1,85.3-65,115.8-105.2C4506.3-235.5,4532.4-358.6,4498.3-469z M3061.3,613.8c0.1,0.2,0.2,0.4,0.3,0.5c0,0,0,0-0.1,0
						C3061.4,614.1,3061.4,613.9,3061.3,613.8z M2166.7,1074.2c102.6,27,200.5,63.6,301.3,94.2c91.5,27.8,187.9,51.8,287.7,49.8
						c48.4-0.9,96.9-8.5,142.9-23.2c34.1-10.9,69.5-24.9,98-44.8c38.8-27.2,66.1-65.1,84.4-103.8c28.3-59.5,37.1-123.9,35.3-186.5
						c-1.2-40.5-6.8-80.7-15.7-120.3c15.4,51.8,28.5,104.2,37.7,157.3c5.8,33.9,9.9,68.3,11.4,102.7c0.4,30.5-1.7,60.9-10.7,91.3
						c-9.5,32.2-26,63.1-50.5,89.6c-39.8,42.9-95.9,68.2-156,83.8c-65.3,17-133.8,26.9-201.2,24.6c-66.4-2.3-127.8-19-186.8-42
						c-29.4-11.5-58-24.2-86.7-36.7c-29.9-13.2-59.9-26-89.2-40c-57.9-27.6-115.2-55.8-176.3-78.6c-45.6-17.1-94-31.8-143.8-42.4
						C2088.4,1055.5,2127.7,1063.9,2166.7,1074.2z M1495,1135.1c83.3-40.4,173.6-70,266.9-85.4c-0.5,0.2-1,0.2-1.5,0.4
						c-0.2,0-0.1,0.3,0,0.3c7.7-1.5,15.4-2.7,23-3.9c14.4-2,28.8-3.7,43.3-5c35.7-3.2,71.2-4.1,106.3-3c12.6,0.6,25.1,1.5,37.7,2.8
						c67.3,7,132.3,23,194.2,44.5c63.8,22,123.7,49.8,183.3,78.5c57,27.5,115.6,53.5,174.7,77.9c57.9,23.9,118.4,43.8,184,49.1
						c65.8,5.4,133.1-1.7,197.8-16c65.1-14.5,127.8-36.2,174.7-79.3c39.5-36.2,60.7-81,70-127.6c-2.4,42.7-9.3,85.4-21.7,127.4
						c-28.4,96.1-97.3,189-208.8,231.4c-121.6,46.3-255.4,30.3-376.1,2.7c-117.3-26.8-229.6-70.2-330.5-125.3
						c-10.3-5.6-20.3-11.3-30.3-17.2c-29.9-20.4-60.2-40.4-92.2-58.4c-63.4-35.8-133.2-64.3-207.3-81.9
						c-88.8-21.1-183.5-26.1-276.3-11.1c-116.9,19-226,69.3-317.6,134.5c-12.2,8.7-24.1,17.7-35.7,26.9
						C1324.2,1234,1405.6,1178.4,1495,1135.1z M1850.2,1505.7c-40.1,9.4-79.5,23.9-114.7,43.4c-39.8,22-73.3,52.5-97.2,87.1
						c-23.7,34.2-37.8,72.9-38.6,111.7c-1.1,44.7,16.4,87.4,43.7,124.3c59.3,80.2,160.6,127.3,255.9,172.9
						c88.9,42.5,178.7,84.4,261.3,135c-28.2-13.8-57.5-26.1-86.7-37.7c-60.6-24.2-123-45-185-66.8
						c-126.1-44.2-259.3-96.6-336.2-195.3c-36.2-46.5-59.5-102-57.6-159.3c2-59.2,33.6-113.9,80.3-159.1
						c51.9-50.4,118.2-87.8,195.2-102.3c72.6-13.7,149.8-8.7,219.3,8c60.8,14.6,117.9,36.2,174,59.7c-27-8.4-54.7-15.7-82.9-21.3
						C2006.2,1490.9,1926.5,1487.9,1850.2,1505.7z M3078.2,1670.6c-106.7,62.8-235.5,84.4-360,69.9c-72.9-8.5-140.1-28.7-203-56.3
						c-10.6-5-21.3-10.1-31.7-15.2c-11.5-5.6-23-11.5-34.5-17.2c-95-51.2-180.4-117.1-261.4-180.3
						c-147.3-114.9-305.5-254.2-517.6-278c-137.8-15.5-281.7,17.8-393.7,92.8c79.7-57.5,169.5-105.2,269.1-131.8
						c96.3-25.6,198-29.6,294.6-12.6c80.5,14.1,156.9,41.4,225.9,77.5c56.4,29.5,107.4,65.4,159.1,100
						c69.1,46.1,137.8,92.4,210.2,135c75.5,44.4,154.8,85.5,240.2,116c76.2,27.2,159.1,46.2,244.1,42.6c84.6-3.6,163.2-34,225.6-84
						c54.3-43.5,97.3-96,123-154.9c22.4-51.1,32.1-104.7,33.3-158.1c2,51-1.2,102.1-9.7,152.3
						C3270.9,1488.8,3200.1,1598.8,3078.2,1670.6z M3254.5,978.4c17.3,47.4,30.2,96.9,38,147.1c8.3,66.4,7.1,134.1-11.7,199.8
						c-18.6,65.4-56.1,126.1-110.4,176.7c-57.6,53.6-129.3,92.6-213.4,105.2c-85.4,12.7-171.3-2.5-249.5-27.3
						c-87.1-27.6-167.6-67.4-244-110.8c-74.2-42.1-144.6-88.5-214.1-135.6c-17.9-12.1-35.7-24.5-53.4-36.7
						c95,53.7,198.8,96.3,308.5,126.5c118.1,32.6,248.1,55.9,373.4,22.8c57.2-15.1,108.8-42,150.1-79.3
						c39.8-36.1,67.9-79.3,87.6-125c22.6-52.3,33.2-107,38-161.6c2.5-28.4,2.8-56.7,1.5-84.8c0-0.9,0-1.8,0-2.7
						c-0.2-4.7-0.5-9.3-0.9-14c-1-13.9-2.4-27.7-4.2-41.4c-12.7-98.7-39.3-196.1-73.4-290.2c-2.4-6.5-4.9-13.2-7.5-19.7
						c6.3,10.9,12.6,21.8,19,32.6C3149,763.7,3213.5,866.8,3254.5,978.4z"/>
					<path display="none" fill="#FED7A5" d="M-617.3,755.6c4.4-0.2,8.7-0.6,13-1.1c-12.4,3.6-24.9,6.8-37.5,9.5
						c-0.1-0.1-0.3-0.2-0.5-0.3c-77.6,9-110.3,6.6-35.6,6.6c-39.7,5.9-111.8,24.7-2.4,8.5c76.1-11.2,147.2-37.5,215.7-70.2
						c83.4-33.4,171.2-56.9,264.2-57.3c72.4-0.3,148.9,13.4,224,53c48.8,25.8,98.4,63.7,138.6,116.9c20,26.5,35.2,56.5,49.4,88.4
						c26.2,59,45.1,121.3,55.9,183.8c21.7,125.1,11,243.7-6.7,353.8c-19.1,119.6-47,233.1-66.4,352.5
						c-15.9,98.6-25.3,200.9-19.9,308.8c1.5,57.1,8,115.4,21.3,174.3c0.1,0.6,0.3,1.2,0.4,1.8c21.3,111,56,221.9,101.6,327.5
						c53.3,123.5,120.4,239.7,195.6,344.2c24.9,34.6,50.7,68.1,77.5,100.1c1.6,2,3.1,4.2,4.6,6.2c0.4,0.5,0.8,0.7,1.2,0.7
						c22.8,27,46.2,52.9,70.2,77.5c62.1,65.4,129.6,119.4,198,161.8c113.6,70.3,230,107.6,345,152.2
						c89.7,34.8,182.4,73.9,269.2,138.8c80,70.8,99.2,91.3,20.4,15.8c17,13.7,36.3,15.2-49.2-42.1c-1.9-1.4-3.8-3-5.8-4.4
						c-0.4-0.3-0.6-0.1-0.8,0.1c-125.4-82.1-263.5-123.2-387.8-173c-17.5-7-34.9-14.4-52.4-22.1c19.9,7.4,40,13.8,60,18.9
						c81.2,20.4,161.3,23.6,239.8,25.1c88.8,1.7,159.4-2.3,81.6-5.6c-88.5-3.7-175.4,0.1-265.4-13.2
						c-76.4-11.4-152.7-39.9-229.2-82.4c-68.3-39.4-135.1-88.1-198.9-151.3c-123.6-122.3-226.2-289.3-269.1-478.7
						c-37.6-166.3-24.9-320.7,23-448.3c36.7-98,88.4-181,140.5-261.6c58.3-90,121.7-179,173.9-279.1c-6.2,17.7-12.3,35.5-18.2,53.5
						c-16.7,39.1-33.7,77.9-49.6,117.8c-32,80.8-62.1,164-84.1,253.5c-10.2,41.4-18.7,84.3-22.9,129.6
						c-5.3,56.7-4.9,116.9-0.9,177.3c8.2,120.5,34.9,246.9,92.7,360.3c15,29.4,31.7,57.5,49.6,84c0.1,0.3,0.2,0.6,0.5,1
						c0.6,0.8,1.2,1.6,1.8,2.4c44,64.3,95.8,119.4,150.4,161.4c88.4,67.9,184,100,272.9,102.5c46.4,1.4,91.2-5.7,133.6-19.3
						c46.8-15,10.8-7.2-36.5,3.6c-40.1,9.3-82.3,11.9-125.5,7.5c12.6-0.3,25.1-1.6,37.4-3.9c67-13.1,96.3-35.7,33.8-13.8
						c-34.7,12.2-72.3,16.3-111.2,11.7c-37.9-7.6-76.2-20.7-114.3-39.8c-60.3-30.2-119.2-75.8-172.2-133.9
						c58.1,50.6,123.7,78.4,184.5,84.2c101.6,9.6,190.6-43.1,260.6-115c76.9-79-111.3,99.4-214.3,109.3
						c-84,8.1-182.3-28.7-261.7-114.8c-11.1-13.8-21.8-28.2-32.1-43.2c-32.1-46.4-60.2-98.1-82.1-152.5
						c-24.5-60.8-40.9-124.9-51.4-187.9c-19.6-118.7-21.2-238.6-2.6-343.5c16.7-93.5,44.5-179.9,75.1-262.2
						c19.7-53.2,41.2-104.7,62.5-156.2c-9.9,31.7-19.1,64.2-27,97.5c-21.7,71.2-42,143.4-55.2,221c-13,76.7-15.4,160.9-2,247.7
						c14.6,95.4,50.6,188.5,104.6,267.3c48,70,106.8,131.9,169.7,161.6c60.5,28.5,120.3,24.6,170.8,0.6
						c110.5-52.5-49.4-90.2-152.8-137.8c-43.4-19.9-85.9-55.5-122.1-100.6c-35.3-44-63.1-96.5-84.7-152.4
						c-36.9-95.5-51.6-195.1-49.6-288.9c2-93.8,19.2-180.3,41.9-261.3c21.6-77.5,48.7-150.3,75.5-223.2
						c20-54.5,42.9-109.5,52.3-172.6c1.1-7.4,1.7-15.1,2-23c18.3-114.5,14.3-246.2-20-374.8c-40.2-150.3-120.6-292.4-220.8-391
						C480.9,521.1,349.2,481.6,225.5,468c-130-14.4-249.5,5.9-362.1,55.7c-112,49.5-218.4,122.4-330.9,177
						c-13.9,5.9-27.5,12.4-41.1,19.1c-30.1,13.1-60.8,24.7-92.2,33.9c-57.4,6.6-121.3-15-181-52.8
						C-852.8,655.5-750.3,762.5-617.3,755.6z M-398.3,675.1c0.2-0.1,0.4-0.1,0.5-0.4c0,0,0,0,0.1,0.1
						C-397.9,674.9-398.1,675-398.3,675.1z M192.1,1845.9c17.4-121.7,45.7-236.4,67.1-355.3c19.4-108.2,34.4-222.6,21.3-345.6
						c-6.4-59.7-19.8-120.3-40.6-179.2c-15.3-43.5-34.2-89.3-58.6-127.4c-33.3-51.8-76.8-91.3-120.1-120
						c-66.6-44.1-136.4-65.1-202.9-72.7c-43.2-4.9-85.4-4.4-126.7,0.5c53.6-10.7,108-18.8,163.6-21.7c35.5-1.9,71.7-1.5,108.3,2.1
						c32.5,4.2,65.2,11.7,98.6,27.4c35.4,16.7,70.3,41.7,101.2,76.1c50.1,55.5,83.4,128.5,106.7,204.8
						c25.4,82.9,43.6,168.5,48.5,251c4.9,81.2-6.1,154.1-24.1,222.9c-9,34.3-19.3,67.5-29.7,100.7c-10.8,34.7-21.1,69.5-32.7,103.3
						c-23,66.8-46.8,132.7-64.4,204.1c-13.1,53.4-23.5,110.5-29.2,170.1C180.9,1939.2,185.6,1892.2,192.1,1845.9z M331.7,2680.5
						c-52.4-108.8-94-224.3-120.7-341.2c0.2,0.6,0.4,1.3,0.6,1.9c0.1,0.1,0.3,0.2,0.2-0.1c-2.4-9.7-4.6-19.3-6.7-28.9
						c-3.7-17.9-7.1-36-10.1-53.9c-7.5-44.5-12.3-88-15-131c-0.7-15.3-1.2-30.7-1.2-45.8c0.1-81.5,9.9-158.9,25.9-231.7
						C221,1775,244,1705.7,268,1637.1c23.2-65.7,44.4-133.6,63.8-202.5c19-67.4,33.6-138.6,32-218.2c-1.6-79.9-16.6-163.9-39-245.5
						c-22.7-82.2-52.7-162.5-104-227.1c-43-54.1-93.2-87.2-143.9-106c45.9,9.7,92.1,24.8,138.3,46.7
						c105.8,50.1,212.4,149.1,270.1,292.7c62.9,156.5,60.6,318.4,44.6,462.3c-15.6,139.9-49.3,271-97,386.3
						c-4.9,11.7-9.9,23.1-15,34.4c-18.4,33.6-36.4,67.7-52.2,104.2c-31.1,72.2-53.8,153.5-64.4,241.8
						c-12.7,105.7-7.5,221.3,18.8,337.6c33.2,146.5,99.1,288.3,178.8,411.1c10.6,16.4,21.5,32.3,32.6,48
						C456.2,2905.9,388,2797.1,331.7,2680.5z M687.8,2302.3c14.4,50.7,34.3,101.3,59,147.6c28,52.3,64.1,98.3,103.7,133
						c39.1,34.4,81.9,57.8,123.5,65c47.8,8.3,91.5-6.5,127.8-34.2c79-60.3,115.6,33.6,18.8,112.7c-45.7,37.1-102.3,57.1-163.6,45.8
						c-63.4-11.7-125.2-59.1-178.6-123.4c-59.5-71.7-106.9-159-130.8-255.6c-22.6-91.3-25.9-185.3-15.7-268.1
						c8.9-72.3,25.5-139.1,44.4-204.4c-6,31.9-10.7,64.7-13.5,98.5C654.7,2108.5,660.3,2205.8,687.8,2302.3z M727.5,819.8
						c78.8,140.9,116.1,302.5,114.5,453.1c-1,88.2-15.1,167.6-37.5,240.5c-4.1,12.2-8.4,24.5-12.7,36.5
						c-4.8,13.3-9.6,26.4-14.4,39.7c-44.1,108.7-104.9,203.2-163.4,292.8c-106.3,163-237.5,335.4-239.4,592.3
						c-1.2,166.9,50.3,348.8,142.8,498.2c-70.3-106.9-131.1-224.7-170.5-351.2c-38.1-122.3-53.5-247.8-46.2-363.9
						c6.1-96.6,26.9-186.2,57.6-265.3c25.2-64.7,58-121.6,89.1-179.7c41.6-77.7,83.4-155,120.8-237.1c39-85.8,74.1-176.7,97.2-276.8
						c20.5-89.4,31.7-188.2,18.4-293.2C670.5,901.4,629.2,800.1,569,715.6c-52.5-73.7-113.2-134.5-178.9-175.4
						c-56.9-35.5-115.2-55.9-172.4-65.6c54.2,5.6,109.1,17.4,163.6,35.9C512.2,554.6,637.4,658.7,727.5,819.8z M-30.6,494.9
						c48.7-13.9,100-21.8,152.7-23.7c69.9,0.3,142.3,12.4,214.4,45.5c71.8,33.1,140.7,88.7,200.8,163.3
						c63.6,79.1,113.1,173.4,135.9,278.6c23.1,106.9,16.3,209.9-1.4,302.2c-19.7,102.8-53.3,195.4-91.2,282.4
						c-36.7,84.5-78.4,163.7-120.9,241.9c-10.9,20.1-22.1,40-33.2,59.8c46.7-108.3,80.7-229.2,100.8-359.1
						c21.7-140,32.1-296-17.2-455.1c-22.4-72.6-56.8-140.4-101.3-196.7c-43-54.6-92.1-95.7-143.1-127.1
						c-58.3-36-117.9-57.6-176.7-72c-30.6-7.5-60.7-12.3-90.7-15.2c-1-0.1-1.9-0.3-2.9-0.4c-5-0.4-9.9-0.9-14.8-1
						c-14.6-0.9-29.2-1.4-43.7-1.4c-103.8,0.2-204.9,17.5-301.5,44.7c-6.8,1.9-13.5,4-20.1,6.1c10.9-6,21.9-12.1,32.7-18.2
						C-248,590.7-145.1,527.7-30.6,494.9z"/>
				</g>
			</g>
		</g>
		<g display="none">
			<path display="inline" fill="#E2B67A" d="M1127.7,2106.3c-8.2,0-8.2,12.8,0,12.8C1136,2119.1,1136,2106.3,1127.7,2106.3z"/>
			<path display="inline" fill="#E2B67A" d="M1255.7,2057.5c-0.3-1-0.8-1.8-1.6-2.5c-0.3-0.2-0.5-0.5-0.8-0.7
				c-0.9-0.8-1.8-1.5-3.1-1.8c-0.5-0.1-1.1-0.2-1.6-0.2s-1.1,0.1-1.6,0.2c-1.2,0.3-2.2,1-3.1,1.8c-0.3,0.2-0.5,0.5-0.8,0.7
				c-0.4,0.5-0.8,1-1.2,1.6c-0.3,0.6-0.5,1.2-0.8,1.8c-0.3,1-0.4,2-0.1,3.1c0,0.7,0.2,1.3,0.5,1.9c0.2,0.7,0.5,1.2,1,1.7
				c0.3,0.6,0.8,1,1.4,1.4c0.5,0.5,1,0.8,1.7,1c0.9,0.5,1.9,0.7,3,0.7c0.7-0.1,1.4-0.2,2-0.3c0.6-0.3,1.2-0.5,1.8-0.8
				c0.5-0.4,1-0.8,1.6-1.2c0.4-0.5,0.8-1,1.2-1.6c0.3-0.6,0.5-1.2,0.8-1.8c0.3-1,0.4-2,0.1-3.1
				C1256.2,2058.8,1256,2058.1,1255.7,2057.5z"/>
			<path display="inline" fill="#E2B67A" d="M1197.8,1945.3c-0.8,0-1.4,0-2.1,0c-1.5-0.2-2.7,0.3-3.6,1.2c-1.3,1-1.8,2.5-1.7,4
				c-0.1,1.6,0.4,3.1,1.7,4.1c0.9,0.9,2.2,1.4,3.6,1.2c0.7,0.1,1.3,0.1,2.1,0C1204.6,1955.5,1204.6,1945.7,1197.8,1945.3z"/>
			<path display="inline" fill="#E2B67A" d="M1329.7,1894c-9.1,0-9.1,14.2,0,14.2C1338.9,1908.2,1338.9,1894,1329.7,1894z"/>
			<path display="inline" fill="#E2B67A" d="M1074.2,1992.3c-4.7,0-4.7,7.3,0,7.3C1078.8,1999.5,1078.8,1992.3,1074.2,1992.3z"/>
			<path display="inline" fill="#E2B67A" d="M916.7,2039.7c0-0.1-0.1-0.2-0.1-0.3c0-0.1,0-0.1,0-0.2c0,0,0,0,0-0.1
				c-0.1-0.3-0.3-0.7-0.4-1c-0.3-0.4-0.5-0.8-0.8-1.2c-0.1-0.2-0.3-0.4-0.4-0.6c-0.1-0.2-0.3-0.4-0.4-0.6c-0.2-0.3-0.3-0.4-0.5-0.6
				c-0.1-0.1-0.2-0.2-0.3-0.2c-0.4-0.3-0.8-0.7-1.2-1c-0.4-0.5-0.9-0.8-1.5-1c-0.6-0.3-1.1-0.4-1.8-0.4c-0.6,0-1.2,0.1-1.8,0.4
				c-0.6,0.2-1.1,0.5-1.5,1c-0.2,0.3-0.5,0.6-0.7,0.9c-0.4,0.7-0.6,1.5-0.6,2.3c0.1,0.4,0.1,0.8,0.2,1.2c0.2,0.8,0.6,1.5,1.2,2
				c0.3,0.4,0.6,0.8,1,1.1c0.1,0.1,0.2,0.2,0.2,0.3c0,0.1,0.1,0.1,0.1,0.2c0.3,0.3,0.6,0.5,1,0.8c0,0,0,0,0.1,0
				c0.2,0.1,0.4,0.3,0.6,0.4c0.4,0.3,0.8,0.5,1.2,0.8c0.2,0.1,0.4,0.2,0.6,0.2c0.2,0.1,0.4,0.2,0.6,0.2c0.1,0,0.1,0,0.2,0
				c0.1,0,0.2,0.1,0.3,0.1c0.2,0.1,0.4,0.1,0.7,0.2c1.3,0.3,2.6,0,3.5-0.9s1.3-2.3,0.9-3.5C916.8,2040.1,916.8,2039.9,916.7,2039.7z
				"/>
			<path display="inline" fill="#E2B67A" d="M1387.4,1619.7c-6.8,0-6.8,10.5,0,10.5C1394.2,1630.2,1394.2,1619.7,1387.4,1619.7z"/>
			<path display="inline" fill="#E2B67A" d="M756.8,1908.6c-6.3,0-6.3,9.8,0,9.8S763.1,1908.6,756.8,1908.6z"/>
			<path display="inline" fill="#E2B67A" d="M1279.2,1717.9c-0.3-0.5-0.7-1-1.3-1.3c-0.6-0.3-1.2-0.5-1.8-0.5
				c-0.6,0-1.2,0.2-1.8,0.5c-0.5,0.3-1,0.7-1.3,1.3c-0.5,1.1-1,2.1-1.6,3.2c-0.5,0.8-0.7,1.7-0.7,2.7s0.2,1.9,0.7,2.7
				c1,1.6,2.8,2.7,4.7,2.7c1.9,0,3.7-1,4.7-2.7c0.5-0.8,0.7-1.7,0.7-2.7s-0.2-1.9-0.7-2.7C1280.3,1720.1,1279.7,1719,1279.2,1717.9z
				"/>
			<path display="inline" fill="#E2B67A" d="M982.2,1906.5c-0.3-0.2-0.5-0.4-0.8-0.6c-0.6-0.4-1.3-0.5-2-0.5c-0.7,0.1-1.3,0.2-2,0.2
				c-0.3,0-0.7,0.1-1,0.1c-0.7,0.1-1.3,0.1-1.9,0.5c-0.3,0.2-0.6,0.4-0.8,0.6c-0.1,0.1-0.2,0.2-0.3,0.3c-0.3,0.3-0.5,0.6-0.7,1
				s-0.3,0.8-0.3,1.2c0,0.8,0.3,1.6,0.9,2.2c0.1,0.1,0.2,0.2,0.2,0.2c0.3,0.3,0.4,0.4,0.8,0.7c0.6,0.4,1.2,0.4,1.9,0.5
				c0.3,0,0.7,0.1,1,0.1c0.7,0.1,1.3,0.2,2,0.2c0.5,0,1.1-0.1,1.5-0.3c0.5-0.2,0.9-0.4,1.3-0.8c0.4-0.4,0.7-0.8,0.8-1.3
				c0.2-0.5,0.4-1,0.3-1.5c0-0.4-0.1-0.7-0.1-1.1C983,1907.6,982.7,1907,982.2,1906.5z"/>
			<path display="inline" fill="#E2B67A" d="M2174.8,1733.8c-7.8,0-7.9,12.2,0,12.2C2182.6,1746,2182.6,1733.8,2174.8,1733.8z"/>
			<path display="inline" fill="#E2B67A" d="M2319,1649c-10.9,0-10.9,16.9,0,16.9S2329.9,1649,2319,1649z"/>
			<path display="inline" fill="#E2B67A" d="M2187.9,1905.5c-0.4-0.3-0.7-0.6-1.1-0.9c-0.8-0.5-1.8-0.7-2.8-0.7
				c-1-0.1-2-0.1-3.1-0.2c-0.8,0-1.5,0.1-2.2,0.5c-0.7,0.2-1.3,0.6-1.8,1.2c-0.5,0.5-0.9,1.1-1.2,1.8c-0.4,0.7-0.5,1.4-0.5,2.2
				c0.1,0.5,0.1,1,0.2,1.5c0.3,1,0.7,1.8,1.4,2.5c0.4,0.3,0.8,0.6,1.1,0.9c0.9,0.5,1.8,0.8,2.8,0.8c1-0.1,2-0.1,3.1-0.2
				c0.8,0,1.5-0.1,2.1-0.5c0.7-0.2,1.3-0.6,1.8-1.1s0.9-1.1,1.1-1.8c0.3-0.6,0.5-1.4,0.5-2.1c-0.1-0.5-0.1-1-0.2-1.4
				C2189,1907,2188.5,1906.2,2187.9,1905.5z"/>
			<path display="inline" fill="#E2B67A" d="M2473,1709.1c-0.5-0.3-1.1-0.6-1.6-0.8c-0.6-0.3-1.1-0.5-1.7-0.7
				c-0.3-0.1-0.7-0.1-1-0.2c-0.7-0.1-1.4-0.3-2-0.4c-1.1-0.2-2.1-0.2-3.2-0.3c-1.2-0.1-2.6,0.6-3.4,1.4c-0.8,0.8-1.5,2.2-1.4,3.4
				c0.1,1.2,0.5,2.5,1.4,3.4c0.9,0.8,2.1,1.5,3.4,1.4c1.1-0.1,2.2-0.1,3.2-0.3c0.7-0.1,1.4-0.3,2-0.4c0.3-0.1,0.6-0.1,0.9-0.2
				c0.6-0.1,1.2-0.4,1.8-0.7c0.5-0.3,1.1-0.6,1.6-0.8C2474.8,1713,2474.8,1710,2473,1709.1z"/>
			<path display="inline" fill="#E2B67A" d="M2373.8,1848c-0.3-0.2-0.5-0.3-0.8-0.5c-0.6-0.4-1.3-0.6-2-0.9
				c-0.6-0.2-1.3-0.4-1.9-0.6c-1-0.3-2.1-0.3-3.1,0s-1.9,0.8-2.6,1.5c-0.3,0.4-0.6,0.8-0.9,1.2c-0.5,0.9-0.8,1.9-0.8,3
				c0,0.8,0.1,1.6,0.5,2.3c0.2,0.7,0.6,1.4,1.2,1.9c0.7,0.7,1.6,1.2,2.6,1.5s2.1,0.3,3.1,0c0.6-0.2,1.3-0.4,1.9-0.6
				c0.7-0.2,1.4-0.5,2-0.9c0.3-0.2,0.5-0.3,0.8-0.5c0.6-0.4,1.1-0.9,1.5-1.5c0.4-0.7,0.6-1.4,0.6-2.1c0-0.8-0.2-1.5-0.6-2.1
				C2375,1848.9,2374.5,1848.4,2373.8,1848z"/>
			<path display="inline" fill="#E2B67A" d="M2591.1,1755c-7.6,0-7.6,11.8,0,11.8C2598.7,1766.9,2598.7,1755,2591.1,1755z"/>
			<path display="inline" fill="#E2B67A" d="M2434,2118.4c-8,0-8,12.4,0,12.4C2442,2130.8,2442,2118.4,2434,2118.4z"/>
			<path display="inline" fill="#E2B67A" d="M2269.6,1793.9c-0.1-0.4-0.1-0.8-0.2-1.2c-0.2-0.8-0.6-1.4-1.2-2
				c-0.7-0.6-1.4-1.2-2.4-1.4c-0.2,0-0.4-0.1-0.6-0.1c-0.4-0.1-0.8-0.2-1.1-0.3c-0.9-0.2-1.8-0.2-2.8,0c-0.9,0.2-1.7,0.7-2.3,1.3
				c-0.3,0.4-0.5,0.7-0.8,1.1c-0.5,0.8-0.7,1.7-0.7,2.6c0,0.7,0.1,1.4,0.4,2c0.2,0.6,0.6,1.2,1.1,1.7c0.7,0.6,1.4,1.1,2.3,1.3
				c0.9,0.2,1.8,0.2,2.8,0c0.4-0.1,0.8-0.2,1.1-0.3c0.2,0,0.4-0.1,0.6-0.1h0.1c0.4-0.2,0.8-0.3,1.1-0.5c0.2-0.1,0.4-0.3,0.5-0.4
				c0.2-0.1,0.4-0.3,0.5-0.4s0.1-0.1,0.2-0.2c0.4-0.4,0.8-0.9,0.9-1.5C2269.4,1795.1,2269.6,1794.6,2269.6,1793.9z"/>
			<path display="inline" fill="#E2B67A" d="M2278.3,1865.3c-0.1-0.1-0.2-0.2-0.3-0.3c-0.2-0.2-0.4-0.4-0.6-0.6
				c-0.4-0.3-0.7-0.6-1.1-0.8c-0.4-0.2-0.8-0.4-1.3-0.5c-0.7-0.2-1.4-0.3-2.1-0.1c-0.5,0-0.9,0.1-1.3,0.4c-0.4,0.1-0.8,0.4-1.2,0.7
				c-0.4,0.2-0.7,0.5-0.9,0.9c-0.3,0.3-0.6,0.7-0.7,1.2c-0.3,0.6-0.5,1.3-0.5,2c0.1,0.5,0.1,0.9,0.2,1.4c0.2,0.4,0.4,0.8,0.5,1.3
				c0.3,0.4,0.5,0.7,0.8,1.1c0.4,0.3,0.7,0.5,1.1,0.8c0.4,0.2,0.8,0.4,1.3,0.5c0.7,0.2,1.4,0.3,2.1,0.1c0.5,0,0.9-0.1,1.3-0.4
				c0.7-0.2,1.2-0.6,1.7-1.1c0.6-0.6,1.2-1.2,1.7-1.9c0.3-0.6,0.5-1.2,0.5-1.8c0-0.7-0.2-1.3-0.5-1.8
				C2278.9,1865.9,2278.6,1865.6,2278.3,1865.3z"/>
			<path display="inline" fill="#E2B67A" d="M2342.5,1744.4c-0.3-0.2-0.5-0.4-0.8-0.6c-0.6-0.4-1.3-0.5-2-0.5
				c-0.5,0-1.1,0.1-1.5,0.3c-0.5,0.2-0.9,0.4-1.3,0.8c-1,1-1.4,2.5-1,3.9c0.1,0.4,0.2,0.8,0.3,1.2c0,0.2,0.1,0.4,0.1,0.6
				s0.1,0.3,0.2,0.5c0.1,0.4,0.4,0.8,0.7,1.1c0.2,0.2,0.5,0.4,0.8,0.6l0.1,0.1c0.5,0.3,1,0.4,1.6,0.4s1.1-0.1,1.6-0.4l0.1-0.1
				c0.3-0.2,0.5-0.4,0.8-0.6c0.2-0.2,0.4-0.5,0.6-0.7c0.2-0.3,0.3-0.6,0.4-0.9c0.1-0.2,0.1-0.4,0.1-0.6c0.1-0.4,0.2-0.8,0.3-1.2
				c0.2-0.7,0.2-1.4,0-2.1C2343.3,1745.5,2343,1744.9,2342.5,1744.4z"/>
			<path display="inline" fill="#E2B67A" d="M2242.5,1682.7c-0.3-0.1-0.8,0-1.1,0.1c-1,0.7-2.1,1.4-3.1,2.1
				c-0.3,0.2-0.6,0.4-0.8,0.8c-0.2,0.3-0.3,0.7-0.3,1.1c0,0.6,0.2,1.1,0.6,1.5c0.4,0.4,1,0.6,1.5,0.6c0.4,0,0.7-0.1,1.1-0.3
				c0.3-0.2,0.6-0.4,0.8-0.8c0.7-1,1.4-2.1,2.1-3.1c0-0.1,0.1-0.2,0.1-0.3c0.1-0.2,0.1-0.4,0-0.6c0-0.3-0.2-0.6-0.4-0.8
				C2242.9,1682.8,2242.7,1682.7,2242.5,1682.7z"/>
			<path display="inline" fill="#E2B67A" d="M2174.8,1815.7c-3.8,0-3.8,5.9,0,5.9C2178.5,1821.6,2178.5,1815.7,2174.8,1815.7z"/>
			<path display="inline" fill="#E2B67A" d="M2413.9,1783.1c0.2,0,0.2-0.4,0-0.4C2413.6,1782.8,2413.6,1783.1,2413.9,1783.1z"/>
			<path display="inline" fill="#E2B67A" d="M2408.5,1774.5c-0.3-0.2-0.6-0.4-0.8-0.6c-0.6-0.4-1.3-0.6-2.1-0.6
				c-0.4,0-0.9,0.1-1.3,0.1c-0.1,0-0.2,0-0.3,0c-0.2,0-0.4,0.1-0.7,0.1c-0.5,0-1,0.2-1.5,0.5c-0.3,0.2-0.6,0.4-0.8,0.6
				c-0.3,0.3-0.5,0.7-0.8,1c-0.3,0.5-0.5,1.1-0.5,1.7s0.2,1.2,0.5,1.7l0.1,0.1c0.2,0.3,0.4,0.6,0.7,0.9c0.2,0.2,0.5,0.5,0.8,0.6
				s0.6,0.3,0.9,0.4c0.3,0.1,0.8,0.1,1.2,0.2c0.1,0,0.2,0,0.3,0c0.4,0,0.9,0.1,1.3,0.1c0.6,0,1.1-0.1,1.6-0.4
				c0.5-0.2,0.9-0.4,1.3-0.8c0.4-0.4,0.7-0.8,0.8-1.3c0.3-0.5,0.4-1,0.4-1.6c0-0.4-0.1-0.7-0.1-1.1
				C2409.4,1775.7,2409,1775.1,2408.5,1774.5z"/>
			<path display="inline" fill="#E2B67A" d="M2383.6,1684.2c0.2,0,0.2-0.4,0-0.4C2383.4,1683.8,2383.4,1684.2,2383.6,1684.2z"/>
			<path display="inline" fill="#E2B67A" d="M2298.1,1949.5c-0.4-0.3-0.8-0.6-1.2-0.9c-0.3-0.3-0.7-0.5-1-0.8
				c-0.3-0.5-0.6-1-0.9-1.4c-0.5-0.8-1.2-1.5-2-2c-0.9-0.5-1.8-0.8-2.8-0.8c-2,0-3.8,1.1-4.8,2.8c-1,1.7-1,3.9,0,5.6
				c0.5,0.8,1.2,1.5,2,2c0.9,0.5,1.8,0.8,2.8,0.8c0.5,0,0.9-0.1,1.4-0.1c0.3,0,0.6,0,0.9,0c0.8,0.2,1.5,0.4,2.3,0.6
				c0.3,0,0.6,0.1,0.9,0.1c0.5,0,0.9-0.1,1.3-0.3c0.7-0.3,1.3-0.7,1.6-1.4c0.3-0.5,0.4-1.1,0.5-1.7c0-0.5-0.1-0.9-0.3-1.3
				C2298.7,1950.2,2298.4,1949.9,2298.1,1949.5z"/>
			<path display="inline" fill="#E2B67A" d="M2386.4,1924.9c-1.2,0-1.2,1.9,0,1.9C2387.6,1926.8,2387.6,1924.9,2386.4,1924.9z"/>
			<path display="inline" fill="#E2B67A" d="M798.5,2023c-0.4-0.2-0.8-0.3-1.3-0.4c-0.4-0.1-0.9-0.2-1.3-0.2
				c-0.9-0.2-1.7-0.3-2.6-0.5c-0.5-0.1-1.1-0.1-1.6,0s-1,0.4-1.3,0.8c-0.5,0.6-0.9,1.3-0.9,2.2c0,0.8,0.3,1.6,0.9,2.2
				c0.4,0.4,0.8,0.6,1.3,0.8c0.5,0.1,1.1,0.1,1.6,0c0.9-0.2,1.7-0.3,2.6-0.5c0.4-0.1,0.9-0.2,1.3-0.2c0.5-0.1,0.9-0.2,1.3-0.4
				c0.4-0.1,0.7-0.3,1-0.7c0.2-0.3,0.4-0.7,0.4-1.1c0-0.3-0.1-0.7-0.3-0.9C799.4,2023.4,798.9,2023.1,798.5,2023z"/>
			<path display="inline" fill="#E2B67A" d="M973.9,2109.1c-4.7,0-4.7,7.3,0,7.3C978.5,2116.3,978.5,2109.1,973.9,2109.1z"/>
			<path display="inline" fill="#E2B67A" d="M861.2,1923.3c0.2,0,0.2-0.4,0-0.4C860.9,1922.9,860.9,1923.3,861.2,1923.3z"/>
			<path display="inline" fill="#E2B67A" d="M873.6,1903.5c-0.1-0.3-0.3-0.6-0.5-0.8c-0.2-0.2-0.6-0.3-0.9-0.3
				c-0.3,0-0.5,0.1-0.7,0.2c-0.3,0.2-0.6,0.5-0.7,0.9c-0.3,0.8-0.5,1.7-0.8,2.5c-0.2,0.7,0,1.7,0.6,2.2c0.4,0.4,1,0.7,1.6,0.7
				s1.2-0.3,1.6-0.7c0.6-0.6,0.8-1.5,0.6-2.2C874.1,1905.2,873.9,1904.3,873.6,1903.5z"/>
			<path display="inline" fill="#E2B67A" d="M1134.4,1866.6c-0.3-0.3-0.7-0.5-1.2-0.7c-0.2-0.1-0.5-0.1-0.7-0.2
				c-0.4-0.1-0.9-0.2-1.3-0.3c-1-0.2-2.1,0-2.7,0.7c-0.5,0.6-0.8,1.2-0.8,2c0,0.4,0.1,0.7,0.2,1.1c0.1,0.3,0.3,0.7,0.6,0.9
				c0.7,0.7,1.8,1,2.7,0.7c0.4-0.1,0.9-0.2,1.3-0.3c0.2-0.1,0.4-0.1,0.7-0.2c0.4-0.1,0.9-0.3,1.2-0.7c0.1-0.1,0.1-0.1,0.2-0.2
				c0.7-0.7,0.7-2,0-2.7C1134.5,1866.7,1134.5,1866.6,1134.4,1866.6z"/>
			<path display="inline" fill="#E2B67A" d="M1257.7,1840.6c0-0.5-0.1-0.9-0.3-1.4c-0.1-0.4-0.4-0.8-0.7-1.1
				c-0.2-0.2-0.5-0.4-0.7-0.5c-0.5-0.3-1.1-0.5-1.8-0.5c-0.2,0-0.5,0-0.7,0c-0.1,0-0.1,0-0.2,0c-0.2,0-0.4,0-0.7,0.1
				c-0.6,0-1.2,0.2-1.7,0.5l0,0c-0.3,0.2-0.6,0.5-0.9,0.7c-0.3,0.3-0.5,0.6-0.7,0.9v0.1c0,0.1-0.1,0.2-0.1,0.2
				c-0.3,0.6-0.6,1.2-0.9,1.8c-0.1,0.3-0.2,0.6-0.4,0.9c-0.2,0.5-0.2,1-0.1,1.5c0,0.3,0.1,0.6,0.3,0.9c0.1,0.5,0.4,0.9,0.8,1.2
				c0.2,0.2,0.5,0.4,0.7,0.6c0.3,0.1,0.6,0.2,0.9,0.4c0.5,0.2,1,0.2,1.5,0.1c0.5,0,0.9-0.2,1.4-0.4c0.6-0.3,1.2-0.6,1.8-0.9
				c0.1,0,0.1-0.1,0.2-0.1h0.1c0.2-0.1,0.4-0.2,0.5-0.4c0.3-0.2,0.6-0.5,0.8-0.8c0.1-0.2,0.3-0.3,0.4-0.5c0.2-0.4,0.3-0.7,0.5-1.1
				c0.1-0.4,0.1-0.8,0.2-1.2l0,0c0-0.1,0-0.1,0-0.2C1257.7,1841.1,1257.7,1840.9,1257.7,1840.6z"/>
			<path display="inline" fill="#E2B67A" d="M1468.5,1508.9c-0.2,0-0.2,0.4,0,0.4C1468.8,1509.2,1468.8,1508.9,1468.5,1508.9z"/>
			<path display="inline" fill="#E2B67A" d="M1473,1513L1473,1513L1473,1513L1473,1513L1473,1513z"/>
			<path display="inline" fill="#E2B67A" d="M1475.1,1510.1c-0.2-0.3-0.4-0.6-0.7-0.7c-0.3-0.2-0.6-0.3-0.9-0.4s-0.7-0.2-1.1-0.2
				c-0.2,0-0.4,0-0.6,0c-0.7,0.1-1.1,0.2-1.7,0.5c-0.2,0.1-0.4,0.2-0.5,0.3c-0.3,0.2-0.7,0.5-0.9,0.8c-0.3,0.3-0.5,0.6-0.7,1
				s-0.4,0.9-0.4,1.4s0.1,1,0.4,1.4c0.4,0.6,0.9,1.1,1.6,1.3c0.7,0.2,1.5,0.1,2.1-0.3c0.4-0.2,0.7-0.6,1-1c0.2-0.3,0.2-0.6,0.2-0.9
				c0-0.1,0.1-0.1,0.1-0.1c0,0.1,0,0.1,0,0.2c0-0.1,0-0.1,0.1-0.2s0.2-0.2,0.3-0.3c-0.1,0.1-0.1,0.1-0.2,0.2l0,0
				c0.1,0,0.1-0.1,0.2-0.1c0.1-0.1,0.2-0.1,0.3-0.2c0.1,0,0.2-0.1,0.3-0.1c-0.1,0-0.2,0-0.2,0l0,0c0.2,0,0.4-0.1,0.6-0.2
				c0.3-0.1,0.7-0.3,0.8-0.6c0.2-0.3,0.3-0.7,0.1-1.1C1475.2,1510.5,1475.2,1510.3,1475.1,1510.1z M1473.1,1512.8c0,0.1,0,0.1,0,0.2
				l0,0l0,0l0,0l0,0l0,0l0,0l0,0l-0.1,0.1l0.1-0.1C1473,1512.9,1473.1,1512.8,1473.1,1512.8z M1473,1513.1L1473,1513.1L1473,1513.1
				L1473,1513.1z M1473.6,1512.6L1473.6,1512.6L1473.6,1512.6L1473.6,1512.6z"/>
			<path display="inline" fill="#E2B67A" d="M1474.6,1512.3c-0.1,0-0.1,0.1-0.2,0.1C1474.4,1512.4,1474.4,1512.4,1474.6,1512.3
				C1474.5,1512.3,1474.5,1512.3,1474.6,1512.3z"/>
			<path display="inline" fill="#E2B67A" d="M1474.4,1512.4C1474.3,1512.4,1474.3,1512.4,1474.4,1512.4
				C1474.3,1512.4,1474.3,1512.4,1474.4,1512.4C1474.3,1512.4,1474.3,1512.4,1474.4,1512.4z"/>
			<path display="inline" fill="#E2B67A" d="M1474.3,1512.4L1474.3,1512.4C1474.3,1512.4,1474.2,1512.4,1474.3,1512.4
				C1474.2,1512.4,1474.3,1512.4,1474.3,1512.4z"/>
			<path display="inline" fill="#E2B67A" d="M1389.5,1766.7c-0.2-0.2-0.5-0.4-0.7-0.5c-0.5-0.3-1.1-0.5-1.8-0.5
				c-0.5,0-0.9,0.1-1.4,0.3c-0.4,0.1-0.8,0.4-1.1,0.7c-0.3,0.3-0.6,0.7-0.7,1.1c-0.2,0.4-0.3,0.9-0.3,1.4c0,0.3,0.1,0.6,0.1,0.9
				c0.2,0.6,0.5,1.1,0.9,1.6c0.2,0.2,0.5,0.4,0.7,0.6c0.5,0.3,1.1,0.5,1.8,0.5c0.5,0,0.9-0.1,1.4-0.3c0.4-0.1,0.8-0.4,1.1-0.7
				c0.3-0.3,0.6-0.7,0.7-1.1c0.2-0.4,0.3-0.9,0.3-1.4c0-0.3-0.1-0.6-0.1-0.9C1390.2,1767.7,1389.9,1767.2,1389.5,1766.7z"/>
			<path display="inline" fill="#E2B67A" d="M617.6,1882.2c-0.2-0.3-0.4-0.5-0.7-0.7c-0.2-0.2-0.5-0.4-0.8-0.5
				c-0.3-0.2-0.6-0.3-0.9-0.3c-0.5-0.1-1-0.1-1.5,0.1c-0.4,0.1-0.8,0.3-1.1,0.4c-0.1,0-0.2,0.1-0.3,0.1c-0.4,0.1-0.7,0.3-1.1,0.4
				c-0.2,0.1-0.4,0.2-0.5,0.4c-0.2,0.2-0.4,0.3-0.5,0.4c-0.2,0.2-0.3,0.3-0.5,0.5s-0.3,0.3-0.5,0.5c-0.1,0.1-0.2,0.2-0.2,0.2
				l-0.1,0.1c0,0,0,0,0,0.1c-0.2,0.3-0.5,0.6-0.7,0.9c-0.4,0.6-0.5,1.4-0.7,2.2c-0.3,1.3,0,2.7,0.9,3.6c0.5,0.5,1,0.8,1.6,0.9
				c0.7,0.2,1.3,0.2,2,0c0.4-0.1,0.8-0.2,1.1-0.3c0.8-0.2,1-0.4,1.6-0.8c0.2-0.2,0.4-0.3,0.5-0.4s0.2-0.1,0.2-0.2
				c0.2-0.2,0.3-0.3,0.5-0.5c0.2-0.1,0.3-0.3,0.5-0.4c0.4-0.4,0.8-0.9,1-1.4c0.2-0.4,0.3-0.8,0.5-1.2c0.1-0.3,0.3-0.6,0.4-0.9
				c0-0.3,0.1-0.7,0.1-1s-0.1-0.7-0.1-1C618.1,1883,617.9,1882.5,617.6,1882.2z"/>
			<path display="inline" fill="#E2B67A" d="M1010.5,2011.4c-0.1-0.4-0.3-0.8-0.5-1.1c-0.5-1-2.2-1-2.7,0c-0.2,0.4-0.4,0.7-0.5,1.1
				c-0.1,0.3-0.1,0.6-0.2,0.9c-0.1,0.6-0.3,1.2-0.4,1.8c-0.2,0.9,0,1.9,0.7,2.5c0.5,0.5,1.1,0.8,1.8,0.8s1.4-0.3,1.8-0.8
				c0.7-0.7,0.9-1.6,0.7-2.5c-0.1-0.6-0.3-1.2-0.4-1.8C1010.7,2012,1010.6,2011.7,1010.5,2011.4z"/>
			<path display="inline" fill="#E2B67A" d="M2505.8,2177v-0.1c0-0.5-0.1-1.1-0.3-1.5c0-0.2-0.1-0.4-0.2-0.5
				c-0.2-0.3-0.4-0.6-0.6-0.8c0,0,0-0.1-0.1-0.1c-0.1-0.1-0.2-0.3-0.3-0.4c-0.3-0.3-0.7-0.6-1.1-0.7c-0.4-0.2-0.8-0.3-1.3-0.3
				c-0.3,0-0.6,0.1-0.9,0.1c-0.6,0.2-1.1,0.4-1.5,0.9c-0.1,0.1-0.2,0.3-0.3,0.4c-0.3,0.3-0.5,0.6-0.7,1c-0.4,0.7-0.5,1.3-0.6,2.1
				c0,0.1,0,0.1,0,0.2c0,0.5-0.1,1-0.1,1.5c0,0.6,0.1,1.1,0.4,1.6c0.2,0.5,0.4,0.9,0.8,1.3c0.4,0.4,0.8,0.7,1.3,0.8
				c0.5,0.3,1,0.4,1.6,0.4c0.4,0,0.7-0.1,1.1-0.1c0.7-0.2,1.3-0.5,1.8-1.1c0.2-0.3,0.4-0.6,0.6-0.8c0.4-0.6,0.6-1.3,0.6-2.1
				c0-0.5-0.1-1-0.1-1.5C2505.8,2177.2,2505.8,2177.1,2505.8,2177z"/>
			<path display="inline" fill="#E2B67A" d="M2323,2053.4v-0.1c0-0.5-0.1-1.1-0.3-1.5c0-0.2-0.1-0.4-0.2-0.5
				c-0.2-0.3-0.4-0.6-0.6-0.8c0,0,0-0.1-0.1-0.1c-0.1-0.1-0.2-0.3-0.3-0.4c-0.3-0.3-0.7-0.6-1.1-0.7c-0.4-0.2-0.8-0.3-1.3-0.3
				c-0.3,0-0.6,0.1-0.9,0.1c-0.6,0.2-1.1,0.4-1.5,0.9c-0.1,0.1-0.2,0.3-0.3,0.4c-0.3,0.3-0.5,0.6-0.7,1c-0.4,0.7-0.5,1.3-0.6,2.1
				c0,0.1,0,0.1,0,0.2c0,0.5-0.1,1-0.1,1.5c0,0.6,0.1,1.1,0.4,1.6c0.2,0.5,0.4,0.9,0.8,1.3c0.4,0.4,0.8,0.7,1.3,0.8
				c0.5,0.3,1,0.4,1.6,0.4c0.4,0,0.7-0.1,1.1-0.1c0.7-0.2,1.3-0.5,1.8-1.1c0.2-0.3,0.4-0.6,0.6-0.8c0.4-0.6,0.6-1.3,0.6-2.1
				c0-0.5-0.1-1-0.1-1.5C2323,2053.5,2323,2053.4,2323,2053.4z"/>
			<path display="inline" fill="#E2B67A" d="M3301.4,1266.4c-0.1-0.1-0.2-0.2-0.3-0.4c-0.2-0.2-0.3-0.3-0.6-0.5s-0.4-0.3-0.6-0.4
				c0,0-0.1,0-0.1-0.1c-0.4-0.2-0.7-0.4-1.1-0.5c-0.8-0.5-1.7-0.7-2.7-0.7s-1.9,0.2-2.7,0.7c-1.6,0.9-2.6,2.7-2.6,4.6s1,3.7,2.6,4.6
				c0.8,0.5,1.7,0.7,2.7,0.7s1.9-0.2,2.7-0.7c0.4-0.2,0.7-0.4,1.1-0.5c0.5-0.2,1-0.6,1.3-1c0.1-0.1,0.2-0.2,0.3-0.4
				c0.4-0.3,0.6-0.8,0.8-1.2c0.2-0.5,0.3-0.9,0.3-1.5c0-0.3-0.1-0.7-0.1-1C3302.2,1267.4,3301.9,1266.8,3301.4,1266.4z"/>
			<path display="inline" fill="#E2B67A" d="M3383.5,1201.9c-0.3-0.4-0.6-0.8-0.9-1.2c-0.4-0.4-0.8-0.7-1.2-0.9c0,0,0,0-0.1,0
				l-0.1-0.1c-0.1-0.1-0.2-0.1-0.3-0.2c-1.5-0.9-3.5-0.9-5,0c-0.1,0.1-0.2,0.1-0.3,0.2l-0.1,0.1c0,0,0,0-0.1,0
				c-0.2,0.1-0.4,0.3-0.6,0.5c-0.6,0.4-1.1,1-1.5,1.7l0,0c-0.4,0.7-0.7,1.4-0.7,2.2c-0.2,0.8-0.1,1.6,0.1,2.4
				c0.2,0.5,0.4,0.9,0.6,1.4c0,0.1,0.1,0.2,0.1,0.3c0.1,0.2,0.1,0.3,0.2,0.5c0.5,0.8,1.1,1.5,2,2s1.8,0.7,2.8,0.8
				c1,0,1.9-0.3,2.8-0.8c0.8-0.5,1.5-1.1,2-2c0.1-0.2,0.1-0.3,0.2-0.5c0-0.1,0.1-0.2,0.1-0.2c0.2-0.5,0.4-0.9,0.6-1.4
				c0.1-0.5,0.1-1,0.2-1.6c0-0.8-0.1-1.6-0.5-2.3C3383.7,1202.4,3383.6,1202.1,3383.5,1201.9z"/>
			<path display="inline" fill="#E2B67A" d="M3340.9,1074.3c-0.4-0.2-0.8-0.3-1.2-0.3c-0.7,0-1.2,0.3-1.7,0.7
				c-0.7,0.5-1.3,1.1-2,1.6s-1.4,1-2,1.6c-0.3,0.3-0.6,0.6-0.9,0.9c-0.5,0.5-1.1,1.1-1.4,1.7c-0.4,0.6-0.7,1.4-0.9,2
				c-0.2,0.7-0.1,1.3-0.1,2c0,1.1,0.5,2,1.3,2.7c0.8,0.6,2,1,3,0.6c0.6-0.2,1.3-0.4,1.8-0.7c0.4-0.2,0.8-0.6,1.2-1s0.7-0.8,1-1.2
				c0.2-0.4,0.4-0.8,0.6-1.2c0.3-0.5,0.5-1.1,0.8-1.6c0.7-1.7,1.2-3.4,1.8-5.1C3342.3,1076.1,3341.8,1074.8,3340.9,1074.3z"/>
			<path display="inline" fill="#E2B67A" d="M3438.2,1028.9c-0.6-0.4-1.2-0.6-1.9-0.6c-0.7-0.2-1.3-0.1-2,0.1
				c-0.9,0.4-1.7,0.7-2.6,1.1c-1.1,0.3-2,0.8-2.8,1.6c-0.8,0.8-1.3,1.7-1.6,2.8c-0.6,2.2,0,4.5,1.6,6.1s3.9,2.2,6.1,1.6
				c1.1-0.3,2-0.8,2.8-1.6c0.8-0.8,1.3-1.7,1.6-2.8c0.4-0.9,0.7-1.7,1.1-2.6c0.2-0.7,0.2-1.3,0.1-2c0-0.7-0.2-1.3-0.6-1.9
				C3439,1029.4,3439.5,1029.9,3438.2,1028.9z"/>
			<path display="inline" fill="#E2B67A" d="M3407.4,948.7c-0.3-0.3-0.6-0.4-1-0.6c-0.3-0.1-0.6-0.1-0.9,0c-0.3,0-0.6,0.1-0.8,0.3
				c-1.1,0.7-2.1,1.3-3.2,2c-0.9,0.6-1.6,1.6-1.5,2.6c0,0.3,0.1,0.5,0.1,0.8c0.1,0.5,0.4,1,0.8,1.3c0.3,0.3,0.6,0.5,1,0.6
				c0.4,0.2,0.8,0.3,1.2,0.3c1.1,0,2.1-0.6,2.6-1.5c0.7-1.1,1.3-2.1,2-3.2c0.1-0.2,0.1-0.3,0.2-0.5c0.1-0.3,0.1-0.6,0-0.9
				c0-0.2-0.1-0.4-0.1-0.5C3407.8,949.2,3407.7,948.9,3407.4,948.7z"/>
			<path display="inline" fill="#E2B67A" d="M3373.8,808.1c0.3-0.4,0.6-0.8,0.7-1.3c0-0.3,0.1-0.7,0.1-1c0-0.7-0.2-1.3-0.5-1.9
				c-0.2-0.3-0.4-0.5-0.6-0.8c0,0-0.1,0-0.1-0.1c-0.3-0.4-0.7-0.8-1.1-1.1c-0.4-0.3-0.9-0.4-1.4-0.4c-0.5-0.1-1-0.1-1.5,0.1
				c-0.6,0.2-1.2,0.5-1.7,1c-0.1,0.1-0.2,0.3-0.3,0.4c-0.3,0.4-0.6,0.8-0.7,1.3c0,0.1-0.1,0.9-0.1,1c0,0,0,0,0,0.1
				c0,0.4,0.1,0.7,0.2,1.1c0,0,0,0,0,0.1c0.1,0.2,0.3,0.7,0.4,0.9l0,0l0,0l0,0c0.1,0.1,0.5,0.6,0.6,0.8c0,0,0,0.1,0.1,0.1l0,0
				c0.2,0.1,0.6,0.5,0.8,0.6l0,0c0,0,0.1,0,0.1,0.1c0.3,0.2,0.7,0.3,1,0.4c0.5,0.2,1,0.2,1.5,0.1c0.5,0,1-0.2,1.4-0.4
				C3373.2,808.8,3373.6,808.5,3373.8,808.1z M3372.6,802.5c0.2,0.2,0.4,0.3,0.6,0.5c-0.4-0.3-0.8-0.6-1.3-0.7
				C3372.1,802.3,3372.4,802.4,3372.6,802.5z"/>
			<path display="inline" fill="#E2B67A" d="M3400.7,707.7c0.2-0.1,0.5-0.2,0.7-0.4c0.6-0.3,1-1,1-1.7c0-0.6-0.4-1.4-1-1.7
				c-0.2-0.1-0.5-0.2-0.7-0.4c-0.2-0.1-0.4-0.2-0.6-0.3c-0.2-0.1-0.3-0.3-0.5-0.4c-0.4-0.2-0.8-0.4-1.2-0.4
				c-0.4-0.1-0.9-0.1-1.3,0.1c-0.3,0.1-0.5,0.2-0.8,0.3c-0.5,0.3-0.9,0.7-1.2,1.2c-0.3,0.4-0.5,1.1-0.5,1.6c0,0.3,0.1,0.5,0.1,0.8
				c0.1,0.3,0.2,0.5,0.3,0.8c0,0,0,0,0.1,0.1c0.2,0.4,0.5,0.7,0.8,0.9c0.3,0.3,0.7,0.5,1.1,0.6c0.3,0,0.6,0.1,0.9,0.1
				c0.6,0,1.1-0.1,1.6-0.4c0.2-0.1,0.4-0.3,0.5-0.4C3400.3,707.9,3400.5,707.8,3400.7,707.7z"/>
			<path display="inline" fill="#E2B67A" d="M3369.7,615c-0.1-0.4-0.1-0.9-0.2-1.3c-0.2-0.9-0.7-1.6-1.3-2.2c-0.5-0.5-1-0.8-1.6-1
				c-0.6-0.3-1.2-0.5-1.9-0.4c-0.7,0-1.3,0.1-1.9,0.4c-0.6,0.2-1.2,0.6-1.6,1c-0.6,0.6-1.1,1.4-1.3,2.2c-0.2,0.5-0.4,1.1-0.6,1.6
				c-0.1,0.2-0.2,0.5-0.3,0.7c-0.1,0.3-0.1,0.5-0.2,0.8c-0.1,0.8-0.4,1.7-0.3,2.6c0.1,0.8,0.1,1.7,0.6,2.4c0.4,0.7,1,1.2,1.7,1.5
				s1.6,0.4,2.4,0.2c0.5-0.1,1-0.4,1.4-0.7c0.7-0.4,1.3-1,1.9-1.6c1-1.1,1.8-2.4,2.6-3.7C3369.5,616.8,3369.7,615.9,3369.7,615z"/>
			<path display="inline" fill="#E2B67A" d="M3163,1252c-0.3-0.6-0.7-1-1.2-1.3c-0.5-0.4-1-0.7-1.6-0.9c-0.4-0.1-0.7-0.2-1.1-0.3
				c-0.9-0.2-1.8-0.2-2.7,0s-1.6,0.7-2.3,1.3c-0.3,0.3-0.5,0.7-0.8,1c-0.5,0.8-0.7,1.7-0.7,2.6c0,0.7,0.1,1.4,0.4,2
				c0.2,0.6,0.6,1.2,1.1,1.7c0.6,0.6,1.4,1.1,2.3,1.3c0.9,0.2,1.8,0.2,2.7,0c0.4-0.1,0.7-0.2,1.1-0.3c0.4-0.2,0.8-0.3,1.1-0.5
				c0.6-0.3,1-0.7,1.3-1.2c0.3-0.3,0.5-0.7,0.6-1.1c0.3-0.6,0.4-1.2,0.4-1.9c-0.1-0.4-0.1-0.9-0.2-1.3
				C3163.3,1252.7,3163.1,1252.3,3163,1252z"/>
			<path display="inline" fill="#E2B67A" d="M3260.3,1166.8c-6.6,0-6.6,10.2,0,10.2C3266.8,1177,3266.8,1166.8,3260.3,1166.8z"/>
			<path display="inline" fill="#E2B67A" d="M2960.9,1181.8c-0.4-0.4-0.8-0.7-1.3-0.9c-0.5-0.3-1-0.4-1.6-0.4
				c-1.5,0-2.9,0.8-3.6,2.1c-0.2,0.3-0.3,0.6-0.5,0.9c-0.2,0.4-0.5,0.9-0.5,1.3c0,0.2-0.1,0.3-0.1,0.5c-0.2,0.6-0.2,1.2,0,1.8
				c0.2,0.6,0.4,1.1,0.9,1.5c0.4,0.4,0.9,0.7,1.5,0.9c0.6,0.2,1.2,0.2,1.8,0c0.2,0,0.3-0.1,0.5-0.1c0.5-0.1,0.9-0.3,1.3-0.5
				c0.3-0.2,0.6-0.3,0.9-0.5c0.6-0.4,1.1-0.9,1.5-1.5s0.6-1.3,0.6-2.1c0-0.4-0.1-0.7-0.1-1.1
				C2961.8,1183,2961.4,1182.3,2960.9,1181.8z"/>
			<path display="inline" fill="#E2B67A" d="M2821.6,1109.9c-0.7-0.1-1.4-0.1-2,0.1c-0.1,0-0.2,0.1-0.3,0.1
				c-0.2,0.1-0.4,0.1-0.6,0.2c-0.2,0.1-0.4,0.3-0.5,0.4c-0.2,0.1-0.3,0.3-0.5,0.5c-0.5,0.6-0.9,1.2-1.1,2c-0.1,0.4-0.2,0.8-0.2,1.2
				c0,0.3,0.1,0.6,0.1,0.9c0,0.1,0.1,0.3,0.1,0.4c0.1,0.4,0.3,0.7,0.6,1c0.2,0.1,0.3,0.2,0.5,0.3c0.3,0.2,0.7,0.3,1.1,0.3
				c0.3,0,0.6-0.1,0.9-0.2c0.3-0.1,0.5-0.2,0.7-0.5c0.2-0.2,0.4-0.4,0.5-0.7c0.1-0.3,0.2-0.6,0.2-0.9c0-0.4-0.1-0.7-0.3-1l0,0
				c0,0,0,0.1,0.1,0.1c0-0.1,0-0.1-0.1-0.2l0,0c0-0.1,0-0.1,0-0.2c0.1-0.1,0.1-0.2,0.2-0.3c0.1-0.2,0.3-0.3,0.4-0.5l0,0
				c-0.1,0.1-0.2,0.2-0.2,0.3c0.1-0.1,0.2-0.3,0.4-0.4c0.1,0,0.1-0.1,0.2-0.1c0.1,0,0.2-0.1,0.3-0.1c-0.1,0-0.1,0-0.2,0l0,0
				c0.1,0,0.2,0,0.3,0s0.3-0.1,0.4-0.2h0.1c0.2-0.1,0.5-0.2,0.6-0.5c0.1-0.2,0.2-0.5,0.1-0.8c-0.1-0.3-0.3-0.6-0.5-0.9
				C2822.5,1110.2,2822,1110,2821.6,1109.9z M2821.7,1112.9L2821.7,1112.9L2821.7,1112.9L2821.7,1112.9z M2821.4,1113.1
				C2821.5,1113,2821.5,1113,2821.4,1113.1C2821.5,1113,2821.5,1113,2821.4,1113.1L2821.4,1113.1z M2821.8,1112.8
				C2821.8,1112.8,2821.7,1112.8,2821.8,1112.8L2821.8,1112.8C2821.7,1112.8,2821.8,1112.8,2821.8,1112.8L2821.8,1112.8z"/>
			<path display="inline" fill="#E2B67A" d="M3026.1,1119.9c-0.6-0.6-1.3-1.2-2.2-1.4c-0.3-0.1-0.5-0.1-0.8-0.2
				c-0.5-0.1-1-0.3-1.6-0.4c-0.9-0.2-1.7-0.2-2.6,0c-0.8,0.2-1.5,0.6-2.1,1.3c-0.3,0.3-0.5,0.7-0.8,1c-0.4,0.8-0.7,1.6-0.7,2.5
				c0,0.7,0.1,1.3,0.4,1.9c0.2,0.6,0.5,1.1,1,1.6c1.2,1.2,3,1.7,4.7,1.3c0.5-0.1,1-0.3,1.6-0.4c0.3-0.1,0.5-0.1,0.8-0.2
				c0.9-0.2,1.6-0.8,2.2-1.4c0.4-0.3,0.6-0.7,0.8-1.2c0.2-0.4,0.3-0.9,0.3-1.4c0-0.3-0.1-0.7-0.1-1
				C3026.9,1120.9,3026.6,1120.3,3026.1,1119.9z"/>
			<path display="inline" fill="#E2B67A" d="M3138.1,1156.7c-0.2-0.2-0.5-0.4-0.7-0.5c-0.5-0.3-1.1-0.5-1.7-0.5
				c-0.3,0-0.5,0.1-0.8,0.1h-0.1c-0.2,0-0.3,0-0.5,0.1c-0.4,0-0.9,0.2-1.2,0.4c-0.3,0.2-0.5,0.4-0.8,0.6c-0.1,0.1-0.2,0.1-0.2,0.2
				c-0.3,0.3-0.5,0.6-0.6,1c-0.2,0.4-0.3,0.7-0.3,1.1c0,0.3,0.1,0.5,0.1,0.8c0.1,0.5,0.4,0.9,0.8,1.3c0.1,0.1,0.1,0.1,0.2,0.2
				c0,0,0,0,0.1,0c0.1,0.1,0.2,0.2,0.4,0.3c0.1,0.1,0.2,0.2,0.4,0.3c0.3,0.1,0.5,0.2,0.8,0.3c0.3,0,0.6,0.1,0.9,0.1h0.1
				c0.3,0,0.5,0.1,0.8,0.1c0.5,0,0.9-0.1,1.3-0.3c0.4-0.1,0.8-0.4,1.1-0.7c0.3-0.3,0.6-0.7,0.7-1.1c0.2-0.4,0.3-0.9,0.3-1.3
				c0-0.3-0.1-0.6-0.1-0.9C3138.9,1157.6,3138.6,1157.1,3138.1,1156.7z"/>
			<path display="inline" fill="#E2B67A" d="M3238,1071.4c-0.3-0.3-0.6-0.5-1-0.6c-0.1,0-0.3-0.1-0.4-0.1c-0.3-0.1-0.5-0.1-0.8-0.1
				c-0.4,0-0.6,0.1-0.9,0.2c-0.3,0.1-0.6,0.2-1,0.3c-0.7,0.2-1.3,0.4-2,0.6c-0.8,0.3-1.5,0.8-1.9,1.5c-0.3,0.5-0.4,1-0.4,1.6
				c0,0.4,0.1,0.9,0.3,1.2c0.1,0.4,0.4,0.7,0.7,1s0.6,0.5,1,0.7s0.8,0.3,1.2,0.3c0.6,0,1.1-0.1,1.6-0.4c0.6-0.4,1.2-0.8,1.7-1.2
				c0.3-0.2,0.6-0.4,0.8-0.6c0.5-0.3,0.9-0.7,1.2-1.2c0.1-0.1,0.1-0.3,0.2-0.4c0.2-0.3,0.3-0.7,0.3-1.1c0-0.3-0.1-0.6-0.2-0.9
				C3238.4,1071.9,3238.2,1071.6,3238,1071.4z"/>
			<path display="inline" fill="#E2B67A" d="M3311.6,982.7c-5.4,0-5.4,8.3,0,8.3C3316.9,991.1,3316.9,982.7,3311.6,982.7z"/>
			<path display="inline" fill="#E2B67A" d="M3423.3,1117.9c-6,0-6,9.3,0,9.3C3429.3,1127.1,3429.3,1117.9,3423.3,1117.9z"/>
			<path display="inline" fill="#E2B67A" d="M3357.5,523.3c-0.1-0.1-0.1-0.2-0.2-0.3c-0.1-0.2-0.2-0.2-0.4-0.4s-0.3-0.2-0.4-0.3
				h-0.1c-0.2-0.1-0.5-0.2-0.7-0.4c-0.6-0.3-1.2-0.5-1.9-0.5s-1.3,0.2-1.9,0.5c-1.2,0.7-1.9,1.9-1.9,3.3c0,1.3,0.7,2.6,1.9,3.3
				c0.6,0.3,1.2,0.5,1.9,0.5s1.3-0.2,1.9-0.5c0.2-0.1,0.5-0.2,0.7-0.4c0.3-0.2,0.7-0.4,0.9-0.7c0.1-0.1,0.1-0.2,0.2-0.3
				c0.3-0.2,0.5-0.5,0.6-0.9c0.2-0.3,0.3-0.7,0.2-1.1c0-0.2-0.1-0.5-0.1-0.7C3358.1,524,3357.8,523.6,3357.5,523.3z"/>
			<path display="inline" fill="#E2B67A" d="M3440.6,826.5c-0.1-0.5-0.2-1-0.4-1.4c-0.1-0.2-0.2-0.4-0.2-0.6
				c-0.2-0.3-0.4-0.5-0.6-0.7c-0.1-0.1-0.3-0.3-0.5-0.3c-0.3-0.2-0.6-0.2-0.9-0.2c-0.4,0-0.8,0.1-1.2,0.3c-0.5,0.3-1,0.9-1.1,1.4
				s-0.2,1-0.4,1.4c-0.2,0.3-0.4,0.6-0.6,1c-0.7,1.1-0.7,2.7,0,3.8c0.7,1.2,1.9,1.9,3.3,1.9c1.3,0,2.6-0.7,3.3-1.9
				c0.7-1.1,0.7-2.7,0-3.8C3441.1,827.1,3440.9,826.8,3440.6,826.5z"/>
			<path display="inline" fill="#E2B67A" d="M3540.4,463.4c0.2,0.3,0.3,0.6,0.5,0.9c0.9,1.7,2.2,2.3,3.4,2.1
				c1.2,0.2,2.5-0.4,3.4-2.1c0.2-0.3,0.3-0.6,0.5-0.9C3552.5,455,3535.9,455,3540.4,463.4z"/>
			<path display="inline" fill="#E2B67A" d="M3560.7,345.1c-5.4,0-5.4,8.4,0,8.4C3566.2,353.6,3566.2,345.1,3560.7,345.1z"/>
			<path display="inline" fill="#E2B67A" d="M3608.7,281.7c0.2,0.3,0.4,0.5,0.6,0.8c0.3,0.2,0.5,0.4,0.8,0.6
				c0.3,0.1,0.6,0.3,0.9,0.4c0.5,0.2,1,0.2,1.5,0.1c0.3,0,0.7-0.1,1-0.3c0.5-0.2,0.9-0.4,1.2-0.8c0.3-0.3,0.6-0.6,1-0.9
				c0.3-0.2,0.4-0.5,0.5-0.8c0.2-0.3,0.2-0.7,0.2-1c0-0.2-0.1-0.5-0.1-0.7c-0.1-0.4-0.4-0.8-0.7-1.2c-0.3-0.3-0.6-0.6-1-0.9
				c-0.3-0.2-0.5-0.4-0.8-0.6c-0.3-0.1-0.6-0.3-0.9-0.4c-0.5-0.2-1-0.2-1.5-0.1c-0.3,0-0.7,0.1-1,0.3c-0.3,0.1-0.6,0.3-0.9,0.5
				c-0.3,0.2-0.5,0.4-0.7,0.7c-0.2,0.2-0.4,0.5-0.5,0.9c-0.2,0.5-0.4,1-0.3,1.5c0,0.3,0.1,0.7,0.1,1
				C3608.4,281.1,3608.6,281.4,3608.7,281.7z"/>
			<path display="inline" fill="#E2B67A" d="M3527,567.7c-0.2-0.3-0.4-0.6-0.7-0.8c-0.2-0.2-0.4-0.3-0.7-0.5
				c-0.3-0.1-0.5-0.2-0.8-0.3c-0.4-0.1-0.9-0.2-1.3-0.1c-0.3,0-0.6,0.1-0.8,0.2c-0.3,0.1-0.5,0.2-0.7,0.4c-0.2,0.1-0.4,0.3-0.6,0.6
				c-0.2,0.2-0.3,0.4-0.4,0.7c-0.2,0.4-0.3,0.8-0.3,1.2c0,0.3,0.1,0.6,0.1,0.9c0.1,0.3,0.2,0.5,0.3,0.8c0.2,0.2,0.3,0.4,0.5,0.7
				c0.2,0.2,0.4,0.3,0.7,0.5c0.3,0.1,0.5,0.2,0.8,0.3c0.4,0.1,0.9,0.2,1.3,0.1c0.3,0,0.6-0.1,0.8-0.2c0.4-0.1,0.7-0.4,1-0.7
				c0.2-0.3,0.4-0.6,0.7-0.8c0.2-0.2,0.3-0.4,0.4-0.7c0.1-0.2,0.2-0.5,0.2-0.8c0-0.2,0-0.4-0.1-0.5
				C3527.5,568.3,3527.3,568,3527,567.7z"/>
			<path display="inline" fill="#E2B67A" d="M3569.5,660.9c-0.2-0.1-0.3-0.3-0.5-0.4c-0.4-0.2-0.8-0.3-1.2-0.3
				c-0.5-0.1-1.1-0.1-1.6-0.2c-0.4,0-0.7,0.1-1,0.2c-0.3,0.1-0.6,0.3-0.8,0.5c-0.3,0.2-0.4,0.5-0.5,0.8c-0.2,0.3-0.2,0.6-0.2,1
				c0,0.2,0.1,0.5,0.1,0.7c0.1,0.4,0.3,0.8,0.7,1.1c0.2,0.1,0.3,0.3,0.5,0.4c0.4,0.2,0.8,0.4,1.3,0.4c0.5-0.1,1.1-0.1,1.6-0.2
				c0.3,0,0.6-0.1,0.9-0.2c0.3-0.1,0.6-0.3,0.8-0.5s0.4-0.5,0.5-0.8c0.2-0.3,0.2-0.6,0.2-0.9c0-0.2-0.1-0.4-0.1-0.6
				C3570,661.6,3569.8,661.2,3569.5,660.9z"/>
			<path display="inline" fill="#E2B67A" d="M3616.4,405.2L3616.4,405.2C3616.4,405.1,3616.4,405.1,3616.4,405.2z"/>
			<path display="inline" fill="#E2B67A" d="M3613.8,409.6c0.1-0.1,0.2-0.1,0.3-0.2c0,0,0.1,0,0.1-0.1l0,0c0.1-0.1,0.3-0.2,0.4-0.3
				c0.1,0,0.2-0.1,0.2-0.1c0.2-0.2,0.4-0.3,0.7-0.5c0.2-0.2,0.4-0.4,0.5-0.7c0,0,0,0,0-0.1c-0.2,0.2-0.3,0.4-0.5,0.6
				c0.4-0.5,0.6-0.7,0.7-1.3c0-0.1,0.1-0.6,0.1-0.9c0-0.2-0.1-0.8-0.1-1c-0.1-0.4-0.3-0.8-0.6-1.1c-0.1-0.1-0.2-0.3-0.3-0.4
				c-0.3-0.2-0.6-0.5-0.9-0.7c-0.4-0.3-0.9-0.4-1.3-0.6c-0.8-0.3-1.8-0.1-2.6,0c-0.5,0.1-1.1,0.4-1.5,0.6c-0.1,0-0.2,0.1-0.3,0.1
				c-0.7,0.4-1.1,1-1.6,1.6c-0.3,0.4-0.5,1-0.7,1.5s-0.2,1.1-0.3,1.6c0,0.3,0.1,0.7,0.1,1c0.1,0.5,0.3,0.9,0.7,1.3
				c0.2,0.3,0.4,0.5,0.7,0.7c0.4,0.3,0.8,0.6,1.3,0.7c0.3,0,0.7,0.1,1,0.1s0.7-0.1,1-0.1c0.5-0.1,0.9-0.3,1.3-0.7
				c0.4-0.3,0.7-0.6,1-1.1c0,0,0,0,0-0.1l0.1-0.1c0,0,0,0-0.1,0.1l0,0C3613.6,409.7,3613.7,409.6,3613.8,409.6z M3613.3,410
				c-0.2,0.1-0.4,0.3-0.5,0.4C3613,410.2,3613.2,410.1,3613.3,410C3613.3,409.9,3613.3,409.9,3613.3,410z"/>
			<path display="inline" fill="#E2B67A" d="M3676.8,354.2c-0.2-0.2-0.5-0.4-0.7-0.6c-0.3-0.1-0.6-0.2-0.9-0.4
				c-0.5-0.1-0.9-0.2-1.4-0.1c-0.5,0-0.9,0.2-1.3,0.4c-0.7,0.4-1.5,0.8-2.2,1.2c-0.6,0.4-1.2,0.9-1.5,1.5c-0.4,0.7-0.6,1.4-0.6,2.2
				c0.1,0.4,0.1,0.8,0.2,1.1c0.2,0.7,0.6,1.4,1.1,1.9c0.4,0.4,0.8,0.7,1.4,0.9c0.5,0.3,1.1,0.4,1.6,0.4c1.5,0,3-0.8,3.7-2.1
				c0.4-0.7,0.8-1.5,1.2-2.2c0.1-0.3,0.2-0.6,0.4-0.9c0.1-0.5,0.2-1,0.1-1.4c0-0.3-0.1-0.6-0.2-0.9
				C3677.4,354.9,3677.2,354.5,3676.8,354.2z"/>
			<path display="inline" fill="#E2B67A" d="M3679.2,288.9c-0.6-0.3-1.2-0.6-1.8-0.8c-0.1,0-0.3-0.1-0.4-0.1
				c-0.5-0.2-1.1-0.2-1.6-0.2c-0.3,0-0.6-0.1-1-0.1c-0.7,0-1.3,0.1-1.9,0.4c-0.6,0.2-1.1,0.5-1.6,1c-0.5,0.4-0.8,1-1,1.6
				c-0.3,0.6-0.4,1.2-0.4,1.9c0.1,0.4,0.1,0.9,0.2,1.3c0.2,0.8,0.6,1.5,1.3,2.1c0.3,0.3,0.7,0.5,1,0.8c0.8,0.4,1.6,0.7,2.5,0.7
				c0.3,0,0.6-0.1,0.9-0.1c0.1,0,0.2,0,0.3,0c0.4-0.1,0.8-0.1,1.3-0.2h0.1c0.1,0,0.3-0.1,0.4-0.1c0.6-0.2,1.2-0.4,1.8-0.8
				c0.2-0.1,0.5-0.3,0.7-0.4c1.1-0.7,1.9-1.9,1.9-3.2c0-1.3-0.7-2.6-1.9-3.2C3679.6,289.2,3679.4,289,3679.2,288.9z"/>
			<path display="inline" fill="#E2B67A" d="M3762.6,328.9c-0.7-0.7-1.5-1.2-2.5-1.4c-1-0.3-2-0.3-3,0c-0.4,0.1-0.8,0.1-1.2,0.2
				c-0.9,0.3-1.7,0.7-2.4,1.4c-0.7,0.7-1.1,1.5-1.4,2.4c-0.3,1.8-0.3,1.1,0,2.9c0.3,0.9,0.7,1.7,1.4,2.4c0.7,0.7,1.5,1.1,2.4,1.4
				c0.4,0.1,0.8,0.1,1.2,0.2c1,0.3,2,0.3,3,0s1.8-0.7,2.5-1.4c0.3-0.4,0.6-0.8,0.9-1.1c0.5-0.9,0.8-1.8,0.8-2.8
				c0-0.8-0.1-1.5-0.5-2.2C3763.5,330,3763.1,329.4,3762.6,328.9z"/>
			<path display="inline" fill="#E2B67A" d="M3714.6,227c-4.1,0-4.2,6.4,0,6.4C3718.8,233.5,3718.8,227,3714.6,227z"/>
			<path display="inline" fill="#E2B67A" d="M3785.8,240.6c-0.3-0.6-0.7-1-1.3-1.4c-0.5-0.4-1-0.7-1.7-0.9c-0.3-0.1-0.6-0.2-0.9-0.2
				c-0.9-0.2-1.8-0.2-2.7,0s-1.6,0.7-2.3,1.3c-0.3,0.3-0.5,0.7-0.8,1c-0.5,0.8-0.7,1.7-0.7,2.6c0,0.7,0.1,1.4,0.4,2
				c0.2,0.6,0.6,1.2,1.1,1.7c0.6,0.6,1.4,1.1,2.3,1.3c0.9,0.2,1.8,0.2,2.7,0c0.3-0.1,0.6-0.2,0.9-0.2c0.4-0.2,0.8-0.3,1.2-0.5
				c0.6-0.3,1-0.7,1.4-1.3c0.3-0.3,0.5-0.7,0.6-1.1c0.3-0.6,0.4-1.2,0.4-1.9c-0.1-0.4-0.1-0.9-0.2-1.3
				C3786.1,241.4,3785.9,241,3785.8,240.6z"/>
			<path display="inline" fill="#E2B67A" d="M3837.4,271.3c-3.8,0-3.8,5.9,0,5.9C3841.1,277.2,3841.1,271.3,3837.4,271.3z"/>
			<path display="inline" fill="#E2B67A" d="M3627.1,505.2c-0.4-0.4-0.8-0.6-1.3-0.8c-0.1-0.1-0.3-0.1-0.4-0.2
				c-0.3-0.1-0.6-0.1-0.9-0.1c-0.3-0.1-0.5-0.3-0.8-0.3c-0.1,0-0.2-0.1-0.3-0.1h-0.1c-0.4-0.1-0.9-0.1-1.3-0.2
				c-0.4,0.1-0.9,0.1-1.3,0.2h-0.1c-0.2,0-0.3,0.1-0.5,0.1c-0.6,0.2-1.2,0.3-1.8,0.5c-0.7,0.2-1.2,0.5-1.7,0.9s-1,0.8-1.3,1.4
				c-0.4,0.6-0.6,1.2-0.6,1.9c-0.2,0.7-0.1,1.3,0.1,2c0.4,1.2,1.2,2.4,2.3,3c0.4,0.2,0.8,0.3,1.2,0.5c0.9,0.2,1.8,0.2,2.7,0
				c0.6-0.2,1.2-0.5,1.8-0.7c0.1-0.1,0.3-0.1,0.4-0.2c0.4-0.2,0.9-0.3,1.3-0.6c0.3-0.3,0.7-0.5,1-0.8s0.5-0.7,0.8-1
				c0.1-0.1,0.1-0.2,0.2-0.3c0.1-0.1,0.1-0.2,0.2-0.3l0.1-0.1c0.4-0.4,0.7-0.9,1-1.3c0.5-0.8,0.5-1.8,0.1-2.6
				C3627.5,505.8,3627.3,505.5,3627.1,505.2z"/>
			<path display="inline" fill="#E2B67A" d="M754.1,1801.4c0.4-0.5,0.8-1,1.2-1.6c0.2-0.3,0.4-0.5,0.5-0.9s0.1-0.9-0.1-1.3
				c-0.3-0.7-1-1.2-1.8-1.2c-0.6,0-1.2,0-1.9,0c-0.4,0-0.8,0.1-1.2,0.2c-0.2,0.1-0.3,0.1-0.5,0.2c-0.3,0.1-0.6,0.3-1,0.4
				c-0.5,0.1-1,0.4-1.3,0.8c-0.2,0.2-0.3,0.4-0.5,0.6c-0.3,0.5-0.4,1-0.4,1.5c0,0.4,0.1,0.8,0.3,1.2c0.1,0.4,0.3,0.7,0.6,1
				s0.6,0.5,1,0.6c0.4,0.2,0.8,0.3,1.2,0.3c0.5,0,1.1-0.1,1.5-0.4c0.3-0.2,0.6-0.4,0.9-0.5C753.2,1802.1,753.8,1801.9,754.1,1801.4z
				"/>
			<path display="inline" fill="#E2B67A" d="M461.6,1752.3c-0.1-0.4-0.3-0.8-0.6-1.2c-0.3-0.5-0.8-0.9-1.3-1.2
				c-0.5-0.2-1.3-0.4-1.8-0.1c-0.4,0.2-0.8,0.3-1.1,0.5c-0.4,0.2-0.8,0.6-1.1,0.9c-0.4,0.4-0.7,0.8-1,1.2c-0.1,0.2-0.3,0.5-0.4,0.7
				c-0.4,0.7-0.7,1.5-1,2.3c-0.2,0.5-0.4,1-0.6,1.5c-0.2,0.6-0.2,1.1-0.1,1.7c0,0.6,0.2,1.1,0.5,1.6s0.6,0.9,1.1,1.2
				c0.4,0.4,0.9,0.6,1.5,0.8c1.1,0.2,2.3,0.2,3.3-0.4c0.9-0.6,1.7-1.5,2-2.6c0.1-0.5,0.3-1,0.4-1.5c0.1-0.2,0.1-0.5,0.2-0.7
				c0.1-0.6,0.2-1.1,0.3-1.7c0-0.2,0.1-0.5,0.1-0.7s0-0.5,0-0.7C461.8,1753.3,461.8,1752.8,461.6,1752.3z"/>
			<path display="inline" fill="#E2B67A" d="M592.8,1720.1c-4.3,0-4.3,6.7,0,6.7C597.1,1726.7,597.1,1720.1,592.8,1720.1z"/>
			<path display="inline" fill="#E2B67A" d="M130.2,591.9c-0.1-0.5-0.1-0.9-0.2-1.4c0,0,0,0,0-0.1v-0.1c0,0,0,0,0-0.1l0,0l0,0
				c-0.2-0.4-0.3-0.8-0.5-1.1l0,0c-0.2-0.4-0.4-0.7-0.7-1l-1-0.7l-1.1-0.5l0,0h-0.1h-0.1c-0.5-0.1-0.4-0.2-1.4-0.2
				c-0.1,0-1.3,0.2-1.4,0.2s-1.2,0.5-1.3,0.5c0,0,0,0-0.1,0c-0.1,0.1-0.3,0.1-0.4,0.2c-0.3,0.2-0.6,0.4-0.9,0.5
				c-0.9,0.5-1.5,1.2-2,2c-0.5,0.9-0.8,1.8-0.8,2.9c0.1,0.5,0.1,1,0.2,1.5c0.3,1,0.8,1.8,1.5,2.5c0.5,0.6,1.1,0.9,1.8,1.2
				c0.7,0.4,1.4,0.5,2.2,0.5c2,0,3.9-1.1,4.9-2.8c0.2-0.3,0.3-0.5,0.5-0.8c0.1-0.1,0.2-0.3,0.2-0.4c0.2-0.3,0.2-0.5,0.4-0.8
				c0,0.1,0.2-0.4,0.3-0.7C130.1,592.8,130.1,592.3,130.2,591.9z"/>
			<path display="inline" fill="#E2B67A" d="M215.7,539.6c-0.2-0.2-0.5-0.4-0.7-0.6c-0.6-0.3-1.2-0.5-1.9-0.5
				c-0.8,0.1-1.2,0.1-1.9,0.5c0,0-0.1,0-0.1,0.1c-0.1,0-0.1,0.1-0.2,0.1c-0.1,0.1-0.3,0.2-0.4,0.2c-0.3,0.2-0.6,0.3-0.8,0.5
				c-0.6,0.4-1.1,0.9-1.5,1.5s-0.6,1.3-0.6,2.1c0,0.4,0.1,0.7,0.1,1.1c0.2,0.7,0.6,1.3,1.1,1.8c0.4,0.4,0.8,0.7,1.3,0.9
				c0.5,0.3,1,0.4,1.6,0.4c1.5,0,2.8-0.8,3.6-2.1c0.2-0.3,0.3-0.6,0.5-0.8c0.1-0.1,0.2-0.3,0.2-0.4c0-0.1,0.1-0.1,0.1-0.2
				c0,0,0-0.1,0.1-0.1c0.4-0.7,0.5-1.1,0.5-1.9c0-0.5-0.1-1-0.3-1.4C216.3,540.3,216,539.9,215.7,539.6z"/>
			<path display="inline" fill="#E2B67A" d="M266.7,630.4c-3.8,0-3.8,5.9,0,5.9C270.4,636.3,270.5,630.4,266.7,630.4z"/>
			<path display="inline" fill="#E2B67A" d="M140,745.6c0-0.1,0-0.1,0-0.2v-0.1c0-0.3,0-0.7-0.1-1s-0.2-0.6-0.4-0.9
				c-0.3-0.6-0.9-1.2-1.6-1.5c-0.8-0.4-1.3-0.6-2.2-0.6c-0.2,0-0.8,0-1.2,0.2s-0.9,0.3-1.3,0.5c-0.1,0-0.2,0.1-0.3,0.2
				c-0.4,0.3-0.8,0.5-1.2,0.9s-0.8,0.9-1.1,1.4c-0.1,0.3-0.3,0.6-0.4,0.8c-0.1,0.3-0.3,0.6-0.3,0.9c-0.2,0.6-0.2,1.3-0.3,1.9
				c0,0.6,0.1,1.3,0.2,1.9c0.2,0.8,0.7,1.6,1.3,2.2c0.3,0.3,0.7,0.5,1,0.8c0.8,0.5,1.6,0.7,2.5,0.7c0.7,0,1.3-0.1,1.9-0.4
				c0.6-0.2,1.2-0.5,1.6-1c0.5-0.5,0.8-1,1-1.6c0.3-0.6,0.5-1.2,0.4-1.9c0-0.5-0.1-0.9-0.2-1.3v-0.1c0.1-0.2,0.2-0.3,0.2-0.5
				c0.3-0.9,0.1-1.4,0-2.3C139.9,744.9,140,745.2,140,745.6z"/>
			<path display="inline" fill="#E2B67A" d="M237.3,727.4c-0.4-0.3-0.9-0.6-1.3-0.9c-0.7-0.4-1.5-0.6-2.3-0.6s-1.6,0.2-2.3,0.6
				c-1.4,0.8-2.2,2.3-2.2,3.9c0,1.6,0.9,3.1,2.2,3.9c0.7,0.4,1.5,0.6,2.3,0.6s1.6-0.2,2.3-0.6c0.4-0.3,0.9-0.6,1.3-0.9
				c0.5-0.3,0.9-0.7,1.3-1.3c0.3-0.5,0.5-1.1,0.5-1.8c0-0.6-0.2-1.2-0.5-1.8C238.3,728.1,237.8,727.7,237.3,727.4z"/>
			<path display="inline" fill="#E2B67A" d="M358.8,706c-0.3-0.6-0.7-1-1.3-1.4c-0.5-0.4-1-0.7-1.7-0.9c-0.9-0.2-1.7-0.2-2.6,0
				c-0.4,0.2-0.8,0.3-1.2,0.5c-0.7,0.4-1.3,1-1.7,1.7c-0.4,0.6-0.5,1.2-0.6,1.8s-0.1,1.3,0.1,1.9c0.2,0.8,0.6,1.5,1.3,2.1
				c0.3,0.3,0.7,0.5,1,0.8c0.8,0.4,1.6,0.7,2.5,0.7c0.4-0.1,0.9-0.1,1.3-0.2c0.8-0.2,1.5-0.6,2.1-1.3c0.6-0.6,1-1.3,1.3-2.1
				c0.1-0.4,0.1-0.9,0.2-1.3c0-0.4-0.1-0.7-0.1-1.1C359.3,706.9,359.1,706.4,358.8,706z"/>
			<path display="inline" fill="#E2B67A" d="M393.1,822c-0.3-0.3-0.6-0.7-0.8-1c-0.3-0.2-0.5-0.4-0.8-0.6c-0.3-0.1-0.6-0.3-1-0.4
				c-0.5-0.2-1.1-0.2-1.6-0.1c-0.4,0-0.7,0.1-1,0.3c-0.3,0.1-0.6,0.3-0.9,0.5s-0.5,0.4-0.7,0.7c-0.3,0.3-0.4,0.5-0.5,0.9
				c-0.3,0.5-0.4,1-0.3,1.6c0,0.4,0.1,0.7,0.1,1.1c0.1,0.3,0.3,0.6,0.4,1c0.2,0.3,0.4,0.5,0.6,0.8c0.3,0.2,0.5,0.4,0.8,0.6
				c0.3,0.1,0.6,0.3,1,0.4c0.5,0.2,1.1,0.2,1.6,0.1c0.4,0,0.7-0.1,1-0.3c0.5-0.2,0.9-0.4,1.3-0.8c0.3-0.3,0.6-0.7,0.8-1
				c0.3-0.2,0.4-0.5,0.5-0.8c0.2-0.3,0.2-0.7,0.2-1c0-0.2-0.1-0.5-0.1-0.7C393.7,822.7,393.5,822.3,393.1,822z"/>
			<path display="inline" fill="#E2B67A" d="M244.7,884.2c-4.9,0-4.9,7.6,0,7.6C249.6,891.8,249.6,884.2,244.7,884.2z"/>
			<path display="inline" fill="#E2B67A" d="M474,894.3c-0.4-0.2-0.8-0.4-1.3-0.4c-0.4-0.1-0.9-0.1-1.3-0.2
				c-0.9-0.1-1.8-0.3-2.6-0.4c-0.4-0.1-0.7-0.1-1.1,0c-0.3,0.1-0.6,0.3-0.9,0.5c-0.4,0.4-0.6,0.9-0.6,1.5c0,0.5,0.2,1.1,0.6,1.5
				c0.3,0.3,0.6,0.4,0.9,0.5c0.4,0.1,0.7,0.1,1.1,0c0.9-0.1,1.8-0.3,2.6-0.4c0.4-0.1,0.9-0.1,1.3-0.2c0.4-0.1,0.9-0.3,1.3-0.4
				c0.4-0.2,0.8-0.5,0.7-1C474.7,894.8,474.4,894.5,474,894.3z"/>
			<path display="inline" fill="#E2B67A" d="M596.5,936.9L596.5,936.9c-0.2-0.2-0.2-0.2-0.3-0.3c-0.1-0.1-0.2-0.3-0.3-0.4
				c-0.4-0.4-0.9-0.7-1.4-0.9c-0.5-0.3-1.1-0.4-1.7-0.4c-0.6,0-1.2,0.1-1.7,0.4c-0.5,0.2-1,0.5-1.4,0.9c-0.2,0.3-0.5,0.6-0.7,0.9
				c-0.4,0.7-0.6,1.4-0.6,2.2c0.1,0.4,0.1,0.8,0.2,1.2c0.2,0.7,0.6,1.4,1.1,1.9c0.1,0.1,0.3,0.2,0.4,0.3c0.1,0.1,0.1,0.1,0.2,0.2
				l0.1,0.1c0.7,0.6,1,0.9,1.9,1.1c0.8,0.2,1.5,0.2,2.3,0c0.7-0.2,1.3-0.6,1.9-1.1c0.5-0.5,0.9-1.2,1.1-1.9c0.2-0.8,0.2-1.5,0-2.3
				C597.4,938,597,937.6,596.5,936.9z"/>
			<path display="inline" fill="#E2B67A" d="M471.3,990.2L471.3,990.2c-0.1-0.1-0.1-0.1-0.1-0.2l0,0c-0.2-0.2-0.5-0.4-0.7-0.5
				c-0.4-0.2-0.6-0.3-1-0.4c-0.1,0-0.2-0.1-0.4-0.1c-0.6-0.2-1.3-0.2-1.9,0s-1.1,0.5-1.6,0.9c-0.2,0.2-0.4,0.5-0.6,0.7
				c-0.3,0.6-0.5,1.2-0.5,1.8c0,0.5,0.1,1,0.3,1.4c0.1,0.4,0.4,0.8,0.7,1.2c0.4,0.4,1,0.7,1.6,0.9s1.3,0.2,1.9,0
				c0.1,0,0.2-0.1,0.4-0.1c0.2,0,0.3-0.1,0.6-0.2c0.5-0.2,0.7-0.3,1.1-0.7c0.1-0.1,0.2-0.2,0.2-0.3c0.3-0.2,0.6-0.5,0.8-0.8
				c0.2-0.4,0.4-0.8,0.4-1.3s-0.1-0.9-0.4-1.3C472,990.7,471.7,990.4,471.3,990.2z"/>
			<path display="inline" fill="#E2B67A" d="M972,393c0.5-0.1,0.9-0.1,1.4-0.2c0.4-0.2,0.8-0.3,1.2-0.5c0.6-0.3,1.1-0.8,1.4-1.3
				c0.3-0.3,0.5-0.7,0.7-1.1c0.3-0.6,0.5-1.3,0.4-2c0-0.7-0.1-1.5-0.2-2.2c-0.2-0.7-0.5-1.2-1-1.7s-1-0.8-1.7-1
				c-0.7-0.1-1.5-0.2-2.2-0.2c-0.5,0.1-0.9,0.1-1.4,0.2c-0.4,0.2-0.8,0.3-1.2,0.5c-0.6,0.3-1.1,0.8-1.4,1.3
				c-0.3,0.3-0.5,0.7-0.7,1.1s-0.4,0.8-0.4,1.3c-0.1,0.5-0.1,0.9,0,1.4c0,0.5,0.1,0.9,0.4,1.3c0.2,0.6,0.6,1.2,1.1,1.7
				c0.3,0.3,0.7,0.5,1,0.8c0.4,0.2,0.8,0.3,1.2,0.5C971.1,392.9,971.6,392.9,972,393z"/>
			<path display="inline" fill="#E2B67A" d="M1131.4,368.2c-6.3,0-6.3,9.8,0,9.8C1137.7,378.1,1137.8,368.2,1131.4,368.2z"/>
			<path display="inline" fill="#E2B67A" d="M1063.3,368c-0.1-0.1-0.2-0.2-0.2-0.2c-0.2-0.2-0.4-0.4-0.6-0.5
				c-0.3-0.2-0.5-0.2-0.8-0.3c-0.3-0.1-0.6-0.1-0.9-0.2c-0.5-0.1-1-0.1-1.5,0s-0.9,0.4-1.3,0.7c-0.1,0.2-0.3,0.4-0.4,0.6
				c-0.3,0.4-0.4,0.9-0.4,1.4c0,0.4,0.1,0.8,0.2,1.1c0.1,0.4,0.3,0.7,0.6,0.9c0.4,0.4,0.8,0.6,1.3,0.7s1,0.1,1.5,0
				c0.3-0.1,0.6-0.1,0.9-0.2s0.5-0.1,0.8-0.3c0.2-0.1,0.4-0.3,0.6-0.5c0.1-0.1,0.2-0.2,0.2-0.2c0.2-0.2,0.4-0.4,0.4-0.7
				c0.1-0.3,0.2-0.5,0.2-0.8c0-0.2-0.1-0.4-0.1-0.6C1063.8,368.6,1063.6,368.2,1063.3,368z"/>
			<path display="inline" fill="#E2B67A" d="M1213.9,289.5c-4,0-4,6.2,0,6.2S1217.9,289.5,1213.9,289.5z"/>
			<path display="inline" fill="#E2B67A" d="M1142.1,240.2c-0.8-0.7-0.9-0.7-1.9-1.1h-0.1c-0.1,0-0.2-0.1-0.2-0.1
				c-0.8-0.2-1.5-0.2-2.3,0c-0.7,0.2-1.4,0.6-1.9,1.1c-0.2,0.3-0.4,0.6-0.7,0.9c-0.4,0.7-0.6,1.4-0.6,2.2c0,0.6,0.1,1.1,0.4,1.6
				c0.2,0.5,0.5,1,0.9,1.4c0.5,0.5,1.2,0.9,1.9,1.1c0.8,0.2,1.5,0.2,2.3,0c0.1,0,0.2-0.1,0.2-0.1h0.1c0.9-0.4,1.1-0.4,1.9-1.1
				c0.4-0.4,0.7-0.8,0.8-1.3c0.3-0.5,0.4-1,0.4-1.6c0-0.4-0.1-0.7-0.1-1.1C1143,241.3,1142.6,240.7,1142.1,240.2z"/>
			<path display="inline" fill="#E2B67A" d="M1056.2,263.4c-0.3-0.3-0.7-0.5-1.1-0.6c-0.2-0.1-0.5-0.2-0.7-0.2
				c-0.2-0.1-0.5-0.1-0.7-0.2c-0.5-0.1-1-0.2-1.5-0.3c-0.4-0.1-0.9-0.1-1.3-0.2c-0.4,0.1-0.9,0.1-1.3,0.2c-0.4,0.2-0.8,0.3-1.2,0.5
				c-0.3,0.3-0.7,0.5-1,0.8s-0.5,0.7-0.8,1c-0.2,0.4-0.3,0.8-0.5,1.2c-0.1,0.4-0.1,0.9-0.2,1.3c0,0.7,0.1,1.3,0.4,1.9
				c0.1,0.4,0.3,0.8,0.6,1.1c0.2,0.4,0.5,0.7,0.9,0.9c0.3,0.3,0.7,0.5,1.1,0.6c0.4,0.2,0.8,0.3,1.3,0.3c0.4,0.1,0.9,0.1,1.3,0
				c0.5,0,0.9-0.1,1.3-0.3c0.4-0.1,0.8-0.3,1.1-0.6c0.5-0.4,1-0.8,1.3-1.4c0.2-0.5,0.5-1.1,0.7-1.6c0.3-0.7,0.7-1.4,0.9-2.1
				c0.1-0.6,0.1-1.3-0.2-1.9C1056.4,263.7,1056.3,263.5,1056.2,263.4z"/>
			<path display="inline" fill="#E2B67A" d="M922.4,299.8c0-0.1-0.1-0.2-0.1-0.3c-0.2-0.6-0.6-1-1.2-1.2c-0.1,0-0.2-0.1-0.3-0.1
				h-0.1l0,0c-0.2,0-0.4-0.1-0.7-0.1c-0.2,0-0.4,0.1-0.7,0.1l0,0c-0.1,0-0.2,0-0.3,0.1c-0.4,0.1-0.8,0.2-1.1,0.2
				c-0.6,0.2-1.1,0.5-1.5,0.9s-0.7,0.9-0.9,1.5c-0.3,1.2,0,2.5,0.9,3.3c0.9,0.9,2.1,1.2,3.3,0.9c0.6-0.2,1.1-0.5,1.5-0.9
				s0.7-0.9,0.9-1.5c0.1-0.4,0.2-0.8,0.2-1.1c0-0.1,0-0.2,0.1-0.3c0-0.1,0-0.3,0.1-0.4C922.6,300.4,922.6,300.3,922.4,299.8
				C922.5,299.8,922.5,299.8,922.4,299.8z"/>
			<path display="inline" fill="#E2B67A" d="M834.4,260.5c-0.7-0.7-0.9-0.7-1.8-1.1c-0.4-0.2-0.8-0.4-1.3-0.5
				c-0.9-0.2-1.8-0.4-2.6-0.6c-1.7-0.4-3.7,0-5,1.3c-0.9,1-1.5,2.2-1.5,3.6c0,0.7,0.1,1.4,0.4,2c0.2,0.6,0.6,1.2,1.1,1.6
				c1.3,1.3,3.2,1.7,5,1.3c0.9-0.2,1.8-0.4,2.6-0.6c0.4-0.1,0.9-0.3,1.3-0.5c0.4-0.1,0.7-0.2,1-0.5c0.3-0.2,0.5-0.4,0.8-0.6
				c0.1-0.1,0.1-0.1,0.2-0.2c0.7-0.7,1.1-1.6,1.1-2.6s-0.4-1.9-1.1-2.5C834.5,260.7,834.4,260.6,834.4,260.5z"/>
			<path display="inline" fill="#E2B67A" d="M748.5,209.1c0.3,0.3,0.7,0.5,1.1,0.6c0.6,0.2,1.1,0.2,1.7,0c0.5-0.2,1-0.4,1.4-0.8
				c1-0.8,2-1.7,3-2.5c0.1-0.2,0.2-0.3,0.4-0.5c0.2-0.3,0.3-0.5,0.3-0.8c0.1-0.2,0.1-0.4,0-0.6c0-0.3-0.1-0.6-0.3-0.8
				c-0.2-0.3-0.5-0.6-0.8-0.8c-0.5-0.3-1.2-0.4-1.8-0.2c-1.3,0.3-2.6,0.7-3.9,1c-1,0.3-2,1.2-2.2,2.2c-0.2,0.8-0.1,1.7,0.3,2.4
				C747.9,208.6,748.2,208.9,748.5,209.1z"/>
			<path display="inline" fill="#E2B67A" d="M928.4,225.4L928.4,225.4L928.4,225.4c-0.1-0.1-0.2-0.2-0.2-0.2
				c-0.1-0.1-0.2-0.1-0.2-0.2c-0.2-0.2-0.5-0.4-0.8-0.5c-0.3-0.2-0.6-0.2-1-0.2c-0.2,0-0.4,0.1-0.7,0.1c-0.4,0.1-0.8,0.3-1.1,0.6
				c-0.4,0.3-0.7,0.6-0.9,1c-0.1,0.3-0.2,0.5-0.3,0.8s-0.1,0.6-0.1,0.9c0,0.3,0.1,0.6,0.1,0.8c0,0,0,0,0,0.1s0,0.1,0,0.2
				c0,0.1,0.1,0.3,0.1,0.4c0.1,0.2,0.2,0.5,0.3,0.7c0.2,0.3,0.4,0.6,0.8,0.8c0.2,0.2,0.4,0.3,0.7,0.4c0.4,0.2,0.7,0.3,1.2,0.3
				c0.3,0,0.5-0.1,0.8-0.1c0.2-0.1,0.5-0.2,0.7-0.3c0.3-0.2,0.6-0.4,0.8-0.8c0.3-0.3,0.4-0.6,0.5-1c0-0.1,0.1-0.3,0.1-0.4
				c0-0.1,0-0.1,0-0.2c0.1-0.3,0.1-0.6,0.1-0.9c0-0.5-0.2-1.2-0.4-1.6C928.8,225.9,928.6,225.6,928.4,225.4z"/>
			<path display="inline" fill="#E2B67A" d="M1249.4,175.9c-0.4,0.4-0.7,0.8-0.8,1.3c-0.3,0.5-0.4,1-0.4,1.6c0,0.4,0.1,0.7,0.1,1.1
				c0.2,0.7,0.5,1.3,1.1,1.8c0.3,0.2,0.6,0.4,0.8,0.6c0.6,0.4,1.3,0.6,2.1,0.6c0.6,0,1.1-0.1,1.6-0.4c0.5-0.2,0.9-0.4,1.3-0.8
				c0.4-0.4,0.7-0.8,0.8-1.3c0.3-0.5,0.4-1,0.4-1.6c0-0.4-0.1-0.7-0.1-1.1c-0.2-0.7-0.5-1.3-1.1-1.8c-0.3-0.2-0.6-0.4-0.8-0.6
				c-0.6-0.4-1.3-0.6-2.1-0.6c-0.6,0-1.1,0.1-1.6,0.4C1250.2,175.2,1249.8,175.5,1249.4,175.9z"/>
			<path display="inline" fill="#E2B67A" d="M1159,142.7c-0.3-0.1-0.7-0.1-1,0c-0.6,0.2-1.1,0.4-1.7,0.7c-0.5,0.1-0.9,0.4-1.2,0.7
				c-0.3,0.3-0.6,0.7-0.7,1.2c-0.3,0.9,0,2,0.7,2.7s1.7,1,2.7,0.7c0.5-0.1,0.9-0.4,1.2-0.7c0.3-0.3,0.6-0.7,0.7-1.2
				c0.2-0.6,0.4-1.1,0.7-1.7c0.1-0.3,0.1-0.7,0-1s-0.3-0.6-0.5-0.9C1159.6,142.9,1159.3,142.8,1159,142.7z"/>
			<path display="inline" fill="#E2B67A" d="M1249.1,99.8c0.5-0.1,0.9-0.6,1.1-1.1c0.1-0.2,0.1-0.4,0.2-0.6s0.1-0.5,0.1-0.7
				c0.2-0.2,0.3-0.5,0.5-0.7c0.1-0.2,0.1-0.4-0.1-0.6c-0.1-0.1-0.4-0.2-0.6-0.1c-0.2,0.2-0.5,0.3-0.7,0.5c-0.1,0-0.1-0.1-0.2,0
				c-0.1,0-0.1,0-0.2,0s-0.2,0.1-0.3,0.1c-0.2,0.1-0.4,0.1-0.6,0.2c-0.5,0.1-0.9,0.6-1.1,1.1c-0.1,0.5,0,1.1,0.4,1.5
				C1248,99.8,1248.5,100,1249.1,99.8z"/>
			<path display="inline" fill="#E2B67A" d="M1480.5,202.4c-0.3-0.5-0.6-0.9-1.1-1.2c-0.4-0.4-0.9-0.6-1.5-0.8
				c-0.3-0.1-0.6-0.1-0.9-0.2c-0.8-0.2-1.6-0.2-2.4,0s-1.4,0.6-2,1.2c-0.2,0.3-0.5,0.6-0.7,0.9c-0.4,0.7-0.6,1.5-0.6,2.3
				c0,0.6,0.1,1.2,0.4,1.7c0.2,0.6,0.5,1,0.9,1.5c0.6,0.6,1.2,0.9,2,1.2c0.8,0.2,1.6,0.2,2.4,0c0.3-0.1,0.6-0.1,0.9-0.2
				c0.3-0.1,0.7-0.3,1-0.4c0.5-0.3,0.9-0.6,1.2-1.1c0.3-0.3,0.5-0.6,0.6-1c0.3-0.5,0.4-1.1,0.4-1.7c-0.1-0.4-0.1-0.8-0.2-1.2
				C1480.8,203.1,1480.6,202.8,1480.5,202.4z"/>
			<path display="inline" fill="#E2B67A" d="M1468.2,135c0-0.3-0.1-0.7-0.1-1c-0.2-0.6-0.5-1.2-1-1.7c-0.2-0.2-0.4-0.5-0.6-0.7
				c-0.3-0.3-0.7-0.5-1-0.8c-0.4-0.2-0.8-0.3-1.2-0.5c-0.6-0.2-1.3-0.2-1.9-0.1c-0.4,0-0.8,0.1-1.2,0.3c-0.4,0.1-0.8,0.3-1.1,0.6
				c-0.4,0.2-0.7,0.5-0.9,0.9c-0.3,0.3-0.5,0.7-0.6,1.1c-0.3,0.6-0.4,1.2-0.4,1.9c0.1,0.4,0.1,0.9,0.2,1.3c0.2,0.4,0.3,0.8,0.5,1.2
				c0.3,0.3,0.5,0.7,0.8,1s0.7,0.5,1,0.8c0.4,0.2,0.8,0.3,1.2,0.5c0.6,0.2,1.3,0.2,1.9,0.1c0.4,0,0.8-0.1,1.2-0.3
				c0.6-0.2,1.1-0.5,1.6-1c0.2-0.2,0.4-0.5,0.6-0.7c0.4-0.3,0.6-0.8,0.8-1.2C1468.1,136,1468.2,135.5,1468.2,135z"/>
			<path display="inline" fill="#E2B67A" d="M1577.6,93.7c-0.3-0.2-0.5-0.4-0.8-0.6c-0.6-0.4-1.3-0.5-2-0.6c-0.6,0-1.1,0.1-1.6,0.3
				c-0.5,0.2-0.9,0.4-1.3,0.8s-0.7,0.8-0.8,1.3c-0.3,0.5-0.4,1-0.3,1.6c0,0.4,0.1,0.7,0.1,1.1c0.2,0.7,0.5,1.3,1,1.8
				c0.3,0.2,0.5,0.4,0.8,0.6c0.6,0.4,1.3,0.5,2,0.6c0.6,0,1.1-0.1,1.6-0.3c0.5-0.2,0.9-0.4,1.3-0.8s0.7-0.8,0.8-1.3
				c0.3-0.5,0.4-1,0.3-1.6c0-0.4-0.1-0.7-0.1-1.1C1578.5,94.8,1578.1,94.2,1577.6,93.7z"/>
			<path display="inline" fill="#E2B67A" d="M1565.6,198.3c-5.7,0-5.7,8.9,0,8.9C1571.3,207.2,1571.4,198.3,1565.6,198.3z"/>
			<path display="inline" fill="#E2B67A" d="M1497.9,340.1c-0.2-0.2-0.4-0.3-0.6-0.5c-0.5-0.3-1-0.4-1.6-0.4c-0.1,0-0.3,0-0.4,0
				c-0.5,0-0.9,0.1-1.4,0.2c-0.3,0.1-0.8,0.3-1.1,0.5c-0.1,0-0.2,0.1-0.2,0.1c-0.2,0.1-0.3,0.2-0.5,0.2c-0.6,0.4-1.1,0.9-1.5,1.5
				c-0.4,0.7-0.6,1.4-0.6,2.1c0.1,0.4,0.1,0.7,0.2,1.1c0.2,0.7,0.6,1.3,1.1,1.9c0.4,0.4,0.8,0.7,1.4,0.9c0.5,0.3,1,0.4,1.6,0.4
				c0.8,0,1.5-0.2,2.1-0.6s1.1-0.9,1.5-1.5c0.1-0.2,0.2-0.3,0.2-0.5c0-0.1,0.1-0.2,0.1-0.2c0.2-0.4,0.4-0.8,0.5-1.1
				c0.1-0.4,0.1-0.9,0.2-1.4c0-0.1,0-0.3,0-0.4c0-0.4-0.1-0.8-0.3-1.2C1498.4,340.7,1498.2,340.4,1497.9,340.1z"/>
			<path display="inline" fill="#E2B67A" d="M1660.1,136.8c-0.4-0.3-0.9-0.6-1.3-0.9c-0.5-0.3-1-0.4-1.6-0.4s-1.1,0.1-1.6,0.4
				c-1,0.6-1.6,1.6-1.6,2.7c0,1.1,0.6,2.2,1.6,2.7c0.5,0.3,1,0.4,1.6,0.4s1.1-0.1,1.6-0.4c0.4-0.3,0.9-0.6,1.3-0.9
				c0.3-0.2,0.6-0.4,0.8-0.8c0.2-0.3,0.3-0.7,0.3-1.1c0-0.4-0.1-0.7-0.3-1.1C1660.7,137.3,1660.4,137,1660.1,136.8z"/>
			<path display="inline" fill="#E2B67A" d="M3325.1,359.8v-0.1v-0.1c-0.2-0.4-0.3-0.7-0.5-1.1c0-0.1-0.1-0.2-0.2-0.2
				c-0.3-0.4-0.5-0.8-0.9-1.2c-0.4-0.4-0.8-0.7-1.3-0.8c-0.5-0.3-1-0.4-1.6-0.3c-0.4,0-0.7,0.1-1.1,0.1c-0.7,0.2-1.3,0.5-1.8,1
				c-0.1,0.1-0.2,0.3-0.3,0.4s-0.2,0.3-0.3,0.5c0,0,0,0.1-0.1,0.1c0,0.1-0.1,0.1-0.1,0.2c-0.3,0.5-0.5,1-0.7,1.5
				c-0.1,0.4-0.2,0.7-0.3,1.1c-0.2,0.9-0.2,1.7,0,2.6c0.2,0.8,0.6,1.5,1.3,2.1c0.3,0.3,0.7,0.5,1,0.8c0.8,0.4,1.6,0.7,2.5,0.7
				c0.7,0,1.3-0.1,1.9-0.4c0.6-0.2,1.1-0.5,1.6-1c1.2-1.2,1.7-3,1.3-4.7C3325.3,360.5,3325.2,360.1,3325.1,359.8z"/>
			<path display="inline" fill="#E2B67A" d="M3347.2,206.6c-0.4-0.5-0.9-0.9-1.3-1.4c-0.3-0.2-0.6-0.5-0.9-0.7
				c-0.4-0.1-0.7-0.3-1-0.4c-0.6-0.2-1.2-0.2-1.8-0.1c-0.4,0-0.8,0.1-1.1,0.3c-0.4,0.1-0.7,0.3-1,0.6c-0.3,0.2-0.6,0.5-0.8,0.8
				c-0.3,0.3-0.5,0.6-0.6,1c-0.3,0.5-0.4,1.1-0.4,1.7c0.1,0.4,0.1,0.8,0.2,1.2c0.1,0.3,0.3,0.7,0.4,1c0.2,0.3,0.5,0.6,0.7,0.9
				c0.3,0.2,0.6,0.5,0.9,0.7c0.3,0.1,0.7,0.3,1,0.4c0.6,0.2,1.2,0.2,1.8,0.1c0.4,0,0.8-0.1,1.1-0.3c0.5-0.2,1-0.5,1.4-0.9
				c0.4-0.5,0.9-0.9,1.3-1.4c0.2-0.2,0.4-0.5,0.5-0.8c0.2-0.3,0.2-0.6,0.2-0.9c0-0.2-0.1-0.4-0.1-0.6
				C3347.7,207.2,3347.5,206.9,3347.2,206.6z"/>
			<path display="inline" fill="#E2B67A" d="M3249.2,200.1c-0.1-0.1-0.2-0.2-0.3-0.4c-0.2-0.2-0.3-0.3-0.6-0.5
				c-0.2-0.2-0.5-0.4-0.7-0.5c-0.3-0.2-0.7-0.4-1-0.7c-0.9-0.5-1.8-0.7-2.8-0.8c-1,0-1.9,0.3-2.8,0.8c-1.7,1-2.7,2.8-2.7,4.8
				c0,1.9,1.1,3.8,2.7,4.8c0.9,0.5,1.8,0.7,2.8,0.8c1,0,1.9-0.3,2.8-0.8c0.3-0.2,0.7-0.4,1-0.7c0.5-0.3,0.9-0.6,1.3-1
				c0.1-0.1,0.2-0.2,0.3-0.4c0.4-0.3,0.6-0.8,0.8-1.2c0.2-0.5,0.3-0.9,0.3-1.5c0-0.3-0.1-0.7-0.1-1
				C3250,201.1,3249.7,200.6,3249.2,200.1z"/>
			<path display="inline" fill="#E2B67A" d="M3285.9,112.7c0.9-0.2,1.7-0.5,2.6-0.7c0.4-0.1,0.9-0.2,1.3-0.3
				c0.6-0.2,1.1-0.4,1.6-0.7c1.2-0.6,1.2-2.6,0-3.2c-0.5-0.3-1.1-0.5-1.6-0.7c-0.4-0.1-0.9-0.2-1.3-0.3c-0.9-0.2-1.7-0.5-2.6-0.7
				c-2.2-0.6-4.4,1.1-4.4,3.3c0,0.9,0.4,1.8,1,2.4C3283.4,112.7,3284.7,113,3285.9,112.7z"/>
			<path display="inline" fill="#E2B67A" d="M3281.2,508.8c-0.2-0.2-0.5-0.4-0.8-0.5c-0.3-0.2-0.6-0.2-0.9-0.2
				c-0.7,0-1.3,0.3-1.7,0.7l0,0c-0.2,0.2-0.4,0.5-0.5,0.8c-0.2,0.3-0.2,0.6-0.2,1c0,0.2,0.1,0.4,0.1,0.7c0.1,0.4,0.3,0.8,0.6,1.1
				c0.2,0.3,0.5,0.4,0.8,0.5c0.1,0.2,0.2,0.5,0.4,0.7c0.2,0.5,1,0.5,1.2,0c0.1-0.2,0.2-0.5,0.4-0.7c0.3-0.1,0.6-0.3,0.8-0.5
				s0.4-0.5,0.5-0.8c0.2-0.3,0.2-0.6,0.2-1C3282,510,3281.8,509.3,3281.2,508.8C3281.3,508.9,3281.3,508.8,3281.2,508.8z"/>
			<path display="inline" fill="#E2B67A" d="M3291.3,789.9c-0.1-0.4-0.3-0.9-0.4-1.3c-0.2-0.6-0.5-1.2-0.8-1.8
				c-0.4-0.8-1.4-1.3-2.3-1.3s-1.9,0.5-2.3,1.3c-0.3,0.6-0.6,1.2-0.8,1.8c-0.1,0.4-0.3,0.9-0.4,1.3c-0.4,1.2,0,2.7,0.9,3.5
				c0.2,0.2,0.5,0.4,0.7,0.6c0.6,0.3,1.2,0.5,1.8,0.5c0.5,0,1-0.1,1.4-0.3c0.5-0.1,0.8-0.4,1.2-0.8c0.5-0.5,0.8-1,0.9-1.6
				C3291.4,791.2,3291.4,790.6,3291.3,789.9z"/>
			<path display="inline" fill="#E2B67A" d="M3198.8,920c0.1,0.8,0.1,1.6,0.2,2.4c-0.1,1.5,1.1,2.2,2.2,2.1c1.2,0.1,2.3-0.6,2.2-2.1
				c0.1-0.8,0.1-1.6,0.2-2.4C3203.8,916.9,3198.6,916.9,3198.8,920z"/>
		</g>
	</g>
</g>
</svg>
