<?xml version="1.0" encoding="utf-8"?>
<!-- Generator: Adobe Illustrator 26.1.0, SVG Export Plug-In . SVG Version: 6.00 Build 0)  -->
<svg version="1.1" id="Warstwa_1" xmlns="http://www.w3.org/2000/svg" xmlns:xlink="http://www.w3.org/1999/xlink" x="0px" y="0px"
	 viewBox="0 0 2499.6 4003.6" style="enable-background:new 0 0 2499.6 4003.6;" xml:space="preserve">
<style type="text/css">
	.st0{display:none;}
	.st1{display:inline;}
	.st2{clip-path:url(#SVGID_00000044882035267895750930000009937246605555595905_);fill:#151619;}
	.st3{clip-path:url(#SVGID_00000072256899278291362330000002626280748084296072_);fill:#151619;}
	.st4{clip-path:url(#SVGID_00000096762437312844606520000010679455944819722173_);fill:#18191B;}
	.st5{clip-path:url(#SVGID_00000124156571898098022850000004146134094329873805_);fill:#1B1B1D;}
	.st6{clip-path:url(#SVGID_00000122691030550956819030000014805499231652020401_);fill:#1D1D1F;}
	.st7{clip-path:url(#SVGID_00000065034040015508061040000002771995577318373020_);fill:#1F1F20;}
	.st8{clip-path:url(#SVGID_00000183958228039067743890000012796633307378597811_);fill:#202021;}
	.st9{clip-path:url(#SVGID_00000041977038258291478750000005086640847983585181_);fill:#212122;}
	.st10{clip-path:url(#SVGID_00000098943641305603923130000012093163383825462440_);fill:#222222;}
	.st11{clip-path:url(#SVGID_00000100358207709087239110000017975849200877286831_);fill:#222223;}
	.st12{clip-path:url(#SVGID_00000170960132080319381770000004862816580193911958_);fill:#232323;}
	.st13{clip-path:url(#SVGID_00000134241181174200733860000006826241179916252575_);fill:#232323;}
	.st14{clip-path:url(#SVGID_00000041286586897959557320000014515440023176605076_);fill:#232323;}
	.st15{clip-path:url(#SVGID_00000023962021112588113010000013807392082969115319_);fill:#232323;}
	.st16{clip-path:url(#SVGID_00000039128168352875775450000009977014764797942656_);fill:#232323;}
	.st17{opacity:0.1;clip-path:url(#SVGID_00000068648932003386202510000005043101902682256015_);}
	.st18{fill:#FED7A5;}
	.st19{display:none;fill:#FED7A5;}
	.st20{display:inline;fill:#E2B67A;}
</style>
<g id="Background" class="st0">
	<g class="st1">
		<g>
			<g>
				<g>
					<defs>
						
							<rect id="SVGID_1_" x="0.3" y="0" transform="matrix(1 -4.065529e-03 4.065529e-03 1 -8.1208 5.0996)" width="2500" height="4000"/>
					</defs>
					<clipPath id="SVGID_00000116920490144726310440000002420648700047591598_">
						<use xlink:href="#SVGID_1_"  style="overflow:visible;"/>
					</clipPath>
					
						<rect x="0.3" y="0" transform="matrix(1 -4.065529e-03 4.065529e-03 1 -8.1208 5.0996)" style="clip-path:url(#SVGID_00000116920490144726310440000002420648700047591598_);fill:#151619;" width="2500" height="4000"/>
				</g>
			</g>
			<g>
				<g>
					<defs>
						
							<rect id="SVGID_00000107583135928969055200000003315975769908379820_" x="0.3" y="0" transform="matrix(1 -4.065529e-03 4.065529e-03 1 -8.1208 5.0996)" width="2500" height="4000"/>
					</defs>
					<clipPath id="SVGID_00000155111727955120365280000002662310235861585545_">
						<use xlink:href="#SVGID_00000107583135928969055200000003315975769908379820_"  style="overflow:visible;"/>
					</clipPath>
					<path style="clip-path:url(#SVGID_00000155111727955120365280000002662310235861585545_);fill:#151619;" d="M1153.4,4001.4
						l-919.8,3.7l-226.2,0.9L-8.8,4.1l2403.3-9.8l0-1.3c4,2.7,8,5.5,12,8.2c16,10.9,31.9,22.1,47.7,33.3
						c7.9,5.7,15.7,11.3,23.6,17.1c3.9,2.9,7.8,5.8,11.7,8.7c1.9,1.5,3.9,2.9,5.8,4.4l-1.9,0l16,3931.3L1153.4,4001.4z"/>
				</g>
			</g>
			<g>
				<g>
					<defs>
						
							<rect id="SVGID_00000140698812259709652750000000169905716642337675_" x="0.3" y="0" transform="matrix(1 -4.065529e-03 4.065529e-03 1 -8.1208 5.0996)" width="2500" height="4000"/>
					</defs>
					<clipPath id="SVGID_00000003810636111799173140000004125896358472677520_">
						<use xlink:href="#SVGID_00000140698812259709652750000000169905716642337675_"  style="overflow:visible;"/>
					</clipPath>
					<path style="clip-path:url(#SVGID_00000003810636111799173140000004125896358472677520_);fill:#18191B;" d="M1153.3,4001.4
						l-854.1,3.5l-291.8,1.2L-8.3,143l-6.8,0c3.8-2.5,7.5-5,11.3-7.4c30-19.8,60.6-38.8,91.6-57.2s62.5-35.8,94.3-52.5
						c16-8.4,32-16.5,48.2-24.4l0,1.6l1805.7-7.3l0-3.2c16.2,7.8,32.4,15.8,48.4,24c32.1,16.4,63.6,33.5,94.8,51.5
						c62.3,35.9,122.9,75,181.5,117.1c29.3,21,58.1,42.8,86.4,65.2c14.1,11.2,28.1,22.6,42,34.2c3.5,2.9,6.9,5.8,10.3,8.8l-5,0
						l15,3691.1l3,0c-1.7,1.5-3.4,2.9-5.2,4.4c-3.5,2.9-6.9,5.8-10.4,8.7l0-1.6L1153.3,4001.4L1153.3,4001.4z"/>
				</g>
			</g>
			<g>
				<g>
					<defs>
						
							<rect id="SVGID_00000142134621298189999890000009394355067948890292_" x="0.3" y="0" transform="matrix(1 -4.065529e-03 4.065529e-03 1 -8.1208 5.0996)" width="2500" height="4000"/>
					</defs>
					<clipPath id="SVGID_00000121965776510818535040000013866211121191315085_">
						<use xlink:href="#SVGID_00000142134621298189999890000009394355067948890292_"  style="overflow:visible;"/>
					</clipPath>
					<path style="clip-path:url(#SVGID_00000121965776510818535040000013866211121191315085_);fill:#1B1B1D;" d="M1153.1,4001.4
						l-788.4,3.2l-261.9,1.1l0,1.4c-28-18-55.5-36.8-82.4-56.2c-6.7-4.9-13.4-9.7-20.2-14.7l7,0L-7.3,354.3l0,0
						c3.4-2.5,6.7-4.9,10.1-7.4c107.4-78.6,222.1-146.5,343-202.1S593.5,45.9,725.2,16.2C758,9,791.2,2.5,824.7-3.3l0,4l616.8-2.5
						l0-4.5c33.5,5.4,66.8,11.5,99.8,18.6c132,28.3,259.3,70.3,380.7,124.8s236.9,121.1,345,198.7c54.1,38.8,106.3,80.3,156.5,124.4
						c25.1,22,49.7,44.6,73.8,67.9l-2,0l13.1,3217.2l4.8,0c-23.9,23.5-48.2,46.4-73.1,68.7c-49.8,44.5-101.6,86.5-155.3,125.8
						c-26.8,19.7-54.1,38.6-81.9,56.9c-3.5,2.3-7,4.5-10.5,6.8l0-6.3L1153.1,4001.4L1153.1,4001.4z"/>
				</g>
			</g>
			<g>
				<g>
					<defs>
						
							<rect id="SVGID_00000103260870565897185730000008970065373917591468_" x="0.3" y="0" transform="matrix(1 -4.065529e-03 4.065529e-03 1 -8.1208 5.0996)" width="2500" height="4000"/>
					</defs>
					<clipPath id="SVGID_00000165939075439211824040000003267218147420955059_">
						<use xlink:href="#SVGID_00000103260870565897185730000008970065373917591468_"  style="overflow:visible;"/>
					</clipPath>
					<path style="clip-path:url(#SVGID_00000165939075439211824040000003267218147420955059_);fill:#1D1D1F;" d="M1153,4001.4
						l-374.1,1.5l-285.5,1.2l0,5.2c-7.1-2.9-14.1-5.7-21.1-8.7c-14.1-5.8-28-11.9-42-18.1c-111.3-49.8-217.2-111-316.2-182.1
						c-24.8-17.8-49.1-36.2-73-55.2c-11.9-9.5-23.8-19.1-35.5-29l0.9,0L-6.3,581.8l-3.6,0c11.7-9.9,23.4-19.7,35.3-29.3
						c23.7-19.2,47.9-37.9,72.5-55.9c98.4-72.1,203.7-134.2,314.4-185.2c221.6-101.9,465.5-158.9,721.8-160.1
						c512.4-2.5,977.6,218.1,1315.3,577.1c10.5,11.3,21,22.5,31.2,34.1c5.1,5.8,10.2,11.6,15.4,17.3c1.3,1.5,2.5,2.9,3.8,4.4l-3.4,0
						l11,2709.7l2,0c-5.1,5.8-10.1,11.6-15.2,17.5c-10.2,11.5-20.5,23-31,34.3c-167.1,181-366.3,327.8-587.9,429.7
						c-13.9,6.4-27.7,12.5-41.8,18.6c-7,3-14.1,6-21.1,8.9l0-4L1153,4001.4z"/>
				</g>
			</g>
			<g>
				<g>
					<defs>
						
							<rect id="SVGID_00000074404485690426697480000013303296353613299120_" x="0.3" y="0" transform="matrix(1 -4.065529e-03 4.065529e-03 1 -8.1208 5.0996)" width="2500" height="4000"/>
					</defs>
					<clipPath id="SVGID_00000044860563538109488100000007451956490010475697_">
						<use xlink:href="#SVGID_00000074404485690426697480000013303296353613299120_"  style="overflow:visible;"/>
					</clipPath>
					<path style="clip-path:url(#SVGID_00000044860563538109488100000007451956490010475697_);fill:#1F1F20;" d="M1152.6,3954.3
						c-233,1.1-455.2-48.4-657.6-139c-101.2-45.3-197.4-100.9-287.5-165.5c-45-32.3-88.6-66.9-130.4-103.6
						c-21-18.3-41.5-37.2-61.5-56.7c-5-4.9-10-9.8-15-14.6l4.6,0L-5.5,823.2l-6.9,0c4.9-4.9,9.9-9.8,14.8-14.8
						c19.9-19.6,40.2-38.7,61-57.2c41.4-37.1,84.7-72.1,129.4-104.9c89.4-65.6,185.1-122.1,285.8-168.4
						c201.4-92.6,423.1-144.4,656.1-145.6c466-2.3,888.9,198.3,1195.8,524.5c38.4,40.7,74.9,83.5,109.5,128.1
						c17.3,22.2,34.1,45,50.5,68.2c4.1,5.8,8.1,11.6,12.2,17.5l-5.2,0l8.7,2140.8l1.1,0c-2,2.9-4,5.8-6,8.7
						c-16.1,23.4-32.7,46.2-49.7,68.7c-34.2,44.9-70.3,88-108.3,129.1C2039.5,3747.2,1618.6,3952,1152.6,3954.3z"/>
				</g>
			</g>
			<g>
				<g>
					<defs>
						
							<rect id="SVGID_00000127041112185708887400000014590467033017085060_" x="0.3" y="0" transform="matrix(1 -4.065529e-03 4.065529e-03 1 -8.1208 5.0996)" width="2500" height="4000"/>
					</defs>
					<clipPath id="SVGID_00000182528431696592665830000008534750476478947737_">
						<use xlink:href="#SVGID_00000127041112185708887400000014590467033017085060_"  style="overflow:visible;"/>
					</clipPath>
					<path style="clip-path:url(#SVGID_00000182528431696592665830000008534750476478947737_);fill:#202021;" d="M1151.7,3773.2
						c-419.4,2.1-800-178.4-1076.3-472c-17.3-18.3-34.2-37.2-50.5-56.4c-8.2-9.6-16.4-19.3-24.3-29.1l3.7,0l-8.7-2133.3l-5.5,0
						c7.9-9.9,15.9-19.7,24.1-29.4c16.2-19.4,32.9-38.3,50-56.8c273.4-296.4,652.2-480.7,1071.5-482.8s800,178.4,1076.3,472
						c69.1,73.4,131.6,153.9,186.7,240.3c27.5,43.2,53.2,87.9,76.7,134c5.9,11.5,11.7,23.2,17.3,34.8c2.8,5.9,5.6,11.7,8.4,17.6
						l-2.2,0l5.9,1448.7l3.4,0c-2.7,5.9-5.5,11.8-8.2,17.6c-5.6,11.7-11.2,23.4-17,35c-23.1,46.3-48.3,91.3-75.5,134.7
						c-54.1,87-115.9,168.1-184.2,242.2C1949.9,3586.9,1571.1,3771.1,1151.7,3773.2z"/>
				</g>
			</g>
			<g>
				<g>
					<defs>
						
							<rect id="SVGID_00000160910899319096173920000015369140934286146750_" x="0.3" y="0" transform="matrix(1 -4.065529e-03 4.065529e-03 1 -8.1208 5.0996)" width="2500" height="4000"/>
					</defs>
					<clipPath id="SVGID_00000081626995368756795160000007126772654167188871_">
						<use xlink:href="#SVGID_00000160910899319096173920000015369140934286146750_"  style="overflow:visible;"/>
					</clipPath>
					<path style="clip-path:url(#SVGID_00000081626995368756795160000007126772654167188871_);fill:#212122;" d="M1150.9,3592.1
						c-372.8,1.8-711.2-158.6-956.7-419.6c-61.4-65.3-117-136.7-165.9-213.6c-6.1-9.6-12.1-19.3-18-29c-2.9-4.9-5.8-9.8-8.8-14.7
						l1.6,0l-6.2-1532.3l-2.9,0c2.9-4.9,5.8-9.9,8.6-14.8c5.8-9.8,11.7-19.5,17.8-29.3c48.2-77.3,103-149.4,163.8-215.3
						c243-263.4,579.7-427.2,952.5-429.1c745.5-3.5,1353.1,642.1,1357.1,1442.2C2497.7,2936.9,1896.4,3588.4,1150.9,3592.1z"/>
				</g>
			</g>
			<g>
				<g>
					<defs>
						
							<rect id="SVGID_00000152944454259441684270000017714669660025840553_" x="0.3" y="0" transform="matrix(1 -4.065529e-03 4.065529e-03 1 -8.1208 5.0996)" width="2500" height="4000"/>
					</defs>
					<clipPath id="SVGID_00000085946848357041352250000002149717888465408447_">
						<use xlink:href="#SVGID_00000152944454259441684270000017714669660025840553_"  style="overflow:visible;"/>
					</clipPath>
					<path style="clip-path:url(#SVGID_00000085946848357041352250000002149717888465408447_);fill:#222222;" d="M1149.9,3411
						c-326.2,1.6-622.2-138.9-837.1-367.2c-107.5-114.2-194.6-250.3-255.1-401.7c-15.2-37.8-28.6-76.6-40.3-116.2
						c-5.9-19.8-11.3-39.9-16.2-60c-2.4-10.1-4.9-20.3-7.1-30.5l7,0l-2.5-603.1l-0.5,0C2.8,1812,8,1792,13.7,1772
						c11.3-39.7,24.4-78.7,39.1-116.7c59-151.9,144.8-289,251.2-404.2c212.7-230.5,507.3-373.8,833.5-375.4
						c652.4-3.3,1184.1,561.7,1187.5,1261.9C2328.4,2837.6,1802.3,3407.8,1149.9,3411z"/>
				</g>
			</g>
			<g>
				<g>
					<defs>
						
							<rect id="SVGID_00000047753678519295300320000000511441977847449257_" x="0.3" y="0" transform="matrix(1 -4.065529e-03 4.065529e-03 1 -8.1208 5.0996)" width="2500" height="4000"/>
					</defs>
					<clipPath id="SVGID_00000023256927801896178270000004582862165169279378_">
						<use xlink:href="#SVGID_00000047753678519295300320000000511441977847449257_"  style="overflow:visible;"/>
					</clipPath>
					
						<ellipse transform="matrix(1 -4.065331e-03 4.065331e-03 1 -8.704 4.6671)" style="clip-path:url(#SVGID_00000023256927801896178270000004582862165169279378_);fill:#222223;" cx="1143.7" cy="2143.4" rx="1012.5" ry="1086.6"/>
				</g>
			</g>
			<g>
				<g>
					<defs>
						
							<rect id="SVGID_00000119838980684845008040000009736954843426588823_" x="0.3" y="0" transform="matrix(1 -4.065529e-03 4.065529e-03 1 -8.1208 5.0996)" width="2500" height="4000"/>
					</defs>
					<clipPath id="SVGID_00000177446344275471347830000002971398335329440391_">
						<use xlink:href="#SVGID_00000119838980684845008040000009736954843426588823_"  style="overflow:visible;"/>
					</clipPath>
					
						<ellipse transform="matrix(1 -4.065529e-03 4.065529e-03 1 -8.7044 4.6673)" style="clip-path:url(#SVGID_00000177446344275471347830000002971398335329440391_);fill:#232323;" cx="1143.7" cy="2143.4" rx="843.8" ry="905.5"/>
				</g>
			</g>
			<g>
				<g>
					<defs>
						
							<rect id="SVGID_00000172425563377192041320000007993659654161954688_" x="0.3" y="0" transform="matrix(1 -4.065529e-03 4.065529e-03 1 -8.1208 5.0996)" width="2500" height="4000"/>
					</defs>
					<clipPath id="SVGID_00000113316644146616584370000001887897722682466713_">
						<use xlink:href="#SVGID_00000172425563377192041320000007993659654161954688_"  style="overflow:visible;"/>
					</clipPath>
					
						<ellipse transform="matrix(1 -4.065827e-03 4.065827e-03 1 -8.705 4.6676)" style="clip-path:url(#SVGID_00000113316644146616584370000001887897722682466713_);fill:#232323;" cx="1143.7" cy="2143.4" rx="675" ry="724.4"/>
				</g>
			</g>
			<g>
				<g>
					<defs>
						
							<rect id="SVGID_00000024724021978529416460000017314978691670889621_" x="0.3" y="0" transform="matrix(1 -4.065529e-03 4.065529e-03 1 -8.1208 5.0996)" width="2500" height="4000"/>
					</defs>
					<clipPath id="SVGID_00000130649420012236349560000013551660343590706594_">
						<use xlink:href="#SVGID_00000024724021978529416460000017314978691670889621_"  style="overflow:visible;"/>
					</clipPath>
					
						<ellipse transform="matrix(1 -4.065529e-03 4.065529e-03 1 -8.7044 4.6673)" style="clip-path:url(#SVGID_00000130649420012236349560000013551660343590706594_);fill:#232323;" cx="1143.7" cy="2143.4" rx="506.3" ry="543.3"/>
				</g>
			</g>
			<g>
				<g>
					<defs>
						
							<rect id="SVGID_00000069395497143222714420000009357741035864494271_" x="0.3" y="0" transform="matrix(1 -4.065529e-03 4.065529e-03 1 -8.1208 5.0996)" width="2500" height="4000"/>
					</defs>
					<clipPath id="SVGID_00000114042693187715688820000002775076900403989183_">
						<use xlink:href="#SVGID_00000069395497143222714420000009357741035864494271_"  style="overflow:visible;"/>
					</clipPath>
					
						<ellipse transform="matrix(1 -4.065529e-03 4.065529e-03 1 -8.7044 4.6673)" style="clip-path:url(#SVGID_00000114042693187715688820000002775076900403989183_);fill:#232323;" cx="1143.7" cy="2143.4" rx="337.5" ry="362.2"/>
				</g>
			</g>
			<g>
				<g>
					<defs>
						
							<rect id="SVGID_00000031175016065828812940000015091032602802792326_" x="0.3" y="0" transform="matrix(1 -4.065529e-03 4.065529e-03 1 -8.1208 5.0996)" width="2500" height="4000"/>
					</defs>
					<clipPath id="SVGID_00000000193552321687160210000005422473691424207488_">
						<use xlink:href="#SVGID_00000031175016065828812940000015091032602802792326_"  style="overflow:visible;"/>
					</clipPath>
					
						<ellipse transform="matrix(1 -4.064332e-03 4.064332e-03 1 -8.7018 4.6659)" style="clip-path:url(#SVGID_00000000193552321687160210000005422473691424207488_);fill:#232323;" cx="1143.7" cy="2143.4" rx="168.8" ry="181.1"/>
				</g>
			</g>
		</g>
	</g>
</g>
<g id="Object">
	<g>
		<g>
			<g>
				<g>
					<defs>
						
							<rect id="SVGID_00000129180882945214060630000011238799516827316896_" x="0.3" y="0" transform="matrix(1 -4.065529e-03 4.065529e-03 1 -8.1208 5.0996)" width="2500" height="4000"/>
					</defs>
					<clipPath id="SVGID_00000111898062889571165780000006136993823296604292_">
						<use xlink:href="#SVGID_00000129180882945214060630000011238799516827316896_"  style="overflow:visible;"/>
					</clipPath>
					<g style="opacity:0.1;clip-path:url(#SVGID_00000111898062889571165780000006136993823296604292_);">
						<path class="st18" d="M2211.1,4972.5c16.8-0.6,33.8-2.3,50.6-5c2.3-0.3,1.9-4.5-0.3-4.1c-64.9,7.9-131.2,0.5-191.8-24.6
							c-52.2-21.8-99.9-56.6-139.7-101.4c-34.6-39-63.5-86.1-81.9-139c-7.8-22.5-13.9-45.9-16.7-70.3c-3.1-26.1-1.4-51.3,2.1-77.7
							c24.6-180.4,109.8-340.6,168.8-508.2c28.8-81.7,51.4-166.2,59.8-253.6c7.4-78.4,3.8-158.1-14.8-232.5
							c-1.2-5.2-2.3-10.3-3.7-15.5c0-0.3-0.3-0.4-0.5-0.4c-39.6-139.4-144.3-258.3-272.5-270.2c-4.3-0.3-8.4-0.7-12.7-0.8
							c12.9-1.2,25.6-2,38.5-2.5c0.2,0.1,0.2,0.3,0.4,0.3c76.2,3.2,150.8,31.4,212.6,81.6c61.1,49.6,108.8,119.6,137.2,201.3
							c28.9,82.7,37.1,174.2,25.1,264.7c-7,52.6-19,104.5-26.3,157.1c-7.2,51.3-8.1,101.9-1.1,152.3c6.4,46.2,15.6,94.8,36,134.7
							c17.9,35,44.6,62.8,76.2,79.2c7.8,4.1,15.6,7,24,9.3c1.7,0.5,2.4-2.8,0.8-3.5c-34.6-15-65.3-38-87.6-72.7
							c-24.8-38.9-35.2-88.4-42.7-136.1c-8.4-52.5-8.6-104.7-1.5-158c7-52.6,18.8-104.4,25.9-157.2c11.8-88.3,5-177.2-21.3-258.9
							c-26.1-80.3-69.9-150.5-127.3-201.9c-56-50.2-123.6-83-194.5-92.7c39.5,0.7,78.9,4.7,118.2,13.7
							c212.5,48.4,382.7,257.9,430.4,506c11.5,59.6,16.4,122.9,12.4,184.9c-0.2,3.1,4,3.8,4.1,0.6
							c16.1-246.9-90.4-481.1-260.1-610.5c-90-68.6-191.5-99.4-300-101.1c-75.6-1.2-150.8,9.9-225.6,26.3
							c-89.1,15.1-179.3,21.8-267.7,10.1c-68.8-9.2-137.3-29.6-196.7-70.2c-38.6-26.3-74.5-62.1-96.7-108.5
							c-11.2-23.2-16.6-48.3-20.6-74.9c-7.2-49.2-6.8-99.8,1.6-149.5c16.6-99.7,61.9-190.2,111.4-273.1
							c53.7-90,114-174.4,167.8-264.3c44.4-74.3,83.7-152.4,110.6-236.6c15.6-44.4,26.8-90.4,31.5-137.7c0-0.5,0.1-1,0.1-1.5
							c12.9-88.7,12.7-179.1,0.9-266.8c-13.9-102.6-43.1-201.3-83.3-291.9c-13.2-30.1-27.9-59.3-43.7-87.7c-0.9-1.8-1.7-3.7-2.6-5.5
							c-0.2-0.5-0.5-0.7-0.9-0.8c-13.5-23.9-28.1-47-43.5-69.2c-39.4-58.6-87.4-109.3-139.8-151.1c-86.8-69.2-186.3-113.3-282-162.7
							c-74.8-38.5-151.1-81-214.2-142.4c-54.8-65.3-91.3-153.5-93.5-248.4c-2.9-130.5,61.6-252.2,126.3-355.3
							c65.7-104.7,143-198.8,212.3-300.5c65.9-96.8,126.5-202.3,159.3-320.3c29.6-106.4,36.3-224,4.1-327.3
							c-4.1-13.2-9-25.9-14.3-38.3c-0.6-1.3-2.5-0.5-1.9,0.9c41.5,103.3,40.6,224.9,14,337c-28.9,121.8-88.9,231.3-154.6,331.2
							C827.3-15.6,750.9,80.3,683.2,184.6c-65.6,101-130.8,217.4-135.8,346.5c-3.7,95.8,29.4,187.3,81.7,255.9
							c-12-12.8-23.5-26.2-34.4-40.7c-93.5-125.5-100.6-277.9-81.3-434.2c0.2,0.5,0.9,0.5,1-0.2c0.5-7.1,1.2-14.4,1.8-21.5
							c5.9-41.8,13.3-83.9,21.4-125.8c11.1-45,25.7-88.9,43.9-131.1c36.9-85.4,84.9-163.9,120.2-250.2
							c64.2-157.2,93.4-340.5,43.1-502.7c-24.2-78.2-65.3-148.8-122.9-196.1c-1.3-1.1-2.8,1.2-1.5,2.3
							c104.5,94.5,152,253.2,143.7,410.4c-4.8,92.2-26.8,183-59.7,268.1c-33,85.5-78.7,163-116.2,245.7
							c-17.1,37.8-31.6,76.8-43.4,116.8c13-65.2,26.4-129.4,36-191.2c20.6-131.6,21.5-261.8-8.3-388.7
							C543.7-575.2,490.3-688.9,417-780.6c-35.4-44.2-75.3-83-118.8-115.7c-0.8-0.5-1.6,0.8-0.9,1.3
							c188.5,142.1,303.5,405.1,295.1,676.6C588-74.6,550.4,66,524,206.7c-24.5,131.3-42,271.5-5.2,398.6
							C546.6,701,599,770.8,663.1,826.1c1.4,1.4,2.8,2.8,4.1,4.2c0.2,0.3,0.6,0.2,0.8,0c94.5,79.9,213.4,129.5,316.4,184.2
							c14.5,7.7,28.8,15.6,43.1,23.9c-16.8-8.4-33.8-15.9-51.3-22.4c-70.9-26.4-145.9-39.1-220-50.6c-83.8-12.8-167.6-26.1-245-64.9
							c-40.7-20.5-79-47-113.3-79.6c-22.3-23.8-42.3-50.7-59.3-80c-23.9-41.3-41.8-88.1-52.5-137c-12.6-57.6-13.7-118.3-8-178.3
							c12.8-133.2,55-261.3,67.5-394.6C356.9-92.1,348-218,312.1-332c-31.6-100.6-84-193.2-155.1-259c-8.9-8.3-18.1-16.2-27.6-23.8
							c-1.2-0.9-2.6,1.2-1.4,2.1c75.8,63.3,134,153.7,170.4,255.2c40.8,113.8,53.8,240.8,45.1,366.2c-4.5,66-16,130.8-29.3,195.4
							c-13.8,66.3-28.9,132.4-36.9,199.8c-7.1,59.7-8.6,120.4,1.7,178.7c8.5,48.4,24,94.4,45.2,136.2c13.3,26.3,28.8,50.9,46.2,73.3
							c-36.8-41.7-67.2-91-91.3-144.4c-23.6-52.3-41.5-108.3-55.7-165.5c-14.1-56.5-24.8-114.3-34.3-172.3
							c-9-54.9-17.1-110-26.6-164.8c-8.5-48.3-18-96.5-32.5-142.4c-6.3-20-13.7-39.5-22.6-58.1c-18.1-37.8-40-75.9-70.6-100.8
							c-14.6-11.8-30.9-19.9-48.6-22.8c-3.3-0.6-4,5.3-0.8,6.1c40.3,8.9,69.8,43.3,92.5,81.2C93.8-68,106.2-42.5,116-15.6
							C131.8,28.2,142.3,75,151,121.7c10.2,53.4,18.2,107.5,26.9,161.3c9.2,57,19.1,114,31.9,169.9c13.1,57.4,29,113.8,50.5,167.2
							c21.5,53.7,48.5,104.3,82,148.4c35.8,47.1,78.5,86.1,126,115.8c64.5,40.4,136,62.1,208.9,74.7
							c82.8,14.4,166.4,22.7,247.9,44.8c69.1,18.7,132.9,50.7,192.9,93.5c53.1,39.4,102,85.8,143.8,142.9
							c81,110.8,128.7,253.5,113.1,405.7c-13.6,133.8-71.6,251.7-155,344.3c-63.9,71-137.6,128.7-211,184.3
							c-82,62.1-168.7,122.8-247.9,193.6c11.2-12.9,22.2-25.8,33.2-39.1c27.4-28.1,55.1-55.9,82-84.8
							c54.4-58.5,107.7-118.9,155.1-185.5c21.9-30.8,42.7-63,60.3-97.4c22.1-43.2,39.5-89.8,53.5-137.1c28-94.4,40.2-195.7,19.1-291
							c-5.5-24.7-13-48.6-22.2-71.5c0-0.2-0.1-0.5-0.2-0.8c-0.2-0.7-0.7-1.4-1-2.1c-22.7-55.5-55.3-105-94.7-144.5
							c-63.7-64-144.9-101.2-228.4-114.8c-43.8-7.1-88.2-7.5-132.5-2.4c-48.8,5.5-97.3,16.7-145.7,26.4
							c-95.9,18.9-193.6,29.8-289.6,20.3c-86.5-8.6-171.2-34.2-246.3-83.6c-66.8-43.9-125.4-106.1-165.5-183.6
							c-9.8-19-19.2-38.7-26.3-59.5c-0.8-2.4-4-0.8-3.1,1.6c14.1,41,31.6,78.6,54.8,113.2c22.8,34.2,49.9,64.6,79.4,90.7
							c61.6,54.8,133.6,91.3,209.4,111.3c91.7,24.1,187.5,24.7,281.9,13.1c48.1-5.9,95.7-15.7,143.4-26
							c47.6-10.1,95.4-19.9,143.6-22.3c40.8-2,81.5,1.4,121.2,10.4c-12.1-1.4-24.3-2.1-36.7-1.8c-67.5,1.3-133.3,25.9-195.7,58.3
							c-28.6,14.9-57.2,30.7-85.2,47.1c-43,25.2-85.1,53-127.8,79.1c-42.5,26.1-85.9,50.5-131.1,68.5
							c-40.7,16.1-82.6,25.4-124.9,28.8c-90.9,7.2-183.9-10.8-263.9-58.2c-10.7-6.3-21.3-13.3-31.7-20.5c-1.6-1.1-3.3,1.6-1.9,2.7
							c74,57,165.9,81.7,255.4,82c40.2,0.2,80.7-4.5,120.4-15c44.8-12,87.8-32.4,129.6-55.8c43.7-24.5,86.1-52.3,129-79.1
							c33.9-21.2,68.4-41,103-60c60.3-33.4,122.8-62.6,188.5-71.5c36.6-5,73.5-3.3,109,5.4c33.6,10.8,66.1,26,96.6,45.6
							c48.3,31.2,90.6,74.2,123.5,126c-40.1-46.7-94.1-76.8-150-89.1c-93.6-20.6-193.6,8.5-281.4,55.3
							c-96.4,51.2-182.7,125.9-271.8,193.2c-86.8,65.5-178.8,126.1-279.3,150.2c-101.3,24.3-203.6,9.2-296.4-35.7
							c-11.5-5.6-22.9-11.9-33.9-18.6c-2.4-1.5-4.1,3.2-1.8,4.6c84.9,56.6,185.1,79.1,284.3,66.6c99-12.3,191.3-62.6,277.4-123
							c90.8-63.7,176.1-138.5,268.6-198.4c89.2-57.7,187.7-101.5,288.4-95.9c82.1,4.6,164.4,45.9,214.3,122.8
							c6.4,12.2,12.3,24.6,17.6,37.7c16.5,40.2,27.9,83.7,32.6,128.9c5.1,50.3,1.7,101.9-7.1,152.3
							c-16.4,94.4-50.5,187.5-99.3,266.5c-43.5,70.2-95.8,133.5-149.1,193.4c-34.5,38.7-70.2,75.7-105.7,112.9
							c18.8-23.3,37.1-47.3,54.6-72.1c41.8-52.2,82.5-105.6,117.9-164c35.1-57.9,62.4-122.6,75.5-191.6
							c14.5-75.8,8-152.6-19.9-220.5c-24.7-60.5-62-116-113-147.1c-48.9-29.8-106.9-34.6-161.9-22.7
							c-120.2,26.3-214.5,128.9-292.8,237c-79.6,110.1-149.9,231.5-243.5,326.4c-1.1,1-2.1,2-3.2,3.1
							c-65.9,56.3-137.7,102.4-215.9,126.1c-84.2,25.4-174.8,26.5-253.5-12.7c-19-9.5-37.9-20.5-54.6-34.7c-2.3-1.9-5,2.2-2.8,4.2
							c16.4,13.8,33.2,26.8,51.7,36.7c18.6,10,38.2,17.4,58.2,22.9c40.3,11,82.4,13.1,124.1,8.6c87.1-9.4,170.6-47.7,246-103.2
							c80.1-58.9,150.7-134.6,218.4-212.4c33.9-39,67.2-78.7,101-117.9c34.8-40.2,70.9-79.7,111.2-112.2
							c77.2-62.2,175.5-95.9,259.5-45.5c35.1,21,65,54.1,85.9,93.6c20.4,38.7,31.2,83,35,128.9c6.7,78.7-9,157.9-38.7,230.1
							c-29.7,72.4-71.8,137.3-117.3,197c-43.5,57.2-90.9,110-137.9,163.2c-35.2,39.6-73.2,79.2-100.8,126.9
							c-3.3,5.5-6.1,11.5-8.7,17.4c-51.4,86.4-86.7,188.8-92.3,292.9c-6.5,121.7,27.5,242,93.2,331.5
							c76.7,104.3,190,151.9,303.2,178.4c119.1,28,238.5,27.8,360.1,3.8c121-23.8,243.6-66.4,366.5-94.3c15-2.9,29.8-6,44.8-9.4
							c32.4-6.3,64.9-11.2,97.5-14.3c56.4,2.3,110.7,27.3,156.1,64.3c54.1,44.2,96.7,106.3,122.1,178.8c4.8,13.8,9,27.8,12.7,42.2
							c12.5,79,7,159.8-15.7,238c-23.2,80.6-61.5,154.3-105.1,222.5c-80.4,126-180.1,244.3-217.4,398.8
							c-21.1,86.9-24.5,185.4-0.2,269.4c0.7,2.6,4.4,1.4,3.9-1.3c-7.3-40.2-12.8-80.6-13.3-122.2c-0.5-42,3.6-84.3,12.1-125.6
							c16.2-78.7,49.7-150.5,89.5-216.8c39.1-65.3,83.5-125.6,124.1-189.7c43-67.8,81.7-140.1,106.1-219.5
							c20.7-67.1,32.1-141.8,25-212.2c9.7,54.6,11.9,111.4,8,167.8c-6.1,88.6-27.6,174.5-56.3,257.5
							c-58.1,167.2-143.6,324.7-174,502.9c-5,29.5-9.4,59.5-7.5,89.4c1.5,23.4,6,46.2,12.3,68.2c15.1,52.1,40.6,99.3,71.5,139.1
							C1983.6,4919.6,2095.7,4976.7,2211.1,4972.5z M1538.6,3303.6c-0.2,0-0.4,0.1-0.6,0.2c0,0,0,0,0-0.1
							C1538.2,3303.6,1538.4,3303.7,1538.6,3303.6z M1326.2,2320.2c-52.7,92.1-113.5,177.1-169.2,266.5
							c-50.6,81.1-98.8,168-122.8,264.9c-11.7,47-17,95.8-14.7,144c1.7,35.8,6,73.6,17.8,106.3c16.2,44.5,45.7,80.7,78.3,108.5
							c50.1,42.8,110,68,170.9,82.5c39.4,9.4,79.7,14.4,120.3,16.1c-54,1.4-108,0.5-161.7-4.4c-34.2-3.2-68.5-8.2-102.1-15.7
							c-29.6-7.5-58.4-17.5-85.4-34c-28.6-17.5-54.2-41.5-73.4-72c-31.1-49.6-41-110.3-40.4-172.4c0.5-67.5,8.8-136.2,28.5-200.7
							c19.5-63.5,51.5-118.5,89.1-169.5c18.7-25.4,38.4-49.7,58-74.2c20.5-25.4,40.7-51.1,61.8-75.8
							c41.7-48.7,83.8-96.8,121.7-149.8c28.4-39.6,55.1-82.5,78.3-127.9C1364.6,2249.4,1346.3,2285.2,1326.2,2320.2z M1441.8,1655.7
							c17.4,90.9,22.5,185.8,13.2,279.9c-0.1-0.5,0.1-1,0-1.6c0.1-0.2-0.3-0.2-0.3-0.1c-0.6,7.8-1.4,15.6-2.2,23.2
							c-1.8,14.4-3.9,28.8-6.4,43.1c-6.2,35.3-14.5,69.8-24.7,103.4c-3.9,12-8,23.8-12.5,35.7c-24.2,63.2-56.6,121.8-93.4,176
							c-37.8,55.9-80.2,106.5-123.4,156.6c-41.4,47.9-81.7,97.7-120.6,148.5c-38.1,49.7-73,103-95.2,164.9
							c-22.3,62.1-32.9,129-35.9,195.2c-2.9,66.6,1.8,132.8,31.2,189.3c24.7,47.5,62.5,79.6,105,100.7
							c-40.6-13.4-80.1-31.2-117.4-54c-85.4-52.4-157.3-143-169.3-261.7c-13.1-129.5,37.1-254.5,95-363.9
							c56.3-106.3,127.4-203.5,206.8-286.6c8.1-8.5,16.2-16.7,24.5-24.8c27.5-23.6,54.6-47.6,80.3-73.9
							c51-51.9,96.7-111.9,132.9-178.9c43.4-80.3,72.8-170.4,82.5-263.9c12-117.8-8.2-236.2-47.4-341.6c-5.2-14-10.8-27.9-16.7-41.5
							C1390.6,1465.1,1423.2,1558.1,1441.8,1655.7z M991.7,1902.5c1.3-41.2-2.4-83-12.1-122c-10.9-44.1-31.7-84.4-58.9-116.5
							c-26.9-31.8-60.6-55.4-97.8-66.3c-42.9-12.7-88.7-6.9-131.4,9.9c-92.8,36.4-164.6,122-233.4,202.2
							c-64.1,74.8-127.9,150.7-198.2,217.3c20.6-23.6,40.1-48.8,58.9-73.9c39.1-52.2,75.4-107.1,112.5-161.3
							c75.4-110.3,160.6-225.3,275.9-274c54.3-22.9,114-31,168.8-14.3c56.7,17.3,101.3,62,132.8,118.9
							c35.2,63.2,54.1,136.9,48.1,215.1c-5.6,73.7-30.5,146.9-64.7,209.7c-29.9,54.9-65.6,104.5-102.8,152.5
							c15.1-23.9,29.4-48.7,42.1-74.5C965.5,2057,989.1,1980.8,991.7,1902.5z M513.6,3045.6c-32.9-119.3-20.4-249.3,26-365.8
							c27.1-68.2,64.1-127.8,107.1-181.4c7.6-8.9,15.3-17.9,22.9-26.7c8.4-9.7,17.1-19.2,25.6-28.9c74.1-78.4,159.9-143.8,242-205.6
							c149.2-112.4,324.8-229,402.9-427.7c50.7-129.1,56-276.7,12.6-404.3c34.8,91.9,57.6,191,57.4,294.1
							c-0.3,99.6-22.8,198.9-64.3,287.8c-34.5,74.1-80.7,140.8-133.5,198c-43.1,46.8-91,86.7-137.9,127.7
							c-62.5,54.8-125,109.1-184.9,167.9c-62.5,61.4-122.8,127.3-174.4,201.8c-46.1,66.5-85.9,141.6-104.5,224.7
							c-18.5,82.6-9.5,166.4,22.5,239.7c27.9,63.7,67.4,118.9,117.7,159c43.5,34.9,92.8,58.2,144,73.2
							c-49.8-11.3-98.3-27.7-144.6-48.9C639.1,3278.8,551.3,3181.9,513.6,3045.6z M1136.3,3395.5c-50.3,4.4-101.4,4-151.9-1.5
							c-66.3-9.2-131.3-28-189.9-63.2c-58.3-34.9-107.2-86.9-142-152.5c-36.8-69.5-55.9-148.9-46.2-233.4
							c9.9-85.8,46.9-164.8,91.1-233.9c49.3-76.9,108.6-144.4,170.4-206.9c59.9-60.7,123-116.7,186.5-171.6
							c16.3-14.1,32.9-28.1,49.3-42c-76.5,77.8-144.6,167-202.3,265.1c-62.1,105.6-118.4,225.1-119,354.7
							c-0.3,59.2,12.3,116,37.6,165.5c24.5,47.8,59,86.2,98,117.1c44.6,35.4,94.7,59.8,146.2,78.7c26.8,9.8,54,17.4,81.5,23.5
							c0.9,0.2,1.7,0.5,2.6,0.7c4.6,1,9.1,1.9,13.8,2.8c13.7,2.6,27.4,4.9,41.1,6.7c98.6,13.4,199.6,13,299.3,4.5
							c6.9-0.6,14-1.3,21-2.1c-12.2,3.3-24.3,6.5-36.4,9.9C1371,3349.4,1254.7,3384.9,1136.3,3395.5z"/>
						<path class="st19" d="M-1034.2,854.8c4.3,1,8.6,1.7,12.8,2.4c-12.9,0.2-25.8,0-38.7-0.7c-0.1-0.1-0.2-0.3-0.4-0.4
							c-77.2-11.8-108.1-22.7-36.1-3c-39.9-4.8-114.4-5.6-4.6,7.6c76.4,9.3,151.9,2.6,226.6-10.9c89.3-10.2,180.1-9.8,270,14.4
							c69.9,18.8,140.1,52.2,202.1,110.2c40.3,37.7,78.1,87.4,102.9,149.3c12.3,30.8,19.1,63.8,24.4,98.3
							c9.7,63.8,11.5,128.9,5.5,192c-12,126.4-53.6,238-99.7,339.5c-49.9,110.3-106.8,212.5-157,322.5
							c-41.3,90.9-77.4,187.1-100.6,292.6c-13.6,55.5-22.7,113.4-25.4,173.8c-0.1,0.6,0,1.2-0.1,1.8
							c-8.7,112.7-4.5,228.8,11.7,342.7c18.9,133.2,53,263,98,383.6c14.9,39.9,31,79.1,48.4,117c1,2.4,1.9,4.9,2.8,7.2
							c0.3,0.6,0.6,0.9,1,1c14.9,32.1,30.6,63.2,47.3,93.3c42.7,79.5,93.5,149.3,148.4,208.3c91.1,97.8,193.5,164.4,292.7,237.7
							c77.4,57.2,156.5,119.4,223.1,204.8c58.5,89.4,71.6,114.2,15.5,20.6c12.8,17.7,31,24.2-36.4-53.6c-1.5-1.9-2.9-3.9-4.4-5.8
							c-0.3-0.4-0.6-0.3-0.8-0.1C95.4,3988.6-27,3912.5-133.8,3831.7c-15-11.4-29.9-23.1-44.7-35.1c17.2,12.4,34.9,23.9,52.9,34
							c73,41.1,149.4,65.3,224.7,87.4c85.2,25,154.4,39.8,80.2,16.1C94.9,3907.3,10,3888-73.3,3851.5
							c-70.7-31.1-136.8-78.7-199.4-139.9c-55.5-56-107.1-120.6-152-198.4c-87-150.6-142-338.7-133.4-532.7
							c7.6-170.3,60.5-315.9,140.3-426.4c61.2-84.9,133-151.3,204.5-215.3c80-71.5,164.6-140.6,241.3-223.4
							c-10.6,15.4-21.2,31-31.7,46.8c-26.4,33.3-53,66.3-78.9,100.6c-52.2,69.5-103.1,141.8-147.9,222.4
							c-20.8,37.2-40.3,76.4-56.2,119c-20.1,53.3-35.5,111.5-47.6,170.8c-23.8,118.4-31.4,247.4-5.5,372
							c6.7,32.3,15.4,63.8,25.7,94.1c0,0.3,0,0.6,0.2,1.1c0.4,0.9,0.7,1.9,1.1,2.8c25.5,73.6,60.9,140.4,102.5,195.3
							c67.4,88.8,151.1,145,236.2,170.8c44.4,13.6,89.5,18.5,134,16.6c49.1-2.1,12.3-4.1-36.2-6.1c-41.1-1.6-82.5-10.2-123-25.8
							c12.2,3,24.6,5.1,37.1,6.1c68.1,5,102.3-9.1,36.2-4.4c-36.7,2.6-74-3.3-110.4-18c-34.6-17.3-68.1-40.1-99.8-68.5
							c-50.2-45-95-104.5-130.8-174.6c42.7,64.1,98.7,108.2,155.8,129.8c95.5,36,195.2,8.7,281.7-42.2c95-55.9-133.6,66.6-235.5,49
							c-83.2-14.3-168.3-75.7-222.2-179.7c-7.1-16.2-13.6-32.9-19.6-50.1c-18.7-53.2-32.2-110.5-39-168.7
							c-7.6-65.1-6.5-131.3-0.1-194.8c12.4-119.7,42.4-235.8,88-332c40.8-85.8,90.3-161.8,141.6-233.1
							c33-46.1,67.3-90.1,101.5-134.2c-17.9,28-35.3,56.9-51.7,86.9c-39.7,63-78.3,127.3-111.5,198.6
							c-32.8,70.6-57.3,151.2-67.2,238.4c-11.1,95.9-0.9,195.2,30.5,285.4c27.9,80.2,68.3,155.4,121.1,200.6
							c50.8,43.4,109.6,55.4,164.6,45.6c120.4-21.5-23.9-100-111.1-173.2c-36.6-30.6-68.2-76.2-91.3-129.2
							c-22.5-51.7-35.4-109.7-41.5-169.3c-10.4-101.8,1.6-201.8,28.3-291.8c26.7-90,66-168.9,109.3-241
							C6,2162.1,51.3,2099,96.4,2035.7c33.7-47.3,70.2-94.3,95.9-152.7c3-6.8,5.6-14.1,8-21.7c47.8-105.6,78.7-233.7,79.5-366.8
							c0.8-155.6-39.3-313.8-109.9-435.4C86.9,918-29.7,845.2-145.4,799.5c-121.6-48.2-242.2-60.1-364-41.7
							c-121.1,18.2-242.9,60.5-365.9,83.5c-15,2-29.8,4.7-44.7,7.6c-32.5,4.7-65.2,7.8-97.9,8.4c-57.1-8.8-113.1-46.4-160.7-98.6
							C-1235,696.1-1164.3,826.4-1034.2,854.8z M-801.8,834.8c0.2,0,0.4,0,0.6-0.3c0,0,0,0,0.1,0.1
							C-801.3,834.7-801.5,834.8-801.8,834.8z M-540.8,2119.8c48.9-112.8,106.4-216,158.4-325.1c47.2-99.3,91.9-205.7,111.6-327.8
							c9.6-59.3,12.6-121.3,8.1-183.6c-3.3-46-9.5-95.2-23-138.3c-18.5-58.7-50-108.3-84.2-147.4c-52.6-60.1-114.4-98.7-176.6-123.6
							c-40.4-16.1-81.2-26.8-122.4-32.9c54.5,3.8,109.1,10.3,163.5,22.2c34.7,7.5,69.6,17.5,103.9,30.6
							c30.2,12.6,59.8,28.5,87.9,52.4c29.7,25.4,56.8,58.8,77.6,100.1c33.7,66.7,46.6,145.9,49,225.7c2.7,86.7-2.4,174-19.4,254.9
							c-16.7,79.6-46.5,147-82,208.7c-17.7,30.7-36.4,60-55.2,89.3c-19.6,30.6-38.7,61.5-58.8,91c-39.8,58.4-80.1,115.7-115.9,179.9
							c-26.7,48.1-51.8,100.4-73,156.4C-576.2,2206.9-559.3,2162.8-540.8,2119.8z M-626.1,2961.7c-21.9-118.8-31.6-241.1-26.5-360.9
							c0,0.6,0,1.4,0.1,2c0.1,0.1,0.2,0.3,0.2,0c0.2-10,0.6-19.8,1.2-29.6c1.1-18.2,2.6-36.6,4.5-54.7
							c4.5-44.9,11.3-88.1,20.1-130.3c3.4-14.9,6.9-29.9,10.9-44.5c21.6-78.6,51.4-150.7,86.1-216.7
							c35.4-67.9,75.9-128.6,117.1-188.5c39.7-57.3,78-117.2,114.9-178.5c36.1-60,68.9-124.8,88.4-202.1
							c19.5-77.5,27.2-162.5,27.1-247.1c-0.2-85.3-8-170.6-40.5-246.5c-27.2-63.5-66.9-108.7-110.9-140.2
							c41.7,21.5,82.3,48.2,121.1,81.5c88.9,76.2,165.6,199.8,183.4,353.5c19.4,167.5-25.5,323.1-78.8,457.7
							c-51.9,130.8-119,248.4-195.4,347.1c-7.8,10-15.6,19.7-23.5,29.2c-26.6,27.6-53,55.7-77.8,86.8
							c-49,61.5-92.4,133.9-125.9,216.3c-40.1,98.6-65.6,211.5-70.8,330.6c-6.6,150.1,19.6,304.2,64.1,443.7
							c5.9,18.6,12.2,36.8,18.8,54.9C-565.4,3212-602.5,3089-626.1,2961.7z M-182.9,2690.8c0.5,52.7,6.4,106.8,18,157.9
							c13.2,57.8,35.9,111.7,65,155.6c28.7,43.5,63.8,77.3,102,95.3c43.9,20.6,90,17.8,132.3,0.7c92.1-37.3,102.7,62.9-11.6,113.7
							C68.9,3237.7,9.1,3242-47.1,3215c-58.1-28-105.2-90-139.8-166.1c-38.5-84.8-61.2-181.6-58.8-281c2.3-94,23.9-185.6,55.5-262.8
							c27.6-67.4,61.3-127.5,96.7-185.5c-14.2,29.2-27.4,59.6-39,91.5C-163.8,2495.1-184,2590.4-182.9,2690.8z M246.1,1271.1
							c38.9,156.7,32.3,322.4-9,467.3c-24.2,84.8-58.7,157.7-99.6,222.1c-7.2,10.7-14.6,21.4-21.9,31.9
							c-8.1,11.6-16.2,22.9-24.4,34.5c-71.2,93.2-154.7,168.4-234.8,239.4c-145.5,129.2-317.5,260.9-387,508.3
							c-45.1,160.7-43.4,349.7,6.4,518.2c-39.6-121.6-67.2-251.3-71.9-383.7c-4.5-128,13.7-253.1,51.3-363.2
							c31.3-91.6,75-172.5,125.5-240.7c41.4-55.8,88-102,133.3-149.9c60.6-64,121.3-127.5,179-196.9
							c60.2-72.5,118.1-150.9,166.7-241.4c43.3-80.8,80.2-173.2,95-278c14.7-104.1,1.5-212.7-34.3-310.1
							C89.5,1043.9,46.9,969.3-5.7,912.5c-45.5-49.2-96.4-84.3-149-108.7c50.8,19.7,100.7,45.5,148.4,77.7
							C108.3,958.6,201.7,1092,246.1,1271.1z M-399.6,757.9c50.6-0.6,102.2,5.3,153.5,17.4c67.3,18.7,134,49.5,194.8,100.4
							C9.4,926.6,61.2,998.3,99.5,1086.1c40.5,93.1,63.4,197.1,57.7,304.6c-5.9,109.2-39.6,206.8-81,291.1
							c-46.1,94-102.9,174.4-162.4,248.4c-57.7,71.8-118.8,137.2-180.4,201.5c-15.8,16.5-31.9,32.8-47.8,48.9
							c73.6-92.2,138.3-199.8,191.9-319.8c57.8-129.3,109-277.1,103.4-443.5c-2.5-75.9-17.8-150.4-45.9-216.4
							c-27.1-64-63.6-116.6-104.5-160.3c-46.8-50.1-98.6-86.6-151.5-116c-27.5-15.3-55.3-27.9-83.5-38.6c-0.9-0.4-1.8-0.8-2.7-1.2
							c-4.7-1.7-9.3-3.5-14-4.9c-13.8-4.7-27.8-9-41.8-12.9c-100.2-27.2-202.3-37.1-302.6-36.3c-7.1,0-14.1,0.3-21,0.6
							c12.1-2.9,24.3-5.9,36.3-8.9C-634.5,793-518.7,759.4-399.6,757.9z"/>
					</g>
				</g>
			</g>
		</g>
		<g class="st0">
			<path class="st20" d="M508.5,2725.2c-8.2,0-8.2,12.8,0,12.8C516.8,2738,516.8,2725.2,508.5,2725.2z"/>
			<path class="st20" d="M636.5,2676.4c-0.3-1-0.8-1.8-1.6-2.5c-0.3-0.2-0.5-0.5-0.8-0.7c-0.9-0.8-1.8-1.5-3.1-1.8
				c-0.5-0.1-1.1-0.2-1.6-0.2s-1.1,0.1-1.6,0.2c-1.2,0.3-2.2,1-3.1,1.8c-0.3,0.2-0.5,0.5-0.8,0.7c-0.4,0.5-0.8,1-1.2,1.6
				c-0.3,0.6-0.5,1.2-0.8,1.8c-0.3,1-0.4,2-0.1,3.1c0,0.7,0.2,1.3,0.5,1.9c0.2,0.7,0.5,1.2,1,1.7c0.3,0.6,0.8,1,1.4,1.4
				c0.5,0.5,1,0.8,1.7,1c0.9,0.5,1.9,0.7,3,0.7c0.7-0.1,1.4-0.2,2-0.3c0.6-0.3,1.2-0.5,1.8-0.8c0.5-0.4,1-0.8,1.6-1.2
				c0.4-0.5,0.8-1,1.2-1.6c0.3-0.6,0.5-1.2,0.8-1.8c0.3-1,0.4-2,0.1-3.1C637,2677.7,636.8,2677,636.5,2676.4z"/>
			<path class="st20" d="M578.6,2564.2c-0.8,0-1.4,0-2.1,0c-1.5-0.2-2.7,0.3-3.6,1.2c-1.3,1-1.8,2.5-1.7,4c-0.1,1.6,0.4,3.1,1.7,4.1
				c0.9,0.9,2.2,1.4,3.6,1.2c0.7,0.1,1.3,0.1,2.1,0C585.4,2574.4,585.4,2564.6,578.6,2564.2z"/>
			<path class="st20" d="M710.5,2512.9c-9.1,0-9.1,14.2,0,14.2C719.7,2527.1,719.7,2512.9,710.5,2512.9z"/>
			<path class="st20" d="M455,2611.2c-4.7,0-4.7,7.3,0,7.3C459.6,2618.4,459.6,2611.2,455,2611.2z"/>
			<path class="st20" d="M297.5,2658.6c0-0.1-0.1-0.2-0.1-0.3s0-0.1,0-0.2c0,0,0,0,0-0.1c-0.1-0.3-0.3-0.7-0.4-1
				c-0.3-0.4-0.5-0.8-0.8-1.2c-0.1-0.2-0.3-0.4-0.4-0.6c-0.1-0.2-0.3-0.4-0.4-0.6c-0.2-0.3-0.3-0.4-0.5-0.6
				c-0.1-0.1-0.2-0.2-0.3-0.2c-0.4-0.3-0.8-0.7-1.2-1c-0.4-0.5-0.9-0.8-1.5-1c-0.6-0.3-1.1-0.4-1.8-0.4c-0.6,0-1.2,0.1-1.8,0.4
				c-0.6,0.2-1.1,0.5-1.5,1c-0.2,0.3-0.5,0.6-0.7,0.9c-0.4,0.7-0.6,1.5-0.6,2.3c0.1,0.4,0.1,0.8,0.2,1.2c0.2,0.8,0.6,1.5,1.2,2
				c0.3,0.4,0.6,0.8,1,1.1c0.1,0.1,0.2,0.2,0.2,0.3c0,0.1,0.1,0.1,0.1,0.2c0.3,0.3,0.6,0.5,1,0.8c0,0,0,0,0.1,0
				c0.2,0.1,0.4,0.3,0.6,0.4c0.4,0.3,0.8,0.5,1.2,0.8c0.2,0.1,0.4,0.2,0.6,0.2c0.2,0.1,0.4,0.2,0.6,0.2c0.1,0,0.1,0,0.2,0
				c0.1,0,0.2,0.1,0.3,0.1c0.2,0.1,0.4,0.1,0.7,0.2c1.3,0.3,2.6,0,3.5-0.9c0.9-0.9,1.3-2.3,0.9-3.5
				C297.6,2659,297.6,2658.8,297.5,2658.6z"/>
			<path class="st20" d="M768.2,2238.6c-6.8,0-6.8,10.5,0,10.5C775,2249.1,775,2238.6,768.2,2238.6z"/>
			<path class="st20" d="M137.6,2527.5c-6.3,0-6.3,9.8,0,9.8S143.9,2527.5,137.6,2527.5z"/>
			<path class="st20" d="M660,2336.8c-0.3-0.5-0.7-1-1.3-1.3c-0.6-0.3-1.2-0.5-1.8-0.5c-0.6,0-1.2,0.2-1.8,0.5
				c-0.5,0.3-1,0.7-1.3,1.3c-0.5,1.1-1,2.1-1.6,3.2c-0.5,0.8-0.7,1.7-0.7,2.7s0.2,1.9,0.7,2.7c1,1.6,2.8,2.7,4.7,2.7
				c1.9,0,3.7-1,4.7-2.7c0.5-0.8,0.7-1.7,0.7-2.7s-0.2-1.9-0.7-2.7C661.1,2339,660.5,2337.9,660,2336.8z"/>
			<path class="st20" d="M363,2525.4c-0.3-0.2-0.5-0.4-0.8-0.6c-0.6-0.4-1.3-0.5-2-0.5c-0.7,0.1-1.3,0.2-2,0.2c-0.3,0-0.7,0.1-1,0.1
				c-0.7,0.1-1.3,0.1-1.9,0.5c-0.3,0.2-0.6,0.4-0.8,0.6c-0.1,0.1-0.2,0.2-0.3,0.3c-0.3,0.3-0.5,0.6-0.7,1c-0.2,0.4-0.3,0.8-0.3,1.2
				c0,0.8,0.3,1.6,0.9,2.2c0.1,0.1,0.2,0.2,0.2,0.2c0.3,0.3,0.4,0.4,0.8,0.7c0.6,0.4,1.2,0.4,1.9,0.5c0.3,0,0.7,0.1,1,0.1
				c0.7,0.1,1.3,0.2,2,0.2c0.5,0,1.1-0.1,1.5-0.3c0.5-0.2,0.9-0.4,1.3-0.8c0.4-0.4,0.7-0.8,0.8-1.3c0.2-0.5,0.4-1,0.3-1.5
				c0-0.4-0.1-0.7-0.1-1.1C363.8,2526.5,363.5,2525.9,363,2525.4z"/>
			<path class="st20" d="M1555.6,2352.7c-7.8,0-7.9,12.2,0,12.2C1563.4,2364.9,1563.4,2352.7,1555.6,2352.7z"/>
			<path class="st20" d="M1699.8,2267.9c-10.9,0-10.9,16.9,0,16.9S1710.7,2267.9,1699.8,2267.9z"/>
			<path class="st20" d="M1568.7,2524.4c-0.4-0.3-0.7-0.6-1.1-0.9c-0.8-0.5-1.8-0.7-2.8-0.7c-1-0.1-2-0.1-3.1-0.2
				c-0.8,0-1.5,0.1-2.2,0.5c-0.7,0.2-1.3,0.6-1.8,1.2c-0.5,0.5-0.9,1.1-1.2,1.8c-0.4,0.7-0.5,1.4-0.5,2.2c0.1,0.5,0.1,1,0.2,1.5
				c0.3,1,0.7,1.8,1.4,2.5c0.4,0.3,0.8,0.6,1.1,0.9c0.9,0.5,1.8,0.8,2.8,0.8c1-0.1,2-0.1,3.1-0.2c0.8,0,1.5-0.1,2.1-0.5
				c0.7-0.2,1.3-0.6,1.8-1.1s0.9-1.1,1.1-1.8c0.3-0.6,0.5-1.4,0.5-2.1c-0.1-0.5-0.1-1-0.2-1.4
				C1569.8,2525.9,1569.3,2525.1,1568.7,2524.4z"/>
			<path class="st20" d="M1853.8,2328c-0.5-0.3-1.1-0.6-1.6-0.8c-0.6-0.3-1.1-0.5-1.7-0.7c-0.3-0.1-0.7-0.1-1-0.2
				c-0.7-0.1-1.4-0.3-2-0.4c-1.1-0.2-2.1-0.2-3.2-0.3c-1.2-0.1-2.6,0.6-3.4,1.4c-0.8,0.8-1.5,2.2-1.4,3.4c0.1,1.2,0.5,2.5,1.4,3.4
				c0.9,0.8,2.1,1.5,3.4,1.4c1.1-0.1,2.2-0.1,3.2-0.3c0.7-0.1,1.4-0.3,2-0.4c0.3-0.1,0.6-0.1,0.9-0.2c0.6-0.1,1.2-0.4,1.8-0.7
				c0.5-0.3,1.1-0.6,1.6-0.8C1855.6,2331.9,1855.6,2328.9,1853.8,2328z"/>
			<path class="st20" d="M1754.6,2466.9c-0.3-0.2-0.5-0.3-0.8-0.5c-0.6-0.4-1.3-0.6-2-0.9c-0.6-0.2-1.3-0.4-1.9-0.6
				c-1-0.3-2.1-0.3-3.1,0s-1.9,0.8-2.6,1.5c-0.3,0.4-0.6,0.8-0.9,1.2c-0.5,0.9-0.8,1.9-0.8,3c0,0.8,0.1,1.6,0.5,2.3
				c0.2,0.7,0.6,1.4,1.2,1.9c0.7,0.7,1.6,1.2,2.6,1.5s2.1,0.3,3.1,0c0.6-0.2,1.3-0.4,1.9-0.6c0.7-0.2,1.4-0.5,2-0.9
				c0.3-0.2,0.5-0.3,0.8-0.5c0.6-0.4,1.1-0.9,1.5-1.5c0.4-0.7,0.6-1.4,0.6-2.1c0-0.8-0.2-1.5-0.6-2.1
				C1755.8,2467.8,1755.3,2467.3,1754.6,2466.9z"/>
			<path class="st20" d="M1971.9,2373.9c-7.6,0-7.6,11.8,0,11.8C1979.5,2385.8,1979.5,2373.9,1971.9,2373.9z"/>
			<path class="st20" d="M1814.8,2737.3c-8,0-8,12.4,0,12.4C1822.8,2749.7,1822.8,2737.3,1814.8,2737.3z"/>
			<path class="st20" d="M1650.4,2412.8c-0.1-0.4-0.1-0.8-0.2-1.2c-0.2-0.8-0.6-1.4-1.2-2c-0.7-0.6-1.4-1.2-2.4-1.4
				c-0.2,0-0.4-0.1-0.6-0.1c-0.4-0.1-0.8-0.2-1.1-0.3c-0.9-0.2-1.8-0.2-2.8,0c-0.9,0.2-1.7,0.7-2.3,1.3c-0.3,0.4-0.5,0.7-0.8,1.1
				c-0.5,0.8-0.7,1.7-0.7,2.6c0,0.7,0.1,1.4,0.4,2c0.2,0.6,0.6,1.2,1.1,1.7c0.7,0.6,1.4,1.1,2.3,1.3c0.9,0.2,1.8,0.2,2.8,0
				c0.4-0.1,0.8-0.2,1.1-0.3c0.2,0,0.4-0.1,0.6-0.1h0.1c0.4-0.2,0.8-0.3,1.1-0.5c0.2-0.1,0.4-0.3,0.5-0.4c0.2-0.1,0.4-0.3,0.5-0.4
				c0.1-0.1,0.1-0.1,0.2-0.2c0.4-0.4,0.8-0.9,0.9-1.5C1650.2,2414,1650.4,2413.5,1650.4,2412.8z"/>
			<path class="st20" d="M1659.1,2484.2c-0.1-0.1-0.2-0.2-0.3-0.3c-0.2-0.2-0.4-0.4-0.6-0.6c-0.4-0.3-0.7-0.6-1.1-0.8
				c-0.4-0.2-0.8-0.4-1.3-0.5c-0.7-0.2-1.4-0.3-2.1-0.1c-0.5,0-0.9,0.1-1.3,0.4c-0.4,0.1-0.8,0.4-1.2,0.7c-0.4,0.2-0.7,0.5-0.9,0.9
				c-0.3,0.3-0.6,0.7-0.7,1.2c-0.3,0.6-0.5,1.3-0.5,2c0.1,0.5,0.1,0.9,0.2,1.4c0.2,0.4,0.4,0.8,0.5,1.3c0.3,0.4,0.5,0.7,0.8,1.1
				c0.4,0.3,0.7,0.5,1.1,0.8c0.4,0.2,0.8,0.4,1.3,0.5c0.7,0.2,1.4,0.3,2.1,0.1c0.5,0,0.9-0.1,1.3-0.4c0.7-0.2,1.2-0.6,1.7-1.1
				c0.6-0.6,1.2-1.2,1.7-1.9c0.3-0.6,0.5-1.2,0.5-1.8c0-0.7-0.2-1.3-0.5-1.8C1659.7,2484.8,1659.4,2484.5,1659.1,2484.2z"/>
			<path class="st20" d="M1723.3,2363.3c-0.3-0.2-0.5-0.4-0.8-0.6c-0.6-0.4-1.3-0.5-2-0.5c-0.5,0-1.1,0.1-1.5,0.3
				c-0.5,0.2-0.9,0.4-1.3,0.8c-1,1-1.4,2.5-1,3.9c0.1,0.4,0.2,0.8,0.3,1.2c0,0.2,0.1,0.4,0.1,0.6s0.1,0.3,0.2,0.5
				c0.1,0.4,0.4,0.8,0.7,1.1c0.2,0.2,0.5,0.4,0.8,0.6l0.1,0.1c0.5,0.3,1,0.4,1.6,0.4s1.1-0.1,1.6-0.4l0.1-0.1
				c0.3-0.2,0.5-0.4,0.8-0.6c0.2-0.2,0.4-0.5,0.6-0.7c0.2-0.3,0.3-0.6,0.4-0.9c0.1-0.2,0.1-0.4,0.1-0.6c0.1-0.4,0.2-0.8,0.3-1.2
				c0.2-0.7,0.2-1.4,0-2.1C1724.1,2364.4,1723.8,2363.8,1723.3,2363.3z"/>
			<path class="st20" d="M1623.3,2301.6c-0.3-0.1-0.8,0-1.1,0.1c-1,0.7-2.1,1.4-3.1,2.1c-0.3,0.2-0.6,0.4-0.8,0.8
				c-0.2,0.3-0.3,0.7-0.3,1.1c0,0.6,0.2,1.1,0.6,1.5c0.4,0.4,1,0.6,1.5,0.6c0.4,0,0.7-0.1,1.1-0.3c0.3-0.2,0.6-0.4,0.8-0.8
				c0.7-1,1.4-2.1,2.1-3.1c0-0.1,0.1-0.2,0.1-0.3c0.1-0.2,0.1-0.4,0-0.6c0-0.3-0.2-0.6-0.4-0.8
				C1623.7,2301.7,1623.5,2301.6,1623.3,2301.6z"/>
			<path class="st20" d="M1555.6,2434.6c-3.8,0-3.8,5.9,0,5.9C1559.3,2440.5,1559.3,2434.6,1555.6,2434.6z"/>
			<path class="st20" d="M1794.7,2402c0.2,0,0.2-0.4,0-0.4C1794.4,2401.7,1794.4,2402,1794.7,2402z"/>
			<path class="st20" d="M1789.3,2393.4c-0.3-0.2-0.6-0.4-0.8-0.6c-0.6-0.4-1.3-0.6-2.1-0.6c-0.4,0-0.9,0.1-1.3,0.1
				c-0.1,0-0.2,0-0.3,0c-0.2,0-0.4,0.1-0.7,0.1c-0.5,0-1,0.2-1.5,0.5c-0.3,0.2-0.6,0.4-0.8,0.6c-0.3,0.3-0.5,0.7-0.8,1
				c-0.3,0.5-0.5,1.1-0.5,1.7c0,0.6,0.2,1.2,0.5,1.7l0.1,0.1c0.2,0.3,0.4,0.6,0.7,0.9c0.2,0.2,0.5,0.5,0.8,0.6
				c0.3,0.1,0.6,0.3,0.9,0.4c0.3,0.1,0.8,0.1,1.2,0.2c0.1,0,0.2,0,0.3,0c0.4,0,0.9,0.1,1.3,0.1c0.6,0,1.1-0.1,1.6-0.4
				c0.5-0.2,0.9-0.4,1.3-0.8c0.4-0.4,0.7-0.8,0.8-1.3c0.3-0.5,0.4-1,0.4-1.6c0-0.4-0.1-0.7-0.1-1.1
				C1790.2,2394.6,1789.8,2394,1789.3,2393.4z"/>
			<path class="st20" d="M1764.4,2303.1c0.2,0,0.2-0.4,0-0.4C1764.2,2302.7,1764.2,2303.1,1764.4,2303.1z"/>
			<path class="st20" d="M1678.9,2568.4c-0.4-0.3-0.8-0.6-1.2-0.9c-0.3-0.3-0.7-0.5-1-0.8c-0.3-0.5-0.6-1-0.9-1.4
				c-0.5-0.8-1.2-1.5-2-2c-0.9-0.5-1.8-0.8-2.8-0.8c-2,0-3.8,1.1-4.8,2.8c-1,1.7-1,3.9,0,5.6c0.5,0.8,1.2,1.5,2,2
				c0.9,0.5,1.8,0.8,2.8,0.8c0.5,0,0.9-0.1,1.4-0.1c0.3,0,0.6,0,0.9,0c0.8,0.2,1.5,0.4,2.3,0.6c0.3,0,0.6,0.1,0.9,0.1
				c0.5,0,0.9-0.1,1.3-0.3c0.7-0.3,1.3-0.7,1.6-1.4c0.3-0.5,0.4-1.1,0.5-1.7c0-0.5-0.1-0.9-0.3-1.3
				C1679.5,2569.1,1679.2,2568.8,1678.9,2568.4z"/>
			<path class="st20" d="M1767.2,2543.8c-1.2,0-1.2,1.9,0,1.9C1768.4,2545.7,1768.4,2543.8,1767.2,2543.8z"/>
			<path class="st20" d="M179.3,2641.9c-0.4-0.2-0.8-0.3-1.3-0.4c-0.4-0.1-0.9-0.2-1.3-0.2c-0.9-0.2-1.7-0.3-2.6-0.5
				c-0.5-0.1-1.1-0.1-1.6,0c-0.5,0.1-1,0.4-1.3,0.8c-0.5,0.6-0.9,1.3-0.9,2.2c0,0.8,0.3,1.6,0.9,2.2c0.4,0.4,0.8,0.6,1.3,0.8
				c0.5,0.1,1.1,0.1,1.6,0c0.9-0.2,1.7-0.3,2.6-0.5c0.4-0.1,0.9-0.2,1.3-0.2c0.5-0.1,0.9-0.2,1.3-0.4c0.4-0.1,0.7-0.3,1-0.7
				c0.2-0.3,0.4-0.7,0.4-1.1c0-0.3-0.1-0.7-0.3-0.9C180.2,2642.3,179.7,2642,179.3,2641.9z"/>
			<path class="st20" d="M354.7,2728c-4.7,0-4.7,7.3,0,7.3C359.3,2735.2,359.3,2728,354.7,2728z"/>
			<path class="st20" d="M242,2542.2c0.2,0,0.2-0.4,0-0.4C241.7,2541.8,241.7,2542.2,242,2542.2z"/>
			<path class="st20" d="M254.4,2522.4c-0.1-0.3-0.3-0.6-0.5-0.8s-0.6-0.3-0.9-0.3c-0.3,0-0.5,0.1-0.7,0.2c-0.3,0.2-0.6,0.5-0.7,0.9
				c-0.3,0.8-0.5,1.7-0.8,2.5c-0.2,0.7,0,1.7,0.6,2.2c0.4,0.4,1,0.7,1.6,0.7s1.2-0.3,1.6-0.7c0.6-0.6,0.8-1.5,0.6-2.2
				C254.9,2524.1,254.7,2523.2,254.4,2522.4z"/>
			<path class="st20" d="M515.2,2485.5c-0.3-0.3-0.7-0.5-1.2-0.7c-0.2-0.1-0.5-0.1-0.7-0.2c-0.4-0.1-0.9-0.2-1.3-0.3
				c-1-0.2-2.1,0-2.7,0.7c-0.5,0.6-0.8,1.2-0.8,2c0,0.4,0.1,0.7,0.2,1.1c0.1,0.3,0.3,0.7,0.6,0.9c0.7,0.7,1.8,1,2.7,0.7
				c0.4-0.1,0.9-0.2,1.3-0.3c0.2-0.1,0.4-0.1,0.7-0.2c0.4-0.1,0.9-0.3,1.2-0.7c0.1-0.1,0.1-0.1,0.2-0.2c0.7-0.7,0.7-2,0-2.7
				C515.3,2485.6,515.3,2485.5,515.2,2485.5z"/>
			<path class="st20" d="M638.5,2459.5c0-0.5-0.1-0.9-0.3-1.4c-0.1-0.4-0.4-0.8-0.7-1.1c-0.2-0.2-0.5-0.4-0.7-0.5
				c-0.5-0.3-1.1-0.5-1.8-0.5c-0.2,0-0.5,0-0.7,0c-0.1,0-0.1,0-0.2,0c-0.2,0-0.4,0-0.7,0.1c-0.6,0-1.2,0.2-1.7,0.5l0,0
				c-0.3,0.2-0.6,0.5-0.9,0.7c-0.3,0.3-0.5,0.6-0.7,0.9v0.1c0,0.1-0.1,0.2-0.1,0.2c-0.3,0.6-0.6,1.2-0.9,1.8
				c-0.1,0.3-0.2,0.6-0.4,0.9c-0.2,0.5-0.2,1-0.1,1.5c0,0.3,0.1,0.6,0.3,0.9c0.1,0.5,0.4,0.9,0.8,1.2c0.2,0.2,0.5,0.4,0.7,0.6
				c0.3,0.1,0.6,0.2,0.9,0.4c0.5,0.2,1,0.2,1.5,0.1c0.5,0,0.9-0.2,1.4-0.4c0.6-0.3,1.2-0.6,1.8-0.9c0.1,0,0.1-0.1,0.2-0.1h0.1
				c0.2-0.1,0.4-0.2,0.5-0.4c0.3-0.2,0.6-0.5,0.8-0.8c0.1-0.2,0.3-0.3,0.4-0.5c0.2-0.4,0.3-0.7,0.5-1.1c0.1-0.4,0.1-0.8,0.2-1.2l0,0
				c0-0.1,0-0.1,0-0.2C638.5,2460,638.5,2459.8,638.5,2459.5z"/>
			<path class="st20" d="M849.3,2127.8c-0.2,0-0.2,0.4,0,0.4C849.6,2128.1,849.6,2127.8,849.3,2127.8z"/>
			<path class="st20" d="M853.8,2131.9L853.8,2131.9L853.8,2131.9L853.8,2131.9L853.8,2131.9z"/>
			<path class="st20" d="M855.9,2129c-0.2-0.3-0.4-0.6-0.7-0.7c-0.3-0.2-0.6-0.3-0.9-0.4c-0.3-0.1-0.7-0.2-1.1-0.2
				c-0.2,0-0.4,0-0.6,0c-0.7,0.1-1.1,0.2-1.7,0.5c-0.2,0.1-0.4,0.2-0.5,0.3c-0.3,0.2-0.7,0.5-0.9,0.8c-0.3,0.3-0.5,0.6-0.7,1
				c-0.2,0.4-0.4,0.9-0.4,1.4s0.1,1,0.4,1.4c0.4,0.6,0.9,1.1,1.6,1.3c0.7,0.2,1.5,0.1,2.1-0.3c0.4-0.2,0.7-0.6,1-1
				c0.2-0.3,0.2-0.6,0.2-0.9c0-0.1,0.1-0.1,0.1-0.1c0,0.1,0,0.1,0,0.2c0-0.1,0-0.1,0.1-0.2c0.1-0.1,0.2-0.2,0.3-0.3
				c-0.1,0.1-0.1,0.1-0.2,0.2l0,0c0.1,0,0.1-0.1,0.2-0.1c0.1-0.1,0.2-0.1,0.3-0.2c0.1,0,0.2-0.1,0.3-0.1c-0.1,0-0.2,0-0.2,0l0,0
				c0.2,0,0.4-0.1,0.6-0.2c0.3-0.1,0.7-0.3,0.8-0.6c0.2-0.3,0.3-0.7,0.1-1.1C856,2129.4,856,2129.2,855.9,2129z M853.9,2131.7
				c0,0.1,0,0.1,0,0.2l0,0l0,0l0,0l0,0l0,0l0,0l0,0l-0.1,0.1l0.1-0.1C853.8,2131.8,853.9,2131.7,853.9,2131.7z M853.8,2132
				L853.8,2132L853.8,2132L853.8,2132z M854.4,2131.5L854.4,2131.5L854.4,2131.5L854.4,2131.5z"/>
			<path class="st20" d="M855.4,2131.2c-0.1,0-0.1,0.1-0.2,0.1C855.2,2131.3,855.2,2131.3,855.4,2131.2
				C855.3,2131.2,855.3,2131.2,855.4,2131.2z"/>
			<path class="st20" d="M855.2,2131.3C855.1,2131.3,855.1,2131.3,855.2,2131.3C855.1,2131.3,855.1,2131.3,855.2,2131.3
				C855.1,2131.3,855.1,2131.3,855.2,2131.3z"/>
			<path class="st20" d="M855.1,2131.3L855.1,2131.3C855.1,2131.3,855,2131.3,855.1,2131.3C855,2131.3,855.1,2131.3,855.1,2131.3z"
				/>
			<path class="st20" d="M770.3,2385.6c-0.2-0.2-0.5-0.4-0.7-0.5c-0.5-0.3-1.1-0.5-1.8-0.5c-0.5,0-0.9,0.1-1.4,0.3
				c-0.4,0.1-0.8,0.4-1.1,0.7c-0.3,0.3-0.6,0.7-0.7,1.1c-0.2,0.4-0.3,0.9-0.3,1.4c0,0.3,0.1,0.6,0.1,0.9c0.2,0.6,0.5,1.1,0.9,1.6
				c0.2,0.2,0.5,0.4,0.7,0.6c0.5,0.3,1.1,0.5,1.8,0.5c0.5,0,0.9-0.1,1.4-0.3c0.4-0.1,0.8-0.4,1.1-0.7c0.3-0.3,0.6-0.7,0.7-1.1
				c0.2-0.4,0.3-0.9,0.3-1.4c0-0.3-0.1-0.6-0.1-0.9C771,2386.6,770.7,2386.1,770.3,2385.6z"/>
			<path class="st20" d="M-1.6,2501.1c-0.2-0.3-0.4-0.5-0.7-0.7c-0.2-0.2-0.5-0.4-0.8-0.5c-0.3-0.2-0.6-0.3-0.9-0.3
				c-0.5-0.1-1-0.1-1.5,0.1c-0.4,0.1-0.8,0.3-1.1,0.4c-0.1,0-0.2,0.1-0.3,0.1c-0.4,0.1-0.7,0.3-1.1,0.4c-0.2,0.1-0.4,0.2-0.5,0.4
				c-0.2,0.2-0.4,0.3-0.5,0.4c-0.2,0.2-0.3,0.3-0.5,0.5s-0.3,0.3-0.5,0.5c-0.1,0.1-0.2,0.2-0.2,0.2l-0.1,0.1c0,0,0,0,0,0.1
				c-0.2,0.3-0.5,0.6-0.7,0.9c-0.4,0.6-0.5,1.4-0.7,2.2c-0.3,1.3,0,2.7,0.9,3.6c0.5,0.5,1,0.8,1.6,0.9c0.7,0.2,1.3,0.2,2,0
				c0.4-0.1,0.8-0.2,1.1-0.3c0.8-0.2,1-0.4,1.6-0.8c0.2-0.2,0.4-0.3,0.5-0.4c0.1-0.1,0.2-0.1,0.2-0.2c0.2-0.2,0.3-0.3,0.5-0.5
				c0.2-0.1,0.3-0.3,0.5-0.4c0.4-0.4,0.8-0.9,1-1.4c0.2-0.4,0.3-0.8,0.5-1.2c0.1-0.3,0.3-0.6,0.4-0.9c0-0.3,0.1-0.7,0.1-1
				s-0.1-0.7-0.1-1C-1.1,2501.9-1.3,2501.4-1.6,2501.1z"/>
			<path class="st20" d="M391.3,2630.3c-0.1-0.4-0.3-0.8-0.5-1.1c-0.5-1-2.2-1-2.7,0c-0.2,0.4-0.4,0.7-0.5,1.1
				c-0.1,0.3-0.1,0.6-0.2,0.9c-0.1,0.6-0.3,1.2-0.4,1.8c-0.2,0.9,0,1.9,0.7,2.5c0.5,0.5,1.1,0.8,1.8,0.8s1.4-0.3,1.8-0.8
				c0.7-0.7,0.9-1.6,0.7-2.5c-0.1-0.6-0.3-1.2-0.4-1.8C391.5,2630.9,391.4,2630.6,391.3,2630.3z"/>
			<path class="st20" d="M1886.6,2795.9v-0.1c0-0.5-0.1-1.1-0.3-1.5c0-0.2-0.1-0.4-0.2-0.5c-0.2-0.3-0.4-0.6-0.6-0.8
				c0,0,0-0.1-0.1-0.1c-0.1-0.1-0.2-0.3-0.3-0.4c-0.3-0.3-0.7-0.6-1.1-0.7c-0.4-0.2-0.8-0.3-1.3-0.3c-0.3,0-0.6,0.1-0.9,0.1
				c-0.6,0.2-1.1,0.4-1.5,0.9c-0.1,0.1-0.2,0.3-0.3,0.4c-0.3,0.3-0.5,0.6-0.7,1c-0.4,0.7-0.5,1.3-0.6,2.1c0,0.1,0,0.1,0,0.2
				c0,0.5-0.1,1-0.1,1.5c0,0.6,0.1,1.1,0.4,1.6c0.2,0.5,0.4,0.9,0.8,1.3c0.4,0.4,0.8,0.7,1.3,0.8c0.5,0.3,1,0.4,1.6,0.4
				c0.4,0,0.7-0.1,1.1-0.1c0.7-0.2,1.3-0.5,1.8-1.1c0.2-0.3,0.4-0.6,0.6-0.8c0.4-0.6,0.6-1.3,0.6-2.1c0-0.5-0.1-1-0.1-1.5
				C1886.6,2796.1,1886.6,2796,1886.6,2795.9z"/>
			<path class="st20" d="M1703.8,2672.3v-0.1c0-0.5-0.1-1.1-0.3-1.5c0-0.2-0.1-0.4-0.2-0.5c-0.2-0.3-0.4-0.6-0.6-0.8
				c0,0,0-0.1-0.1-0.1c-0.1-0.1-0.2-0.3-0.3-0.4c-0.3-0.3-0.7-0.6-1.1-0.7c-0.4-0.2-0.8-0.3-1.3-0.3c-0.3,0-0.6,0.1-0.9,0.1
				c-0.6,0.2-1.1,0.4-1.5,0.9c-0.1,0.1-0.2,0.3-0.3,0.4c-0.3,0.3-0.5,0.6-0.7,1c-0.4,0.7-0.5,1.3-0.6,2.1c0,0.1,0,0.1,0,0.2
				c0,0.5-0.1,1-0.1,1.5c0,0.6,0.1,1.1,0.4,1.6c0.2,0.5,0.4,0.9,0.8,1.3c0.4,0.4,0.8,0.7,1.3,0.8c0.5,0.3,1,0.4,1.6,0.4
				c0.4,0,0.7-0.1,1.1-0.1c0.7-0.2,1.3-0.5,1.8-1.1c0.2-0.3,0.4-0.6,0.6-0.8c0.4-0.6,0.6-1.3,0.6-2.1c0-0.5-0.1-1-0.1-1.5
				C1703.8,2672.4,1703.8,2672.3,1703.8,2672.3z"/>
			<path class="st20" d="M2682.2,1885.3c-0.1-0.1-0.2-0.2-0.3-0.4c-0.2-0.2-0.3-0.3-0.6-0.5s-0.4-0.3-0.6-0.4c0,0-0.1,0-0.1-0.1
				c-0.4-0.2-0.7-0.4-1.1-0.5c-0.8-0.5-1.7-0.7-2.7-0.7s-1.9,0.2-2.7,0.7c-1.6,0.9-2.6,2.7-2.6,4.6s1,3.7,2.6,4.6
				c0.8,0.5,1.7,0.7,2.7,0.7s1.9-0.2,2.7-0.7c0.4-0.2,0.7-0.4,1.1-0.5c0.5-0.2,1-0.6,1.3-1c0.1-0.1,0.2-0.2,0.3-0.4
				c0.4-0.3,0.6-0.8,0.8-1.2c0.2-0.5,0.3-0.9,0.3-1.5c0-0.3-0.1-0.7-0.1-1C2683,1886.3,2682.7,1885.7,2682.2,1885.3z"/>
			<path class="st20" d="M2764.3,1820.8c-0.3-0.4-0.6-0.8-0.9-1.2c-0.4-0.4-0.8-0.7-1.2-0.9c0,0,0,0-0.1,0l-0.1-0.1
				c-0.1-0.1-0.2-0.1-0.3-0.2c-1.5-0.9-3.5-0.9-5,0c-0.1,0.1-0.2,0.1-0.3,0.2l-0.1,0.1c0,0,0,0-0.1,0c-0.2,0.1-0.4,0.3-0.6,0.5
				c-0.6,0.4-1.1,1-1.5,1.7l0,0c-0.4,0.7-0.7,1.4-0.7,2.2c-0.2,0.8-0.1,1.6,0.1,2.4c0.2,0.5,0.4,0.9,0.6,1.4c0,0.1,0.1,0.2,0.1,0.3
				c0.1,0.2,0.1,0.3,0.2,0.5c0.5,0.8,1.1,1.5,2,2s1.8,0.7,2.8,0.8c1,0,1.9-0.3,2.8-0.8c0.8-0.5,1.5-1.1,2-2c0.1-0.2,0.1-0.3,0.2-0.5
				c0-0.1,0.1-0.2,0.1-0.2c0.2-0.5,0.4-0.9,0.6-1.4c0.1-0.5,0.1-1,0.2-1.6c0-0.8-0.1-1.6-0.5-2.3
				C2764.5,1821.3,2764.4,1821,2764.3,1820.8z"/>
			<path class="st20" d="M2721.7,1693.2c-0.4-0.2-0.8-0.3-1.2-0.3c-0.7,0-1.2,0.3-1.7,0.7c-0.7,0.5-1.3,1.1-2,1.6s-1.4,1-2,1.6
				c-0.3,0.3-0.6,0.6-0.9,0.9c-0.5,0.5-1.1,1.1-1.4,1.7c-0.4,0.6-0.7,1.4-0.9,2c-0.2,0.7-0.1,1.3-0.1,2c0,1.1,0.5,2,1.3,2.7
				c0.8,0.6,2,1,3,0.6c0.6-0.2,1.3-0.4,1.8-0.7c0.4-0.2,0.8-0.6,1.2-1s0.7-0.8,1-1.2c0.2-0.4,0.4-0.8,0.6-1.2
				c0.3-0.5,0.5-1.1,0.8-1.6c0.7-1.7,1.2-3.4,1.8-5.1C2723.1,1695,2722.6,1693.7,2721.7,1693.2z"/>
			<path class="st20" d="M2819,1647.8c-0.6-0.4-1.2-0.6-1.9-0.6c-0.7-0.2-1.3-0.1-2,0.1c-0.9,0.4-1.7,0.7-2.6,1.1
				c-1.1,0.3-2,0.8-2.8,1.6c-0.8,0.8-1.3,1.7-1.6,2.8c-0.6,2.2,0,4.5,1.6,6.1s3.9,2.2,6.1,1.6c1.1-0.3,2-0.8,2.8-1.6
				c0.8-0.8,1.3-1.7,1.6-2.8c0.4-0.9,0.7-1.7,1.1-2.6c0.2-0.7,0.2-1.3,0.1-2c0-0.7-0.2-1.3-0.6-1.9
				C2819.8,1648.3,2820.3,1648.8,2819,1647.8z"/>
			<path class="st20" d="M2788.2,1567.6c-0.3-0.3-0.6-0.4-1-0.6c-0.3-0.1-0.6-0.1-0.9,0c-0.3,0-0.6,0.1-0.8,0.3
				c-1.1,0.7-2.1,1.3-3.2,2c-0.9,0.6-1.6,1.6-1.5,2.6c0,0.3,0.1,0.5,0.1,0.8c0.1,0.5,0.4,1,0.8,1.3c0.3,0.3,0.6,0.5,1,0.6
				c0.4,0.2,0.8,0.3,1.2,0.3c1.1,0,2.1-0.6,2.6-1.5c0.7-1.1,1.3-2.1,2-3.2c0.1-0.2,0.1-0.3,0.2-0.5c0.1-0.3,0.1-0.6,0-0.9
				c0-0.2-0.1-0.4-0.1-0.5C2788.6,1568.1,2788.5,1567.8,2788.2,1567.6z"/>
			<path class="st20" d="M2754.6,1427c0.3-0.4,0.6-0.8,0.7-1.3c0-0.3,0.1-0.7,0.1-1c0-0.7-0.2-1.3-0.5-1.9c-0.2-0.3-0.4-0.5-0.6-0.8
				c0,0-0.1,0-0.1-0.1c-0.3-0.4-0.7-0.8-1.1-1.1c-0.4-0.3-0.9-0.4-1.4-0.4c-0.5-0.1-1-0.1-1.5,0.1c-0.6,0.2-1.2,0.5-1.7,1
				c-0.1,0.1-0.2,0.3-0.3,0.4c-0.3,0.4-0.6,0.8-0.7,1.3c0,0.1-0.1,0.9-0.1,1c0,0,0,0,0,0.1c0,0.4,0.1,0.7,0.2,1.1c0,0,0,0,0,0.1
				c0.1,0.2,0.3,0.7,0.4,0.9l0,0l0,0l0,0c0.1,0.1,0.5,0.6,0.6,0.8c0,0,0,0.1,0.1,0.1l0,0c0.2,0.1,0.6,0.5,0.8,0.6l0,0
				c0,0,0.1,0,0.1,0.1c0.3,0.2,0.7,0.3,1,0.4c0.5,0.2,1,0.2,1.5,0.1c0.5,0,1-0.2,1.4-0.4C2754,1427.7,2754.4,1427.4,2754.6,1427z
				 M2753.4,1421.4c0.2,0.2,0.4,0.3,0.6,0.5c-0.4-0.3-0.8-0.6-1.3-0.7C2752.9,1421.2,2753.2,1421.3,2753.4,1421.4z"/>
			<path class="st20" d="M2781.5,1326.6c0.2-0.1,0.5-0.2,0.7-0.4c0.6-0.3,1-1,1-1.7c0-0.6-0.4-1.4-1-1.7c-0.2-0.1-0.5-0.2-0.7-0.4
				c-0.2-0.1-0.4-0.2-0.6-0.3c-0.2-0.1-0.3-0.3-0.5-0.4c-0.4-0.2-0.8-0.4-1.2-0.4c-0.4-0.1-0.9-0.1-1.3,0.1
				c-0.3,0.1-0.5,0.2-0.8,0.3c-0.5,0.3-0.9,0.7-1.2,1.2c-0.3,0.4-0.5,1.1-0.5,1.6c0,0.3,0.1,0.5,0.1,0.8c0.1,0.3,0.2,0.5,0.3,0.8
				c0,0,0,0,0.1,0.1c0.2,0.4,0.5,0.7,0.8,0.9c0.3,0.3,0.7,0.5,1.1,0.6c0.3,0,0.6,0.1,0.9,0.1c0.6,0,1.1-0.1,1.6-0.4
				c0.2-0.1,0.4-0.3,0.5-0.4C2781.1,1326.8,2781.3,1326.7,2781.5,1326.6z"/>
			<path class="st20" d="M2750.5,1233.9c-0.1-0.4-0.1-0.9-0.2-1.3c-0.2-0.9-0.7-1.6-1.3-2.2c-0.5-0.5-1-0.8-1.6-1
				c-0.6-0.3-1.2-0.5-1.9-0.4c-0.7,0-1.3,0.1-1.9,0.4c-0.6,0.2-1.2,0.6-1.6,1c-0.6,0.6-1.1,1.4-1.3,2.2c-0.2,0.5-0.4,1.1-0.6,1.6
				c-0.1,0.2-0.2,0.5-0.3,0.7c-0.1,0.3-0.1,0.5-0.2,0.8c-0.1,0.8-0.4,1.7-0.3,2.6c0.1,0.8,0.1,1.7,0.6,2.4c0.4,0.7,1,1.2,1.7,1.5
				c0.7,0.3,1.6,0.4,2.4,0.2c0.5-0.1,1-0.4,1.4-0.7c0.7-0.4,1.3-1,1.9-1.6c1-1.1,1.8-2.4,2.6-3.7
				C2750.3,1235.7,2750.5,1234.8,2750.5,1233.9z"/>
			<path class="st20" d="M2543.8,1870.9c-0.3-0.6-0.7-1-1.2-1.3c-0.5-0.4-1-0.7-1.6-0.9c-0.4-0.1-0.7-0.2-1.1-0.3
				c-0.9-0.2-1.8-0.2-2.7,0s-1.6,0.7-2.3,1.3c-0.3,0.3-0.5,0.7-0.8,1c-0.5,0.8-0.7,1.7-0.7,2.6c0,0.7,0.1,1.4,0.4,2
				c0.2,0.6,0.6,1.2,1.1,1.7c0.6,0.6,1.4,1.1,2.3,1.3c0.9,0.2,1.8,0.2,2.7,0c0.4-0.1,0.7-0.2,1.1-0.3c0.4-0.2,0.8-0.3,1.1-0.5
				c0.6-0.3,1-0.7,1.3-1.2c0.3-0.3,0.5-0.7,0.6-1.1c0.3-0.6,0.4-1.2,0.4-1.9c-0.1-0.4-0.1-0.9-0.2-1.3
				C2544.1,1871.6,2543.9,1871.2,2543.8,1870.9z"/>
			<path class="st20" d="M2641.1,1785.7c-6.6,0-6.6,10.2,0,10.2C2647.6,1795.9,2647.6,1785.7,2641.1,1785.7z"/>
			<path class="st20" d="M2341.7,1800.7c-0.4-0.4-0.8-0.7-1.3-0.9c-0.5-0.3-1-0.4-1.6-0.4c-1.5,0-2.9,0.8-3.6,2.1
				c-0.2,0.3-0.3,0.6-0.5,0.9c-0.2,0.4-0.5,0.9-0.5,1.3c0,0.2-0.1,0.3-0.1,0.5c-0.2,0.6-0.2,1.2,0,1.8c0.2,0.6,0.4,1.1,0.9,1.5
				c0.4,0.4,0.9,0.7,1.5,0.9c0.6,0.2,1.2,0.2,1.8,0c0.2,0,0.3-0.1,0.5-0.1c0.5-0.1,0.9-0.3,1.3-0.5c0.3-0.2,0.6-0.3,0.9-0.5
				c0.6-0.4,1.1-0.9,1.5-1.5s0.6-1.3,0.6-2.1c0-0.4-0.1-0.7-0.1-1.1C2342.6,1801.9,2342.2,1801.2,2341.7,1800.7z"/>
			<path class="st20" d="M2202.4,1728.8c-0.7-0.1-1.4-0.1-2,0.1c-0.1,0-0.2,0.1-0.3,0.1c-0.2,0.1-0.4,0.1-0.6,0.2
				c-0.2,0.1-0.4,0.3-0.5,0.4c-0.2,0.1-0.3,0.3-0.5,0.5c-0.5,0.6-0.9,1.2-1.1,2c-0.1,0.4-0.2,0.8-0.2,1.2c0,0.3,0.1,0.6,0.1,0.9
				c0,0.1,0.1,0.3,0.1,0.4c0.1,0.4,0.3,0.7,0.6,1c0.2,0.1,0.3,0.2,0.5,0.3c0.3,0.2,0.7,0.3,1.1,0.3c0.3,0,0.6-0.1,0.9-0.2
				c0.3-0.1,0.5-0.2,0.7-0.5c0.2-0.2,0.4-0.4,0.5-0.7c0.1-0.3,0.2-0.6,0.2-0.9c0-0.4-0.1-0.7-0.3-1l0,0c0,0,0,0.1,0.1,0.1
				c0-0.1,0-0.1-0.1-0.2l0,0c0-0.1,0-0.1,0-0.2c0.1-0.1,0.1-0.2,0.2-0.3c0.1-0.2,0.3-0.3,0.4-0.5l0,0c-0.1,0.1-0.2,0.2-0.2,0.3
				c0.1-0.1,0.2-0.3,0.4-0.4c0.1,0,0.1-0.1,0.2-0.1c0.1,0,0.2-0.1,0.3-0.1c-0.1,0-0.1,0-0.2,0l0,0c0.1,0,0.2,0,0.3,0
				s0.3-0.1,0.4-0.2h0.1c0.2-0.1,0.5-0.2,0.6-0.5c0.1-0.2,0.2-0.5,0.1-0.8c-0.1-0.3-0.3-0.6-0.5-0.9
				C2203.3,1729.1,2202.8,1728.9,2202.4,1728.8z M2202.5,1731.8L2202.5,1731.8L2202.5,1731.8L2202.5,1731.8z M2202.2,1732
				C2202.3,1731.9,2202.3,1731.9,2202.2,1732C2202.3,1731.9,2202.3,1731.9,2202.2,1732L2202.2,1732z M2202.6,1731.7
				C2202.6,1731.7,2202.5,1731.7,2202.6,1731.7L2202.6,1731.7C2202.5,1731.7,2202.6,1731.7,2202.6,1731.7L2202.6,1731.7z"/>
			<path class="st20" d="M2406.9,1738.8c-0.6-0.6-1.3-1.2-2.2-1.4c-0.3-0.1-0.5-0.1-0.8-0.2c-0.5-0.1-1-0.3-1.6-0.4
				c-0.9-0.2-1.7-0.2-2.6,0c-0.8,0.2-1.5,0.6-2.1,1.3c-0.3,0.3-0.5,0.7-0.8,1c-0.4,0.8-0.7,1.6-0.7,2.5c0,0.7,0.1,1.3,0.4,1.9
				c0.2,0.6,0.5,1.1,1,1.6c1.2,1.2,3,1.7,4.7,1.3c0.5-0.1,1-0.3,1.6-0.4c0.3-0.1,0.5-0.1,0.8-0.2c0.9-0.2,1.6-0.8,2.2-1.4
				c0.4-0.3,0.6-0.7,0.8-1.2c0.2-0.4,0.3-0.9,0.3-1.4c0-0.3-0.1-0.7-0.1-1C2407.7,1739.8,2407.4,1739.2,2406.9,1738.8z"/>
			<path class="st20" d="M2518.9,1775.6c-0.2-0.2-0.5-0.4-0.7-0.5c-0.5-0.3-1.1-0.5-1.7-0.5c-0.3,0-0.5,0.1-0.8,0.1h-0.1
				c-0.2,0-0.3,0-0.5,0.1c-0.4,0-0.9,0.2-1.2,0.4c-0.3,0.2-0.5,0.4-0.8,0.6c-0.1,0.1-0.2,0.1-0.2,0.2c-0.3,0.3-0.5,0.6-0.6,1
				c-0.2,0.4-0.3,0.7-0.3,1.1c0,0.3,0.1,0.5,0.1,0.8c0.1,0.5,0.4,0.9,0.8,1.3c0.1,0.1,0.1,0.1,0.2,0.2c0,0,0,0,0.1,0
				c0.1,0.1,0.2,0.2,0.4,0.3c0.1,0.1,0.2,0.2,0.4,0.3c0.3,0.1,0.5,0.2,0.8,0.3c0.3,0,0.6,0.1,0.9,0.1h0.1c0.3,0,0.5,0.1,0.8,0.1
				c0.5,0,0.9-0.1,1.3-0.3c0.4-0.1,0.8-0.4,1.1-0.7c0.3-0.3,0.6-0.7,0.7-1.1c0.2-0.4,0.3-0.9,0.3-1.3c0-0.3-0.1-0.6-0.1-0.9
				C2519.7,1776.5,2519.4,1776,2518.9,1775.6z"/>
			<path class="st20" d="M2618.8,1690.3c-0.3-0.3-0.6-0.5-1-0.6c-0.1,0-0.3-0.1-0.4-0.1c-0.3-0.1-0.5-0.1-0.8-0.1
				c-0.4,0-0.6,0.1-0.9,0.2c-0.3,0.1-0.6,0.2-1,0.3c-0.7,0.2-1.3,0.4-2,0.6c-0.8,0.3-1.5,0.8-1.9,1.5c-0.3,0.5-0.4,1-0.4,1.6
				c0,0.4,0.1,0.9,0.3,1.2c0.1,0.4,0.4,0.7,0.7,1s0.6,0.5,1,0.7s0.8,0.3,1.2,0.3c0.6,0,1.1-0.1,1.6-0.4c0.6-0.4,1.2-0.8,1.7-1.2
				c0.3-0.2,0.6-0.4,0.8-0.6c0.5-0.3,0.9-0.7,1.2-1.2c0.1-0.1,0.1-0.3,0.2-0.4c0.2-0.3,0.3-0.7,0.3-1.1c0-0.3-0.1-0.6-0.2-0.9
				C2619.2,1690.8,2619,1690.5,2618.8,1690.3z"/>
			<path class="st20" d="M2692.4,1601.6c-5.4,0-5.4,8.3,0,8.3C2697.7,1610,2697.7,1601.6,2692.4,1601.6z"/>
			<path class="st20" d="M2804.1,1736.8c-6,0-6,9.3,0,9.3C2810.1,1746,2810.1,1736.8,2804.1,1736.8z"/>
			<path class="st20" d="M2738.3,1142.2c-0.1-0.1-0.1-0.2-0.2-0.3c-0.1-0.2-0.2-0.2-0.4-0.4c-0.2-0.2-0.3-0.2-0.4-0.3h-0.1
				c-0.2-0.1-0.5-0.2-0.7-0.4c-0.6-0.3-1.2-0.5-1.9-0.5s-1.3,0.2-1.9,0.5c-1.2,0.7-1.9,1.9-1.9,3.3c0,1.3,0.7,2.6,1.9,3.3
				c0.6,0.3,1.2,0.5,1.9,0.5s1.3-0.2,1.9-0.5c0.2-0.1,0.5-0.2,0.7-0.4c0.3-0.2,0.7-0.4,0.9-0.7c0.1-0.1,0.1-0.2,0.2-0.3
				c0.3-0.2,0.5-0.5,0.6-0.9c0.2-0.3,0.3-0.7,0.2-1.1c0-0.2-0.1-0.5-0.1-0.7C2738.9,1142.9,2738.6,1142.5,2738.3,1142.2z"/>
			<path class="st20" d="M2821.4,1445.4c-0.1-0.5-0.2-1-0.4-1.4c-0.1-0.2-0.2-0.4-0.2-0.6c-0.2-0.3-0.4-0.5-0.6-0.7
				c-0.1-0.1-0.3-0.3-0.5-0.3c-0.3-0.2-0.6-0.2-0.9-0.2c-0.4,0-0.8,0.1-1.2,0.3c-0.5,0.3-1,0.9-1.1,1.4s-0.2,1-0.4,1.4
				c-0.2,0.3-0.4,0.6-0.6,1c-0.7,1.1-0.7,2.7,0,3.8c0.7,1.2,1.9,1.9,3.3,1.9c1.3,0,2.6-0.7,3.3-1.9c0.7-1.1,0.7-2.7,0-3.8
				C2821.9,1446,2821.7,1445.7,2821.4,1445.4z"/>
			<path class="st20" d="M2921.2,1082.3c0.2,0.3,0.3,0.6,0.5,0.9c0.9,1.7,2.2,2.3,3.4,2.1c1.2,0.2,2.5-0.4,3.4-2.1
				c0.2-0.3,0.3-0.6,0.5-0.9C2933.3,1073.9,2916.7,1073.9,2921.2,1082.3z"/>
			<path class="st20" d="M2941.5,964c-5.4,0-5.4,8.4,0,8.4C2947,972.5,2947,964,2941.5,964z"/>
			<path class="st20" d="M2989.5,900.6c0.2,0.3,0.4,0.5,0.6,0.8c0.3,0.2,0.5,0.4,0.8,0.6c0.3,0.1,0.6,0.3,0.9,0.4
				c0.5,0.2,1,0.2,1.5,0.1c0.3,0,0.7-0.1,1-0.3c0.5-0.2,0.9-0.4,1.2-0.8c0.3-0.3,0.6-0.6,1-0.9c0.3-0.2,0.4-0.5,0.5-0.8
				c0.2-0.3,0.2-0.7,0.2-1c0-0.2-0.1-0.5-0.1-0.7c-0.1-0.4-0.4-0.8-0.7-1.2c-0.3-0.3-0.6-0.6-1-0.9c-0.3-0.2-0.5-0.4-0.8-0.6
				c-0.3-0.1-0.6-0.3-0.9-0.4c-0.5-0.2-1-0.2-1.5-0.1c-0.3,0-0.7,0.1-1,0.3c-0.3,0.1-0.6,0.3-0.9,0.5c-0.3,0.2-0.5,0.4-0.7,0.7
				c-0.2,0.2-0.4,0.5-0.5,0.9c-0.2,0.5-0.4,1-0.3,1.5c0,0.3,0.1,0.7,0.1,1C2989.2,900,2989.4,900.3,2989.5,900.6z"/>
			<path class="st20" d="M2907.8,1186.6c-0.2-0.3-0.4-0.6-0.7-0.8c-0.2-0.2-0.4-0.3-0.7-0.5c-0.3-0.1-0.5-0.2-0.8-0.3
				c-0.4-0.1-0.9-0.2-1.3-0.1c-0.3,0-0.6,0.1-0.8,0.2c-0.3,0.1-0.5,0.2-0.7,0.4c-0.2,0.1-0.4,0.3-0.6,0.6c-0.2,0.2-0.3,0.4-0.4,0.7
				c-0.2,0.4-0.3,0.8-0.3,1.2c0,0.3,0.1,0.6,0.1,0.9c0.1,0.3,0.2,0.5,0.3,0.8c0.2,0.2,0.3,0.4,0.5,0.7c0.2,0.2,0.4,0.3,0.7,0.5
				c0.3,0.1,0.5,0.2,0.8,0.3c0.4,0.1,0.9,0.2,1.3,0.1c0.3,0,0.6-0.1,0.8-0.2c0.4-0.1,0.7-0.4,1-0.7c0.2-0.3,0.4-0.6,0.7-0.8
				c0.2-0.2,0.3-0.4,0.4-0.7c0.1-0.2,0.2-0.5,0.2-0.8c0-0.2,0-0.4-0.1-0.5C2908.3,1187.2,2908.1,1186.9,2907.8,1186.6z"/>
			<path class="st20" d="M2950.3,1279.8c-0.2-0.1-0.3-0.3-0.5-0.4c-0.4-0.2-0.8-0.3-1.2-0.3c-0.5-0.1-1.1-0.1-1.6-0.2
				c-0.4,0-0.7,0.1-1,0.2s-0.6,0.3-0.8,0.5c-0.3,0.2-0.4,0.5-0.5,0.8c-0.2,0.3-0.2,0.6-0.2,1c0,0.2,0.1,0.5,0.1,0.7
				c0.1,0.4,0.3,0.8,0.7,1.1c0.2,0.1,0.3,0.3,0.5,0.4c0.4,0.2,0.8,0.4,1.3,0.4c0.5-0.1,1.1-0.1,1.6-0.2c0.3,0,0.6-0.1,0.9-0.2
				c0.3-0.1,0.6-0.3,0.8-0.5c0.2-0.2,0.4-0.5,0.5-0.8c0.2-0.3,0.2-0.6,0.2-0.9c0-0.2-0.1-0.4-0.1-0.6
				C2950.8,1280.5,2950.6,1280.1,2950.3,1279.8z"/>
			<path class="st20" d="M2997.2,1024.1L2997.2,1024.1C2997.2,1024,2997.2,1024,2997.2,1024.1z"/>
			<path class="st20" d="M2994.6,1028.5c0.1-0.1,0.2-0.1,0.3-0.2c0,0,0.1,0,0.1-0.1l0,0c0.1-0.1,0.3-0.2,0.4-0.3
				c0.1,0,0.2-0.1,0.2-0.1c0.2-0.2,0.4-0.3,0.7-0.5c0.2-0.2,0.4-0.4,0.5-0.7c0,0,0,0,0-0.1c-0.2,0.2-0.3,0.4-0.5,0.6
				c0.4-0.5,0.6-0.7,0.7-1.3c0-0.1,0.1-0.6,0.1-0.9c0-0.2-0.1-0.8-0.1-1c-0.1-0.4-0.3-0.8-0.6-1.1c-0.1-0.1-0.2-0.3-0.3-0.4
				c-0.3-0.2-0.6-0.5-0.9-0.7c-0.4-0.3-0.9-0.4-1.3-0.6c-0.8-0.3-1.8-0.1-2.6,0c-0.5,0.1-1.1,0.4-1.5,0.6c-0.1,0-0.2,0.1-0.3,0.1
				c-0.7,0.4-1.1,1-1.6,1.6c-0.3,0.4-0.5,1-0.7,1.5s-0.2,1.1-0.3,1.6c0,0.3,0.1,0.7,0.1,1c0.1,0.5,0.3,0.9,0.7,1.3
				c0.2,0.3,0.4,0.5,0.7,0.7c0.4,0.3,0.8,0.6,1.3,0.7c0.3,0,0.7,0.1,1,0.1s0.7-0.1,1-0.1c0.5-0.1,0.9-0.3,1.3-0.7
				c0.4-0.3,0.7-0.6,1-1.1c0,0,0,0,0-0.1l0.1-0.1c0,0,0,0-0.1,0.1l0,0C2994.4,1028.6,2994.5,1028.5,2994.6,1028.5z M2994.1,1028.9
				c-0.2,0.1-0.4,0.3-0.5,0.4C2993.8,1029.1,2994,1029,2994.1,1028.9C2994.1,1028.8,2994.1,1028.8,2994.1,1028.9z"/>
			<path class="st20" d="M3057.6,973.1c-0.2-0.2-0.5-0.4-0.7-0.6c-0.3-0.1-0.6-0.2-0.9-0.4c-0.5-0.1-0.9-0.2-1.4-0.1
				c-0.5,0-0.9,0.2-1.3,0.4c-0.7,0.4-1.5,0.8-2.2,1.2c-0.6,0.4-1.2,0.9-1.5,1.5c-0.4,0.7-0.6,1.4-0.6,2.2c0.1,0.4,0.1,0.8,0.2,1.1
				c0.2,0.7,0.6,1.4,1.1,1.9c0.4,0.4,0.8,0.7,1.4,0.9c0.5,0.3,1.1,0.4,1.6,0.4c1.5,0,3-0.8,3.7-2.1c0.4-0.7,0.8-1.5,1.2-2.2
				c0.1-0.3,0.2-0.6,0.4-0.9c0.1-0.5,0.2-1,0.1-1.4c0-0.3-0.1-0.6-0.2-0.9C3058.2,973.8,3058,973.4,3057.6,973.1z"/>
			<path class="st20" d="M3060,907.8c-0.6-0.3-1.2-0.6-1.8-0.8c-0.1,0-0.3-0.1-0.4-0.1c-0.5-0.2-1.1-0.2-1.6-0.2
				c-0.3,0-0.6-0.1-1-0.1c-0.7,0-1.3,0.1-1.9,0.4c-0.6,0.2-1.1,0.5-1.6,1c-0.5,0.4-0.8,1-1,1.6c-0.3,0.6-0.4,1.2-0.4,1.9
				c0.1,0.4,0.1,0.9,0.2,1.3c0.2,0.8,0.6,1.5,1.3,2.1c0.3,0.3,0.7,0.5,1,0.8c0.8,0.4,1.6,0.7,2.5,0.7c0.3,0,0.6-0.1,0.9-0.1
				c0.1,0,0.2,0,0.3,0c0.4-0.1,0.8-0.1,1.3-0.2h0.1c0.1,0,0.3-0.1,0.4-0.1c0.6-0.2,1.2-0.4,1.8-0.8c0.2-0.1,0.5-0.3,0.7-0.4
				c1.1-0.7,1.9-1.9,1.9-3.2c0-1.3-0.7-2.6-1.9-3.2C3060.4,908.1,3060.2,907.9,3060,907.8z"/>
			<path class="st20" d="M3143.4,947.8c-0.7-0.7-1.5-1.2-2.5-1.4c-1-0.3-2-0.3-3,0c-0.4,0.1-0.8,0.1-1.2,0.2
				c-0.9,0.3-1.7,0.7-2.4,1.4s-1.1,1.5-1.4,2.4c-0.3,1.8-0.3,1.1,0,2.9c0.3,0.9,0.7,1.7,1.4,2.4c0.7,0.7,1.5,1.1,2.4,1.4
				c0.4,0.1,0.8,0.1,1.2,0.2c1,0.3,2,0.3,3,0s1.8-0.7,2.5-1.4c0.3-0.4,0.6-0.8,0.9-1.1c0.5-0.9,0.8-1.8,0.8-2.8
				c0-0.8-0.1-1.5-0.5-2.2C3144.3,948.9,3143.9,948.3,3143.4,947.8z"/>
			<path class="st20" d="M3095.4,845.9c-4.1,0-4.2,6.4,0,6.4C3099.6,852.4,3099.6,845.9,3095.4,845.9z"/>
			<path class="st20" d="M3166.6,859.5c-0.3-0.6-0.7-1-1.3-1.4c-0.5-0.4-1-0.7-1.7-0.9c-0.3-0.1-0.6-0.2-0.9-0.2
				c-0.9-0.2-1.8-0.2-2.7,0s-1.6,0.7-2.3,1.3c-0.3,0.3-0.5,0.7-0.8,1c-0.5,0.8-0.7,1.7-0.7,2.6c0,0.7,0.1,1.4,0.4,2
				c0.2,0.6,0.6,1.2,1.1,1.7c0.6,0.6,1.4,1.1,2.3,1.3c0.9,0.2,1.8,0.2,2.7,0c0.3-0.1,0.6-0.2,0.9-0.2c0.4-0.2,0.8-0.3,1.2-0.5
				c0.6-0.3,1-0.7,1.4-1.3c0.3-0.3,0.5-0.7,0.6-1.1c0.3-0.6,0.4-1.2,0.4-1.9c-0.1-0.4-0.1-0.9-0.2-1.3
				C3166.9,860.3,3166.7,859.9,3166.6,859.5z"/>
			<path class="st20" d="M3218.2,890.2c-3.8,0-3.8,5.9,0,5.9C3221.9,896.1,3221.9,890.2,3218.2,890.2z"/>
			<path class="st20" d="M3007.9,1124.1c-0.4-0.4-0.8-0.6-1.3-0.8c-0.1-0.1-0.3-0.1-0.4-0.2c-0.3-0.1-0.6-0.1-0.9-0.1
				c-0.3-0.1-0.5-0.3-0.8-0.3c-0.1,0-0.2-0.1-0.3-0.1h-0.1c-0.4-0.1-0.9-0.1-1.3-0.2c-0.4,0.1-0.9,0.1-1.3,0.2h-0.1
				c-0.2,0-0.3,0.1-0.5,0.1c-0.6,0.2-1.2,0.3-1.8,0.5c-0.7,0.2-1.2,0.5-1.7,0.9s-1,0.8-1.3,1.4c-0.4,0.6-0.6,1.2-0.6,1.9
				c-0.2,0.7-0.1,1.3,0.1,2c0.4,1.2,1.2,2.4,2.3,3c0.4,0.2,0.8,0.3,1.2,0.5c0.9,0.2,1.8,0.2,2.7,0c0.6-0.2,1.2-0.5,1.8-0.7
				c0.1-0.1,0.3-0.1,0.4-0.2c0.4-0.2,0.9-0.3,1.3-0.6c0.3-0.3,0.7-0.5,1-0.8c0.3-0.3,0.5-0.7,0.8-1c0.1-0.1,0.1-0.2,0.2-0.3
				c0.1-0.1,0.1-0.2,0.2-0.3l0.1-0.1c0.4-0.4,0.7-0.9,1-1.3c0.5-0.8,0.5-1.8,0.1-2.6C3008.3,1124.7,3008.1,1124.4,3007.9,1124.1z"/>
			<path class="st20" d="M134.9,2420.3c0.4-0.5,0.8-1,1.2-1.6c0.2-0.3,0.4-0.5,0.5-0.9c0.1-0.4,0.1-0.9-0.1-1.3
				c-0.3-0.7-1-1.2-1.8-1.2c-0.6,0-1.2,0-1.9,0c-0.4,0-0.8,0.1-1.2,0.2c-0.2,0.1-0.3,0.1-0.5,0.2c-0.3,0.1-0.6,0.3-1,0.4
				c-0.5,0.1-1,0.4-1.3,0.8c-0.2,0.2-0.3,0.4-0.5,0.6c-0.3,0.5-0.4,1-0.4,1.5c0,0.4,0.1,0.8,0.3,1.2c0.1,0.4,0.3,0.7,0.6,1
				s0.6,0.5,1,0.6c0.4,0.2,0.8,0.3,1.2,0.3c0.5,0,1.1-0.1,1.5-0.4c0.3-0.2,0.6-0.4,0.9-0.5C134,2421,134.6,2420.8,134.9,2420.3z"/>
			<path class="st20" d="M-157.6,2371.2c-0.1-0.4-0.3-0.8-0.6-1.2c-0.3-0.5-0.8-0.9-1.3-1.2c-0.5-0.2-1.3-0.4-1.8-0.1
				c-0.4,0.2-0.8,0.3-1.1,0.5c-0.4,0.2-0.8,0.6-1.1,0.9c-0.4,0.4-0.7,0.8-1,1.2c-0.1,0.2-0.3,0.5-0.4,0.7c-0.4,0.7-0.7,1.5-1,2.3
				c-0.2,0.5-0.4,1-0.6,1.5c-0.2,0.6-0.2,1.1-0.1,1.7c0,0.6,0.2,1.1,0.5,1.6s0.6,0.9,1.1,1.2c0.4,0.4,0.9,0.6,1.5,0.8
				c1.1,0.2,2.3,0.2,3.3-0.4c0.9-0.6,1.7-1.5,2-2.6c0.1-0.5,0.3-1,0.4-1.5c0.1-0.2,0.1-0.5,0.2-0.7c0.1-0.6,0.2-1.1,0.3-1.7
				c0-0.2,0.1-0.5,0.1-0.7s0-0.5,0-0.7C-157.4,2372.2-157.4,2371.7-157.6,2371.2z"/>
			<path class="st20" d="M-26.4,2339c-4.3,0-4.3,6.7,0,6.7C-22.1,2345.6-22.1,2339-26.4,2339z"/>
			<path class="st20" d="M-489,1210.8c-0.1-0.5-0.1-0.9-0.2-1.4c0,0,0,0,0-0.1v-0.1c0,0,0,0,0-0.1l0,0l0,0c-0.2-0.4-0.3-0.8-0.5-1.1
				l0,0c-0.2-0.4-0.4-0.7-0.7-1l-1-0.7l-1.1-0.5l0,0h-0.1h-0.1c-0.5-0.1-0.4-0.2-1.4-0.2c-0.1,0-1.3,0.2-1.4,0.2s-1.2,0.5-1.3,0.5
				c0,0,0,0-0.1,0c-0.1,0.1-0.3,0.1-0.4,0.2c-0.3,0.2-0.6,0.4-0.9,0.5c-0.9,0.5-1.5,1.2-2,2c-0.5,0.9-0.8,1.8-0.8,2.9
				c0.1,0.5,0.1,1,0.2,1.5c0.3,1,0.8,1.8,1.5,2.5c0.5,0.6,1.1,0.9,1.8,1.2c0.7,0.4,1.4,0.5,2.2,0.5c2,0,3.9-1.1,4.9-2.8
				c0.2-0.3,0.3-0.5,0.5-0.8c0.1-0.1,0.2-0.3,0.2-0.4c0.2-0.3,0.2-0.5,0.4-0.8c0,0.1,0.2-0.4,0.3-0.7
				C-489.1,1211.7-489.1,1211.2-489,1210.8z"/>
			<path class="st20" d="M-403.5,1158.5c-0.2-0.2-0.5-0.4-0.7-0.6c-0.6-0.3-1.2-0.5-1.9-0.5c-0.8,0.1-1.2,0.1-1.9,0.5
				c0,0-0.1,0-0.1,0.1c-0.1,0-0.1,0.1-0.2,0.1c-0.1,0.1-0.3,0.2-0.4,0.2c-0.3,0.2-0.6,0.3-0.8,0.5c-0.6,0.4-1.1,0.9-1.5,1.5
				s-0.6,1.3-0.6,2.1c0,0.4,0.1,0.7,0.1,1.1c0.2,0.7,0.6,1.3,1.1,1.8c0.4,0.4,0.8,0.7,1.3,0.9c0.5,0.3,1,0.4,1.6,0.4
				c1.5,0,2.8-0.8,3.6-2.1c0.2-0.3,0.3-0.6,0.5-0.8c0.1-0.1,0.2-0.3,0.2-0.4c0-0.1,0.1-0.1,0.1-0.2c0,0,0-0.1,0.1-0.1
				c0.4-0.7,0.5-1.1,0.5-1.9c0-0.5-0.1-1-0.3-1.4C-402.9,1159.2-403.2,1158.8-403.5,1158.5z"/>
			<path class="st20" d="M-352.5,1249.3c-3.8,0-3.8,5.9,0,5.9C-348.8,1255.2-348.7,1249.3-352.5,1249.3z"/>
			<path class="st20" d="M-479.2,1364.5c0-0.1,0-0.1,0-0.2v-0.1c0-0.3,0-0.7-0.1-1c-0.1-0.3-0.2-0.6-0.4-0.9
				c-0.3-0.6-0.9-1.2-1.6-1.5c-0.8-0.4-1.3-0.6-2.2-0.6c-0.2,0-0.8,0-1.2,0.2c-0.4,0.2-0.9,0.3-1.3,0.5c-0.1,0-0.2,0.1-0.3,0.2
				c-0.4,0.3-0.8,0.5-1.2,0.9s-0.8,0.9-1.1,1.4c-0.1,0.3-0.3,0.6-0.4,0.8c-0.1,0.3-0.3,0.6-0.3,0.9c-0.2,0.6-0.2,1.3-0.3,1.9
				c0,0.6,0.1,1.3,0.2,1.9c0.2,0.8,0.7,1.6,1.3,2.2c0.3,0.3,0.7,0.5,1,0.8c0.8,0.5,1.6,0.7,2.5,0.7c0.7,0,1.3-0.1,1.9-0.4
				c0.6-0.2,1.2-0.5,1.6-1c0.5-0.5,0.8-1,1-1.6c0.3-0.6,0.5-1.2,0.4-1.9c0-0.5-0.1-0.9-0.2-1.3v-0.1c0.1-0.2,0.2-0.3,0.2-0.5
				c0.3-0.9,0.1-1.4,0-2.3C-479.3,1363.8-479.2,1364.1-479.2,1364.5z"/>
			<path class="st20" d="M-381.9,1346.3c-0.4-0.3-0.9-0.6-1.3-0.9c-0.7-0.4-1.5-0.6-2.3-0.6c-0.8,0-1.6,0.2-2.3,0.6
				c-1.4,0.8-2.2,2.3-2.2,3.9c0,1.6,0.9,3.1,2.2,3.9c0.7,0.4,1.5,0.6,2.3,0.6c0.8,0,1.6-0.2,2.3-0.6c0.4-0.3,0.9-0.6,1.3-0.9
				c0.5-0.3,0.9-0.7,1.3-1.3c0.3-0.5,0.5-1.1,0.5-1.8c0-0.6-0.2-1.2-0.5-1.8C-380.9,1347-381.4,1346.6-381.9,1346.3z"/>
			<path class="st20" d="M-260.4,1324.9c-0.3-0.6-0.7-1-1.3-1.4c-0.5-0.4-1-0.7-1.7-0.9c-0.9-0.2-1.7-0.2-2.6,0
				c-0.4,0.2-0.8,0.3-1.2,0.5c-0.7,0.4-1.3,1-1.7,1.7c-0.4,0.6-0.5,1.2-0.6,1.8s-0.1,1.3,0.1,1.9c0.2,0.8,0.6,1.5,1.3,2.1
				c0.3,0.3,0.7,0.5,1,0.8c0.8,0.4,1.6,0.7,2.5,0.7c0.4-0.1,0.9-0.1,1.3-0.2c0.8-0.2,1.5-0.6,2.1-1.3c0.6-0.6,1-1.3,1.3-2.1
				c0.1-0.4,0.1-0.9,0.2-1.3c0-0.4-0.1-0.7-0.1-1.1C-259.9,1325.8-260.1,1325.3-260.4,1324.9z"/>
			<path class="st20" d="M-226.1,1440.9c-0.3-0.3-0.6-0.7-0.8-1c-0.3-0.2-0.5-0.4-0.8-0.6c-0.3-0.1-0.6-0.3-1-0.4
				c-0.5-0.2-1.1-0.2-1.6-0.1c-0.4,0-0.7,0.1-1,0.3c-0.3,0.1-0.6,0.3-0.9,0.5c-0.3,0.2-0.5,0.4-0.7,0.7c-0.3,0.3-0.4,0.5-0.5,0.9
				c-0.3,0.5-0.4,1-0.3,1.6c0,0.4,0.1,0.7,0.1,1.1c0.1,0.3,0.3,0.6,0.4,1c0.2,0.3,0.4,0.5,0.6,0.8c0.3,0.2,0.5,0.4,0.8,0.6
				c0.3,0.1,0.6,0.3,1,0.4c0.5,0.2,1.1,0.2,1.6,0.1c0.4,0,0.7-0.1,1-0.3c0.5-0.2,0.9-0.4,1.3-0.8c0.3-0.3,0.6-0.7,0.8-1
				c0.3-0.2,0.4-0.5,0.5-0.8c0.2-0.3,0.2-0.7,0.2-1c0-0.2-0.1-0.5-0.1-0.7C-225.5,1441.6-225.7,1441.2-226.1,1440.9z"/>
			<path class="st20" d="M-374.5,1503.1c-4.9,0-4.9,7.6,0,7.6S-369.6,1503.1-374.5,1503.1z"/>
			<path class="st20" d="M-145.2,1513.2c-0.4-0.2-0.8-0.4-1.3-0.4c-0.4-0.1-0.9-0.1-1.3-0.2c-0.9-0.1-1.8-0.3-2.6-0.4
				c-0.4-0.1-0.7-0.1-1.1,0c-0.3,0.1-0.6,0.3-0.9,0.5c-0.4,0.4-0.6,0.9-0.6,1.5c0,0.5,0.2,1.1,0.6,1.5c0.3,0.3,0.6,0.4,0.9,0.5
				c0.4,0.1,0.7,0.1,1.1,0c0.9-0.1,1.8-0.3,2.6-0.4c0.4-0.1,0.9-0.1,1.3-0.2c0.4-0.1,0.9-0.3,1.3-0.4c0.4-0.2,0.8-0.5,0.7-1
				C-144.5,1513.7-144.8,1513.4-145.2,1513.2z"/>
			<path class="st20" d="M-22.7,1555.8L-22.7,1555.8c-0.2-0.2-0.2-0.2-0.3-0.3s-0.2-0.3-0.3-0.4c-0.4-0.4-0.9-0.7-1.4-0.9
				c-0.5-0.3-1.1-0.4-1.7-0.4c-0.6,0-1.2,0.1-1.7,0.4c-0.5,0.2-1,0.5-1.4,0.9c-0.2,0.3-0.5,0.6-0.7,0.9c-0.4,0.7-0.6,1.4-0.6,2.2
				c0.1,0.4,0.1,0.8,0.2,1.2c0.2,0.7,0.6,1.4,1.1,1.9c0.1,0.1,0.3,0.2,0.4,0.3c0.1,0.1,0.1,0.1,0.2,0.2l0.1,0.1
				c0.7,0.6,1,0.9,1.9,1.1c0.8,0.2,1.5,0.2,2.3,0c0.7-0.2,1.3-0.6,1.9-1.1c0.5-0.5,0.9-1.2,1.1-1.9c0.2-0.8,0.2-1.5,0-2.3
				C-21.8,1556.9-22.2,1556.5-22.7,1555.8z"/>
			<path class="st20" d="M-147.9,1609.1L-147.9,1609.1c-0.1-0.1-0.1-0.1-0.1-0.2l0,0c-0.2-0.2-0.5-0.4-0.7-0.5
				c-0.4-0.2-0.6-0.3-1-0.4c-0.1,0-0.2-0.1-0.4-0.1c-0.6-0.2-1.3-0.2-1.9,0c-0.6,0.2-1.1,0.5-1.6,0.9c-0.2,0.2-0.4,0.5-0.6,0.7
				c-0.3,0.6-0.5,1.2-0.5,1.8c0,0.5,0.1,1,0.3,1.4c0.1,0.4,0.4,0.8,0.7,1.2c0.4,0.4,1,0.7,1.6,0.9c0.6,0.2,1.3,0.2,1.9,0
				c0.1,0,0.2-0.1,0.4-0.1c0.2,0,0.3-0.1,0.6-0.2c0.5-0.2,0.7-0.3,1.1-0.7c0.1-0.1,0.2-0.2,0.2-0.3c0.3-0.2,0.6-0.5,0.8-0.8
				c0.2-0.4,0.4-0.8,0.4-1.3s-0.1-0.9-0.4-1.3C-147.2,1609.6-147.5,1609.3-147.9,1609.1z"/>
			<path class="st20" d="M352.8,1011.9c0.5-0.1,0.9-0.1,1.4-0.2c0.4-0.2,0.8-0.3,1.2-0.5c0.6-0.3,1.1-0.8,1.4-1.3
				c0.3-0.3,0.5-0.7,0.7-1.1c0.3-0.6,0.5-1.3,0.4-2c0-0.7-0.1-1.5-0.2-2.2c-0.2-0.7-0.5-1.2-1-1.7s-1-0.8-1.7-1
				c-0.7-0.1-1.5-0.2-2.2-0.2c-0.5,0.1-0.9,0.1-1.4,0.2c-0.4,0.2-0.8,0.3-1.2,0.5c-0.6,0.3-1.1,0.8-1.4,1.3
				c-0.3,0.3-0.5,0.7-0.7,1.1c-0.2,0.4-0.4,0.8-0.4,1.3c-0.1,0.5-0.1,0.9,0,1.4c0,0.5,0.1,0.9,0.4,1.3c0.2,0.6,0.6,1.2,1.1,1.7
				c0.3,0.3,0.7,0.5,1,0.8c0.4,0.2,0.8,0.3,1.2,0.5C351.9,1011.8,352.4,1011.8,352.8,1011.9z"/>
			<path class="st20" d="M512.2,987.1c-6.3,0-6.3,9.8,0,9.8C518.5,997,518.6,987.1,512.2,987.1z"/>
			<path class="st20" d="M444.1,986.9c-0.1-0.1-0.2-0.2-0.2-0.2c-0.2-0.2-0.4-0.4-0.6-0.5c-0.3-0.2-0.5-0.2-0.8-0.3
				s-0.6-0.1-0.9-0.2c-0.5-0.1-1-0.1-1.5,0c-0.5,0.1-0.9,0.4-1.3,0.7c-0.1,0.2-0.3,0.4-0.4,0.6c-0.3,0.4-0.4,0.9-0.4,1.4
				c0,0.4,0.1,0.8,0.2,1.1c0.1,0.4,0.3,0.7,0.6,0.9c0.4,0.4,0.8,0.6,1.3,0.7c0.5,0.1,1,0.1,1.5,0c0.3-0.1,0.6-0.1,0.9-0.2
				c0.3-0.1,0.5-0.1,0.8-0.3c0.2-0.1,0.4-0.3,0.6-0.5c0.1-0.1,0.2-0.2,0.2-0.2c0.2-0.2,0.4-0.4,0.4-0.7c0.1-0.3,0.2-0.5,0.2-0.8
				c0-0.2-0.1-0.4-0.1-0.6C444.6,987.5,444.4,987.1,444.1,986.9z"/>
			<path class="st20" d="M594.7,908.4c-4,0-4,6.2,0,6.2S598.7,908.4,594.7,908.4z"/>
			<path class="st20" d="M522.9,859.1c-0.8-0.7-0.9-0.7-1.9-1.1h-0.1c-0.1,0-0.2-0.1-0.2-0.1c-0.8-0.2-1.5-0.2-2.3,0
				c-0.7,0.2-1.4,0.6-1.9,1.1c-0.2,0.3-0.4,0.6-0.7,0.9c-0.4,0.7-0.6,1.4-0.6,2.2c0,0.6,0.1,1.1,0.4,1.6c0.2,0.5,0.5,1,0.9,1.4
				c0.5,0.5,1.2,0.9,1.9,1.1c0.8,0.2,1.5,0.2,2.3,0c0.1,0,0.2-0.1,0.2-0.1h0.1c0.9-0.4,1.1-0.4,1.9-1.1c0.4-0.4,0.7-0.8,0.8-1.3
				c0.3-0.5,0.4-1,0.4-1.6c0-0.4-0.1-0.7-0.1-1.1C523.8,860.2,523.4,859.6,522.9,859.1z"/>
			<path class="st20" d="M437,882.3c-0.3-0.3-0.7-0.5-1.1-0.6c-0.2-0.1-0.5-0.2-0.7-0.2c-0.2-0.1-0.5-0.1-0.7-0.2
				c-0.5-0.1-1-0.2-1.5-0.3c-0.4-0.1-0.9-0.1-1.3-0.2c-0.4,0.1-0.9,0.1-1.3,0.2c-0.4,0.2-0.8,0.3-1.2,0.5c-0.3,0.3-0.7,0.5-1,0.8
				s-0.5,0.7-0.8,1c-0.2,0.4-0.3,0.8-0.5,1.2c-0.1,0.4-0.1,0.9-0.2,1.3c0,0.7,0.1,1.3,0.4,1.9c0.1,0.4,0.3,0.8,0.6,1.1
				c0.2,0.4,0.5,0.7,0.9,0.9c0.3,0.3,0.7,0.5,1.1,0.6c0.4,0.2,0.8,0.3,1.3,0.3c0.4,0.1,0.9,0.1,1.3,0c0.5,0,0.9-0.1,1.3-0.3
				c0.4-0.1,0.8-0.3,1.1-0.6c0.5-0.4,1-0.8,1.3-1.4c0.2-0.5,0.5-1.1,0.7-1.6c0.3-0.7,0.7-1.4,0.9-2.1c0.1-0.6,0.1-1.3-0.2-1.9
				C437.2,882.6,437.1,882.4,437,882.3z"/>
			<path class="st20" d="M303.2,918.7c0-0.1-0.1-0.2-0.1-0.3c-0.2-0.6-0.6-1-1.2-1.2c-0.1,0-0.2-0.1-0.3-0.1h-0.1l0,0
				c-0.2,0-0.4-0.1-0.7-0.1c-0.2,0-0.4,0.1-0.7,0.1l0,0c-0.1,0-0.2,0-0.3,0.1c-0.4,0.1-0.8,0.2-1.1,0.2c-0.6,0.2-1.1,0.5-1.5,0.9
				c-0.4,0.4-0.7,0.9-0.9,1.5c-0.3,1.2,0,2.5,0.9,3.3c0.9,0.9,2.1,1.2,3.3,0.9c0.6-0.2,1.1-0.5,1.5-0.9c0.4-0.4,0.7-0.9,0.9-1.5
				c0.1-0.4,0.2-0.8,0.2-1.1c0-0.1,0-0.2,0.1-0.3c0-0.1,0-0.3,0.1-0.4C303.4,919.3,303.4,919.2,303.2,918.7
				C303.3,918.7,303.3,918.7,303.2,918.7z"/>
			<path class="st20" d="M215.2,879.4c-0.7-0.7-0.9-0.7-1.8-1.1c-0.4-0.2-0.8-0.4-1.3-0.5c-0.9-0.2-1.8-0.4-2.6-0.6
				c-1.7-0.4-3.7,0-5,1.3c-0.9,1-1.5,2.2-1.5,3.6c0,0.7,0.1,1.4,0.4,2c0.2,0.6,0.6,1.2,1.1,1.6c1.3,1.3,3.2,1.7,5,1.3
				c0.9-0.2,1.8-0.4,2.6-0.6c0.4-0.1,0.9-0.3,1.3-0.5c0.4-0.1,0.7-0.2,1-0.5c0.3-0.2,0.5-0.4,0.8-0.6c0.1-0.1,0.1-0.1,0.2-0.2
				c0.7-0.7,1.1-1.6,1.1-2.6s-0.4-1.9-1.1-2.5C215.3,879.6,215.2,879.5,215.2,879.4z"/>
			<path class="st20" d="M129.3,828c0.3,0.3,0.7,0.5,1.1,0.6c0.6,0.2,1.1,0.2,1.7,0c0.5-0.2,1-0.4,1.4-0.8c1-0.8,2-1.7,3-2.5
				c0.1-0.2,0.2-0.3,0.4-0.5c0.2-0.3,0.3-0.5,0.3-0.8c0.1-0.2,0.1-0.4,0-0.6c0-0.3-0.1-0.6-0.3-0.8c-0.2-0.3-0.5-0.6-0.8-0.8
				c-0.5-0.3-1.2-0.4-1.8-0.2c-1.3,0.3-2.6,0.7-3.9,1c-1,0.3-2,1.2-2.2,2.2c-0.2,0.8-0.1,1.7,0.3,2.4
				C128.7,827.5,129,827.8,129.3,828z"/>
			<path class="st20" d="M309.2,844.3L309.2,844.3L309.2,844.3c-0.1-0.1-0.2-0.2-0.2-0.2c-0.1-0.1-0.2-0.1-0.2-0.2
				c-0.2-0.2-0.5-0.4-0.8-0.5c-0.3-0.2-0.6-0.2-1-0.2c-0.2,0-0.4,0.1-0.7,0.1c-0.4,0.1-0.8,0.3-1.1,0.6c-0.4,0.3-0.7,0.6-0.9,1
				c-0.1,0.3-0.2,0.5-0.3,0.8s-0.1,0.6-0.1,0.9c0,0.3,0.1,0.6,0.1,0.8c0,0,0,0,0,0.1c0,0.1,0,0.1,0,0.2s0.1,0.3,0.1,0.4
				c0.1,0.2,0.2,0.5,0.3,0.7c0.2,0.3,0.4,0.6,0.8,0.8c0.2,0.2,0.4,0.3,0.7,0.4c0.4,0.2,0.7,0.3,1.2,0.3c0.3,0,0.5-0.1,0.8-0.1
				c0.2-0.1,0.5-0.2,0.7-0.3c0.3-0.2,0.6-0.4,0.8-0.8c0.3-0.3,0.4-0.6,0.5-1c0-0.1,0.1-0.3,0.1-0.4c0-0.1,0-0.1,0-0.2
				c0.1-0.3,0.1-0.6,0.1-0.9c0-0.5-0.2-1.2-0.4-1.6C309.6,844.8,309.4,844.5,309.2,844.3z"/>
			<path class="st20" d="M630.2,794.8c-0.4,0.4-0.7,0.8-0.8,1.3c-0.3,0.5-0.4,1-0.4,1.6c0,0.4,0.1,0.7,0.1,1.1
				c0.2,0.7,0.5,1.3,1.1,1.8c0.3,0.2,0.6,0.4,0.8,0.6c0.6,0.4,1.3,0.6,2.1,0.6c0.6,0,1.1-0.1,1.6-0.4c0.5-0.2,0.9-0.4,1.3-0.8
				c0.4-0.4,0.7-0.8,0.8-1.3c0.3-0.5,0.4-1,0.4-1.6c0-0.4-0.1-0.7-0.1-1.1c-0.2-0.7-0.5-1.3-1.1-1.8c-0.3-0.2-0.6-0.4-0.8-0.6
				c-0.6-0.4-1.3-0.6-2.1-0.6c-0.6,0-1.1,0.1-1.6,0.4C631,794.1,630.6,794.4,630.2,794.8z"/>
			<path class="st20" d="M539.8,761.6c-0.3-0.1-0.7-0.1-1,0c-0.6,0.2-1.1,0.4-1.7,0.7c-0.5,0.1-0.9,0.4-1.2,0.7
				c-0.3,0.3-0.6,0.7-0.7,1.2c-0.3,0.9,0,2,0.7,2.7s1.7,1,2.7,0.7c0.5-0.1,0.9-0.4,1.2-0.7c0.3-0.3,0.6-0.7,0.7-1.2
				c0.2-0.6,0.4-1.1,0.7-1.7c0.1-0.3,0.1-0.7,0-1c-0.1-0.3-0.3-0.6-0.5-0.9C540.4,761.8,540.1,761.7,539.8,761.6z"/>
			<path class="st20" d="M629.9,718.7c0.5-0.1,0.9-0.6,1.1-1.1c0.1-0.2,0.1-0.4,0.2-0.6s0.1-0.5,0.1-0.7c0.2-0.2,0.3-0.5,0.5-0.7
				c0.1-0.2,0.1-0.4-0.1-0.6c-0.1-0.1-0.4-0.2-0.6-0.1c-0.2,0.2-0.5,0.3-0.7,0.5c-0.1,0-0.1-0.1-0.2,0c-0.1,0-0.1,0-0.2,0
				s-0.2,0.1-0.3,0.1c-0.2,0.1-0.4,0.1-0.6,0.2c-0.5,0.1-0.9,0.6-1.1,1.1c-0.1,0.5,0,1.1,0.4,1.5
				C628.8,718.7,629.3,718.9,629.9,718.7z"/>
			<path class="st20" d="M861.3,821.3c-0.3-0.5-0.6-0.9-1.1-1.2c-0.4-0.4-0.9-0.6-1.5-0.8c-0.3-0.1-0.6-0.1-0.9-0.2
				c-0.8-0.2-1.6-0.2-2.4,0s-1.4,0.6-2,1.2c-0.2,0.3-0.5,0.6-0.7,0.9c-0.4,0.7-0.6,1.5-0.6,2.3c0,0.6,0.1,1.2,0.4,1.7
				c0.2,0.6,0.5,1,0.9,1.5c0.6,0.6,1.2,0.9,2,1.2c0.8,0.2,1.6,0.2,2.4,0c0.3-0.1,0.6-0.1,0.9-0.2c0.3-0.1,0.7-0.3,1-0.4
				c0.5-0.3,0.9-0.6,1.2-1.1c0.3-0.3,0.5-0.6,0.6-1c0.3-0.5,0.4-1.1,0.4-1.7c-0.1-0.4-0.1-0.8-0.2-1.2
				C861.6,822,861.4,821.7,861.3,821.3z"/>
			<path class="st20" d="M849,753.9c0-0.3-0.1-0.7-0.1-1c-0.2-0.6-0.5-1.2-1-1.7c-0.2-0.2-0.4-0.5-0.6-0.7c-0.3-0.3-0.7-0.5-1-0.8
				c-0.4-0.2-0.8-0.3-1.2-0.5c-0.6-0.2-1.3-0.2-1.9-0.1c-0.4,0-0.8,0.1-1.2,0.3c-0.4,0.1-0.8,0.3-1.1,0.6c-0.4,0.2-0.7,0.5-0.9,0.9
				c-0.3,0.3-0.5,0.7-0.6,1.1c-0.3,0.6-0.4,1.2-0.4,1.9c0.1,0.4,0.1,0.9,0.2,1.3c0.2,0.4,0.3,0.8,0.5,1.2c0.3,0.3,0.5,0.7,0.8,1
				c0.3,0.3,0.7,0.5,1,0.8c0.4,0.2,0.8,0.3,1.2,0.5c0.6,0.2,1.3,0.2,1.9,0.1c0.4,0,0.8-0.1,1.2-0.3c0.6-0.2,1.1-0.5,1.6-1
				c0.2-0.2,0.4-0.5,0.6-0.7c0.4-0.3,0.6-0.8,0.8-1.2C848.9,754.9,849,754.4,849,753.9z"/>
			<path class="st20" d="M958.4,712.6c-0.3-0.2-0.5-0.4-0.8-0.6c-0.6-0.4-1.3-0.5-2-0.6c-0.6,0-1.1,0.1-1.6,0.3
				c-0.5,0.2-0.9,0.4-1.3,0.8c-0.4,0.4-0.7,0.8-0.8,1.3c-0.3,0.5-0.4,1-0.3,1.6c0,0.4,0.1,0.7,0.1,1.1c0.2,0.7,0.5,1.3,1,1.8
				c0.3,0.2,0.5,0.4,0.8,0.6c0.6,0.4,1.3,0.5,2,0.6c0.6,0,1.1-0.1,1.6-0.3c0.5-0.2,0.9-0.4,1.3-0.8c0.4-0.4,0.7-0.8,0.8-1.3
				c0.3-0.5,0.4-1,0.3-1.6c0-0.4-0.1-0.7-0.1-1.1C959.3,713.7,958.9,713.1,958.4,712.6z"/>
			<path class="st20" d="M946.4,817.2c-5.7,0-5.7,8.9,0,8.9C952.1,826.1,952.2,817.2,946.4,817.2z"/>
			<path class="st20" d="M878.7,959c-0.2-0.2-0.4-0.3-0.6-0.5c-0.5-0.3-1-0.4-1.6-0.4c-0.1,0-0.3,0-0.4,0c-0.5,0-0.9,0.1-1.4,0.2
				c-0.3,0.1-0.8,0.3-1.1,0.5c-0.1,0-0.2,0.1-0.2,0.1c-0.2,0.1-0.3,0.2-0.5,0.2c-0.6,0.4-1.1,0.9-1.5,1.5c-0.4,0.7-0.6,1.4-0.6,2.1
				c0.1,0.4,0.1,0.7,0.2,1.1c0.2,0.7,0.6,1.3,1.1,1.9c0.4,0.4,0.8,0.7,1.4,0.9c0.5,0.3,1,0.4,1.6,0.4c0.8,0,1.5-0.2,2.1-0.6
				c0.6-0.4,1.1-0.9,1.5-1.5c0.1-0.2,0.2-0.3,0.2-0.5c0-0.1,0.1-0.2,0.1-0.2c0.2-0.4,0.4-0.8,0.5-1.1c0.1-0.4,0.1-0.9,0.2-1.4
				c0-0.1,0-0.3,0-0.4c0-0.4-0.1-0.8-0.3-1.2C879.2,959.6,879,959.3,878.7,959z"/>
			<path class="st20" d="M1040.9,755.7c-0.4-0.3-0.9-0.6-1.3-0.9c-0.5-0.3-1-0.4-1.6-0.4s-1.1,0.1-1.6,0.4c-1,0.6-1.6,1.6-1.6,2.7
				s0.6,2.2,1.6,2.7c0.5,0.3,1,0.4,1.6,0.4s1.1-0.1,1.6-0.4c0.4-0.3,0.9-0.6,1.3-0.9c0.3-0.2,0.6-0.4,0.8-0.8
				c0.2-0.3,0.3-0.7,0.3-1.1c0-0.4-0.1-0.7-0.3-1.1C1041.5,756.2,1041.2,755.9,1040.9,755.7z"/>
			<path class="st20" d="M2705.9,978.7L2705.9,978.7v-0.2c-0.2-0.4-0.3-0.7-0.5-1.1c0-0.1-0.1-0.2-0.2-0.2c-0.3-0.4-0.5-0.8-0.9-1.2
				s-0.8-0.7-1.3-0.8c-0.5-0.3-1-0.4-1.6-0.3c-0.4,0-0.7,0.1-1.1,0.1c-0.7,0.2-1.3,0.5-1.8,1c-0.1,0.1-0.2,0.3-0.3,0.4
				c-0.1,0.1-0.2,0.3-0.3,0.5c0,0,0,0.1-0.1,0.1c0,0.1-0.1,0.1-0.1,0.2c-0.3,0.5-0.5,1-0.7,1.5c-0.1,0.4-0.2,0.7-0.3,1.1
				c-0.2,0.9-0.2,1.7,0,2.6c0.2,0.8,0.6,1.5,1.3,2.1c0.3,0.3,0.7,0.5,1,0.8c0.8,0.4,1.6,0.7,2.5,0.7c0.7,0,1.3-0.1,1.9-0.4
				c0.6-0.2,1.1-0.5,1.6-1c1.2-1.2,1.7-3,1.3-4.7C2706.1,979.4,2706,979,2705.9,978.7z"/>
			<path class="st20" d="M2728,825.5c-0.4-0.5-0.9-0.9-1.3-1.4c-0.3-0.2-0.6-0.5-0.9-0.7c-0.4-0.1-0.7-0.3-1-0.4
				c-0.6-0.2-1.2-0.2-1.8-0.1c-0.4,0-0.8,0.1-1.1,0.3c-0.4,0.1-0.7,0.3-1,0.6c-0.3,0.2-0.6,0.5-0.8,0.8c-0.3,0.3-0.5,0.6-0.6,1
				c-0.3,0.5-0.4,1.1-0.4,1.7c0.1,0.4,0.1,0.8,0.2,1.2c0.1,0.3,0.3,0.7,0.4,1c0.2,0.3,0.5,0.6,0.7,0.9c0.3,0.2,0.6,0.5,0.9,0.7
				c0.3,0.1,0.7,0.3,1,0.4c0.6,0.2,1.2,0.2,1.8,0.1c0.4,0,0.8-0.1,1.1-0.3c0.5-0.2,1-0.5,1.4-0.9c0.4-0.5,0.9-0.9,1.3-1.4
				c0.2-0.2,0.4-0.5,0.5-0.8c0.2-0.3,0.2-0.6,0.2-0.9c0-0.2-0.1-0.4-0.1-0.6C2728.5,826.1,2728.3,825.8,2728,825.5z"/>
			<path class="st20" d="M2630,819c-0.1-0.1-0.2-0.2-0.3-0.4c-0.2-0.2-0.3-0.3-0.6-0.5c-0.2-0.2-0.5-0.4-0.7-0.5
				c-0.3-0.2-0.7-0.4-1-0.7c-0.9-0.5-1.8-0.7-2.8-0.8c-1,0-1.9,0.3-2.8,0.8c-1.7,1-2.7,2.8-2.7,4.8c0,1.9,1.1,3.8,2.7,4.8
				c0.9,0.5,1.8,0.7,2.8,0.8c1,0,1.9-0.3,2.8-0.8c0.3-0.2,0.7-0.4,1-0.7c0.5-0.3,0.9-0.6,1.3-1c0.1-0.1,0.2-0.2,0.3-0.4
				c0.4-0.3,0.6-0.8,0.8-1.2c0.2-0.5,0.3-0.9,0.3-1.5c0-0.3-0.1-0.7-0.1-1C2630.8,820,2630.5,819.5,2630,819z"/>
			<path class="st20" d="M2666.7,731.6c0.9-0.2,1.7-0.5,2.6-0.7c0.4-0.1,0.9-0.2,1.3-0.3c0.6-0.2,1.1-0.4,1.6-0.7
				c1.2-0.6,1.2-2.6,0-3.2c-0.5-0.3-1.1-0.5-1.6-0.7c-0.4-0.1-0.9-0.2-1.3-0.3c-0.9-0.2-1.7-0.5-2.6-0.7c-2.2-0.6-4.4,1.1-4.4,3.3
				c0,0.9,0.4,1.8,1,2.4C2664.2,731.6,2665.5,731.9,2666.7,731.6z"/>
			<path class="st20" d="M2662,1127.7c-0.2-0.2-0.5-0.4-0.8-0.5c-0.3-0.2-0.6-0.2-0.9-0.2c-0.7,0-1.3,0.3-1.7,0.7l0,0
				c-0.2,0.2-0.4,0.5-0.5,0.8c-0.2,0.3-0.2,0.6-0.2,1c0,0.2,0.1,0.4,0.1,0.7c0.1,0.4,0.3,0.8,0.6,1.1c0.2,0.3,0.5,0.4,0.8,0.5
				c0.1,0.2,0.2,0.5,0.4,0.7c0.2,0.5,1,0.5,1.2,0c0.1-0.2,0.2-0.5,0.4-0.7c0.3-0.1,0.6-0.3,0.8-0.5c0.2-0.2,0.4-0.5,0.5-0.8
				c0.2-0.3,0.2-0.6,0.2-1C2662.8,1128.9,2662.6,1128.2,2662,1127.7C2662.1,1127.8,2662.1,1127.7,2662,1127.7z"/>
			<path class="st20" d="M2672.1,1408.8c-0.1-0.4-0.3-0.9-0.4-1.3c-0.2-0.6-0.5-1.2-0.8-1.8c-0.4-0.8-1.4-1.3-2.3-1.3
				s-1.9,0.5-2.3,1.3c-0.3,0.6-0.6,1.2-0.8,1.8c-0.1,0.4-0.3,0.9-0.4,1.3c-0.4,1.2,0,2.7,0.9,3.5c0.2,0.2,0.5,0.4,0.7,0.6
				c0.6,0.3,1.2,0.5,1.8,0.5c0.5,0,1-0.1,1.4-0.3c0.5-0.1,0.8-0.4,1.2-0.8c0.5-0.5,0.8-1,0.9-1.6
				C2672.2,1410.1,2672.2,1409.5,2672.1,1408.8z"/>
			<path class="st20" d="M2579.6,1538.9c0.1,0.8,0.1,1.6,0.2,2.4c-0.1,1.5,1.1,2.2,2.2,2.1c1.2,0.1,2.3-0.6,2.2-2.1
				c0.1-0.8,0.1-1.6,0.2-2.4C2584.6,1535.8,2579.4,1535.8,2579.6,1538.9z"/>
		</g>
	</g>
</g>
</svg>
