<?xml version="1.0" encoding="utf-8"?>
<!-- Generator: Adobe Illustrator 26.1.0, SVG Export Plug-In . SVG Version: 6.00 Build 0)  -->
<svg version="1.1" xmlns="http://www.w3.org/2000/svg" xmlns:xlink="http://www.w3.org/1999/xlink" x="0px" y="0px"
	 viewBox="0 0 4000 2500" enable-background="new 0 0 4000 2500" xml:space="preserve">
<g id="Background" display="none">
	<g display="inline">
		<g>
			<defs>
				<rect id="SVGID_1_" width="4000" height="2500"/>
			</defs>
			<clipPath id="SVGID_00000091731654901030447310000005273681487763236784_">
				<use xlink:href="#SVGID_1_"  overflow="visible"/>
			</clipPath>
			<rect clip-path="url(#SVGID_00000091731654901030447310000005273681487763236784_)" fill="#151619" width="4000" height="2500"/>
			<path clip-path="url(#SVGID_00000091731654901030447310000005273681487763236784_)" fill="#151619" d="M4001,1355v919.8V2501H-1
				V97.7h-1.3c2.7-4,5.5-8,8.2-12c11-16,22.2-31.8,33.5-47.6c5.7-7.9,11.4-15.7,17.2-23.5c2.9-3.9,5.8-7.8,8.7-11.7
				c1.5-1.9,2.9-3.9,4.4-5.8V-1H4001V1355z"/>
			<path clip-path="url(#SVGID_00000091731654901030447310000005273681487763236784_)" fill="#18191B" d="M4001,1355.1v854.1V2501
				H137.9v6.8c-2.5-3.8-5-7.5-7.4-11.3c-19.7-30.1-38.6-60.8-56.8-91.8s-35.5-62.6-52.1-94.5c-8.3-16-16.4-32.1-24.2-48.3H-1V456.2
				h-3.2C3.7,440,11.7,423.9,20,407.9c16.5-32,33.8-63.5,51.9-94.6c36.2-62.2,75.5-122.6,117.8-181c21.1-29.2,43-57.9,65.6-86.1
				c11.3-14.1,22.7-28,34.4-41.9c2.9-3.5,5.8-6.9,8.8-10.3v5h3691.1v-3c1.5,1.7,2.9,3.4,4.4,5.2c2.9,3.5,5.8,6.9,8.7,10.4h-1.6
				V1355.1z"/>
			<path clip-path="url(#SVGID_00000091731654901030447310000005273681487763236784_)" fill="#1B1B1D" d="M4001,1355.3v788.4v261.9
				h1.4c-18.1,27.9-37,55.3-56.5,82.2c-4.9,6.7-9.8,13.4-14.8,20.1v-7H349.2v0c-2.5-3.4-4.9-6.7-7.4-10.1
				c-78.2-107.7-145.6-222.7-200.7-343.8s-97.9-248.2-127-380C7,1734.2,0.6,1701-5,1667.4h4v-616.8h-4.5c5.5-33.5,11.8-66.8,19-99.7
				c28.8-131.9,71.4-259,126.3-380.2c54.9-121.2,122.1-236.4,200.1-344.2c39-53.9,80.7-106,125-156C487,45.5,509.7,21,533.1-3v2
				h3217.2v-4.8c23.4,24,46.2,48.4,68.4,73.4c44.3,50,86.1,102,125.2,155.8c19.6,26.9,38.4,54.3,56.6,82.1c2.3,3.5,4.5,7,6.8,10.5
				h-6.3V1355.3z"/>
			<path clip-path="url(#SVGID_00000091731654901030447310000005273681487763236784_)" fill="#1D1D1F" d="M4001,1355.4v374.1v285.5
				h5.2c-2.9,7.1-5.8,14.1-8.8,21.1c-5.9,14.1-12,28-18.3,41.9c-50.3,111.1-111.9,216.7-183.4,315.5c-17.9,24.7-36.4,49-55.5,72.8
				c-9.5,11.9-19.2,23.7-29.1,35.4v-0.9H576.7v3.6c-9.9-11.7-19.6-23.5-29.2-35.4c-19.1-23.8-37.7-48.1-55.6-72.7
				c-71.7-98.7-133.4-204.2-183.9-315.2c-101-222-157-466.1-157.2-722.4C150.4,846.3,372.9,382,733.2,45.8
				c11.3-10.5,22.6-20.9,34.2-31.1c5.8-5.1,11.6-10.2,17.4-15.3c1.5-1.3,2.9-2.5,4.4-3.8V-1h2709.7v-2c5.8,5.1,11.6,10.1,17.4,15.3
				c11.5,10.2,22.9,20.6,34.2,31.1C3730.8,211.2,3876.8,411,3977.8,633c6.3,13.9,12.4,27.8,18.4,41.9c3,7,5.9,14.1,8.8,21.1h-4
				V1355.4z"/>
			<path clip-path="url(#SVGID_00000091731654901030447310000005273681487763236784_)" fill="#1F1F20" d="M3953.9,1355.6
				c0.2,233-50.3,455-141.7,657c-45.7,101-101.7,197-166.7,286.8c-32.5,44.9-67.3,88.3-104.1,130c-18.4,20.9-37.4,41.3-56.9,61.3
				c-4.9,5-9.8,10-14.7,14.9v-4.6H818.1v6.9c-4.9-4.9-9.8-9.9-14.7-14.9c-19.5-20-38.5-40.4-57-61.2c-36.9-41.6-71.8-85-104.4-129.8
				c-65.2-89.7-121.3-185.6-167.2-286.5c-91.8-201.8-142.7-423.7-142.9-656.7c-0.4-466,201.9-888.1,529.4-1193.7
				c40.9-38.2,83.8-74.6,128.5-109c22.3-17.2,45.1-33.9,68.4-50.2c5.8-4.1,11.6-8.1,17.5-12.1V-1h2140.8v-1.1c2.9,2,5.8,4,8.7,6
				c23.3,16.2,46.1,32.9,68.5,50c44.8,34.4,87.7,70.7,128.7,108.8C3750.4,467.9,3953.5,889.6,3953.9,1355.6z"/>
			<path clip-path="url(#SVGID_00000091731654901030447310000005273681487763236784_)" fill="#202021" d="M3772.8,1355.8
				c0.4,419.4-181.7,799.3-476.4,1074.4c-18.4,17.2-37.3,34-56.6,50.3c-9.6,8.2-19.4,16.3-29.2,24.2v-3.7H1077.3v5.5
				c-9.9-7.9-19.6-16-29.3-24.2c-19.3-16.3-38.2-33.1-56.6-50.2C696.1,2157.5,513.4,1778,513,1358.6
				c-0.4-419.4,181.7-799.3,476.4-1074.4c73.7-68.8,154.4-131,241.1-185.7c43.3-27.3,88.1-52.8,134.3-76.2
				c11.5-5.9,23.2-11.6,34.9-17.2c5.9-2.8,11.7-5.6,17.6-8.3V-1h1448.7v-3.4c5.9,2.7,11.8,5.5,17.6,8.3
				c11.7,5.6,23.4,11.3,34.9,17.1c46.2,23.3,91.1,48.7,134.4,76c86.8,54.5,167.6,116.6,241.4,185.2
				C3589.7,556.8,3772.4,936.4,3772.8,1355.8z"/>
			<path clip-path="url(#SVGID_00000091731654901030447310000005273681487763236784_)" fill="#212122" d="M3591.7,1355.9
				c0.3,372.8-161.5,710.5-423.5,955c-65.5,61.1-137.2,116.4-214.3,165c-9.6,6.1-19.3,12-29.1,17.9c-4.9,2.9-9.8,5.8-14.7,8.7v-1.6
				H1377.8v2.9c-4.9-2.9-9.9-5.8-14.8-8.7c-9.8-5.8-19.5-11.8-29.2-17.9c-77.1-48.5-149-103.6-214.6-164.7
				c-262.4-244.1-424.8-581.4-425.2-954.2C693.5,612.8,1341.6,7.8,2141.7,7.1C2941.9,6.4,3591,610.3,3591.7,1355.9z"/>
			<path clip-path="url(#SVGID_00000091731654901030447310000005273681487763236784_)" fill="#222222" d="M3410.6,1356.1
				c0.3,326.2-141.4,621.6-370.6,835.6c-114.6,107-251.1,193.6-402.7,253.5c-37.9,15-76.7,28.3-116.4,39.8
				c-19.8,5.8-39.9,11.1-60.1,16c-10.1,2.4-20.3,4.8-30.5,7v-7h-603.1v0.5c-20.3-4.8-40.3-10.1-60.2-15.9
				c-39.7-11.5-78.6-24.7-116.5-39.6c-151.7-59.6-288.4-146-403.2-252.8c-229.6-213.6-371.7-508.8-372-835
				c-0.6-652.4,566.5-1181.8,1266.7-1182.4C2842,175.3,3410,703.7,3410.6,1356.1z"/>
			
				<ellipse clip-path="url(#SVGID_00000091731654901030447310000005273681487763236784_)" fill="#222223" cx="2142.9" cy="1357.2" rx="1086.6" ry="1012.5"/>
			
				<ellipse clip-path="url(#SVGID_00000091731654901030447310000005273681487763236784_)" fill="#232323" cx="2142.9" cy="1357.2" rx="905.5" ry="843.8"/>
			
				<ellipse clip-path="url(#SVGID_00000091731654901030447310000005273681487763236784_)" fill="#232323" cx="2142.9" cy="1357.2" rx="724.4" ry="675"/>
			
				<ellipse clip-path="url(#SVGID_00000091731654901030447310000005273681487763236784_)" fill="#232323" cx="2142.9" cy="1357.2" rx="543.3" ry="506.3"/>
			
				<ellipse clip-path="url(#SVGID_00000091731654901030447310000005273681487763236784_)" fill="#232323" cx="2142.9" cy="1357.2" rx="362.2" ry="337.5"/>
			
				<ellipse clip-path="url(#SVGID_00000091731654901030447310000005273681487763236784_)" fill="#232323" cx="2142.9" cy="1357.2" rx="181.1" ry="168.8"/>
		</g>
	</g>
</g>
<g id="Object">
	<g>
		<g>
			<defs>
				<rect id="SVGID_00000109717484690574660400000009811117271189383559_" width="4000" height="2500"/>
			</defs>
			<clipPath id="SVGID_00000152247378251660251360000007824147240945074572_">
				<use xlink:href="#SVGID_00000109717484690574660400000009811117271189383559_"  overflow="visible"/>
			</clipPath>
			<g opacity="0.1" clip-path="url(#SVGID_00000152247378251660251360000007824147240945074572_)">
				<path fill="#FED7A5" d="M4918.1-206.1c-2.6-18.1-6.2-36.1-10.7-53.9c-0.6-2.4-4.3-1.4-3.7,1c15,68.9,16.4,141.5,1,210.5
					c-13.3,59.5-38.9,116-74.5,165.4c-31,42.9-70,81-115.4,108.6c-19.3,11.7-39.7,21.6-61.3,28.3c-23.2,7.2-46.1,9-70.3,9
					c-165.6-0.4-320.3-69-478.6-108.5c-77.2-19.2-156.1-31.4-235.8-27.7c-71.5,3.4-143,18.9-207.8,49.8c-4.5,2-9.1,4-13.5,6.3
					c-0.3,0.1-0.3,0.4-0.3,0.6c-120.8,62.9-215.4,193.2-210.6,333.2c0.2,4.6,0.4,9.2,0.8,13.8c-2.6-13.7-4.9-27.3-6.9-41.1
					c0.1-0.2,0.2-0.3,0.2-0.5c-6.4-82.7,10.1-167.3,47.8-241.2c37.3-73.2,94.7-134.7,164.9-177.3c71.1-43.2,152.6-65.4,235.6-65.5
					c48.3-0.1,96.5,5.3,144.8,5.6c47.1,0.3,92.8-6,137.5-20.9c40.8-13.7,83.6-30.6,117-58.4c29.3-24.4,51.2-57.3,62.2-93.8
					c2.7-9,4.4-17.9,5.4-27.3c0.2-1.9-2.8-2.2-3.3-0.4c-9.3,39.5-26.3,76-55,105.1c-32,32.4-75.4,50.8-117.5,65.9
					C4123.8-2.9,4076.7,5,4027.8,5.1c-48.3,0.1-96.4-5.2-144.8-5.1c-81,0-160.3,20.3-230.8,60.6C3583,100.1,3525,157.6,3485.7,227
					c-38.4,67.7-59.9,145.4-60,223.3c-4.2-42.7-5.3-85.8-2-129.5c17.9-236.3,186.1-450.3,404-537.8c52.4-21.1,108.8-35.5,165.1-40.2
					c2.9-0.2,2.9-4.8,0-4.5c-224.5,18.5-422.7,167.3-518.8,369.3c-50.9,107-66.4,221.1-54.7,338.4c8.1,81.7,27.2,161.3,51.1,239.6
					c24.4,93.9,41.4,190.3,41.6,287.4c0.1,75.5-10,152.5-39.4,222.5c-19.1,45.5-46.9,89.4-86.1,120.1c-19.6,15.4-41.5,25-65,33.1
					c-43.4,14.9-89.1,21.8-135,20c-91.9-3.4-178.9-39.2-259.7-80.6c-87.7-44.9-171-97.7-258.6-142.7c-72.4-37.2-147.5-68.2-226.7-85
					c-41.9-10.4-84.8-15.8-128-14.1c-0.5,0-0.9,0.1-1.4,0.1c-81.5-1-163,12.2-240.6,37.7c-90.8,29.9-176.2,75.7-253.1,132.2
					c-25.5,18.7-50.1,38.7-73.7,59.9c-1.5,1.2-3.1,2.4-4.6,3.6c-0.4,0.3-0.5,0.7-0.6,1.1c-19.9,18.1-39,37.1-57.1,57
					c-48.1,51.1-88,110.2-119.2,172.7c-51.9,103.7-79.5,217.4-112.5,327.9c-25.7,86.3-54.7,174.8-102.4,251.8
					c-52.2,68.6-127.3,120.8-212.6,136.9c-117.3,22.1-234.8-29.9-335.6-84.7C697.7,2086.8,603.6,2017,503.5,1957
					c-95.3-57.1-197.7-107.1-308.1-125.5c-99.5-16.6-206.3-6.7-295.5,43.1c-11.4,6.3-22.3,13.4-32.8,21c-1.1,0.8-0.1,2.7,1.1,1.9
					c88.1-59.8,197.8-76.4,302.1-64c113.3,13.5,219.3,62.4,317.3,118.8c101.8,58.6,197.5,127.1,299.7,185
					c99,56.1,211.8,109.6,328.8,96.3c86.8-9.9,165.2-58.9,220.8-125.2c-10.1,14.8-20.8,29.2-32.5,43
					c-101.8,119.1-238.3,148.9-381.6,150.7c0.4-0.3,0.3-1.1-0.3-1c-6.5,0.5-13.1,0.8-19.6,1.1c-38.4-0.2-77.3-2.2-116-4.8
					c-41.9-5.4-83.2-14.8-123.5-28.4c-81.5-27.5-158-67.8-240.1-93.4c-149.5-46.5-318.3-51.4-458.4,26.4
					c-67.5,37.5-126.2,92.1-161.9,161.1c-0.8,1.5,1.4,2.8,2.2,1.3c72.5-126.4,209.9-200.7,352.5-214.6
					c83.7-8.2,168.2,2.4,248.9,25.5c81,23.2,156.4,61.3,235.5,89.7c36.1,13,73.1,23,110.6,29.9c-60.3-4.5-119.8-9.7-176.7-11.1
					c-121.1-3.1-238.6,14.8-349.4,65.3c-107.5,49-203.5,123.1-277.3,215.5c-35.6,44.6-65.7,93.3-89.9,145c-0.4,0.9,0.9,1.6,1.3,0.8
					c105.3-224,328.4-386.3,574.2-416.6c130.1-16,261.5,4.2,391.5,12.2c121.4,7.4,249.8,6,360-52.3
					c82.9-43.8,139.5-110.5,181.6-187.7c1.1-1.7,2.2-3.4,3.3-5.1c0.2-0.3,0.1-0.6-0.1-0.9c60.6-113.6,90.9-249.1,127.7-368.2
					c5.2-16.8,10.6-33.4,16.3-50c-5.5,19.3-10.3,38.8-14,58.6c-15.2,80.3-17.6,163.2-18.9,244.8c-1.4,92.2-3.2,184.6-28.8,273.8
					c-13.5,46.9-32.8,92.1-58.1,133.8c-18.8,27.5-40.6,53-65,75.5c-34.4,31.8-74.3,57.9-117.2,76.6c-50.4,21.9-105,32-159.8,34.5
					c-121.7,5.5-242.2-21.5-363.9-15.5c-112.3,5.6-224.7,33.5-323.1,88.7c-86.9,48.7-164,118.7-214.7,204.9
					c-6.4,10.9-12.4,21.9-18.1,33.2c-0.7,1.4,1.4,2.6,2.1,1.2C183.6,2761,258,2685,345.1,2631c97.6-60.5,210.6-93,324.6-101.8
					c60-4.7,119.9-1.7,179.7,3.3c61.4,5.2,122.9,11.9,184.6,10.9c54.7-0.9,109.6-8.2,160.9-27.7c42.6-16.2,82.2-39.6,117.3-68.5
					c22.1-18.2,42.4-38.4,60.5-60.4c-33.1,45.8-73.9,85.7-119.1,119.5c-44.3,33.1-92.6,60.5-142.5,84.2
					c-49.2,23.4-100,43.3-151.2,62.1c-48.4,17.7-97.1,34.4-145.3,52.7c-42.5,16.1-84.8,33.4-124.5,55.8c-17.3,9.7-34,20.5-49.6,32.8
					c-31.9,25-63.6,54.1-82.3,90.7c-8.9,17.5-14.2,36.2-14.7,55.8c-0.1,3.6,5.3,3.6,5.6,0c3.1-44.7,30.6-81.7,62-111.6
					c19.7-18.8,41.2-35.9,64.3-50.3c37.5-23.5,78.4-41.5,119.5-57.8c46.9-18.7,94.7-35.3,142.2-52.5c50.3-18.2,100.4-37.1,149.3-59
					c50.1-22.4,99.1-47.9,144.6-78.8c45.8-31,88.1-67.5,123.8-110c38.1-45.5,68.1-97.2,89.1-152.7c28.6-75.5,39.5-155.8,42-236.2
					c2.9-91.4,0.3-182.9,10.3-274c8.5-77.3,29.6-150.8,60.9-221.8c29.1-63,65-122.5,111.4-175.9c90.1-103.5,212.9-175.7,352-181
					c122.2-4.7,235.6,40.8,329.1,117.3c71.8,58.7,132.7,129.8,191.8,200.9c66,79.5,131.2,164.2,204.6,239.4
					c-13-10.2-26-20.2-39.3-30.1c-28.7-25.5-57.1-51.4-86.4-76.2c-59.3-50.2-120.3-98.9-186-140.4c-30.4-19.2-61.9-37-95.1-50.9
					c-41.6-17.5-85.8-29.6-130.1-37.9c-88.5-16.5-181.3-15-264.7,21.6c-21.6,9.5-42.2,21.1-61.8,34.3c-0.2,0.1-0.5,0.1-0.7,0.3
					c-0.6,0.4-1.2,0.9-1.8,1.4c-47.3,32.5-87.9,75-118.8,123.2c-50,78-73.7,171-75.8,263.1c-1.1,48.2,4,96.2,13.9,143.3
					c10.9,51.9,26.9,102.5,41.4,153.4c28.7,100.7,50.3,204.5,53.4,309.5c2.8,94.6-10.1,189.7-45.5,277.9
					c-31.5,78.4-80.4,150.7-145.4,205.2c-15.9,13.3-32.6,26.3-50.4,37c-2.1,1.2-0.2,4.5,1.9,3.2c35.2-21.2,67-45.5,95.4-75.5
					c28.1-29.6,52.2-63.3,72.2-98.8c41.9-74.4,66.1-157.4,74.9-242.1c10.6-102.4-0.4-205.9-22.3-306c-11.2-51-25.8-100.9-40.8-150.9
					c-14.9-49.9-29.5-100.1-37.5-151.7c-6.7-43.7-8.6-88.2-5.3-132.4c0.2,13.2,1.1,26.5,2.8,39.8c9.4,72.6,39.5,140.1,76.3,202.8
					c16.9,28.8,34.6,57.3,52.8,85.2c27.9,42.8,58.1,84.1,86.8,126.4c28.6,42.1,56,85.3,77.7,131.5c19.4,41.5,32.9,85.5,41.1,130.6
					c17.5,97,12.5,200-20.5,293.2c-4.4,12.5-9.4,24.9-14.7,37.1c-0.8,1.8,1.8,3.4,2.7,1.6c42.4-88.2,53.5-190.9,43-287.4
					c-4.7-43.4-13.8-86.5-28.2-127.8c-16.2-46.6-39.9-90.1-66-131.8c-27.4-43.6-57.6-85.4-87-127.7c-23.2-33.5-45.2-67.8-66.6-102.4
					c-37.4-60.3-71.3-123.4-87.3-193.1c-8.9-38.8-11.9-78.8-8.4-118.4c5.7-37.9,15.4-75.1,29.4-110.8
					c22.3-56.6,55.9-108.6,98.6-151.6c-37.3,50.1-57.8,112.7-62.1,174.8c-7.2,103.9,31.2,207.6,84,295.6
					c57.9,96.6,135.6,178.8,207.1,265.2c69.6,84.1,135.4,174.6,169.3,279.6c34.2,105.8,32.9,218.3,3.8,325
					c-3.6,13.3-7.9,26.4-12.7,39.3c-1,2.8,3.3,3.9,4.4,1.2c40.7-99.9,48.8-211.2,25.6-316.4c-23.1-105-79.6-197.4-144.5-281.5
					c-68.4-88.7-146.2-169.9-211.4-261.1c-62.8-87.9-114.2-187.8-121.4-297.3c-5.8-89.3,21.4-184.1,84.8-249
					c10.2-8.6,20.7-16.9,31.8-24.5c34.2-23.7,72.1-42.3,112.2-53.8c44.7-12.8,91.7-16.6,138.1-14.5c87.1,4,175.2,27.3,252.2,68.5
					c68.6,36.8,132,83.9,192.4,132.8c39,31.6,76.7,64.7,114.6,97.7c-23.3-16.9-47.1-33.2-71.6-48.4
					c-52.2-37.5-105.2-73.7-162.1-103.5c-56.4-29.5-118.1-49.5-181.8-53.7c-70.1-4.6-138.5,13.5-196.4,53.5
					c-51.5,35.5-97,83.8-118.9,143.3c-21,57.1-18.3,120.3-0.8,177.9c38.3,126,142.2,212.8,249.2,281.5
					c108.9,69.9,226.9,128.1,323.7,215.4c1.1,1,2.1,2,3.2,3c58.8,62.9,109,133.7,139.8,214.7c33.1,87.1,45.1,184.8,19.3,275.4
					c-6.2,21.9-13.9,43.8-24.6,63.9c-1.4,2.7,2.6,5.1,4.1,2.4c10.5-19.7,20.2-39.7,26.8-61.1c6.7-21.5,11.1-43.7,13.6-66.1
					c5.1-45.1,1.8-90.8-7.3-135.2c-19-92.6-63.7-177.2-122.8-250.5c-62.8-77.9-139.6-143.1-217.9-204.9
					c-39.3-30.9-79.1-61.1-118.5-91.9c-40.5-31.8-80.5-65-114.6-103.8c-65.4-74.3-107.7-175.5-72.5-273.4c14.7-41,40.9-78,74-106.3
					c32.4-27.7,71-45.7,112-56.5c70.2-18.6,143.4-13.2,212.2,8.4c68.8,21.6,132.4,57.6,191.8,98c56.8,38.7,110.2,82.1,163.8,125.1
					c40,32.2,80.3,67.5,126.6,90.4c5.4,2.7,11.1,4.9,16.8,6.9c84.1,42.9,180.7,66.2,275.2,57.1c110.5-10.6,214.9-64.8,287.5-148.7
					c84.7-97.9,113.9-227,124.1-353c10.8-132.6-3.9-261.3-40.2-389.1c-36.1-127.1-89.4-253.2-129.4-381.8
					c-4.4-15.7-9-31.3-13.9-46.9c-9.6-34.1-18-68.5-24.7-103.1c-4.7-61.2,11.2-123.4,39.1-177.7c33.3-64.8,84.1-119.8,146.4-157.6
					c11.9-7.2,24-13.7,36.5-19.8c69.7-25,143.2-30.7,216.4-17.6c75.5,13.4,146.6,44,213.4,81.1c123.3,68.4,242.1,158.9,385.9,176.7
					c80.9,10.1,170.1-0.5,242.9-38.8c2.2-1.1,0.7-4.9-1.7-4c-35.3,13.7-71.1,25.5-108.5,32.1c-37.8,6.6-76.4,8.3-114.7,5.1
					c-72.9-6.1-141.7-31.8-206.3-65.1c-63.6-32.7-123.4-71.9-186-106.4c-66.3-36.5-136.2-67.8-210.7-82.7
					c-63-12.6-131.7-14.1-194.3,3.9c48-18.3,99-29,150.3-33c80.6-6.3,160.7,4.4,239,23.4c157.8,38.4,310.2,107.9,474.4,114.8
					c27.2,1.1,54.8,1.5,81.5-4.9c20.9-5,41-13.2,60-23.2c45.1-23.8,84.5-58.2,116.8-97.4C4898,47.2,4936-82.1,4918.1-206.1z
					 M3495.2,761.8c0.1,0.2,0.1,0.4,0.2,0.6c0,0,0,0-0.1,0C3495.3,762.2,3495.3,762,3495.2,761.8z M2634.4,1133.6
					c89.4,43.5,173.4,96.8,260.8,143.9c79.3,42.8,163.4,82.2,253.7,94.1c43.8,5.8,88.4,4.4,131.6-5c32-7,65.6-17.1,93.6-34.6
					c38.2-23.9,67.2-61,88.3-100.3c32.5-60.3,48-128.6,53.7-196.4c3.7-43.9,3.3-88.1-0.1-132.1c7.8,58.1,13.5,116.5,15.6,175.1
					c1.3,37.4,0.9,75.1-1.7,112.5c-3.2,33-8.7,65.5-20.3,97.1c-12.3,33.4-30.8,64.5-56,89.7c-40.9,40.7-94.5,60.2-150.5,68.6
					c-60.9,9.2-123.8,10.3-184.4-1.6c-59.6-11.8-113.1-38.4-163.6-71.5c-25.2-16.5-49.5-34.2-73.9-51.8
					c-25.4-18.4-51-36.5-75.8-55.7c-49-37.9-97.4-76.4-149.8-109.6c-39.1-24.8-81.1-47.5-124.8-65.9
					C2565.9,1102.5,2600.4,1117.1,2634.4,1133.6z M2021.4,1105.3c79.9-32,164.8-51.3,250.7-54.8c-0.5,0.1-0.9,0.1-1.4,0.2
					c-0.2,0-0.1,0.3,0,0.3c7.1-0.5,14.2-0.8,21.2-1c13.2-0.2,26.4,0,39.6,0.7c32.6,1.5,64.7,5.5,96.2,11.6
					c11.3,2.4,22.5,5.1,33.7,8.3c59.9,17,116.6,43.4,170,75.2c55,32.7,105.8,71.1,156.2,110.4c48.2,37.7,98,74,148.5,108.6
					c49.4,33.9,101.7,63.9,160.2,78.8c58.7,15,120.3,16.8,180.3,10.4c60.4-6.5,119.5-21.2,166.9-61.1c39.9-33.5,64.2-79,78.1-128
					c-7.2,45.8-18.4,90.9-34.5,134.5c-36.9,99.8-109.9,190.4-215.4,220.6c-115.1,33-233.9-3.1-339.6-49.8
					c-102.7-45.4-198.9-107.9-283.5-181.6c-8.6-7.5-17-15.1-25.3-22.8c-24.6-26.2-49.6-52.1-76.3-76
					c-53-47.5-112.6-88.1-177.4-117.5c-77.6-35.2-162.5-53.9-247.9-50.7c-107.7,4.1-212,43.2-302.2,100.8c-12,7.7-23.8,15.7-35.3,24
					C1855.7,1188.2,1935.6,1139.6,2021.4,1105.3z M2298.4,1555.2c-37.3,4.5-74.5,14.7-108.5,30.8c-38.5,18.2-72.3,46.4-97.9,80.4
					c-25.4,33.6-42.6,73.4-47.9,115.2c-6.2,48.1,4.6,96.7,24.9,140.3c44.1,94.9,130,160,210.6,222.5
					c75.2,58.3,151.3,116.2,219.9,182.4c-23.8-18.8-48.8-36.2-73.8-52.8c-51.8-34.6-105.7-65.8-159.1-98
					c-108.6-65.4-222.6-140.6-280.4-257.9c-27.2-55.3-41.7-118.5-33.3-180.1c8.7-63.6,43.6-118.3,91-160.5
					c52.7-47.1,116.9-78.3,188-83.1c67.1-4.6,136.1,11.6,196.9,39.4c53.1,24.3,102.1,55.6,150,88.8c-23.4-12.9-47.5-24.6-72.3-34.6
					C2440.8,1561.1,2369.3,1546.7,2298.4,1555.2z M3386.8,1905.2c-103.6,52.9-222.3,58.1-332.9,25.1c-64.8-19.4-123-50.6-176.5-89.2
					c-9-6.9-18-13.9-26.8-20.9c-9.7-7.7-19.4-15.6-29.1-23.4c-79.7-68.6-149-151.7-214.7-231.3
					c-119.4-144.7-245.8-317.3-434.4-372.7c-122.5-36-256.2-20.2-366,45.1c78.6-50.9,165.2-89.9,258.2-104.6
					c89.9-14.2,182.1-4.2,267.2,27.6c71,26.5,136.7,66.7,194.7,115.3c47.4,39.7,89.2,85.7,131.8,130.3
					c56.9,59.5,113.5,119.1,173.8,175.2c62.9,58.5,129.6,114,203.1,158.9c65.6,40,138.1,72.2,215.2,80.2
					c76.7,8,151.2-13.9,213.3-59.1c54.1-39.4,99-90,129.1-150c26.2-52,41.2-108.5,48.5-166c-4.2,55.3-13,110.1-26.6,163.1
					C3581.9,1735.9,3505.2,1844.8,3386.8,1905.2z M3626.8,1182.5c10.1,53.6,15.9,108.8,17.1,164.2c-0.3,72.8-9.3,145.8-33.9,214.1
					c-24.4,68-65.4,128.3-120.3,175.3c-58.2,49.8-127.5,81.9-204.8,83.7c-78.5,1.8-154.2-26.7-221.9-64.4
					c-75.3-42-143.3-96.2-207.1-153.8c-62-55.9-120.1-115.8-177.3-176.4c-14.7-15.6-29.3-31.4-43.9-47.1
					c79.4,71.3,168.1,131.8,263.5,179.8c102.7,51.7,217.3,95.1,334.2,76.9c53.4-8.3,103.1-30.1,144.7-64.6
					c40.1-33.4,70.5-76.1,93.6-122.7c26.5-53.3,42.5-110.9,53.2-169.2c5.6-30.3,9.2-60.8,11.3-91.4c0.1-1,0.2-1.9,0.3-2.9
					c0.4-5.1,0.6-10.1,0.8-15.2c0.7-15.1,1.1-30.2,1.1-45.3c0.1-108.3-12.5-217.2-32.3-323.6c-1.4-7.4-2.9-14.9-4.5-22.3
					c4.4,12.7,8.8,25.3,13.3,37.9C3556.8,936,3602.9,1056.3,3626.8,1182.5z"/>
				<path fill="#FED7A5" d="M1366-261.5c-0.9,4.2-1.6,8.4-2.3,12.6c0.6-12.9,1.5-25.7,2.7-38.5c0.1-0.1,0.2-0.2,0.3-0.4
					c12.1-75.9,21-105.8,4-35.7c5.4-39.3,10.2-113.4-4.7-5.2c-10.4,75.3-10.4,151.1-5.8,226.7c1.6,89.8-3.9,180.3-24.8,267.7
					c-16.3,68-42.1,135.1-83.6,191.8c-27,36.8-61.6,70.3-103.5,89.5c-20.9,9.6-42.8,13.5-65.7,15.7c-42.3,4.1-85,0.3-125.9-11.2
					c-82-23-152.6-74.1-216.4-128.8C671,263.4,607.4,197.9,538.3,138.3C481.2,89.2,420.3,45,352.6,12.7
					c-35.5-18.4-72.9-32.5-112.2-40.4c-0.4-0.1-0.8-0.1-1.2-0.2C166-46.4,89.8-52.2,14.4-46c-88.2,7.2-175,30-256.5,64.3
					c-27,11.4-53.5,24-79.3,38c-1.6,0.8-3.3,1.5-4.9,2.2c-0.4,0.2-0.6,0.5-0.7,0.9c-21.8,12-43.1,25-63.7,39
					c-54.4,35.6-103,80.2-144.7,129.7c-69.1,82.2-118.6,178.5-172.2,270.9c-41.8,72.1-87,145.5-146.7,204.5
					c-61.8,50.5-78.8,61.4-14.4,13.7c-12.3,11.2-17.6,28.8,37.1-31.6c1.3-1.3,2.7-2.5,4-3.9c0.3-0.3,0.2-0.5,0.1-0.8
					c79.1-89.2,135.8-204.5,194.7-303.9c8.3-14,16.8-27.8,25.5-41.5c-9.1,16.1-17.6,32.7-25.3,49.7c-31,69.1-51.2,143.1-70,216.3
					c-21.2,82.7-34.8,150.3-15.1,78.5c22.4-81.7,39.8-164.6,68.5-244.4c24.4-67.7,59.3-129.4,102.9-186.5
					c39.8-50.4,85-96.2,138.4-134.2C-304.5,41.3-178.3,2.9-51.9,28.2c111,22.3,203.2,87.7,270.9,176.8
					c52,68.4,91.4,145.6,129.2,222.4c42.2,85.9,82.6,176.2,132.4,259.8c-9.5-12-19.1-23.8-28.8-35.6c-20.3-29.2-40.3-58.6-61.3-87.3
					c-42.5-58-86.9-115.1-137-166.7c-23.2-23.9-47.7-46.7-74.6-66.4C145.2,306.6,108,286.1,69.9,269c-76.1-34-160-52.8-243-37.8
					c-21.5,3.9-42.6,9.8-63,17.5c-0.2,0-0.4,0-0.7,0.1c-0.6,0.3-1.3,0.6-1.9,0.8c-49.6,19-95.3,48.5-133.6,85.2
					c-61.9,59.4-103.4,138-125.2,220.5c-11.4,43.1-17.2,87.5-18.5,132c-1.4,49.1,2,12.6,6.1-35.5c3.4-40.8,11.4-81.3,23.9-120.3
					c-2.7,11.9-4.7,24.1-6.1,36.4c-7.2,67.4,0.1,102.7,0.8,36.5c0.4-36.8,6.4-73.5,18.1-108.4c13.3-32.9,30.1-64.3,50.5-93.4
					c32.3-46.1,73.8-85.6,121.6-115.2c-44.4,37-76.4,88.9-93.8,143.9c-29,92-16.8,193.7,11.6,284.3c31.2,99.5-35.9-138.8-18.6-238.9
					c14.1-81.6,59.1-161.1,130.2-205.8c11-5.6,22.3-10.7,33.9-15.2c35.9-14,74.1-22.5,112.6-24.2c43-1.9,86.2,4.9,127.4,16.8
					C79.8,271,154,311,214.4,364.8c53.8,48,100.7,104.1,144.4,161.2c28.3,36.9,55.1,74.9,82,112.7c-17.3-20.3-35.2-40.1-53.9-59.1
					c-38.9-45-78.8-89.1-123.6-128.3c-44.3-38.8-95.6-70.2-152.1-87.7c-62.1-19.3-127.6-17.8-188.4,5.6
					c-54,20.8-105.5,54.5-138.1,103.3c-31.3,46.9-42.5,104.3-39.2,160c7.2,121.8,66.8-15.1,119.6-95.6
					c22.1-33.8,53.7-61.4,89.7-79.7c35.1-17.9,73.8-25.8,113.1-26.7c67.2-1.5,131.9,19.2,189.2,53.5
					c57.3,34.3,106.7,80.5,151.4,129.8c42.8,47.1,81.5,97.7,120.3,148.1c29,37.6,57.7,78.2,94.4,108.8c4.3,3.6,8.9,6.8,13.7,9.8
					c66.4,56.8,148.4,98.7,235.4,111c101.7,14.3,207.5-11.9,291-71.7c97.4-69.8,151.7-179.7,188.2-291c38.4-117,53.1-236.1,48-359
					c-5-122.2-25.7-247.3-33.8-371.7c-0.5-15.1-1.4-30.1-2.4-45.2c-1.2-32.8-1.4-65.6,0.1-98.2c9-56.1,36.8-108.6,73.7-151.5
					C1481.2-447.7,1392-388.6,1366-261.5z M1365.8-28.1c0,0.2,0,0.4,0.1,0.6c0,0,0,0-0.1,0C1365.8-27.7,1365.8-27.9,1365.8-28.1z
					 M510.4,120.3c71,58.5,135.2,124.7,203.6,186c62.2,55.7,129.3,109.4,208,139.7c38.2,14.7,78.6,23.1,119.6,24
					c30.3,0.7,62.8-1.2,91.8-10.9c39.5-13.3,73.7-40.4,101.2-71.1c42.3-47.2,71.1-105.4,90.9-165.2c12.8-38.8,22.1-78.6,28.5-119
					c-5.6,54-13,107.8-23.8,161c-6.9,34-15.4,67.8-25.9,100.9c-10,29-22,57.1-39.3,83c-18.3,27.4-41.7,51.5-69.9,68.6
					c-45.6,27.8-98.1,33.7-150.4,29.2c-56.8-4.9-113.7-17.5-165.6-41.4c-51.1-23.5-93.5-59.1-131.8-99.8
					c-19.1-20.3-37.2-41.5-55.3-62.7c-18.9-22.1-38-43.9-56.2-66.5c-35.9-44.7-71.1-89.9-111.1-131.1
					c-29.9-30.8-62.7-60.3-98.1-86.3C455.5,77.5,483.4,98.1,510.4,120.3z M-35.4-37.8c78.9-11.5,159.5-10.5,237.6,4.9
					c-0.4,0-0.9-0.1-1.3-0.1c-0.1,0-0.2,0.2,0,0.2c6.5,1.1,12.9,2.4,19.3,3.7c11.9,2.7,23.8,5.8,35.5,9.2
					c29.1,8.4,57,18.9,84.1,31.3c9.6,4.6,19.2,9.5,28.5,14.7c50.2,28.3,95.6,64.3,136.8,104.5c42.4,41.3,79.9,86.9,116.7,133.2
					C657,308.3,694,351.7,732,393.8c37.2,41.2,77.7,79.5,127.1,105.6c49.6,26.2,104.7,41.2,160.1,48.4
					c55.8,7.2,112.1,6.8,163.5-18.9c43.1-21.6,74.9-57.2,98-98.3c-16.4,39.7-36.2,77.8-60.2,113.6c-54.9,81.9-140.1,147.6-241.7,152
					c-110.7,4.8-209.9-53.4-294.9-118.3C601.3,514.8,528.2,437.8,468,353.1c-6.1-8.6-12-17.3-17.8-26c-16.5-28.9-33.4-57.6-52.3-85
					c-37.4-54.2-82.3-103.6-134.3-144.2C201.4,49.4,129,14.2,51.4-1.4C-46.4-21-148.7-8.3-242.5,24c-12.5,4.3-24.8,9-37,14
					C-202.5,1-120-25.4-35.4-37.8z M116.6,427.2c-34.5-4-70.2-2.9-104.3,4.2c-38.6,8.1-75.1,26.1-105.5,51.2
					c-30.1,24.8-54.2,56.8-68.1,93.4c-16,42-16.8,88.1-8,131.7c19.2,95-47,96.8-73.7-21.4c-12.5-55.7-11.9-115.7,9-169.3
					c21.6-55.4,64.9-97,116.6-124.8c57.7-31,122.2-45.2,187.2-34.2c61.4,10.4,120,39.9,168.7,78.1c42.5,33.4,79.9,72.1,115.8,112.4
					c-18.3-16.7-37.4-32.4-57.6-46.8C243.5,463.3,182.3,434.9,116.6,427.2z M1020.7,977.9C916,1003,808,982.1,715.6,928.4
					c-54.1-31.5-99.8-72.2-139.6-118.5c-6.6-8.1-13.2-16.4-19.6-24.6c-7.1-9.1-14.1-18.2-21.2-27.3
					c-56.9-79-101.3-168.8-143.2-254.7C315.8,347.1,239.4,164.3,81.6,73.6C-20.9,14.7-144.7,0-257.7,35
					C-175.9,6.1-89.5-10.2-2.6-3.3c84,6.6,164.8,35.6,234.6,82.7c58.1,39.2,108.6,89.7,150.3,145.9c34.1,46,61.7,96.5,90.4,145.8
					C511.1,437,549.2,503,591.3,566.5c44,66.3,92,130.7,148.4,187c50.4,50.2,108.7,94.9,176.4,118.8c67.3,23.8,139.1,20.2,204.8-7
					c57.3-23.7,108.6-59.6,148.7-107.1c34.8-41.1,60.6-88.7,79.6-139c-15.8,48.9-35.5,96.3-59.3,141.1
					C1233,867.7,1140.4,949.1,1020.7,977.9z M1393.2,379.2c-2.5,50.5-9.3,101.4-20.1,151.5c-16.1,65.5-40,129.2-76.8,185.4
					c-36.7,55.9-86.6,101.3-146.2,131.8c-63.2,32.3-132.5,46.1-202.5,31c-71.1-15.3-133-57.4-185.8-106
					C703,718.8,653.6,655.2,608.6,589.6c-43.7-63.7-83-130.2-121.5-197.2c-9.9-17.2-19.6-34.6-29.3-51.9
					c56.1,81.3,122.8,155.1,198.3,218.9c81.3,68.8,175,132.6,284.2,141.5c49.8,4.1,99.4-4.7,144.2-26.9
					c43.4-21.4,79.9-53.3,110.8-90.2c35.4-42.2,62.3-90.6,84.5-140.8c11.6-26.1,21.4-52.7,30-79.8c0.3-0.9,0.6-1.7,0.9-2.6
					c1.4-4.5,2.8-9,4-13.5c3.9-13.4,7.5-26.9,10.8-40.5c23.5-97.4,35.8-198.3,41-298.3c0.4-7,0.6-14,0.8-21
					c1.2,12.3,2.5,24.7,3.8,37C1383.6,142.1,1399,260.4,1393.2,379.2z"/>
			</g>
		</g>
		<g display="none">
			<path display="inline" fill="#E2B67A" d="M1127.7,2106.3c-8.2,0-8.2,12.8,0,12.8C1136,2119.1,1136,2106.3,1127.7,2106.3z"/>
			<path display="inline" fill="#E2B67A" d="M1255.7,2057.5c-0.3-1-0.8-1.8-1.6-2.5c-0.3-0.2-0.5-0.5-0.8-0.7
				c-0.9-0.8-1.8-1.5-3.1-1.8c-0.5-0.1-1.1-0.2-1.6-0.2c-0.5,0-1.1,0.1-1.6,0.2c-1.2,0.3-2.2,1-3.1,1.8c-0.3,0.2-0.5,0.5-0.8,0.7
				c-0.4,0.5-0.8,1-1.2,1.6c-0.3,0.6-0.5,1.2-0.8,1.8c-0.3,1-0.4,2-0.1,3.1c0,0.7,0.2,1.3,0.5,1.9c0.2,0.7,0.5,1.2,1,1.7
				c0.3,0.6,0.8,1,1.4,1.4c0.5,0.5,1,0.8,1.7,1c0.9,0.5,1.9,0.7,3,0.7c0.7-0.1,1.4-0.2,2-0.3c0.6-0.3,1.2-0.5,1.8-0.8
				c0.5-0.4,1-0.8,1.6-1.2c0.4-0.5,0.8-1,1.2-1.6c0.3-0.6,0.5-1.2,0.8-1.8c0.3-1,0.4-2,0.1-3.1
				C1256.2,2058.8,1256,2058.1,1255.7,2057.5z"/>
			<path display="inline" fill="#E2B67A" d="M1197.8,1945.3c-0.8,0-1.4,0-2.1,0c-1.5-0.2-2.7,0.3-3.6,1.2c-1.3,1-1.8,2.5-1.7,4
				c-0.1,1.6,0.4,3.1,1.7,4.1c0.9,0.9,2.2,1.4,3.6,1.2c0.7,0.1,1.3,0.1,2.1,0C1204.6,1955.5,1204.6,1945.7,1197.8,1945.3z"/>
			<path display="inline" fill="#E2B67A" d="M1329.7,1894c-9.1,0-9.1,14.2,0,14.2C1338.9,1908.2,1338.9,1894,1329.7,1894z"/>
			<path display="inline" fill="#E2B67A" d="M1074.2,1992.3c-4.7,0-4.7,7.3,0,7.3C1078.8,1999.5,1078.8,1992.3,1074.2,1992.3z"/>
			<path display="inline" fill="#E2B67A" d="M916.7,2039.7c0-0.1-0.1-0.2-0.1-0.3c0-0.1,0-0.1,0-0.2c0,0,0,0,0-0.1
				c-0.1-0.3-0.3-0.7-0.4-1c-0.3-0.4-0.5-0.8-0.8-1.2c-0.1-0.2-0.3-0.4-0.4-0.6c-0.1-0.2-0.3-0.4-0.4-0.6c-0.2-0.3-0.3-0.4-0.5-0.6
				c-0.1-0.1-0.2-0.2-0.3-0.2c-0.4-0.3-0.8-0.7-1.2-1c-0.4-0.5-0.9-0.8-1.5-1c-0.6-0.3-1.1-0.4-1.8-0.4c-0.6,0-1.2,0.1-1.8,0.4
				c-0.6,0.2-1.1,0.5-1.5,1c-0.2,0.3-0.5,0.6-0.7,0.9c-0.4,0.7-0.6,1.5-0.6,2.3c0.1,0.4,0.1,0.8,0.2,1.2c0.2,0.8,0.6,1.5,1.2,2
				c0.3,0.4,0.6,0.8,1,1.1c0.1,0.1,0.2,0.2,0.2,0.3c0,0.1,0.1,0.1,0.1,0.2c0.3,0.3,0.6,0.5,1,0.8c0,0,0,0,0.1,0
				c0.2,0.1,0.4,0.3,0.6,0.4c0.4,0.3,0.8,0.5,1.2,0.8c0.2,0.1,0.4,0.2,0.6,0.2c0.2,0.1,0.4,0.2,0.6,0.2c0.1,0,0.1,0,0.2,0
				c0.1,0,0.2,0.1,0.3,0.1c0.2,0.1,0.4,0.1,0.7,0.2c1.3,0.3,2.6,0,3.5-0.9c0.9-0.9,1.3-2.3,0.9-3.5
				C916.8,2040.1,916.8,2039.9,916.7,2039.7z"/>
			<path display="inline" fill="#E2B67A" d="M1387.4,1619.7c-6.8,0-6.8,10.5,0,10.5C1394.2,1630.2,1394.2,1619.7,1387.4,1619.7z"/>
			<path display="inline" fill="#E2B67A" d="M756.8,1908.6c-6.3,0-6.3,9.8,0,9.8C763.1,1918.4,763.1,1908.6,756.8,1908.6z"/>
			<path display="inline" fill="#E2B67A" d="M1279.2,1717.9c-0.3-0.5-0.7-1-1.3-1.3c-0.6-0.3-1.2-0.5-1.8-0.5
				c-0.6,0-1.2,0.2-1.8,0.5c-0.5,0.3-1,0.7-1.3,1.3c-0.5,1.1-1,2.1-1.6,3.2c-0.5,0.8-0.7,1.7-0.7,2.7c0,1,0.2,1.9,0.7,2.7
				c1,1.6,2.8,2.7,4.7,2.7c1.9,0,3.7-1,4.7-2.7c0.5-0.8,0.7-1.7,0.7-2.7c0-1-0.2-1.9-0.7-2.7
				C1280.3,1720.1,1279.7,1719,1279.2,1717.9z"/>
			<path display="inline" fill="#E2B67A" d="M982.2,1906.5c-0.3-0.2-0.5-0.4-0.8-0.6c-0.6-0.4-1.3-0.5-2-0.5c-0.7,0.1-1.3,0.2-2,0.2
				c-0.3,0-0.7,0.1-1,0.1c-0.7,0.1-1.3,0.1-1.9,0.5c-0.3,0.2-0.6,0.4-0.8,0.6c-0.1,0.1-0.2,0.2-0.3,0.3c-0.3,0.3-0.5,0.6-0.7,1
				c-0.2,0.4-0.3,0.8-0.3,1.2c0,0.8,0.3,1.6,0.9,2.2c0.1,0.1,0.2,0.2,0.2,0.2c0.3,0.3,0.4,0.4,0.8,0.7c0.6,0.4,1.2,0.4,1.9,0.5
				c0.3,0,0.7,0.1,1,0.1c0.7,0.1,1.3,0.2,2,0.2c0.5,0,1.1-0.1,1.5-0.3c0.5-0.2,0.9-0.4,1.3-0.8c0.4-0.4,0.7-0.8,0.8-1.3
				c0.2-0.5,0.4-1,0.3-1.5c0-0.4-0.1-0.7-0.1-1.1C983,1907.6,982.7,1907,982.2,1906.5z"/>
			<path display="inline" fill="#E2B67A" d="M2174.8,1733.8c-7.8,0-7.9,12.2,0,12.2C2182.6,1746,2182.6,1733.8,2174.8,1733.8z"/>
			<path display="inline" fill="#E2B67A" d="M2319,1649c-10.9,0-10.9,16.9,0,16.9C2329.9,1665.9,2329.9,1649,2319,1649z"/>
			<path display="inline" fill="#E2B67A" d="M2187.9,1905.5c-0.4-0.3-0.7-0.6-1.1-0.9c-0.8-0.5-1.8-0.7-2.8-0.7
				c-1-0.1-2-0.1-3.1-0.2c-0.8,0-1.5,0.1-2.2,0.5c-0.7,0.2-1.3,0.6-1.8,1.2c-0.5,0.5-0.9,1.1-1.2,1.8c-0.4,0.7-0.5,1.4-0.5,2.2
				c0.1,0.5,0.1,1,0.2,1.5c0.3,1,0.7,1.8,1.4,2.5c0.4,0.3,0.8,0.6,1.1,0.9c0.9,0.5,1.8,0.8,2.8,0.8c1-0.1,2-0.1,3.1-0.2
				c0.8,0,1.5-0.1,2.1-0.5c0.7-0.2,1.3-0.6,1.8-1.1c0.5-0.5,0.9-1.1,1.1-1.8c0.3-0.6,0.5-1.4,0.5-2.1c-0.1-0.5-0.1-1-0.2-1.4
				C2189,1907,2188.5,1906.2,2187.9,1905.5z"/>
			<path display="inline" fill="#E2B67A" d="M2473,1709.1c-0.5-0.3-1.1-0.6-1.6-0.8c-0.6-0.3-1.1-0.5-1.7-0.7
				c-0.3-0.1-0.7-0.1-1-0.2c-0.7-0.1-1.4-0.3-2-0.4c-1.1-0.2-2.1-0.2-3.2-0.3c-1.2-0.1-2.6,0.6-3.4,1.4c-0.8,0.8-1.5,2.2-1.4,3.4
				c0.1,1.2,0.5,2.5,1.4,3.4c0.9,0.8,2.1,1.5,3.4,1.4c1.1-0.1,2.2-0.1,3.2-0.3c0.7-0.1,1.4-0.3,2-0.4c0.3-0.1,0.6-0.1,0.9-0.2
				c0.6-0.1,1.2-0.4,1.8-0.7c0.5-0.3,1.1-0.6,1.6-0.8C2474.8,1713,2474.8,1710,2473,1709.1z"/>
			<path display="inline" fill="#E2B67A" d="M2373.8,1848c-0.3-0.2-0.5-0.3-0.8-0.5c-0.6-0.4-1.3-0.6-2-0.9
				c-0.6-0.2-1.3-0.4-1.9-0.6c-1-0.3-2.1-0.3-3.1,0c-1,0.3-1.9,0.8-2.6,1.5c-0.3,0.4-0.6,0.8-0.9,1.2c-0.5,0.9-0.8,1.9-0.8,3
				c0,0.8,0.1,1.6,0.5,2.3c0.2,0.7,0.6,1.4,1.2,1.9c0.7,0.7,1.6,1.2,2.6,1.5c1,0.3,2.1,0.3,3.1,0c0.6-0.2,1.3-0.4,1.9-0.6
				c0.7-0.2,1.4-0.5,2-0.9c0.3-0.2,0.5-0.3,0.8-0.5c0.6-0.4,1.1-0.9,1.5-1.5c0.4-0.7,0.6-1.4,0.6-2.1c0-0.8-0.2-1.5-0.6-2.1
				C2375,1848.9,2374.5,1848.4,2373.8,1848z"/>
			<path display="inline" fill="#E2B67A" d="M2591.1,1755c-7.6,0-7.6,11.8,0,11.8C2598.7,1766.9,2598.7,1755,2591.1,1755z"/>
			<path display="inline" fill="#E2B67A" d="M2434,2118.4c-8,0-8,12.4,0,12.4C2442,2130.8,2442,2118.4,2434,2118.4z"/>
			<path display="inline" fill="#E2B67A" d="M2269.6,1793.9c-0.1-0.4-0.1-0.8-0.2-1.2c-0.2-0.8-0.6-1.4-1.2-2
				c-0.7-0.6-1.4-1.2-2.4-1.4c-0.2,0-0.4-0.1-0.6-0.1c-0.4-0.1-0.8-0.2-1.1-0.3c-0.9-0.2-1.8-0.2-2.8,0c-0.9,0.2-1.7,0.7-2.3,1.3
				c-0.3,0.4-0.5,0.7-0.8,1.1c-0.5,0.8-0.7,1.7-0.7,2.6c0,0.7,0.1,1.4,0.4,2c0.2,0.6,0.6,1.2,1.1,1.7c0.7,0.6,1.4,1.1,2.3,1.3
				c0.9,0.2,1.8,0.2,2.8,0c0.4-0.1,0.8-0.2,1.1-0.3c0.2,0,0.4-0.1,0.6-0.1c0,0,0.1,0,0.1,0c0.4-0.2,0.8-0.3,1.1-0.5
				c0.2-0.1,0.4-0.3,0.5-0.4c0.2-0.1,0.4-0.3,0.5-0.4c0.1-0.1,0.1-0.1,0.2-0.2c0.4-0.4,0.8-0.9,0.9-1.5
				C2269.4,1795.1,2269.6,1794.6,2269.6,1793.9z"/>
			<path display="inline" fill="#E2B67A" d="M2278.3,1865.3c-0.1-0.1-0.2-0.2-0.3-0.3c-0.2-0.2-0.4-0.4-0.6-0.6
				c-0.4-0.3-0.7-0.6-1.1-0.8c-0.4-0.2-0.8-0.4-1.3-0.5c-0.7-0.2-1.4-0.3-2.1-0.1c-0.5,0-0.9,0.1-1.3,0.4c-0.4,0.1-0.8,0.4-1.2,0.7
				c-0.4,0.2-0.7,0.5-0.9,0.9c-0.3,0.3-0.6,0.7-0.7,1.2c-0.3,0.6-0.5,1.3-0.5,2c0.1,0.5,0.1,0.9,0.2,1.4c0.2,0.4,0.4,0.8,0.5,1.3
				c0.3,0.4,0.5,0.7,0.8,1.1c0.4,0.3,0.7,0.5,1.1,0.8c0.4,0.2,0.8,0.4,1.3,0.5c0.7,0.2,1.4,0.3,2.1,0.1c0.5,0,0.9-0.1,1.3-0.4
				c0.7-0.2,1.2-0.6,1.7-1.1c0.6-0.6,1.2-1.2,1.7-1.9c0.3-0.6,0.5-1.2,0.5-1.8c0-0.7-0.2-1.3-0.5-1.8
				C2278.9,1865.9,2278.6,1865.6,2278.3,1865.3z"/>
			<path display="inline" fill="#E2B67A" d="M2342.5,1744.4c-0.3-0.2-0.5-0.4-0.8-0.6c-0.6-0.4-1.3-0.5-2-0.5
				c-0.5,0-1.1,0.1-1.5,0.3c-0.5,0.2-0.9,0.4-1.3,0.8c-1,1-1.4,2.5-1,3.9c0.1,0.4,0.2,0.8,0.3,1.2c0,0.2,0.1,0.4,0.1,0.6
				c0,0.2,0.1,0.3,0.2,0.5c0.1,0.4,0.4,0.8,0.7,1.1c0.2,0.2,0.5,0.4,0.8,0.6c0,0,0.1,0.1,0.1,0.1c0.5,0.3,1,0.4,1.6,0.4
				c0.6,0,1.1-0.1,1.6-0.4c0,0,0.1-0.1,0.1-0.1c0.3-0.2,0.5-0.4,0.8-0.6c0.2-0.2,0.4-0.5,0.6-0.7c0.2-0.3,0.3-0.6,0.4-0.9
				c0.1-0.2,0.1-0.4,0.1-0.6c0.1-0.4,0.2-0.8,0.3-1.2c0.2-0.7,0.2-1.4,0-2.1C2343.3,1745.5,2343,1744.9,2342.5,1744.4z"/>
			<path display="inline" fill="#E2B67A" d="M2242.5,1682.7c-0.3-0.1-0.8,0-1.1,0.1c-1,0.7-2.1,1.4-3.1,2.1
				c-0.3,0.2-0.6,0.4-0.8,0.8c-0.2,0.3-0.3,0.7-0.3,1.1c0,0.6,0.2,1.1,0.6,1.5c0.4,0.4,1,0.6,1.5,0.6c0.4,0,0.7-0.1,1.1-0.3
				c0.3-0.2,0.6-0.4,0.8-0.8c0.7-1,1.4-2.1,2.1-3.1c0-0.1,0.1-0.2,0.1-0.3c0.1-0.2,0.1-0.4,0-0.6c0-0.3-0.2-0.6-0.4-0.8
				C2242.9,1682.8,2242.7,1682.7,2242.5,1682.7z"/>
			<path display="inline" fill="#E2B67A" d="M2174.8,1815.7c-3.8,0-3.8,5.9,0,5.9C2178.5,1821.6,2178.5,1815.7,2174.8,1815.7z"/>
			<path display="inline" fill="#E2B67A" d="M2413.9,1783.1c0.2,0,0.2-0.4,0-0.4C2413.6,1782.8,2413.6,1783.1,2413.9,1783.1z"/>
			<path display="inline" fill="#E2B67A" d="M2408.5,1774.5c-0.3-0.2-0.6-0.4-0.8-0.6c-0.6-0.4-1.3-0.6-2.1-0.6
				c-0.4,0-0.9,0.1-1.3,0.1c-0.1,0-0.2,0-0.3,0c-0.2,0-0.4,0.1-0.7,0.1c-0.5,0-1,0.2-1.5,0.5c-0.3,0.2-0.6,0.4-0.8,0.6
				c-0.3,0.3-0.5,0.7-0.8,1c-0.3,0.5-0.5,1.1-0.5,1.7c0,0.6,0.2,1.2,0.5,1.7c0,0,0.1,0.1,0.1,0.1c0.2,0.3,0.4,0.6,0.7,0.9
				c0.2,0.2,0.5,0.5,0.8,0.6c0.3,0.1,0.6,0.3,0.9,0.4c0.3,0.1,0.8,0.1,1.2,0.2c0.1,0,0.2,0,0.3,0c0.4,0,0.9,0.1,1.3,0.1
				c0.6,0,1.1-0.1,1.6-0.4c0.5-0.2,0.9-0.4,1.3-0.8c0.4-0.4,0.7-0.8,0.8-1.3c0.3-0.5,0.4-1,0.4-1.6c0-0.4-0.1-0.7-0.1-1.1
				C2409.4,1775.7,2409,1775.1,2408.5,1774.5z"/>
			<path display="inline" fill="#E2B67A" d="M2383.6,1684.2c0.2,0,0.2-0.4,0-0.4C2383.4,1683.8,2383.4,1684.2,2383.6,1684.2z"/>
			<path display="inline" fill="#E2B67A" d="M2298.1,1949.5c-0.4-0.3-0.8-0.6-1.2-0.9c-0.3-0.3-0.7-0.5-1-0.8
				c-0.3-0.5-0.6-1-0.9-1.4c-0.5-0.8-1.2-1.5-2-2c-0.9-0.5-1.8-0.8-2.8-0.8c-2,0-3.8,1.1-4.8,2.8c-1,1.7-1,3.9,0,5.6
				c0.5,0.8,1.2,1.5,2,2c0.9,0.5,1.8,0.8,2.8,0.8c0.5,0,0.9-0.1,1.4-0.1c0.3,0,0.6,0,0.9,0c0.8,0.2,1.5,0.4,2.3,0.6
				c0.3,0,0.6,0.1,0.9,0.1c0.5,0,0.9-0.1,1.3-0.3c0.7-0.3,1.3-0.7,1.6-1.4c0.3-0.5,0.4-1.1,0.5-1.7c0-0.5-0.1-0.9-0.3-1.3
				C2298.7,1950.2,2298.4,1949.9,2298.1,1949.5z"/>
			<path display="inline" fill="#E2B67A" d="M2386.4,1924.9c-1.2,0-1.2,1.9,0,1.9C2387.6,1926.8,2387.6,1924.9,2386.4,1924.9z"/>
			<path display="inline" fill="#E2B67A" d="M798.5,2023c-0.4-0.2-0.8-0.3-1.3-0.4c-0.4-0.1-0.9-0.2-1.3-0.2
				c-0.9-0.2-1.7-0.3-2.6-0.5c-0.5-0.1-1.1-0.1-1.6,0c-0.5,0.1-1,0.4-1.3,0.8c-0.5,0.6-0.9,1.3-0.9,2.2c0,0.8,0.3,1.6,0.9,2.2
				c0.4,0.4,0.8,0.6,1.3,0.8c0.5,0.1,1.1,0.1,1.6,0c0.9-0.2,1.7-0.3,2.6-0.5c0.4-0.1,0.9-0.2,1.3-0.2c0.5-0.1,0.9-0.2,1.3-0.4
				c0.4-0.1,0.7-0.3,1-0.7c0.2-0.3,0.4-0.7,0.4-1.1c0-0.3-0.1-0.7-0.3-0.9C799.4,2023.4,798.9,2023.1,798.5,2023z"/>
			<path display="inline" fill="#E2B67A" d="M973.9,2109.1c-4.7,0-4.7,7.3,0,7.3C978.5,2116.3,978.5,2109.1,973.9,2109.1z"/>
			<path display="inline" fill="#E2B67A" d="M861.2,1923.3c0.2,0,0.2-0.4,0-0.4C860.9,1922.9,860.9,1923.3,861.2,1923.3z"/>
			<path display="inline" fill="#E2B67A" d="M873.6,1903.5c-0.1-0.3-0.3-0.6-0.5-0.8c-0.2-0.2-0.6-0.3-0.9-0.3
				c-0.3,0-0.5,0.1-0.7,0.2c-0.3,0.2-0.6,0.5-0.7,0.9c-0.3,0.8-0.5,1.7-0.8,2.5c-0.2,0.7,0,1.7,0.6,2.2c0.4,0.4,1,0.7,1.6,0.7
				c0.6,0,1.2-0.3,1.6-0.7c0.6-0.6,0.8-1.5,0.6-2.2C874.1,1905.2,873.9,1904.3,873.6,1903.5z"/>
			<path display="inline" fill="#E2B67A" d="M1134.4,1866.6c-0.3-0.3-0.7-0.5-1.2-0.7c-0.2-0.1-0.5-0.1-0.7-0.2
				c-0.4-0.1-0.9-0.2-1.3-0.3c-1-0.2-2.1,0-2.7,0.7c-0.5,0.6-0.8,1.2-0.8,2c0,0.4,0.1,0.7,0.2,1.1c0.1,0.3,0.3,0.7,0.6,0.9
				c0.7,0.7,1.8,1,2.7,0.7c0.4-0.1,0.9-0.2,1.3-0.3c0.2-0.1,0.4-0.1,0.7-0.2c0.4-0.1,0.9-0.3,1.2-0.7c0.1-0.1,0.1-0.1,0.2-0.2
				c0.7-0.7,0.7-2,0-2.7C1134.5,1866.7,1134.5,1866.6,1134.4,1866.6z"/>
			<path display="inline" fill="#E2B67A" d="M1257.7,1840.6c0-0.5-0.1-0.9-0.3-1.4c-0.1-0.4-0.4-0.8-0.7-1.1
				c-0.2-0.2-0.5-0.4-0.7-0.5c-0.5-0.3-1.1-0.5-1.8-0.5c-0.2,0-0.5,0-0.7,0c-0.1,0-0.1,0-0.2,0c-0.2,0-0.4,0-0.7,0.1
				c-0.6,0-1.2,0.2-1.7,0.5c0,0,0,0,0,0c-0.3,0.2-0.6,0.5-0.9,0.7c-0.3,0.3-0.5,0.6-0.7,0.9c0,0,0,0.1,0,0.1c0,0.1-0.1,0.2-0.1,0.2
				c-0.3,0.6-0.6,1.2-0.9,1.8c-0.1,0.3-0.2,0.6-0.4,0.9c-0.2,0.5-0.2,1-0.1,1.5c0,0.3,0.1,0.6,0.3,0.9c0.1,0.5,0.4,0.9,0.8,1.2
				c0.2,0.2,0.5,0.4,0.7,0.6c0.3,0.1,0.6,0.2,0.9,0.4c0.5,0.2,1,0.2,1.5,0.1c0.5,0,0.9-0.2,1.4-0.4c0.6-0.3,1.2-0.6,1.8-0.9
				c0.1,0,0.1-0.1,0.2-0.1c0,0,0.1,0,0.1,0c0.2-0.1,0.4-0.2,0.5-0.4c0.3-0.2,0.6-0.5,0.8-0.8c0.1-0.2,0.3-0.3,0.4-0.5
				c0.2-0.4,0.3-0.7,0.5-1.1c0.1-0.4,0.1-0.8,0.2-1.2c0,0,0,0,0,0c0-0.1,0-0.1,0-0.2C1257.7,1841.1,1257.7,1840.9,1257.7,1840.6z"/>
			<path display="inline" fill="#E2B67A" d="M1468.5,1508.9c-0.2,0-0.2,0.4,0,0.4C1468.8,1509.2,1468.8,1508.9,1468.5,1508.9z"/>
			<path display="inline" fill="#E2B67A" d="M1473,1513C1473,1513,1473,1513,1473,1513C1473,1513,1473,1513,1473,1513
				C1473,1513,1473,1513,1473,1513C1473,1513,1473,1513,1473,1513z"/>
			<path display="inline" fill="#E2B67A" d="M1475.1,1510.1c-0.2-0.3-0.4-0.6-0.7-0.7c-0.3-0.2-0.6-0.3-0.9-0.4
				c-0.3-0.1-0.7-0.2-1.1-0.2c-0.2,0-0.4,0-0.6,0c-0.7,0.1-1.1,0.2-1.7,0.5c-0.2,0.1-0.4,0.2-0.5,0.3c-0.3,0.2-0.7,0.5-0.9,0.8
				c-0.3,0.3-0.5,0.6-0.7,1c-0.2,0.4-0.4,0.9-0.4,1.4c0,0.5,0.1,1,0.4,1.4c0.4,0.6,0.9,1.1,1.6,1.3c0.7,0.2,1.5,0.1,2.1-0.3
				c0.4-0.2,0.7-0.6,1-1c0.2-0.3,0.2-0.6,0.2-0.9c0-0.1,0.1-0.1,0.1-0.1c0,0.1,0,0.1,0,0.2c0-0.1,0-0.1,0.1-0.2
				c0.1-0.1,0.2-0.2,0.3-0.3c-0.1,0.1-0.1,0.1-0.2,0.2c0,0,0,0,0,0c0.1,0,0.1-0.1,0.2-0.1c0.1-0.1,0.2-0.1,0.3-0.2
				c0.1,0,0.2-0.1,0.3-0.1c-0.1,0-0.2,0-0.2,0c0,0,0,0,0,0c0.2,0,0.4-0.1,0.6-0.2c0.3-0.1,0.7-0.3,0.8-0.6c0.2-0.3,0.3-0.7,0.1-1.1
				C1475.2,1510.5,1475.2,1510.3,1475.1,1510.1z M1473.1,1512.8c0,0.1,0,0.1,0,0.2c0,0,0,0,0,0c0,0,0,0,0,0c0,0,0,0,0,0c0,0,0,0,0,0
				c0,0,0,0,0,0c0,0,0,0,0,0c0,0,0,0,0,0c0,0-0.1,0.1-0.1,0.1c0,0,0.1-0.1,0.1-0.1C1473,1512.9,1473.1,1512.8,1473.1,1512.8z
				 M1473,1513.1C1473,1513.1,1473,1513.1,1473,1513.1C1473,1513.1,1473,1513.1,1473,1513.1C1473,1513.1,1473,1513.1,1473,1513.1z
				 M1473.6,1512.6C1473.6,1512.6,1473.6,1512.6,1473.6,1512.6C1473.6,1512.6,1473.6,1512.6,1473.6,1512.6
				C1473.6,1512.6,1473.6,1512.6,1473.6,1512.6z"/>
			<path display="inline" fill="#E2B67A" d="M1474.6,1512.3c-0.1,0-0.1,0.1-0.2,0.1c0,0,0,0,0.1,0
				C1474.5,1512.3,1474.5,1512.3,1474.6,1512.3z"/>
			<path display="inline" fill="#E2B67A" d="M1474.4,1512.4C1474.3,1512.4,1474.3,1512.4,1474.4,1512.4
				C1474.3,1512.4,1474.3,1512.4,1474.4,1512.4C1474.3,1512.4,1474.3,1512.4,1474.4,1512.4z"/>
			<path display="inline" fill="#E2B67A" d="M1474.3,1512.4C1474.3,1512.4,1474.3,1512.4,1474.3,1512.4
				C1474.3,1512.4,1474.2,1512.4,1474.3,1512.4C1474.2,1512.4,1474.3,1512.4,1474.3,1512.4z"/>
			<path display="inline" fill="#E2B67A" d="M1389.5,1766.7c-0.2-0.2-0.5-0.4-0.7-0.5c-0.5-0.3-1.1-0.5-1.8-0.5
				c-0.5,0-0.9,0.1-1.4,0.3c-0.4,0.1-0.8,0.4-1.1,0.7c-0.3,0.3-0.6,0.7-0.7,1.1c-0.2,0.4-0.3,0.9-0.3,1.4c0,0.3,0.1,0.6,0.1,0.9
				c0.2,0.6,0.5,1.1,0.9,1.6c0.2,0.2,0.5,0.4,0.7,0.6c0.5,0.3,1.1,0.5,1.8,0.5c0.5,0,0.9-0.1,1.4-0.3c0.4-0.1,0.8-0.4,1.1-0.7
				c0.3-0.3,0.6-0.7,0.7-1.1c0.2-0.4,0.3-0.9,0.3-1.4c0-0.3-0.1-0.6-0.1-0.9C1390.2,1767.7,1389.9,1767.2,1389.5,1766.7z"/>
			<path display="inline" fill="#E2B67A" d="M617.6,1882.2c-0.2-0.3-0.4-0.5-0.7-0.7c-0.2-0.2-0.5-0.4-0.8-0.5
				c-0.3-0.2-0.6-0.3-0.9-0.3c-0.5-0.1-1-0.1-1.5,0.1c-0.4,0.1-0.8,0.3-1.1,0.4c-0.1,0-0.2,0.1-0.3,0.1c-0.4,0.1-0.7,0.3-1.1,0.4
				c-0.2,0.1-0.4,0.2-0.5,0.4c-0.2,0.2-0.4,0.3-0.5,0.4c-0.2,0.2-0.3,0.3-0.5,0.5c-0.2,0.2-0.3,0.3-0.5,0.5
				c-0.1,0.1-0.2,0.2-0.2,0.2c0,0-0.1,0.1-0.1,0.1c0,0,0,0,0,0.1c-0.2,0.3-0.5,0.6-0.7,0.9c-0.4,0.6-0.5,1.4-0.7,2.2
				c-0.3,1.3,0,2.7,0.9,3.6c0.5,0.5,1,0.8,1.6,0.9c0.7,0.2,1.3,0.2,2,0c0.4-0.1,0.8-0.2,1.1-0.3c0.8-0.2,1-0.4,1.6-0.8
				c0.2-0.2,0.4-0.3,0.5-0.4c0.1-0.1,0.2-0.1,0.2-0.2c0.2-0.2,0.3-0.3,0.5-0.5c0.2-0.1,0.3-0.3,0.5-0.4c0.4-0.4,0.8-0.9,1-1.4
				c0.2-0.4,0.3-0.8,0.5-1.2c0.1-0.3,0.3-0.6,0.4-0.9c0-0.3,0.1-0.7,0.1-1c0-0.3-0.1-0.7-0.1-1
				C618.1,1883,617.9,1882.5,617.6,1882.2z"/>
			<path display="inline" fill="#E2B67A" d="M1010.5,2011.4c-0.1-0.4-0.3-0.8-0.5-1.1c-0.5-1-2.2-1-2.7,0c-0.2,0.4-0.4,0.7-0.5,1.1
				c-0.1,0.3-0.1,0.6-0.2,0.9c-0.1,0.6-0.3,1.2-0.4,1.8c-0.2,0.9,0,1.9,0.7,2.5c0.5,0.5,1.1,0.8,1.8,0.8c0.7,0,1.4-0.3,1.8-0.8
				c0.7-0.7,0.9-1.6,0.7-2.5c-0.1-0.6-0.3-1.2-0.4-1.8C1010.7,2012,1010.6,2011.7,1010.5,2011.4z"/>
			<path display="inline" fill="#E2B67A" d="M2505.8,2177c0,0,0-0.1,0-0.1c0-0.5-0.1-1.1-0.3-1.5c0-0.2-0.1-0.4-0.2-0.5
				c-0.2-0.3-0.4-0.6-0.6-0.8c0,0,0-0.1-0.1-0.1c-0.1-0.1-0.2-0.3-0.3-0.4c-0.3-0.3-0.7-0.6-1.1-0.7c-0.4-0.2-0.8-0.3-1.3-0.3
				c-0.3,0-0.6,0.1-0.9,0.1c-0.6,0.2-1.1,0.4-1.5,0.9c-0.1,0.1-0.2,0.3-0.3,0.4c-0.3,0.3-0.5,0.6-0.7,1c-0.4,0.7-0.5,1.3-0.6,2.1
				c0,0.1,0,0.1,0,0.2c0,0.5-0.1,1-0.1,1.5c0,0.6,0.1,1.1,0.4,1.6c0.2,0.5,0.4,0.9,0.8,1.3c0.4,0.4,0.8,0.7,1.3,0.8
				c0.5,0.3,1,0.4,1.6,0.4c0.4,0,0.7-0.1,1.1-0.1c0.7-0.2,1.3-0.5,1.8-1.1c0.2-0.3,0.4-0.6,0.6-0.8c0.4-0.6,0.6-1.3,0.6-2.1
				c0-0.5-0.1-1-0.1-1.5C2505.8,2177.2,2505.8,2177.1,2505.8,2177z"/>
			<path display="inline" fill="#E2B67A" d="M2323,2053.4c0,0,0-0.1,0-0.1c0-0.5-0.1-1.1-0.3-1.5c0-0.2-0.1-0.4-0.2-0.5
				c-0.2-0.3-0.4-0.6-0.6-0.8c0,0,0-0.1-0.1-0.1c-0.1-0.1-0.2-0.3-0.3-0.4c-0.3-0.3-0.7-0.6-1.1-0.7c-0.4-0.2-0.8-0.3-1.3-0.3
				c-0.3,0-0.6,0.1-0.9,0.1c-0.6,0.2-1.1,0.4-1.5,0.9c-0.1,0.1-0.2,0.3-0.3,0.4c-0.3,0.3-0.5,0.6-0.7,1c-0.4,0.7-0.5,1.3-0.6,2.1
				c0,0.1,0,0.1,0,0.2c0,0.5-0.1,1-0.1,1.5c0,0.6,0.1,1.1,0.4,1.6c0.2,0.5,0.4,0.9,0.8,1.3c0.4,0.4,0.8,0.7,1.3,0.8
				c0.5,0.3,1,0.4,1.6,0.4c0.4,0,0.7-0.1,1.1-0.1c0.7-0.2,1.3-0.5,1.8-1.1c0.2-0.3,0.4-0.6,0.6-0.8c0.4-0.6,0.6-1.3,0.6-2.1
				c0-0.5-0.1-1-0.1-1.5C2323,2053.5,2323,2053.4,2323,2053.4z"/>
			<path display="inline" fill="#E2B67A" d="M3301.4,1266.4c-0.1-0.1-0.2-0.2-0.3-0.4c-0.2-0.2-0.3-0.3-0.6-0.5
				c-0.3-0.2-0.4-0.3-0.6-0.4c0,0-0.1,0-0.1-0.1c-0.4-0.2-0.7-0.4-1.1-0.5c-0.8-0.5-1.7-0.7-2.7-0.7c-1,0-1.9,0.2-2.7,0.7
				c-1.6,0.9-2.6,2.7-2.6,4.6s1,3.7,2.6,4.6c0.8,0.5,1.7,0.7,2.7,0.7c1,0,1.9-0.2,2.7-0.7c0.4-0.2,0.7-0.4,1.1-0.5
				c0.5-0.2,1-0.6,1.3-1c0.1-0.1,0.2-0.2,0.3-0.4c0.4-0.3,0.6-0.8,0.8-1.2c0.2-0.5,0.3-0.9,0.3-1.5c0-0.3-0.1-0.7-0.1-1
				C3302.2,1267.4,3301.9,1266.8,3301.4,1266.4z"/>
			<path display="inline" fill="#E2B67A" d="M3383.5,1201.9c-0.3-0.4-0.6-0.8-0.9-1.2c-0.4-0.4-0.8-0.7-1.2-0.9c0,0,0,0-0.1,0
				c0,0-0.1-0.1-0.1-0.1c-0.1-0.1-0.2-0.1-0.3-0.2c-1.5-0.9-3.5-0.9-5,0c-0.1,0.1-0.2,0.1-0.3,0.2c0,0-0.1,0.1-0.1,0.1
				c0,0,0,0-0.1,0c-0.2,0.1-0.4,0.3-0.6,0.5c-0.6,0.4-1.1,1-1.5,1.7c0,0,0,0,0,0c-0.4,0.7-0.7,1.4-0.7,2.2c-0.2,0.8-0.1,1.6,0.1,2.4
				c0.2,0.5,0.4,0.9,0.6,1.4c0,0.1,0.1,0.2,0.1,0.3c0.1,0.2,0.1,0.3,0.2,0.5c0.5,0.8,1.1,1.5,2,2c0.9,0.5,1.8,0.7,2.8,0.8
				c1,0,1.9-0.3,2.8-0.8c0.8-0.5,1.5-1.1,2-2c0.1-0.2,0.1-0.3,0.2-0.5c0-0.1,0.1-0.2,0.1-0.2c0.2-0.5,0.4-0.9,0.6-1.4
				c0.1-0.5,0.1-1,0.2-1.6c0-0.8-0.1-1.6-0.5-2.3C3383.7,1202.4,3383.6,1202.1,3383.5,1201.9z"/>
			<path display="inline" fill="#E2B67A" d="M3340.9,1074.3c-0.4-0.2-0.8-0.3-1.2-0.3c-0.7,0-1.2,0.3-1.7,0.7
				c-0.7,0.5-1.3,1.1-2,1.6c-0.7,0.5-1.4,1-2,1.6c-0.3,0.3-0.6,0.6-0.9,0.9c-0.5,0.5-1.1,1.1-1.4,1.7c-0.4,0.6-0.7,1.4-0.9,2
				c-0.2,0.7-0.1,1.3-0.1,2c0,1.1,0.5,2,1.3,2.7c0.8,0.6,2,1,3,0.6c0.6-0.2,1.3-0.4,1.8-0.7c0.4-0.2,0.8-0.6,1.2-1
				c0.4-0.4,0.7-0.8,1-1.2c0.2-0.4,0.4-0.8,0.6-1.2c0.3-0.5,0.5-1.1,0.8-1.6c0.7-1.7,1.2-3.4,1.8-5.1
				C3342.3,1076.1,3341.8,1074.8,3340.9,1074.3z"/>
			<path display="inline" fill="#E2B67A" d="M3438.2,1028.9c-0.6-0.4-1.2-0.6-1.9-0.6c-0.7-0.2-1.3-0.1-2,0.1
				c-0.9,0.4-1.7,0.7-2.6,1.1c-1.1,0.3-2,0.8-2.8,1.6c-0.8,0.8-1.3,1.7-1.6,2.8c-0.6,2.2,0,4.5,1.6,6.1c1.6,1.6,3.9,2.2,6.1,1.6
				c1.1-0.3,2-0.8,2.8-1.6c0.8-0.8,1.3-1.7,1.6-2.8c0.4-0.9,0.7-1.7,1.1-2.6c0.2-0.7,0.2-1.3,0.1-2c0-0.7-0.2-1.3-0.6-1.9
				C3439,1029.4,3439.5,1029.9,3438.2,1028.9z"/>
			<path display="inline" fill="#E2B67A" d="M3407.4,948.7c-0.3-0.3-0.6-0.4-1-0.6c-0.3-0.1-0.6-0.1-0.9,0c-0.3,0-0.6,0.1-0.8,0.3
				c-1.1,0.7-2.1,1.3-3.2,2c-0.9,0.6-1.6,1.6-1.5,2.6c0,0.3,0.1,0.5,0.1,0.8c0.1,0.5,0.4,1,0.8,1.3c0.3,0.3,0.6,0.5,1,0.6
				c0.4,0.2,0.8,0.3,1.2,0.3c1.1,0,2.1-0.6,2.6-1.5c0.7-1.1,1.3-2.1,2-3.2c0.1-0.2,0.1-0.3,0.2-0.5c0.1-0.3,0.1-0.6,0-0.9
				c0-0.2-0.1-0.4-0.1-0.5C3407.8,949.2,3407.7,948.9,3407.4,948.7z"/>
			<path display="inline" fill="#E2B67A" d="M3373.8,808.1c0.3-0.4,0.6-0.8,0.7-1.3c0-0.3,0.1-0.7,0.1-1c0-0.7-0.2-1.3-0.5-1.9
				c-0.2-0.3-0.4-0.5-0.6-0.8c0,0-0.1,0-0.1-0.1c-0.3-0.4-0.7-0.8-1.1-1.1c-0.4-0.3-0.9-0.4-1.4-0.4c-0.5-0.1-1-0.1-1.5,0.1
				c-0.6,0.2-1.2,0.5-1.7,1c-0.1,0.1-0.2,0.3-0.3,0.4c-0.3,0.4-0.6,0.8-0.7,1.3c0,0.1-0.1,0.9-0.1,1c0,0,0,0,0,0.1
				c0,0.4,0.1,0.7,0.2,1.1c0,0,0,0,0,0.1c0.1,0.2,0.3,0.7,0.4,0.9c0,0,0,0,0,0c0,0,0,0,0,0c0,0,0,0,0,0c0.1,0.1,0.5,0.6,0.6,0.8
				c0,0,0,0.1,0.1,0.1c0,0,0,0,0,0c0.2,0.1,0.6,0.5,0.8,0.6c0,0,0,0,0,0c0,0,0.1,0,0.1,0.1c0.3,0.2,0.7,0.3,1,0.4
				c0.5,0.2,1,0.2,1.5,0.1c0.5,0,1-0.2,1.4-0.4C3373.2,808.8,3373.6,808.5,3373.8,808.1z M3372.6,802.5c0.2,0.2,0.4,0.3,0.6,0.5
				c-0.4-0.3-0.8-0.6-1.3-0.7C3372.1,802.3,3372.4,802.4,3372.6,802.5z"/>
			<path display="inline" fill="#E2B67A" d="M3400.7,707.7c0.2-0.1,0.5-0.2,0.7-0.4c0.6-0.3,1-1,1-1.7c0-0.6-0.4-1.4-1-1.7
				c-0.2-0.1-0.5-0.2-0.7-0.4c-0.2-0.1-0.4-0.2-0.6-0.3c-0.2-0.1-0.3-0.3-0.5-0.4c-0.4-0.2-0.8-0.4-1.2-0.4
				c-0.4-0.1-0.9-0.1-1.3,0.1c-0.3,0.1-0.5,0.2-0.8,0.3c-0.5,0.3-0.9,0.7-1.2,1.2c-0.3,0.4-0.5,1.1-0.5,1.6c0,0.3,0.1,0.5,0.1,0.8
				c0.1,0.3,0.2,0.5,0.3,0.8c0,0,0,0,0.1,0.1c0.2,0.4,0.5,0.7,0.8,0.9c0.3,0.3,0.7,0.5,1.1,0.6c0.3,0,0.6,0.1,0.9,0.1
				c0.6,0,1.1-0.1,1.6-0.4c0.2-0.1,0.4-0.3,0.5-0.4C3400.3,707.9,3400.5,707.8,3400.7,707.7z"/>
			<path display="inline" fill="#E2B67A" d="M3369.7,615c-0.1-0.4-0.1-0.9-0.2-1.3c-0.2-0.9-0.7-1.6-1.3-2.2c-0.5-0.5-1-0.8-1.6-1
				c-0.6-0.3-1.2-0.5-1.9-0.4c-0.7,0-1.3,0.1-1.9,0.4c-0.6,0.2-1.2,0.6-1.6,1c-0.6,0.6-1.1,1.4-1.3,2.2c-0.2,0.5-0.4,1.1-0.6,1.6
				c-0.1,0.2-0.2,0.5-0.3,0.7c-0.1,0.3-0.1,0.5-0.2,0.8c-0.1,0.8-0.4,1.7-0.3,2.6c0.1,0.8,0.1,1.7,0.6,2.4c0.4,0.7,1,1.2,1.7,1.5
				c0.7,0.3,1.6,0.4,2.4,0.2c0.5-0.1,1-0.4,1.4-0.7c0.7-0.4,1.3-1,1.9-1.6c1-1.1,1.8-2.4,2.6-3.7
				C3369.5,616.8,3369.7,615.9,3369.7,615z"/>
			<path display="inline" fill="#E2B67A" d="M3163,1252c-0.3-0.6-0.7-1-1.2-1.3c-0.5-0.4-1-0.7-1.6-0.9c-0.4-0.1-0.7-0.2-1.1-0.3
				c-0.9-0.2-1.8-0.2-2.7,0c-0.9,0.2-1.6,0.7-2.3,1.3c-0.3,0.3-0.5,0.7-0.8,1c-0.5,0.8-0.7,1.7-0.7,2.6c0,0.7,0.1,1.4,0.4,2
				c0.2,0.6,0.6,1.2,1.1,1.7c0.6,0.6,1.4,1.1,2.3,1.3c0.9,0.2,1.8,0.2,2.7,0c0.4-0.1,0.7-0.2,1.1-0.3c0.4-0.2,0.8-0.3,1.1-0.5
				c0.6-0.3,1-0.7,1.3-1.2c0.3-0.3,0.5-0.7,0.6-1.1c0.3-0.6,0.4-1.2,0.4-1.9c-0.1-0.4-0.1-0.9-0.2-1.3
				C3163.3,1252.7,3163.1,1252.3,3163,1252z"/>
			<path display="inline" fill="#E2B67A" d="M3260.3,1166.8c-6.6,0-6.6,10.2,0,10.2C3266.8,1177,3266.8,1166.8,3260.3,1166.8z"/>
			<path display="inline" fill="#E2B67A" d="M2960.9,1181.8c-0.4-0.4-0.8-0.7-1.3-0.9c-0.5-0.3-1-0.4-1.6-0.4
				c-1.5,0-2.9,0.8-3.6,2.1c-0.2,0.3-0.3,0.6-0.5,0.9c-0.2,0.4-0.5,0.9-0.5,1.3c0,0.2-0.1,0.3-0.1,0.5c-0.2,0.6-0.2,1.2,0,1.8
				c0.2,0.6,0.4,1.1,0.9,1.5c0.4,0.4,0.9,0.7,1.5,0.9c0.6,0.2,1.2,0.2,1.8,0c0.2,0,0.3-0.1,0.5-0.1c0.5-0.1,0.9-0.3,1.3-0.5
				c0.3-0.2,0.6-0.3,0.9-0.5c0.6-0.4,1.1-0.9,1.5-1.5c0.4-0.6,0.6-1.3,0.6-2.1c0-0.4-0.1-0.7-0.1-1.1
				C2961.8,1183,2961.4,1182.3,2960.9,1181.8z"/>
			<path display="inline" fill="#E2B67A" d="M2821.6,1109.9c-0.7-0.1-1.4-0.1-2,0.1c-0.1,0-0.2,0.1-0.3,0.1
				c-0.2,0.1-0.4,0.1-0.6,0.2c-0.2,0.1-0.4,0.3-0.5,0.4c-0.2,0.1-0.3,0.3-0.5,0.5c-0.5,0.6-0.9,1.2-1.1,2c-0.1,0.4-0.2,0.8-0.2,1.2
				c0,0.3,0.1,0.6,0.1,0.9c0,0.1,0.1,0.3,0.1,0.4c0.1,0.4,0.3,0.7,0.6,1c0.2,0.1,0.3,0.2,0.5,0.3c0.3,0.2,0.7,0.3,1.1,0.3
				c0.3,0,0.6-0.1,0.9-0.2c0.3-0.1,0.5-0.2,0.7-0.5c0.2-0.2,0.4-0.4,0.5-0.7c0.1-0.3,0.2-0.6,0.2-0.9c0-0.4-0.1-0.7-0.3-1l0,0
				c0,0,0,0.1,0.1,0.1c0-0.1,0-0.1-0.1-0.2c0,0,0,0,0,0c0-0.1,0-0.1,0-0.2c0.1-0.1,0.1-0.2,0.2-0.3c0.1-0.2,0.3-0.3,0.4-0.5
				c0,0,0,0,0,0c-0.1,0.1-0.2,0.2-0.2,0.3c0.1-0.1,0.2-0.3,0.4-0.4c0.1,0,0.1-0.1,0.2-0.1c0.1,0,0.2-0.1,0.3-0.1c-0.1,0-0.1,0-0.2,0
				c0,0,0,0,0,0c0.1,0,0.2,0,0.3,0c0.1,0,0.3-0.1,0.4-0.2c0,0,0.1,0,0.1,0c0.2-0.1,0.5-0.2,0.6-0.5c0.1-0.2,0.2-0.5,0.1-0.8
				c-0.1-0.3-0.3-0.6-0.5-0.9C2822.5,1110.2,2822,1110,2821.6,1109.9z M2821.7,1112.9L2821.7,1112.9
				C2821.7,1112.9,2821.7,1112.9,2821.7,1112.9C2821.7,1112.9,2821.7,1112.9,2821.7,1112.9z M2821.4,1113.1
				C2821.5,1113,2821.5,1113,2821.4,1113.1C2821.5,1113,2821.5,1113,2821.4,1113.1C2821.4,1113.1,2821.4,1113.1,2821.4,1113.1z
				 M2821.8,1112.8C2821.8,1112.8,2821.7,1112.8,2821.8,1112.8L2821.8,1112.8C2821.7,1112.8,2821.8,1112.8,2821.8,1112.8
				C2821.8,1112.8,2821.8,1112.8,2821.8,1112.8z"/>
			<path display="inline" fill="#E2B67A" d="M3026.1,1119.9c-0.6-0.6-1.3-1.2-2.2-1.4c-0.3-0.1-0.5-0.1-0.8-0.2
				c-0.5-0.1-1-0.3-1.6-0.4c-0.9-0.2-1.7-0.2-2.6,0c-0.8,0.2-1.5,0.6-2.1,1.3c-0.3,0.3-0.5,0.7-0.8,1c-0.4,0.8-0.7,1.6-0.7,2.5
				c0,0.7,0.1,1.3,0.4,1.9c0.2,0.6,0.5,1.1,1,1.6c1.2,1.2,3,1.7,4.7,1.3c0.5-0.1,1-0.3,1.6-0.4c0.3-0.1,0.5-0.1,0.8-0.2
				c0.9-0.2,1.6-0.8,2.2-1.4c0.4-0.3,0.6-0.7,0.8-1.2c0.2-0.4,0.3-0.9,0.3-1.4c0-0.3-0.1-0.7-0.1-1
				C3026.9,1120.9,3026.6,1120.3,3026.1,1119.9z"/>
			<path display="inline" fill="#E2B67A" d="M3138.1,1156.7c-0.2-0.2-0.5-0.4-0.7-0.5c-0.5-0.3-1.1-0.5-1.7-0.5
				c-0.3,0-0.5,0.1-0.8,0.1c0,0-0.1,0-0.1,0c-0.2,0-0.3,0-0.5,0.1c-0.4,0-0.9,0.2-1.2,0.4c-0.3,0.2-0.5,0.4-0.8,0.6
				c-0.1,0.1-0.2,0.1-0.2,0.2c-0.3,0.3-0.5,0.6-0.6,1c-0.2,0.4-0.3,0.7-0.3,1.1c0,0.3,0.1,0.5,0.1,0.8c0.1,0.5,0.4,0.9,0.8,1.3
				c0.1,0.1,0.1,0.1,0.2,0.2c0,0,0,0,0.1,0c0.1,0.1,0.2,0.2,0.4,0.3c0.1,0.1,0.2,0.2,0.4,0.3c0.3,0.1,0.5,0.2,0.8,0.3
				c0.3,0,0.6,0.1,0.9,0.1c0,0,0.1,0,0.1,0c0.3,0,0.5,0.1,0.8,0.1c0.5,0,0.9-0.1,1.3-0.3c0.4-0.1,0.8-0.4,1.1-0.7
				c0.3-0.3,0.6-0.7,0.7-1.1c0.2-0.4,0.3-0.9,0.3-1.3c0-0.3-0.1-0.6-0.1-0.9C3138.9,1157.6,3138.6,1157.1,3138.1,1156.7z"/>
			<path display="inline" fill="#E2B67A" d="M3238,1071.4c-0.3-0.3-0.6-0.5-1-0.6c-0.1,0-0.3-0.1-0.4-0.1c-0.3-0.1-0.5-0.1-0.8-0.1
				c-0.4,0-0.6,0.1-0.9,0.2c-0.3,0.1-0.6,0.2-1,0.3c-0.7,0.2-1.3,0.4-2,0.6c-0.8,0.3-1.5,0.8-1.9,1.5c-0.3,0.5-0.4,1-0.4,1.6
				c0,0.4,0.1,0.9,0.3,1.2c0.1,0.4,0.4,0.7,0.7,1c0.3,0.3,0.6,0.5,1,0.7c0.4,0.2,0.8,0.3,1.2,0.3c0.6,0,1.1-0.1,1.6-0.4
				c0.6-0.4,1.2-0.8,1.7-1.2c0.3-0.2,0.6-0.4,0.8-0.6c0.5-0.3,0.9-0.7,1.2-1.2c0.1-0.1,0.1-0.3,0.2-0.4c0.2-0.3,0.3-0.7,0.3-1.1
				c0-0.3-0.1-0.6-0.2-0.9C3238.4,1071.9,3238.2,1071.6,3238,1071.4z"/>
			<path display="inline" fill="#E2B67A" d="M3311.6,982.7c-5.4,0-5.4,8.3,0,8.3C3316.9,991.1,3316.9,982.7,3311.6,982.7z"/>
			<path display="inline" fill="#E2B67A" d="M3423.3,1117.9c-6,0-6,9.3,0,9.3C3429.3,1127.1,3429.3,1117.9,3423.3,1117.9z"/>
			<path display="inline" fill="#E2B67A" d="M3357.5,523.3c-0.1-0.1-0.1-0.2-0.2-0.3c-0.1-0.2-0.2-0.2-0.4-0.4
				c-0.2-0.2-0.3-0.2-0.4-0.3c0,0-0.1,0-0.1,0c-0.2-0.1-0.5-0.2-0.7-0.4c-0.6-0.3-1.2-0.5-1.9-0.5c-0.7,0-1.3,0.2-1.9,0.5
				c-1.2,0.7-1.9,1.9-1.9,3.3c0,1.3,0.7,2.6,1.9,3.3c0.6,0.3,1.2,0.5,1.9,0.5c0.7,0,1.3-0.2,1.9-0.5c0.2-0.1,0.5-0.2,0.7-0.4
				c0.3-0.2,0.7-0.4,0.9-0.7c0.1-0.1,0.1-0.2,0.2-0.3c0.3-0.2,0.5-0.5,0.6-0.9c0.2-0.3,0.3-0.7,0.2-1.1c0-0.2-0.1-0.5-0.1-0.7
				C3358.1,524,3357.8,523.6,3357.5,523.3z"/>
			<path display="inline" fill="#E2B67A" d="M3440.6,826.5c-0.1-0.5-0.2-1-0.4-1.4c-0.1-0.2-0.2-0.4-0.2-0.6
				c-0.2-0.3-0.4-0.5-0.6-0.7c-0.1-0.1-0.3-0.3-0.5-0.3c-0.3-0.2-0.6-0.2-0.9-0.2c-0.4,0-0.8,0.1-1.2,0.3c-0.5,0.3-1,0.9-1.1,1.4
				c-0.1,0.5-0.2,1-0.4,1.4c-0.2,0.3-0.4,0.6-0.6,1c-0.7,1.1-0.7,2.7,0,3.8c0.7,1.2,1.9,1.9,3.3,1.9c1.3,0,2.6-0.7,3.3-1.9
				c0.7-1.1,0.7-2.7,0-3.8C3441.1,827.1,3440.9,826.8,3440.6,826.5z"/>
			<path display="inline" fill="#E2B67A" d="M3540.4,463.4c0.2,0.3,0.3,0.6,0.5,0.9c0.9,1.7,2.2,2.3,3.4,2.1
				c1.2,0.2,2.5-0.4,3.4-2.1c0.2-0.3,0.3-0.6,0.5-0.9C3552.5,455,3535.9,455,3540.4,463.4z"/>
			<path display="inline" fill="#E2B67A" d="M3560.7,345.1c-5.4,0-5.4,8.4,0,8.4C3566.2,353.6,3566.2,345.1,3560.7,345.1z"/>
			<path display="inline" fill="#E2B67A" d="M3608.7,281.7c0.2,0.3,0.4,0.5,0.6,0.8c0.3,0.2,0.5,0.4,0.8,0.6
				c0.3,0.1,0.6,0.3,0.9,0.4c0.5,0.2,1,0.2,1.5,0.1c0.3,0,0.7-0.1,1-0.3c0.5-0.2,0.9-0.4,1.2-0.8c0.3-0.3,0.6-0.6,1-0.9
				c0.3-0.2,0.4-0.5,0.5-0.8c0.2-0.3,0.2-0.7,0.2-1c0-0.2-0.1-0.5-0.1-0.7c-0.1-0.4-0.4-0.8-0.7-1.2c-0.3-0.3-0.6-0.6-1-0.9
				c-0.3-0.2-0.5-0.4-0.8-0.6c-0.3-0.1-0.6-0.3-0.9-0.4c-0.5-0.2-1-0.2-1.5-0.1c-0.3,0-0.7,0.1-1,0.3c-0.3,0.1-0.6,0.3-0.9,0.5
				c-0.3,0.2-0.5,0.4-0.7,0.7c-0.2,0.2-0.4,0.5-0.5,0.9c-0.2,0.5-0.4,1-0.3,1.5c0,0.3,0.1,0.7,0.1,1
				C3608.4,281.1,3608.6,281.4,3608.7,281.7z"/>
			<path display="inline" fill="#E2B67A" d="M3527,567.7c-0.2-0.3-0.4-0.6-0.7-0.8c-0.2-0.2-0.4-0.3-0.7-0.5
				c-0.3-0.1-0.5-0.2-0.8-0.3c-0.4-0.1-0.9-0.2-1.3-0.1c-0.3,0-0.6,0.1-0.8,0.2c-0.3,0.1-0.5,0.2-0.7,0.4c-0.2,0.1-0.4,0.3-0.6,0.6
				c-0.2,0.2-0.3,0.4-0.4,0.7c-0.2,0.4-0.3,0.8-0.3,1.2c0,0.3,0.1,0.6,0.1,0.9c0.1,0.3,0.2,0.5,0.3,0.8c0.2,0.2,0.3,0.4,0.5,0.7
				c0.2,0.2,0.4,0.3,0.7,0.5c0.3,0.1,0.5,0.2,0.8,0.3c0.4,0.1,0.9,0.2,1.3,0.1c0.3,0,0.6-0.1,0.8-0.2c0.4-0.1,0.7-0.4,1-0.7
				c0.2-0.3,0.4-0.6,0.7-0.8c0.2-0.2,0.3-0.4,0.4-0.7c0.1-0.2,0.2-0.5,0.2-0.8c0-0.2,0-0.4-0.1-0.5
				C3527.5,568.3,3527.3,568,3527,567.7z"/>
			<path display="inline" fill="#E2B67A" d="M3569.5,660.9c-0.2-0.1-0.3-0.3-0.5-0.4c-0.4-0.2-0.8-0.3-1.2-0.3
				c-0.5-0.1-1.1-0.1-1.6-0.2c-0.4,0-0.7,0.1-1,0.2c-0.3,0.1-0.6,0.3-0.8,0.5c-0.3,0.2-0.4,0.5-0.5,0.8c-0.2,0.3-0.2,0.6-0.2,1
				c0,0.2,0.1,0.5,0.1,0.7c0.1,0.4,0.3,0.8,0.7,1.1c0.2,0.1,0.3,0.3,0.5,0.4c0.4,0.2,0.8,0.4,1.3,0.4c0.5-0.1,1.1-0.1,1.6-0.2
				c0.3,0,0.6-0.1,0.9-0.2c0.3-0.1,0.6-0.3,0.8-0.5c0.2-0.2,0.4-0.5,0.5-0.8c0.2-0.3,0.2-0.6,0.2-0.9c0-0.2-0.1-0.4-0.1-0.6
				C3570,661.6,3569.8,661.2,3569.5,660.9z"/>
			<path display="inline" fill="#E2B67A" d="M3616.4,405.2C3616.4,405.2,3616.4,405.2,3616.4,405.2
				C3616.4,405.1,3616.4,405.1,3616.4,405.2z"/>
			<path display="inline" fill="#E2B67A" d="M3613.8,409.6c0.1-0.1,0.2-0.1,0.3-0.2c0,0,0.1,0,0.1-0.1c0,0,0,0,0,0
				c0.1-0.1,0.3-0.2,0.4-0.3c0.1,0,0.2-0.1,0.2-0.1c0.2-0.2,0.4-0.3,0.7-0.5c0.2-0.2,0.4-0.4,0.5-0.7c0,0,0,0,0-0.1
				c-0.2,0.2-0.3,0.4-0.5,0.6c0.4-0.5,0.6-0.7,0.7-1.3c0-0.1,0.1-0.6,0.1-0.9c0-0.2-0.1-0.8-0.1-1c-0.1-0.4-0.3-0.8-0.6-1.1
				c-0.1-0.1-0.2-0.3-0.3-0.4c-0.3-0.2-0.6-0.5-0.9-0.7c-0.4-0.3-0.9-0.4-1.3-0.6c-0.8-0.3-1.8-0.1-2.6,0c-0.5,0.1-1.1,0.4-1.5,0.6
				c-0.1,0-0.2,0.1-0.3,0.1c-0.7,0.4-1.1,1-1.6,1.6c-0.3,0.4-0.5,1-0.7,1.5c-0.2,0.5-0.2,1.1-0.3,1.6c0,0.3,0.1,0.7,0.1,1
				c0.1,0.5,0.3,0.9,0.7,1.3c0.2,0.3,0.4,0.5,0.7,0.7c0.4,0.3,0.8,0.6,1.3,0.7c0.3,0,0.7,0.1,1,0.1c0.3,0,0.7-0.1,1-0.1
				c0.5-0.1,0.9-0.3,1.3-0.7c0.4-0.3,0.7-0.6,1-1.1c0,0,0,0,0-0.1c0,0,0.1-0.1,0.1-0.1c0,0,0,0-0.1,0.1c0,0,0,0,0,0
				C3613.6,409.7,3613.7,409.6,3613.8,409.6z M3613.3,410c-0.2,0.1-0.4,0.3-0.5,0.4C3613,410.2,3613.2,410.1,3613.3,410
				C3613.3,409.9,3613.3,409.9,3613.3,410z"/>
			<path display="inline" fill="#E2B67A" d="M3676.8,354.2c-0.2-0.2-0.5-0.4-0.7-0.6c-0.3-0.1-0.6-0.2-0.9-0.4
				c-0.5-0.1-0.9-0.2-1.4-0.1c-0.5,0-0.9,0.2-1.3,0.4c-0.7,0.4-1.5,0.8-2.2,1.2c-0.6,0.4-1.2,0.9-1.5,1.5c-0.4,0.7-0.6,1.4-0.6,2.2
				c0.1,0.4,0.1,0.8,0.2,1.1c0.2,0.7,0.6,1.4,1.1,1.9c0.4,0.4,0.8,0.7,1.4,0.9c0.5,0.3,1.1,0.4,1.6,0.4c1.5,0,3-0.8,3.7-2.1
				c0.4-0.7,0.8-1.5,1.2-2.2c0.1-0.3,0.2-0.6,0.4-0.9c0.1-0.5,0.2-1,0.1-1.4c0-0.3-0.1-0.6-0.2-0.9
				C3677.4,354.9,3677.2,354.5,3676.8,354.2z"/>
			<path display="inline" fill="#E2B67A" d="M3679.2,288.9c-0.6-0.3-1.2-0.6-1.8-0.8c-0.1,0-0.3-0.1-0.4-0.1
				c-0.5-0.2-1.1-0.2-1.6-0.2c-0.3,0-0.6-0.1-1-0.1c-0.7,0-1.3,0.1-1.9,0.4c-0.6,0.2-1.1,0.5-1.6,1c-0.5,0.4-0.8,1-1,1.6
				c-0.3,0.6-0.4,1.2-0.4,1.9c0.1,0.4,0.1,0.9,0.2,1.3c0.2,0.8,0.6,1.5,1.3,2.1c0.3,0.3,0.7,0.5,1,0.8c0.8,0.4,1.6,0.7,2.5,0.7
				c0.3,0,0.6-0.1,0.9-0.1c0.1,0,0.2,0,0.3,0c0.4-0.1,0.8-0.1,1.3-0.2c0,0,0.1,0,0.1,0c0.1,0,0.3-0.1,0.4-0.1
				c0.6-0.2,1.2-0.4,1.8-0.8c0.2-0.1,0.5-0.3,0.7-0.4c1.1-0.7,1.9-1.9,1.9-3.2c0-1.3-0.7-2.6-1.9-3.2
				C3679.6,289.2,3679.4,289,3679.2,288.9z"/>
			<path display="inline" fill="#E2B67A" d="M3762.6,328.9c-0.7-0.7-1.5-1.2-2.5-1.4c-1-0.3-2-0.3-3,0c-0.4,0.1-0.8,0.1-1.2,0.2
				c-0.9,0.3-1.7,0.7-2.4,1.4c-0.7,0.7-1.1,1.5-1.4,2.4c-0.3,1.8-0.3,1.1,0,2.9c0.3,0.9,0.7,1.7,1.4,2.4c0.7,0.7,1.5,1.1,2.4,1.4
				c0.4,0.1,0.8,0.1,1.2,0.2c1,0.3,2,0.3,3,0c1-0.3,1.8-0.7,2.5-1.4c0.3-0.4,0.6-0.8,0.9-1.1c0.5-0.9,0.8-1.8,0.8-2.8
				c0-0.8-0.1-1.5-0.5-2.2C3763.5,330,3763.1,329.4,3762.6,328.9z"/>
			<path display="inline" fill="#E2B67A" d="M3714.6,227c-4.1,0-4.2,6.4,0,6.4C3718.8,233.5,3718.8,227,3714.6,227z"/>
			<path display="inline" fill="#E2B67A" d="M3785.8,240.6c-0.3-0.6-0.7-1-1.3-1.4c-0.5-0.4-1-0.7-1.7-0.9c-0.3-0.1-0.6-0.2-0.9-0.2
				c-0.9-0.2-1.8-0.2-2.7,0c-0.9,0.2-1.6,0.7-2.3,1.3c-0.3,0.3-0.5,0.7-0.8,1c-0.5,0.8-0.7,1.7-0.7,2.6c0,0.7,0.1,1.4,0.4,2
				c0.2,0.6,0.6,1.2,1.1,1.7c0.6,0.6,1.4,1.1,2.3,1.3c0.9,0.2,1.8,0.2,2.7,0c0.3-0.1,0.6-0.2,0.9-0.2c0.4-0.2,0.8-0.3,1.2-0.5
				c0.6-0.3,1-0.7,1.4-1.3c0.3-0.3,0.5-0.7,0.6-1.1c0.3-0.6,0.4-1.2,0.4-1.9c-0.1-0.4-0.1-0.9-0.2-1.3
				C3786.1,241.4,3785.9,241,3785.8,240.6z"/>
			<path display="inline" fill="#E2B67A" d="M3837.4,271.3c-3.8,0-3.8,5.9,0,5.9C3841.1,277.2,3841.1,271.3,3837.4,271.3z"/>
			<path display="inline" fill="#E2B67A" d="M3627.1,505.2c-0.4-0.4-0.8-0.6-1.3-0.8c-0.1-0.1-0.3-0.1-0.4-0.2
				c-0.3-0.1-0.6-0.1-0.9-0.1c-0.3-0.1-0.5-0.3-0.8-0.3c-0.1,0-0.2-0.1-0.3-0.1c0,0-0.1,0-0.1,0c-0.4-0.1-0.9-0.1-1.3-0.2
				c-0.4,0.1-0.9,0.1-1.3,0.2c0,0-0.1,0-0.1,0c-0.2,0-0.3,0.1-0.5,0.1c-0.6,0.2-1.2,0.3-1.8,0.5c-0.7,0.2-1.2,0.5-1.7,0.9
				c-0.5,0.4-1,0.8-1.3,1.4c-0.4,0.6-0.6,1.2-0.6,1.9c-0.2,0.7-0.1,1.3,0.1,2c0.4,1.2,1.2,2.4,2.3,3c0.4,0.2,0.8,0.3,1.2,0.5
				c0.9,0.2,1.8,0.2,2.7,0c0.6-0.2,1.2-0.5,1.8-0.7c0.1-0.1,0.3-0.1,0.4-0.2c0.4-0.2,0.9-0.3,1.3-0.6c0.3-0.3,0.7-0.5,1-0.8
				c0.3-0.3,0.5-0.7,0.8-1c0.1-0.1,0.1-0.2,0.2-0.3c0.1-0.1,0.1-0.2,0.2-0.3c0,0,0.1-0.1,0.1-0.1c0.4-0.4,0.7-0.9,1-1.3
				c0.5-0.8,0.5-1.8,0.1-2.6C3627.5,505.8,3627.3,505.5,3627.1,505.2z"/>
			<path display="inline" fill="#E2B67A" d="M754.1,1801.4c0.4-0.5,0.8-1,1.2-1.6c0.2-0.3,0.4-0.5,0.5-0.9c0.1-0.4,0.1-0.9-0.1-1.3
				c-0.3-0.7-1-1.2-1.8-1.2c-0.6,0-1.2,0-1.9,0c-0.4,0-0.8,0.1-1.2,0.2c-0.2,0.1-0.3,0.1-0.5,0.2c-0.3,0.1-0.6,0.3-1,0.4
				c-0.5,0.1-1,0.4-1.3,0.8c-0.2,0.2-0.3,0.4-0.5,0.6c-0.3,0.5-0.4,1-0.4,1.5c0,0.4,0.1,0.8,0.3,1.2c0.1,0.4,0.3,0.7,0.6,1
				c0.3,0.3,0.6,0.5,1,0.6c0.4,0.2,0.8,0.3,1.2,0.3c0.5,0,1.1-0.1,1.5-0.4c0.3-0.2,0.6-0.4,0.9-0.5
				C753.2,1802.1,753.8,1801.9,754.1,1801.4z"/>
			<path display="inline" fill="#E2B67A" d="M461.6,1752.3c-0.1-0.4-0.3-0.8-0.6-1.2c-0.3-0.5-0.8-0.9-1.3-1.2
				c-0.5-0.2-1.3-0.4-1.8-0.1c-0.4,0.2-0.8,0.3-1.1,0.5c-0.4,0.2-0.8,0.6-1.1,0.9c-0.4,0.4-0.7,0.8-1,1.2c-0.1,0.2-0.3,0.5-0.4,0.7
				c-0.4,0.7-0.7,1.5-1,2.3c-0.2,0.5-0.4,1-0.6,1.5c-0.2,0.6-0.2,1.1-0.1,1.7c0,0.6,0.2,1.1,0.5,1.6c0.3,0.5,0.6,0.9,1.1,1.2
				c0.4,0.4,0.9,0.6,1.5,0.8c1.1,0.2,2.3,0.2,3.3-0.4c0.9-0.6,1.7-1.5,2-2.6c0.1-0.5,0.3-1,0.4-1.5c0.1-0.2,0.1-0.5,0.2-0.7
				c0.1-0.6,0.2-1.1,0.3-1.7c0-0.2,0.1-0.5,0.1-0.7c0-0.2,0-0.5,0-0.7C461.8,1753.3,461.8,1752.8,461.6,1752.3z"/>
			<path display="inline" fill="#E2B67A" d="M592.8,1720.1c-4.3,0-4.3,6.7,0,6.7C597.1,1726.7,597.1,1720.1,592.8,1720.1z"/>
			<path display="inline" fill="#E2B67A" d="M130.2,591.9c-0.1-0.5-0.1-0.9-0.2-1.4c0,0,0,0,0-0.1c0,0,0-0.1,0-0.1c0,0,0,0,0-0.1
				c0,0,0,0,0,0c0,0,0,0,0,0c-0.2-0.4-0.3-0.8-0.5-1.1c0,0,0,0,0,0c-0.2-0.4-0.4-0.7-0.7-1c0,0-1-0.7-1-0.7c0,0-1.1-0.5-1.1-0.5
				c0,0,0,0,0,0c0,0-0.1,0-0.1,0c0,0-0.1,0-0.1,0c-0.5-0.1-0.4-0.2-1.4-0.2c-0.1,0-1.3,0.2-1.4,0.2c-0.1,0-1.2,0.5-1.3,0.5
				c0,0,0,0-0.1,0c-0.1,0.1-0.3,0.1-0.4,0.2c-0.3,0.2-0.6,0.4-0.9,0.5c-0.9,0.5-1.5,1.2-2,2c-0.5,0.9-0.8,1.8-0.8,2.9
				c0.1,0.5,0.1,1,0.2,1.5c0.3,1,0.8,1.8,1.5,2.5c0.5,0.6,1.1,0.9,1.8,1.2c0.7,0.4,1.4,0.5,2.2,0.5c2,0,3.9-1.1,4.9-2.8
				c0.2-0.3,0.3-0.5,0.5-0.8c0.1-0.1,0.2-0.3,0.2-0.4c0.2-0.3,0.2-0.5,0.4-0.8c0,0.1,0.2-0.4,0.3-0.7
				C130.1,592.8,130.1,592.3,130.2,591.9z"/>
			<path display="inline" fill="#E2B67A" d="M215.7,539.6c-0.2-0.2-0.5-0.4-0.7-0.6c-0.6-0.3-1.2-0.5-1.9-0.5
				c-0.8,0.1-1.2,0.1-1.9,0.5c0,0-0.1,0-0.1,0.1c-0.1,0-0.1,0.1-0.2,0.1c-0.1,0.1-0.3,0.2-0.4,0.2c-0.3,0.2-0.6,0.3-0.8,0.5
				c-0.6,0.4-1.1,0.9-1.5,1.5c-0.4,0.6-0.6,1.3-0.6,2.1c0,0.4,0.1,0.7,0.1,1.1c0.2,0.7,0.6,1.3,1.1,1.8c0.4,0.4,0.8,0.7,1.3,0.9
				c0.5,0.3,1,0.4,1.6,0.4c1.5,0,2.8-0.8,3.6-2.1c0.2-0.3,0.3-0.6,0.5-0.8c0.1-0.1,0.2-0.3,0.2-0.4c0-0.1,0.1-0.1,0.1-0.2
				c0,0,0-0.1,0.1-0.1c0.4-0.7,0.5-1.1,0.5-1.9c0-0.5-0.1-1-0.3-1.4C216.3,540.3,216,539.9,215.7,539.6z"/>
			<path display="inline" fill="#E2B67A" d="M266.7,630.4c-3.8,0-3.8,5.9,0,5.9C270.4,636.3,270.5,630.4,266.7,630.4z"/>
			<path display="inline" fill="#E2B67A" d="M140,745.6c0-0.1,0-0.1,0-0.2c0,0,0-0.1,0-0.1c0-0.3,0-0.7-0.1-1
				c-0.1-0.3-0.2-0.6-0.4-0.9c-0.3-0.6-0.9-1.2-1.6-1.5c-0.8-0.4-1.3-0.6-2.2-0.6c-0.2,0-0.8,0-1.2,0.2c-0.4,0.2-0.9,0.3-1.3,0.5
				c-0.1,0-0.2,0.1-0.3,0.2c-0.4,0.3-0.8,0.5-1.2,0.9c-0.4,0.4-0.8,0.9-1.1,1.4c-0.1,0.3-0.3,0.6-0.4,0.8c-0.1,0.3-0.3,0.6-0.3,0.9
				c-0.2,0.6-0.2,1.3-0.3,1.9c0,0.6,0.1,1.3,0.2,1.9c0.2,0.8,0.7,1.6,1.3,2.2c0.3,0.3,0.7,0.5,1,0.8c0.8,0.5,1.6,0.7,2.5,0.7
				c0.7,0,1.3-0.1,1.9-0.4c0.6-0.2,1.2-0.5,1.6-1c0.5-0.5,0.8-1,1-1.6c0.3-0.6,0.5-1.2,0.4-1.9c0-0.5-0.1-0.9-0.2-1.3
				c0,0,0-0.1,0-0.1c0.1-0.2,0.2-0.3,0.2-0.5c0.3-0.9,0.1-1.4,0-2.3C139.9,744.9,140,745.2,140,745.6z"/>
			<path display="inline" fill="#E2B67A" d="M237.3,727.4c-0.4-0.3-0.9-0.6-1.3-0.9c-0.7-0.4-1.5-0.6-2.3-0.6
				c-0.8,0-1.6,0.2-2.3,0.6c-1.4,0.8-2.2,2.3-2.2,3.9c0,1.6,0.9,3.1,2.2,3.9c0.7,0.4,1.5,0.6,2.3,0.6c0.8,0,1.6-0.2,2.3-0.6
				c0.4-0.3,0.9-0.6,1.3-0.9c0.5-0.3,0.9-0.7,1.3-1.3c0.3-0.5,0.5-1.1,0.5-1.8c0-0.6-0.2-1.2-0.5-1.8
				C238.3,728.1,237.8,727.7,237.3,727.4z"/>
			<path display="inline" fill="#E2B67A" d="M358.8,706c-0.3-0.6-0.7-1-1.3-1.4c-0.5-0.4-1-0.7-1.7-0.9c-0.9-0.2-1.7-0.2-2.6,0
				c-0.4,0.2-0.8,0.3-1.2,0.5c-0.7,0.4-1.3,1-1.7,1.7c-0.4,0.6-0.5,1.2-0.6,1.8c-0.1,0.6-0.1,1.3,0.1,1.9c0.2,0.8,0.6,1.5,1.3,2.1
				c0.3,0.3,0.7,0.5,1,0.8c0.8,0.4,1.6,0.7,2.5,0.7c0.4-0.1,0.9-0.1,1.3-0.2c0.8-0.2,1.5-0.6,2.1-1.3c0.6-0.6,1-1.3,1.3-2.1
				c0.1-0.4,0.1-0.9,0.2-1.3c0-0.4-0.1-0.7-0.1-1.1C359.3,706.9,359.1,706.4,358.8,706z"/>
			<path display="inline" fill="#E2B67A" d="M393.1,822c-0.3-0.3-0.6-0.7-0.8-1c-0.3-0.2-0.5-0.4-0.8-0.6c-0.3-0.1-0.6-0.3-1-0.4
				c-0.5-0.2-1.1-0.2-1.6-0.1c-0.4,0-0.7,0.1-1,0.3c-0.3,0.1-0.6,0.3-0.9,0.5c-0.3,0.2-0.5,0.4-0.7,0.7c-0.3,0.3-0.4,0.5-0.5,0.9
				c-0.3,0.5-0.4,1-0.3,1.6c0,0.4,0.1,0.7,0.1,1.1c0.1,0.3,0.3,0.6,0.4,1c0.2,0.3,0.4,0.5,0.6,0.8c0.3,0.2,0.5,0.4,0.8,0.6
				c0.3,0.1,0.6,0.3,1,0.4c0.5,0.2,1.1,0.2,1.6,0.1c0.4,0,0.7-0.1,1-0.3c0.5-0.2,0.9-0.4,1.3-0.8c0.3-0.3,0.6-0.7,0.8-1
				c0.3-0.2,0.4-0.5,0.5-0.8c0.2-0.3,0.2-0.7,0.2-1c0-0.2-0.1-0.5-0.1-0.7C393.7,822.7,393.5,822.3,393.1,822z"/>
			<path display="inline" fill="#E2B67A" d="M244.7,884.2c-4.9,0-4.9,7.6,0,7.6C249.6,891.8,249.6,884.2,244.7,884.2z"/>
			<path display="inline" fill="#E2B67A" d="M474,894.3c-0.4-0.2-0.8-0.4-1.3-0.4c-0.4-0.1-0.9-0.1-1.3-0.2
				c-0.9-0.1-1.8-0.3-2.6-0.4c-0.4-0.1-0.7-0.1-1.1,0c-0.3,0.1-0.6,0.3-0.9,0.5c-0.4,0.4-0.6,0.9-0.6,1.5c0,0.5,0.2,1.1,0.6,1.5
				c0.3,0.3,0.6,0.4,0.9,0.5c0.4,0.1,0.7,0.1,1.1,0c0.9-0.1,1.8-0.3,2.6-0.4c0.4-0.1,0.9-0.1,1.3-0.2c0.4-0.1,0.9-0.3,1.3-0.4
				c0.4-0.2,0.8-0.5,0.7-1C474.7,894.8,474.4,894.5,474,894.3z"/>
			<path display="inline" fill="#E2B67A" d="M596.5,936.9c0,0-0.1-0.1-0.1-0.1c-0.1-0.1-0.1-0.1-0.2-0.2c-0.1-0.1-0.2-0.3-0.3-0.4
				c-0.4-0.4-0.9-0.7-1.4-0.9c-0.5-0.3-1.1-0.4-1.7-0.4c-0.6,0-1.2,0.1-1.7,0.4c-0.5,0.2-1,0.5-1.4,0.9c-0.2,0.3-0.5,0.6-0.7,0.9
				c-0.4,0.7-0.6,1.4-0.6,2.2c0.1,0.4,0.1,0.8,0.2,1.2c0.2,0.7,0.6,1.4,1.1,1.9c0.1,0.1,0.3,0.2,0.4,0.3c0.1,0.1,0.1,0.1,0.2,0.2
				c0,0,0.1,0.1,0.1,0.1c0.7,0.6,1,0.9,1.9,1.1c0.8,0.2,1.5,0.2,2.3,0c0.7-0.2,1.3-0.6,1.9-1.1c0.5-0.5,0.9-1.2,1.1-1.9
				c0.2-0.8,0.2-1.5,0-2.3C597.4,938,597,937.6,596.5,936.9z"/>
			<path display="inline" fill="#E2B67A" d="M471.3,990.2C471.3,990.2,471.3,990.2,471.3,990.2c-0.1-0.1-0.1-0.1-0.1-0.2
				c0,0,0,0,0,0c-0.2-0.2-0.5-0.4-0.7-0.5c-0.4-0.2-0.6-0.3-1-0.4c-0.1,0-0.2-0.1-0.4-0.1c-0.6-0.2-1.3-0.2-1.9,0
				c-0.6,0.2-1.1,0.5-1.6,0.9c-0.2,0.2-0.4,0.5-0.6,0.7c-0.3,0.6-0.5,1.2-0.5,1.8c0,0.5,0.1,1,0.3,1.4c0.1,0.4,0.4,0.8,0.7,1.2
				c0.4,0.4,1,0.7,1.6,0.9c0.6,0.2,1.3,0.2,1.9,0c0.1,0,0.2-0.1,0.4-0.1c0.2,0,0.3-0.1,0.6-0.2c0.5-0.2,0.7-0.3,1.1-0.7
				c0.1-0.1,0.2-0.2,0.2-0.3c0.3-0.2,0.6-0.5,0.8-0.8c0.2-0.4,0.4-0.8,0.4-1.3c0-0.5-0.1-0.9-0.4-1.3
				C472,990.7,471.7,990.4,471.3,990.2z"/>
			<path display="inline" fill="#E2B67A" d="M972,393c0.5-0.1,0.9-0.1,1.4-0.2c0.4-0.2,0.8-0.3,1.2-0.5c0.6-0.3,1.1-0.8,1.4-1.3
				c0.3-0.3,0.5-0.7,0.7-1.1c0.3-0.6,0.5-1.3,0.4-2c0-0.7-0.1-1.5-0.2-2.2c-0.2-0.7-0.5-1.2-1-1.7c-0.5-0.5-1-0.8-1.7-1
				c-0.7-0.1-1.5-0.2-2.2-0.2c-0.5,0.1-0.9,0.1-1.4,0.2c-0.4,0.2-0.8,0.3-1.2,0.5c-0.6,0.3-1.1,0.8-1.4,1.3
				c-0.3,0.3-0.5,0.7-0.7,1.1c-0.2,0.4-0.4,0.8-0.4,1.3c-0.1,0.5-0.1,0.9,0,1.4c0,0.5,0.1,0.9,0.4,1.3c0.2,0.6,0.6,1.2,1.1,1.7
				c0.3,0.3,0.7,0.5,1,0.8c0.4,0.2,0.8,0.3,1.2,0.5C971.1,392.9,971.6,392.9,972,393z"/>
			<path display="inline" fill="#E2B67A" d="M1131.4,368.2c-6.3,0-6.3,9.8,0,9.8C1137.7,378.1,1137.8,368.2,1131.4,368.2z"/>
			<path display="inline" fill="#E2B67A" d="M1063.3,368c-0.1-0.1-0.2-0.2-0.2-0.2c-0.2-0.2-0.4-0.4-0.6-0.5
				c-0.3-0.2-0.5-0.2-0.8-0.3c-0.3-0.1-0.6-0.1-0.9-0.2c-0.5-0.1-1-0.1-1.5,0c-0.5,0.1-0.9,0.4-1.3,0.7c-0.1,0.2-0.3,0.4-0.4,0.6
				c-0.3,0.4-0.4,0.9-0.4,1.4c0,0.4,0.1,0.8,0.2,1.1c0.1,0.4,0.3,0.7,0.6,0.9c0.4,0.4,0.8,0.6,1.3,0.7c0.5,0.1,1,0.1,1.5,0
				c0.3-0.1,0.6-0.1,0.9-0.2c0.3-0.1,0.5-0.1,0.8-0.3c0.2-0.1,0.4-0.3,0.6-0.5c0.1-0.1,0.2-0.2,0.2-0.2c0.2-0.2,0.4-0.4,0.4-0.7
				c0.1-0.3,0.2-0.5,0.2-0.8c0-0.2-0.1-0.4-0.1-0.6C1063.8,368.6,1063.6,368.2,1063.3,368z"/>
			<path display="inline" fill="#E2B67A" d="M1213.9,289.5c-4,0-4,6.2,0,6.2C1217.9,295.7,1217.9,289.5,1213.9,289.5z"/>
			<path display="inline" fill="#E2B67A" d="M1142.1,240.2c-0.8-0.7-0.9-0.7-1.9-1.1c0,0-0.1,0-0.1,0c-0.1,0-0.2-0.1-0.2-0.1
				c-0.8-0.2-1.5-0.2-2.3,0c-0.7,0.2-1.4,0.6-1.9,1.1c-0.2,0.3-0.4,0.6-0.7,0.9c-0.4,0.7-0.6,1.4-0.6,2.2c0,0.6,0.1,1.1,0.4,1.6
				c0.2,0.5,0.5,1,0.9,1.4c0.5,0.5,1.2,0.9,1.9,1.1c0.8,0.2,1.5,0.2,2.3,0c0.1,0,0.2-0.1,0.2-0.1c0,0,0.1,0,0.1,0
				c0.9-0.4,1.1-0.4,1.9-1.1c0.4-0.4,0.7-0.8,0.8-1.3c0.3-0.5,0.4-1,0.4-1.6c0-0.4-0.1-0.7-0.1-1.1
				C1143,241.3,1142.6,240.7,1142.1,240.2z"/>
			<path display="inline" fill="#E2B67A" d="M1056.2,263.4c-0.3-0.3-0.7-0.5-1.1-0.6c-0.2-0.1-0.5-0.2-0.7-0.2
				c-0.2-0.1-0.5-0.1-0.7-0.2c-0.5-0.1-1-0.2-1.5-0.3c-0.4-0.1-0.9-0.1-1.3-0.2c-0.4,0.1-0.9,0.1-1.3,0.2c-0.4,0.2-0.8,0.3-1.2,0.5
				c-0.3,0.3-0.7,0.5-1,0.8c-0.3,0.3-0.5,0.7-0.8,1c-0.2,0.4-0.3,0.8-0.5,1.2c-0.1,0.4-0.1,0.9-0.2,1.3c0,0.7,0.1,1.3,0.4,1.9
				c0.1,0.4,0.3,0.8,0.6,1.1c0.2,0.4,0.5,0.7,0.9,0.9c0.3,0.3,0.7,0.5,1.1,0.6c0.4,0.2,0.8,0.3,1.3,0.3c0.4,0.1,0.9,0.1,1.3,0
				c0.5,0,0.9-0.1,1.3-0.3c0.4-0.1,0.8-0.3,1.1-0.6c0.5-0.4,1-0.8,1.3-1.4c0.2-0.5,0.5-1.1,0.7-1.6c0.3-0.7,0.7-1.4,0.9-2.1
				c0.1-0.6,0.1-1.3-0.2-1.9C1056.4,263.7,1056.3,263.5,1056.2,263.4z"/>
			<path display="inline" fill="#E2B67A" d="M922.4,299.8c0-0.1-0.1-0.2-0.1-0.3c-0.2-0.6-0.6-1-1.2-1.2c-0.1,0-0.2-0.1-0.3-0.1
				c0,0-0.1,0-0.1,0c0,0,0,0,0,0c-0.2,0-0.4-0.1-0.7-0.1c-0.2,0-0.4,0.1-0.7,0.1c0,0,0,0,0,0c-0.1,0-0.2,0-0.3,0.1
				c-0.4,0.1-0.8,0.2-1.1,0.2c-0.6,0.2-1.1,0.5-1.5,0.9c-0.4,0.4-0.7,0.9-0.9,1.5c-0.3,1.2,0,2.5,0.9,3.3c0.9,0.9,2.1,1.2,3.3,0.9
				c0.6-0.2,1.1-0.5,1.5-0.9c0.4-0.4,0.7-0.9,0.9-1.5c0.1-0.4,0.2-0.8,0.2-1.1c0-0.1,0-0.2,0.1-0.3c0-0.1,0-0.3,0.1-0.4
				C922.6,300.4,922.6,300.3,922.4,299.8C922.5,299.8,922.5,299.8,922.4,299.8z"/>
			<path display="inline" fill="#E2B67A" d="M834.4,260.5c-0.7-0.7-0.9-0.7-1.8-1.1c-0.4-0.2-0.8-0.4-1.3-0.5
				c-0.9-0.2-1.8-0.4-2.6-0.6c-1.7-0.4-3.7,0-5,1.3c-0.9,1-1.5,2.2-1.5,3.6c0,0.7,0.1,1.4,0.4,2c0.2,0.6,0.6,1.2,1.1,1.6
				c1.3,1.3,3.2,1.7,5,1.3c0.9-0.2,1.8-0.4,2.6-0.6c0.4-0.1,0.9-0.3,1.3-0.5c0.4-0.1,0.7-0.2,1-0.5c0.3-0.2,0.5-0.4,0.8-0.6
				c0.1-0.1,0.1-0.1,0.2-0.2c0.7-0.7,1.1-1.6,1.1-2.6c0-1-0.4-1.9-1.1-2.5C834.5,260.7,834.4,260.6,834.4,260.5z"/>
			<path display="inline" fill="#E2B67A" d="M748.5,209.1c0.3,0.3,0.7,0.5,1.1,0.6c0.6,0.2,1.1,0.2,1.7,0c0.5-0.2,1-0.4,1.4-0.8
				c1-0.8,2-1.7,3-2.5c0.1-0.2,0.2-0.3,0.4-0.5c0.2-0.3,0.3-0.5,0.3-0.8c0.1-0.2,0.1-0.4,0-0.6c0-0.3-0.1-0.6-0.3-0.8
				c-0.2-0.3-0.5-0.6-0.8-0.8c-0.5-0.3-1.2-0.4-1.8-0.2c-1.3,0.3-2.6,0.7-3.9,1c-1,0.3-2,1.2-2.2,2.2c-0.2,0.8-0.1,1.7,0.3,2.4
				C747.9,208.6,748.2,208.9,748.5,209.1z"/>
			<path display="inline" fill="#E2B67A" d="M928.4,225.4C928.4,225.4,928.4,225.4,928.4,225.4C928.4,225.4,928.4,225.4,928.4,225.4
				c-0.1-0.1-0.2-0.2-0.2-0.2c-0.1-0.1-0.2-0.1-0.2-0.2c-0.2-0.2-0.5-0.4-0.8-0.5c-0.3-0.2-0.6-0.2-1-0.2c-0.2,0-0.4,0.1-0.7,0.1
				c-0.4,0.1-0.8,0.3-1.1,0.6c-0.4,0.3-0.7,0.6-0.9,1c-0.1,0.3-0.2,0.5-0.3,0.8c-0.1,0.3-0.1,0.6-0.1,0.9c0,0.3,0.1,0.6,0.1,0.8
				c0,0,0,0,0,0.1c0,0.1,0,0.1,0,0.2c0,0.1,0.1,0.3,0.1,0.4c0.1,0.2,0.2,0.5,0.3,0.7c0.2,0.3,0.4,0.6,0.8,0.8
				c0.2,0.2,0.4,0.3,0.7,0.4c0.4,0.2,0.7,0.3,1.2,0.3c0.3,0,0.5-0.1,0.8-0.1c0.2-0.1,0.5-0.2,0.7-0.3c0.3-0.2,0.6-0.4,0.8-0.8
				c0.3-0.3,0.4-0.6,0.5-1c0-0.1,0.1-0.3,0.1-0.4c0-0.1,0-0.1,0-0.2c0.1-0.3,0.1-0.6,0.1-0.9c0-0.5-0.2-1.2-0.4-1.6
				C928.8,225.9,928.6,225.6,928.4,225.4z"/>
			<path display="inline" fill="#E2B67A" d="M1249.4,175.9c-0.4,0.4-0.7,0.8-0.8,1.3c-0.3,0.5-0.4,1-0.4,1.6c0,0.4,0.1,0.7,0.1,1.1
				c0.2,0.7,0.5,1.3,1.1,1.8c0.3,0.2,0.6,0.4,0.8,0.6c0.6,0.4,1.3,0.6,2.1,0.6c0.6,0,1.1-0.1,1.6-0.4c0.5-0.2,0.9-0.4,1.3-0.8
				c0.4-0.4,0.7-0.8,0.8-1.3c0.3-0.5,0.4-1,0.4-1.6c0-0.4-0.1-0.7-0.1-1.1c-0.2-0.7-0.5-1.3-1.1-1.8c-0.3-0.2-0.6-0.4-0.8-0.6
				c-0.6-0.4-1.3-0.6-2.1-0.6c-0.6,0-1.1,0.1-1.6,0.4C1250.2,175.2,1249.8,175.5,1249.4,175.9z"/>
			<path display="inline" fill="#E2B67A" d="M1159,142.7c-0.3-0.1-0.7-0.1-1,0c-0.6,0.2-1.1,0.4-1.7,0.7c-0.5,0.1-0.9,0.4-1.2,0.7
				c-0.3,0.3-0.6,0.7-0.7,1.2c-0.3,0.9,0,2,0.7,2.7c0.7,0.7,1.7,1,2.7,0.7c0.5-0.1,0.9-0.4,1.2-0.7c0.3-0.3,0.6-0.7,0.7-1.2
				c0.2-0.6,0.4-1.1,0.7-1.7c0.1-0.3,0.1-0.7,0-1c-0.1-0.3-0.3-0.6-0.5-0.9C1159.6,142.9,1159.3,142.8,1159,142.7z"/>
			<path display="inline" fill="#E2B67A" d="M1249.1,99.8c0.5-0.1,0.9-0.6,1.1-1.1c0.1-0.2,0.1-0.4,0.2-0.6c0.1-0.2,0.1-0.5,0.1-0.7
				c0.2-0.2,0.3-0.5,0.5-0.7c0.1-0.2,0.1-0.4-0.1-0.6c-0.1-0.1-0.4-0.2-0.6-0.1c-0.2,0.2-0.5,0.3-0.7,0.5c-0.1,0-0.1-0.1-0.2,0
				c-0.1,0-0.1,0-0.2,0c-0.1,0-0.2,0.1-0.3,0.1c-0.2,0.1-0.4,0.1-0.6,0.2c-0.5,0.1-0.9,0.6-1.1,1.1c-0.1,0.5,0,1.1,0.4,1.5
				C1248,99.8,1248.5,100,1249.1,99.8z"/>
			<path display="inline" fill="#E2B67A" d="M1480.5,202.4c-0.3-0.5-0.6-0.9-1.1-1.2c-0.4-0.4-0.9-0.6-1.5-0.8
				c-0.3-0.1-0.6-0.1-0.9-0.2c-0.8-0.2-1.6-0.2-2.4,0c-0.8,0.2-1.4,0.6-2,1.2c-0.2,0.3-0.5,0.6-0.7,0.9c-0.4,0.7-0.6,1.5-0.6,2.3
				c0,0.6,0.1,1.2,0.4,1.7c0.2,0.6,0.5,1,0.9,1.5c0.6,0.6,1.2,0.9,2,1.2c0.8,0.2,1.6,0.2,2.4,0c0.3-0.1,0.6-0.1,0.9-0.2
				c0.3-0.1,0.7-0.3,1-0.4c0.5-0.3,0.9-0.6,1.2-1.1c0.3-0.3,0.5-0.6,0.6-1c0.3-0.5,0.4-1.1,0.4-1.7c-0.1-0.4-0.1-0.8-0.2-1.2
				C1480.8,203.1,1480.6,202.8,1480.5,202.4z"/>
			<path display="inline" fill="#E2B67A" d="M1468.2,135c0-0.3-0.1-0.7-0.1-1c-0.2-0.6-0.5-1.2-1-1.7c-0.2-0.2-0.4-0.5-0.6-0.7
				c-0.3-0.3-0.7-0.5-1-0.8c-0.4-0.2-0.8-0.3-1.2-0.5c-0.6-0.2-1.3-0.2-1.9-0.1c-0.4,0-0.8,0.1-1.2,0.3c-0.4,0.1-0.8,0.3-1.1,0.6
				c-0.4,0.2-0.7,0.5-0.9,0.9c-0.3,0.3-0.5,0.7-0.6,1.1c-0.3,0.6-0.4,1.2-0.4,1.9c0.1,0.4,0.1,0.9,0.2,1.3c0.2,0.4,0.3,0.8,0.5,1.2
				c0.3,0.3,0.5,0.7,0.8,1c0.3,0.3,0.7,0.5,1,0.8c0.4,0.2,0.8,0.3,1.2,0.5c0.6,0.2,1.3,0.2,1.9,0.1c0.4,0,0.8-0.1,1.2-0.3
				c0.6-0.2,1.1-0.5,1.6-1c0.2-0.2,0.4-0.5,0.6-0.7c0.4-0.3,0.6-0.8,0.8-1.2C1468.1,136,1468.2,135.5,1468.2,135z"/>
			<path display="inline" fill="#E2B67A" d="M1577.6,93.7c-0.3-0.2-0.5-0.4-0.8-0.6c-0.6-0.4-1.3-0.5-2-0.6c-0.6,0-1.1,0.1-1.6,0.3
				c-0.5,0.2-0.9,0.4-1.3,0.8c-0.4,0.4-0.7,0.8-0.8,1.3c-0.3,0.5-0.4,1-0.3,1.6c0,0.4,0.1,0.7,0.1,1.1c0.2,0.7,0.5,1.3,1,1.8
				c0.3,0.2,0.5,0.4,0.8,0.6c0.6,0.4,1.3,0.5,2,0.6c0.6,0,1.1-0.1,1.6-0.3c0.5-0.2,0.9-0.4,1.3-0.8c0.4-0.4,0.7-0.8,0.8-1.3
				c0.3-0.5,0.4-1,0.3-1.6c0-0.4-0.1-0.7-0.1-1.1C1578.5,94.8,1578.1,94.2,1577.6,93.7z"/>
			<path display="inline" fill="#E2B67A" d="M1565.6,198.3c-5.7,0-5.7,8.9,0,8.9C1571.3,207.2,1571.4,198.3,1565.6,198.3z"/>
			<path display="inline" fill="#E2B67A" d="M1497.9,340.1c-0.2-0.2-0.4-0.3-0.6-0.5c-0.5-0.3-1-0.4-1.6-0.4c-0.1,0-0.3,0-0.4,0
				c-0.5,0-0.9,0.1-1.4,0.2c-0.3,0.1-0.8,0.3-1.1,0.5c-0.1,0-0.2,0.1-0.2,0.1c-0.2,0.1-0.3,0.2-0.5,0.2c-0.6,0.4-1.1,0.9-1.5,1.5
				c-0.4,0.7-0.6,1.4-0.6,2.1c0.1,0.4,0.1,0.7,0.2,1.1c0.2,0.7,0.6,1.3,1.1,1.9c0.4,0.4,0.8,0.7,1.4,0.9c0.5,0.3,1,0.4,1.6,0.4
				c0.8,0,1.5-0.2,2.1-0.6c0.6-0.4,1.1-0.9,1.5-1.5c0.1-0.2,0.2-0.3,0.2-0.5c0-0.1,0.1-0.2,0.1-0.2c0.2-0.4,0.4-0.8,0.5-1.1
				c0.1-0.4,0.1-0.9,0.2-1.4c0-0.1,0-0.3,0-0.4c0-0.4-0.1-0.8-0.3-1.2C1498.4,340.7,1498.2,340.4,1497.9,340.1z"/>
			<path display="inline" fill="#E2B67A" d="M1660.1,136.8c-0.4-0.3-0.9-0.6-1.3-0.9c-0.5-0.3-1-0.4-1.6-0.4c-0.6,0-1.1,0.1-1.6,0.4
				c-1,0.6-1.6,1.6-1.6,2.7c0,1.1,0.6,2.2,1.6,2.7c0.5,0.3,1,0.4,1.6,0.4c0.6,0,1.1-0.1,1.6-0.4c0.4-0.3,0.9-0.6,1.3-0.9
				c0.3-0.2,0.6-0.4,0.8-0.8c0.2-0.3,0.3-0.7,0.3-1.1c0-0.4-0.1-0.7-0.3-1.1C1660.7,137.3,1660.4,137,1660.1,136.8z"/>
			<path display="inline" fill="#E2B67A" d="M3325.1,359.8c0,0,0-0.1,0-0.1c0,0,0-0.1,0-0.1c-0.2-0.4-0.3-0.7-0.5-1.1
				c0-0.1-0.1-0.2-0.2-0.2c-0.3-0.4-0.5-0.8-0.9-1.2c-0.4-0.4-0.8-0.7-1.3-0.8c-0.5-0.3-1-0.4-1.6-0.3c-0.4,0-0.7,0.1-1.1,0.1
				c-0.7,0.2-1.3,0.5-1.8,1c-0.1,0.1-0.2,0.3-0.3,0.4c-0.1,0.1-0.2,0.3-0.3,0.5c0,0,0,0.1-0.1,0.1c0,0.1-0.1,0.1-0.1,0.2
				c-0.3,0.5-0.5,1-0.7,1.5c-0.1,0.4-0.2,0.7-0.3,1.1c-0.2,0.9-0.2,1.7,0,2.6c0.2,0.8,0.6,1.5,1.3,2.1c0.3,0.3,0.7,0.5,1,0.8
				c0.8,0.4,1.6,0.7,2.5,0.7c0.7,0,1.3-0.1,1.9-0.4c0.6-0.2,1.1-0.5,1.6-1c1.2-1.2,1.7-3,1.3-4.7
				C3325.3,360.5,3325.2,360.1,3325.1,359.8z"/>
			<path display="inline" fill="#E2B67A" d="M3347.2,206.6c-0.4-0.5-0.9-0.9-1.3-1.4c-0.3-0.2-0.6-0.5-0.9-0.7
				c-0.4-0.1-0.7-0.3-1-0.4c-0.6-0.2-1.2-0.2-1.8-0.1c-0.4,0-0.8,0.1-1.1,0.3c-0.4,0.1-0.7,0.3-1,0.6c-0.3,0.2-0.6,0.5-0.8,0.8
				c-0.3,0.3-0.5,0.6-0.6,1c-0.3,0.5-0.4,1.1-0.4,1.7c0.1,0.4,0.1,0.8,0.2,1.2c0.1,0.3,0.3,0.7,0.4,1c0.2,0.3,0.5,0.6,0.7,0.9
				c0.3,0.2,0.6,0.5,0.9,0.7c0.3,0.1,0.7,0.3,1,0.4c0.6,0.2,1.2,0.2,1.8,0.1c0.4,0,0.8-0.1,1.1-0.3c0.5-0.2,1-0.5,1.4-0.9
				c0.4-0.5,0.9-0.9,1.3-1.4c0.2-0.2,0.4-0.5,0.5-0.8c0.2-0.3,0.2-0.6,0.2-0.9c0-0.2-0.1-0.4-0.1-0.6
				C3347.7,207.2,3347.5,206.9,3347.2,206.6z"/>
			<path display="inline" fill="#E2B67A" d="M3249.2,200.1c-0.1-0.1-0.2-0.2-0.3-0.4c-0.2-0.2-0.3-0.3-0.6-0.5
				c-0.2-0.2-0.5-0.4-0.7-0.5c-0.3-0.2-0.7-0.4-1-0.7c-0.9-0.5-1.8-0.7-2.8-0.8c-1,0-1.9,0.3-2.8,0.8c-1.7,1-2.7,2.8-2.7,4.8
				c0,1.9,1.1,3.8,2.7,4.8c0.9,0.5,1.8,0.7,2.8,0.8c1,0,1.9-0.3,2.8-0.8c0.3-0.2,0.7-0.4,1-0.7c0.5-0.3,0.9-0.6,1.3-1
				c0.1-0.1,0.2-0.2,0.3-0.4c0.4-0.3,0.6-0.8,0.8-1.2c0.2-0.5,0.3-0.9,0.3-1.5c0-0.3-0.1-0.7-0.1-1
				C3250,201.1,3249.7,200.6,3249.2,200.1z"/>
			<path display="inline" fill="#E2B67A" d="M3285.9,112.7c0.9-0.2,1.7-0.5,2.6-0.7c0.4-0.1,0.9-0.2,1.3-0.3
				c0.6-0.2,1.1-0.4,1.6-0.7c1.2-0.6,1.2-2.6,0-3.2c-0.5-0.3-1.1-0.5-1.6-0.7c-0.4-0.1-0.9-0.2-1.3-0.3c-0.9-0.2-1.7-0.5-2.6-0.7
				c-2.2-0.6-4.4,1.1-4.4,3.3c0,0.9,0.4,1.8,1,2.4C3283.4,112.7,3284.7,113,3285.9,112.7z"/>
			<path display="inline" fill="#E2B67A" d="M3281.2,508.8c-0.2-0.2-0.5-0.4-0.8-0.5c-0.3-0.2-0.6-0.2-0.9-0.2
				c-0.7,0-1.3,0.3-1.7,0.7c0,0,0,0,0,0c-0.2,0.2-0.4,0.5-0.5,0.8c-0.2,0.3-0.2,0.6-0.2,1c0,0.2,0.1,0.4,0.1,0.7
				c0.1,0.4,0.3,0.8,0.6,1.1c0.2,0.3,0.5,0.4,0.8,0.5c0.1,0.2,0.2,0.5,0.4,0.7c0.2,0.5,1,0.5,1.2,0c0.1-0.2,0.2-0.5,0.4-0.7
				c0.3-0.1,0.6-0.3,0.8-0.5c0.2-0.2,0.4-0.5,0.5-0.8c0.2-0.3,0.2-0.6,0.2-1C3282,510,3281.8,509.3,3281.2,508.8
				C3281.3,508.9,3281.3,508.8,3281.2,508.8z"/>
			<path display="inline" fill="#E2B67A" d="M3291.3,789.9c-0.1-0.4-0.3-0.9-0.4-1.3c-0.2-0.6-0.5-1.2-0.8-1.8
				c-0.4-0.8-1.4-1.3-2.3-1.3s-1.9,0.5-2.3,1.3c-0.3,0.6-0.6,1.2-0.8,1.8c-0.1,0.4-0.3,0.9-0.4,1.3c-0.4,1.2,0,2.7,0.9,3.5
				c0.2,0.2,0.5,0.4,0.7,0.6c0.6,0.3,1.2,0.5,1.8,0.5c0.5,0,1-0.1,1.4-0.3c0.5-0.1,0.8-0.4,1.2-0.8c0.5-0.5,0.8-1,0.9-1.6
				C3291.4,791.2,3291.4,790.6,3291.3,789.9z"/>
			<path display="inline" fill="#E2B67A" d="M3198.8,920c0.1,0.8,0.1,1.6,0.2,2.4c-0.1,1.5,1.1,2.2,2.2,2.1c1.2,0.1,2.3-0.6,2.2-2.1
				c0.1-0.8,0.1-1.6,0.2-2.4C3203.8,916.9,3198.6,916.9,3198.8,920z"/>
		</g>
	</g>
</g>
</svg>
