<?xml version="1.0" encoding="utf-8"?>
<!-- Generator: Adobe Illustrator 26.1.0, SVG Export Plug-In . SVG Version: 6.00 Build 0)  -->
<svg version="1.1" id="Layer_1" xmlns="http://www.w3.org/2000/svg" xmlns:xlink="http://www.w3.org/1999/xlink" x="0px" y="0px"
	 viewBox="0 0 1412.43 849.7" style="enable-background:new 0 0 1412.43 849.7;" xml:space="preserve">
<style type="text/css">
	.st0{fill:#FEDFB3;}
</style>
<g>
	<path class="st0" d="M1387.28,19.35h-131.04c-16.79,0-26.89,7.14-30.24,19.64l-129.89,418.07L966.21,39
		c-3.38-12.5-13.45-19.64-30.23-19.64H827.37c-20.17,0-29.15,8.92-23.55,25.01l35.46,102.89L735.52,457.07L605.62,39
		c-3.37-12.5-13.44-19.64-30.23-19.64H448.28c17.94,0,28,8.03,28,22.32v580.64c0,14.28-10.07,22.34-28,22.34h347.71
		c15.67,0,26.88-5.36,31.38-18.75l88.53-256.43l88.39,256.43c4.46,13.39,15.68,18.75,31.35,18.75h143.34
		c15.68,0,26.89-5.36,31.36-18.75l200.46-581.53C1416.37,28.27,1407.44,19.35,1387.28,19.35z M329.57,630.34L61.94,296.27v326.04
		c0,14.28-10.07,22.34-28.01,22.34H364.3C349.74,644.65,337.41,640.17,329.57,630.34z M-5.25,19.35c14.56,0,26.89,4.45,34.7,14.28
		l267.66,334.1V41.67c0-14.28,10.07-22.32,28-22.32H-5.25z"/>
</g>
<g>
	<path class="st0" d="M39.07,726.5v11.32c4.86-4.51,9.62-7.88,14.27-10.14c4.65-2.25,9.18-3.38,13.59-3.38
		c5.9,0,10.89,1.76,14.96,5.29c3.08,2.66,5.14,5.96,6.2,9.89s1.59,10.35,1.59,19.26l-0.12,37.7l0.19,18.97H58.08l0.21-22.63
		l0.16-16.61l-0.06-25.08c-0.04-5.81-0.09-9.27-0.16-10.38s-0.26-2.1-0.59-2.97c-0.66-1.74-2.1-2.61-4.3-2.61
		c-2.04,0-4.24,0.76-6.61,2.28c-2.37,1.52-4.92,3.8-7.67,6.84L39,747.58l-0.12,22.88l-0.12,17.51l0.19,23.94l0.06,3.5H7.15
		l0.19-31.92l0.19-21.09l-0.19-18.24L7.15,726.5H39.07z"/>
	<path class="st0" d="M134.56,724.3c6.69,0,13.03,2.42,19.01,7.25c5.53,4.45,9.75,10.53,12.65,18.24
		c2.58,6.78,3.86,13.98,3.86,21.58c0,5.21-0.76,10.45-2.28,15.71c-1.52,5.27-3.58,9.93-6.2,14c-3.66,5.59-8.13,9.8-13.4,12.62
		c-4.32,2.33-8.83,3.5-13.53,3.5c-7.85,0-14.92-3.04-21.19-9.12c-4.9-4.67-8.62-10.67-11.16-17.99c-2.12-6.19-3.18-12.73-3.18-19.62
		c0-13.46,3.74-24.64,11.22-33.54C117.4,728.67,125.46,724.46,134.56,724.3z M132.76,729.51l-0.19,82.15
		c1.29,0.11,2.18,0.16,2.68,0.16c5.78,0,11.3-2.12,16.58-6.36c5.07-4.13,8.87-9.62,11.41-16.46c1.99-5.43,2.99-11.41,2.99-17.93
		c0-13.09-3.7-23.72-11.1-31.87c-5.98-6.57-12.49-9.86-19.51-9.86C135.04,729.35,134.09,729.4,132.76,729.51z"/>
	<path class="st0" d="M261.96,770.99c4.48-12.2,8.89-25.75,13.24-40.66c1.04-3.58,1.75-5.75,2.15-6.51
		c0.39-0.76,0.97-1.14,1.71-1.14c0.79,0,1.47,0.31,2.06,0.94c0.58,0.62,0.87,1.34,0.87,2.16c0,0.76-0.22,1.85-0.65,3.26
		c-0.44,1.41-1.98,5.92-4.64,13.52l-7.91,22.55l-7.22,20.35l-5.92,17.02l-6.23,18.65l-23.59-52.97c-1.58,3.42-3.67,8.27-6.29,14.57
		l-15.82,38.4l-11.67-29.23l-8.92-22.15l-7.67-19.21l-9.67-24.02h35.39l17.91,45.72c3.45-7.56,5.84-12.95,7.18-16.16
		c1.33-3.21,6.14-15.13,14.42-35.75L261.96,770.99z"/>
	<path class="st0" d="M314.84,724.3c6.69,0,13.03,2.42,19.01,7.25c5.53,4.45,9.75,10.53,12.65,18.24
		c2.58,6.78,3.87,13.98,3.87,21.58c0,5.21-0.76,10.45-2.28,15.71c-1.52,5.27-3.59,9.93-6.2,14c-3.66,5.59-8.13,9.8-13.4,12.62
		c-4.32,2.33-8.83,3.5-13.53,3.5c-7.85,0-14.92-3.04-21.19-9.12c-4.9-4.67-8.62-10.67-11.16-17.99c-2.12-6.19-3.18-12.73-3.18-19.62
		c0-13.46,3.74-24.64,11.22-33.54C297.68,728.67,305.74,724.46,314.84,724.3z M313.03,729.51l-0.19,82.15
		c1.29,0.11,2.18,0.16,2.68,0.16c5.78,0,11.3-2.12,16.58-6.36c5.07-4.13,8.87-9.62,11.41-16.46c1.99-5.43,2.99-11.41,2.99-17.93
		c0-13.09-3.7-23.72-11.1-31.87c-5.98-6.57-12.49-9.86-19.51-9.86C315.32,729.35,314.36,729.4,313.03,729.51z"/>
	<path class="st0" d="M389.46,744.17v54.39l-0.06,5.21c0,3.37,0.32,5.6,0.97,6.72s1.94,1.67,3.9,1.67c4.9,0,9.72-1.97,14.46-5.9
		s8.6-9.21,11.59-15.84c0.91-2.01,1.81-3.01,2.68-3.01c0.62,0,1.19,0.37,1.71,1.1c0.52,0.73,0.78,1.51,0.78,2.32
		c0,1.95-1.21,4.71-3.62,8.26c-2.41,3.56-5.22,6.74-8.42,9.57c-6.52,5.7-13.51,8.55-20.94,8.55c-10.18,0-18.6-4.13-25.25-12.38
		c-7.56-9.28-11.35-20.65-11.35-34.11c0-13.9,3.99-25.46,11.97-34.68c6.69-7.82,14.94-11.72,24.75-11.72
		c7.81,0,14.65,2.42,20.51,7.25c2.49,2.06,4.53,4.27,6.11,6.64c1.58,2.36,2.37,4.36,2.37,5.98c0,0.81-0.23,1.51-0.69,2.08
		c-0.46,0.57-1.02,0.85-1.68,0.85c-0.87,0-1.97-1.3-3.3-3.91c-1.91-3.64-4.92-6.8-9.04-9.49c-4.11-2.69-8-4.03-11.66-4.03
		c-2.45,0-4.03,0.9-4.74,2.69C389.81,734.15,389.46,738.09,389.46,744.17z"/>
	<path class="st0" d="M507.77,726.5l-35.38,70.43l-5.17,10.75l-1,2.2h7.91c8.68,0,17.34-0.52,25.97-1.55
		c1.16-0.11,2.08-0.16,2.74-0.16c2.08,0,3.12,1.3,3.12,3.91c0,2.55-1.37,3.83-4.11,3.83l-3.74-0.08l-32.6-0.41h-40.46
		c8.43-14.6,19.26-35.72,32.47-63.34l8.29-17.26l1.56-3.26l-6.61-0.08c-9.14,0-16.66,0.33-22.56,0.98
		c-1.25,0.16-2.24,0.24-2.99,0.24c-1.95,0-2.93-1.11-2.93-3.34c0-1.47,0.26-2.46,0.78-2.97c0.52-0.52,1.46-0.77,2.84-0.77l2.18,0.08
		l39.58,0.81H507.77z"/>
	<path class="st0" d="M540.68,773.56v25.24c0,4.89,0.23,7.98,0.69,9.28c0.87,2.5,2.93,3.75,6.17,3.75c4.82,0,9.59-1.72,14.31-5.17
		c4.72-3.45,8.8-8.21,12.25-14.29c1.12-2.01,1.93-3.28,2.43-3.83c0.5-0.54,1.04-0.81,1.62-0.81c0.71,0,1.29,0.34,1.75,1.02
		c0.46,0.68,0.69,1.53,0.69,2.56c0,2.28-1.39,5.35-4.18,9.2c-3.66,4.94-8.2,8.96-13.62,12.05c-5.42,3.09-10.71,4.64-15.86,4.64
		c-8.85,0-16.66-3.88-23.44-11.64c-3.95-4.56-6.98-10.18-9.1-16.85c-1.87-5.86-2.81-11.72-2.81-17.59c0-5.65,0.83-11.3,2.49-16.98
		s3.95-10.57,6.86-14.7c3.37-4.83,7.36-8.58,11.97-11.24c4.53-2.61,9.27-3.91,14.21-3.91c7.69,0,14.65,2.96,20.88,8.87
		c9.72,9.23,14.55,22.61,14.46,40.14h-14.52l-18.7,0.08L540.68,773.56z M556.64,768.18v-23.72c-0.08-5.09-0.17-8.14-0.25-9.14
		c-0.08-1-0.37-1.94-0.87-2.8c-1.16-2.11-3.53-3.17-7.11-3.17c-3.66,0-5.94,1.22-6.86,3.66c-0.58,1.46-0.87,5.28-0.87,11.46v23.72
		l7.6,0.33L556.64,768.18z"/>
	<path class="st0" d="M591.11,800.34c0.83,0,1.89,0.82,3.18,2.46c2.08,2.57,5.03,4.77,8.85,6.6c3.82,1.83,7.4,2.75,10.72,2.75
		c1.54,0,2.69-0.34,3.46-1.02c0.77-0.68,1.15-1.68,1.15-2.99s-0.53-2.88-1.59-4.72c-1.06-1.83-3.42-5.33-7.07-10.48
		c-8.93-12.48-14.72-21.26-17.36-26.34c-2.64-5.08-3.96-9.95-3.96-14.61c0-4.07,0.9-7.96,2.71-11.68c1.81-3.72,4.33-6.88,7.57-9.48
		c5.36-4.34,11.51-6.51,18.45-6.51c5.11,0,10.51,1.41,16.21,4.23c4.45,2.23,6.67,4.64,6.67,7.25c0,0.81-0.26,1.55-0.78,2.2
		c-0.52,0.65-1.11,0.98-1.78,0.98c-0.79,0-2.26-1-4.43-3.01c-4.41-4.13-9.2-6.19-14.4-6.19c-1.83,0-3.21,0.38-4.15,1.14
		c-0.94,0.76-1.4,1.93-1.4,3.5c0,1.85,0.86,4.18,2.59,7c1.72,2.82,5.23,7.6,10.5,14.33c5.15,6.57,8.43,10.87,9.82,12.9
		c1.39,2.04,2.73,4.38,4.02,7.04c2.2,4.56,3.3,9.5,3.3,14.82c0,8.36-3.1,15.12-9.29,20.27c-5.07,4.29-11.3,6.43-18.7,6.43
		c-8.23,0-15.52-2.39-21.88-7.16c-1.87-1.47-3.15-2.66-3.83-3.58c-0.69-0.92-1.03-1.93-1.03-3.01
		C588.68,801.43,589.49,800.4,591.11,800.34z"/>
	<path class="st0" d="M685.55,726.5v11.32c4.86-4.51,9.62-7.88,14.27-10.14c4.65-2.25,9.18-3.38,13.59-3.38
		c5.9,0,10.89,1.76,14.96,5.29c3.08,2.66,5.14,5.96,6.2,9.89c1.06,3.94,1.59,10.35,1.59,19.26l-0.12,37.7l0.19,18.97h-31.67
		l0.21-22.63l0.16-16.61l-0.06-25.08c-0.04-5.81-0.09-9.27-0.16-10.38c-0.06-1.11-0.26-2.1-0.59-2.97c-0.66-1.74-2.1-2.61-4.3-2.61
		c-2.04,0-4.24,0.76-6.61,2.28s-4.92,3.8-7.67,6.84l-0.06,3.34l-0.12,22.88l-0.12,17.51l0.19,23.94l0.06,3.5h-31.85l0.19-31.92
		l0.19-21.09l-0.19-18.24l-0.19-17.67H685.55z"/>
	<path class="st0" d="M794.14,761.18v-9.93c-0.04-6.89-0.13-11.13-0.25-12.7c-0.12-1.57-0.5-2.99-1.12-4.23
		c-1.5-3.04-5-4.56-10.49-4.56c-8.49,0-15.05,3.47-19.67,10.42c-1.87,2.82-3.45,4.23-4.74,4.23c-0.96,0-1.79-0.43-2.5-1.3
		c-0.71-0.87-1.06-1.87-1.06-3.01c0-3.42,3.1-6.95,9.29-10.58c5.9-3.47,13.53-5.21,22.88-5.21c15.38,0,26.22,3.04,32.54,9.12
		c2.74,2.66,4.53,5.65,5.36,8.96c0.83,3.31,1.25,9.15,1.25,17.51v32.32c-0.17,5.97-0.03,10.46,0.41,13.47
		c0.44,3.01,1.42,6.26,2.96,9.73h-34.91v-8.55c-3.82,3.42-7.62,6-11.38,7.73c-3.76,1.74-7.47,2.61-11.13,2.61
		c-6.19,0-11.7-2.36-16.52-7.08c-6.28-6.19-9.41-14.22-9.41-24.1c0-8.74,2.54-15.8,7.62-21.17c5.91-6.35,13.23-9.53,21.97-9.53
		c3.58,0,6.74,0.42,9.49,1.26C787.46,757.42,790.61,758.96,794.14,761.18z M794.14,767.04c-5.24-3.42-9.29-5.13-12.16-5.13
		c-2.41,0-3.99,1.25-4.74,3.75c-0.42,1.36-0.62,5.29-0.62,11.81v19.46c0.04,4.29,0.15,6.89,0.31,7.82c0.42,2.5,1.83,3.75,4.24,3.75
		c1.91,0,4.04-0.75,6.39-2.24c2.35-1.49,4.5-3.46,6.45-5.9L794.14,767.04z"/>
	<path class="st0" d="M957.19,770.99c4.47-12.2,8.89-25.75,13.24-40.66c1.04-3.58,1.75-5.75,2.15-6.51
		c0.39-0.76,0.97-1.14,1.71-1.14c0.79,0,1.47,0.31,2.06,0.94c0.58,0.62,0.87,1.34,0.87,2.16c0,0.76-0.22,1.85-0.65,3.26
		c-0.44,1.41-1.98,5.92-4.64,13.52l-7.91,22.55l-7.22,20.35l-5.92,17.02l-6.23,18.65l-23.59-52.97c-1.58,3.42-3.67,8.27-6.29,14.57
		l-15.82,38.4l-11.67-29.23l-8.92-22.15l-7.67-19.21l-9.67-24.02h35.39l17.91,45.72c3.45-7.56,5.85-12.95,7.18-16.16
		c1.33-3.21,6.14-15.13,14.42-35.75L957.19,770.99z"/>
	<path class="st0" d="M1014.06,726.5v2.36l-0.12,12.7l-0.12,19.7l-0.19,29.96l0.25,16.85l0.12,7.33h-32.04l0.31-29.96l0.19-26.46
		l-0.12-13.92l-0.19-15.47l0.06-3.09H1014.06z M997.92,698c10.97,0,16.46,3.75,16.46,11.24c0,3.64-1.44,6.47-4.33,8.51
		c-2.89,2.04-6.95,3.05-12.19,3.05c-10.43,0-15.65-3.85-15.65-11.56C982.21,701.85,987.45,698.11,997.92,698z"/>
	<path class="st0" d="M1063.19,697.84l-0.69,26.3l-0.06,2.52c3.62,0,6.9-0.19,9.85-0.57c0.5-0.05,0.94-0.08,1.31-0.08
		c1.83,0,2.74,1.1,2.74,3.3c0,2.04-0.96,3.05-2.87,3.05c-0.58,0-1.31-0.05-2.18-0.16c-3.28-0.33-5.63-0.49-7.04-0.49h-1.81
		l-0.06,15.77l0.21,31.63l0.16,16.92c0,3.96,0.23,6.73,0.69,8.3s1.25,2.36,2.38,2.36c1.5,0,3.11-1.14,4.82-3.42
		c1.67-2.28,2.99-5.08,3.95-8.39c0.87-3.15,1.91-4.72,3.12-4.72c1.41,0,2.12,1.03,2.12,3.09s-0.71,4.63-2.12,7.69
		s-3.12,5.74-5.11,8.02c-4.9,5.59-11.26,8.39-19.07,8.39c-7.36,0-13.05-2.9-17.08-8.71c-2.08-2.93-3.51-6.19-4.3-9.8
		c-0.79-3.61-1.18-8.61-1.18-15.01v-6.1l0.06-17.16v-29.12c-0.58-0.05-1-0.08-1.25-0.08c-0.42,0-1.25,0.05-2.49,0.16
		c-1.04,0.11-1.91,0.16-2.62,0.16c-2.04,0-3.05-1.02-3.05-3.06c0-1.98,0.98-2.97,2.93-2.97c0.91,0,1.56,0.03,1.93,0.08l4.55,0.41
		v-9.2C1043.32,711.16,1054.04,704.79,1063.19,697.84z"/>
	<path class="st0" d="M1115.98,751.74l-0.12,31.26l0.25,32.4h-32.04l0.07-4.48l0.08-16.61l0.22-29.88l-0.3-33.22l-0.07-4.72h31.98
		v16.77c4.77-6.62,8.09-10.8,9.95-12.54c4.31-3.96,8.38-5.94,12.19-5.94c2.32,0,4.24,0.65,5.75,1.95c1.51,1.3,2.27,2.96,2.27,4.97
		c0,1.57-0.46,2.88-1.37,3.91c-0.91,1.03-2.05,1.55-3.42,1.55c-0.87,0-1.85-0.33-2.92-0.98c-1.83-1.14-3.34-1.71-4.54-1.71
		c-2.99,0-5.87,1.33-8.65,3.99C1122.54,741.13,1119.43,745.55,1115.98,751.74z"/>
	<path class="st0" d="M1203.35,767.07c8.16-16.22,14.1-28.54,17.82-36.97c1.33-2.88,2.16-4.57,2.49-5.06
		c0.33-0.49,0.81-0.74,1.43-0.74c0.83,0,1.58,0.41,2.24,1.22c0.66,0.81,1,1.74,1,2.77c0,0.81-0.35,1.79-1.06,2.93
		c-5.98,10.64-13.56,25.08-22.74,43.33l-10.96,21.91c-3.78,7.49-6.9,12.89-9.35,16.2c-1.83,2.33-4.01,4.22-6.52,5.69
		c-2.52,1.46-4.94,2.19-7.27,2.19c-2.29,0-4.17-0.58-5.65-1.75c-1.48-1.17-2.21-2.65-2.21-4.44c0-1.14,0.33-2.12,1-2.93
		c0.66-0.81,1.48-1.22,2.43-1.22c0.71,0,2.08,0.62,4.11,1.87c1.33,0.81,2.47,1.22,3.43,1.22c1.87,0,3.65-0.75,5.33-2.24
		c1.68-1.49,3.52-3.95,5.52-7.37l-7.36-15.06c-15.83-32.13-26.41-52.84-31.73-62.12h39.61c2.49,7.12,5.36,14.23,8.6,21.35
		C1196.74,754.96,1200.02,761.37,1203.35,767.07z"/>
	<path class="st0" d="M1264.91,726.5v11.32c4.86-4.51,9.62-7.88,14.27-10.14c4.65-2.25,9.18-3.38,13.59-3.38
		c5.9,0,10.89,1.76,14.96,5.29c3.08,2.66,5.14,5.96,6.2,9.89s1.59,10.35,1.59,19.26l-0.12,37.7l0.19,18.97h-31.67l0.21-22.63
		l0.16-16.61l-0.06-25.08c-0.04-5.81-0.09-9.27-0.16-10.38s-0.26-2.1-0.59-2.97c-0.66-1.74-2.1-2.61-4.3-2.61
		c-2.04,0-4.24,0.76-6.61,2.28s-4.92,3.8-7.67,6.84l-0.06,3.34l-0.12,22.88l-0.12,17.51l0.19,23.94l0.06,3.5h-31.85l0.19-31.92
		l0.19-21.09l-0.19-18.24l-0.19-17.67H1264.91z"/>
	<path class="st0" d="M1373.49,761.18v-9.93c-0.04-6.89-0.13-11.13-0.25-12.7c-0.12-1.57-0.5-2.99-1.12-4.23
		c-1.5-3.04-5-4.56-10.49-4.56c-8.49,0-15.05,3.47-19.67,10.42c-1.87,2.82-3.45,4.23-4.74,4.23c-0.96,0-1.79-0.43-2.5-1.3
		c-0.71-0.87-1.06-1.87-1.06-3.01c0-3.42,3.1-6.95,9.29-10.58c5.9-3.47,13.53-5.21,22.88-5.21c15.38,0,26.22,3.04,32.54,9.12
		c2.74,2.66,4.53,5.65,5.36,8.96s1.25,9.15,1.25,17.51v32.32c-0.17,5.97-0.03,10.46,0.41,13.47c0.44,3.01,1.42,6.26,2.96,9.73
		h-34.91v-8.55c-3.82,3.42-7.62,6-11.38,7.73c-3.76,1.74-7.47,2.61-11.13,2.61c-6.19,0-11.7-2.36-16.52-7.08
		c-6.28-6.19-9.41-14.22-9.41-24.1c0-8.74,2.54-15.8,7.62-21.17c5.91-6.35,13.23-9.53,21.97-9.53c3.58,0,6.74,0.42,9.49,1.26
		C1366.82,757.42,1369.96,758.96,1373.49,761.18z M1373.49,767.04c-5.24-3.42-9.29-5.13-12.16-5.13c-2.41,0-3.99,1.25-4.74,3.75
		c-0.42,1.36-0.62,5.29-0.62,11.81v19.46c0.04,4.29,0.15,6.89,0.31,7.82c0.42,2.5,1.83,3.75,4.24,3.75c1.91,0,4.04-0.75,6.39-2.24
		s4.5-3.46,6.45-5.9L1373.49,767.04z"/>
</g>
</svg>
